%TF.GenerationSoftware,KiCad,Pcbnew,6.0.7-f9a2dced07~116~ubuntu20.04.1*%
%TF.CreationDate,2022-08-31T16:11:48+02:00*%
%TF.ProjectId,dumber-v3,64756d62-6572-42d7-9633-2e6b69636164,1.1*%
%TF.SameCoordinates,Original*%
%TF.FileFunction,Other,User*%
%FSLAX46Y46*%
G04 Gerber Fmt 4.6, Leading zero omitted, Abs format (unit mm)*
G04 Created by KiCad (PCBNEW 6.0.7-f9a2dced07~116~ubuntu20.04.1) date 2022-08-31 16:11:48*
%MOMM*%
%LPD*%
G01*
G04 APERTURE LIST*
%TA.AperFunction,Profile*%
%ADD10C,0.010050*%
%TD*%
%TA.AperFunction,Profile*%
%ADD11C,0.500000*%
%TD*%
%ADD12C,0.120000*%
%ADD13C,0.050000*%
G04 APERTURE END LIST*
D10*
X173755025Y-70000000D02*
G75*
G03*
X173755025Y-70000000I-5025J0D01*
G01*
X141505025Y-86500000D02*
G75*
G03*
X141505025Y-86500000I-5025J0D01*
G01*
D11*
X175350000Y-70000000D02*
G75*
G03*
X175350000Y-70000000I-1600000J0D01*
G01*
X142550000Y-86500000D02*
G75*
G03*
X142550000Y-86500000I-1050000J0D01*
G01*
X167750000Y-63000000D02*
X167750000Y-71500000D01*
X109750000Y-96000000D02*
X109750000Y-116000000D01*
X129350000Y-142000000D02*
G75*
G03*
X129350000Y-142000000I-1600000J0D01*
G01*
X127750000Y-63000000D02*
G75*
G03*
X109750000Y-96000000I21250000J-33000000D01*
G01*
X197750000Y-127000000D02*
X197750000Y-85000000D01*
X129350000Y-70000000D02*
G75*
G03*
X129350000Y-70000000I-1600000J0D01*
G01*
X167750000Y-149000000D02*
X172750000Y-149000000D01*
X172750000Y-63000000D02*
X167750000Y-63000000D01*
D10*
X172755025Y-123795455D02*
G75*
G03*
X172755025Y-123795455I-5025J0D01*
G01*
X159005025Y-125500000D02*
G75*
G03*
X159005025Y-125500000I-5025J0D01*
G01*
X159005025Y-86500000D02*
G75*
G03*
X159005025Y-86500000I-5025J0D01*
G01*
X172755025Y-88204545D02*
G75*
G03*
X172755025Y-88204545I-5025J0D01*
G01*
X149005025Y-116000000D02*
G75*
G03*
X149005025Y-116000000I-5025J0D01*
G01*
D11*
X132750000Y-149000000D02*
X132750000Y-140500000D01*
X167750000Y-140500000D02*
X167750000Y-149000000D01*
X127750000Y-149000000D02*
X132750000Y-149000000D01*
X167750000Y-71500000D02*
X132750000Y-71500000D01*
D10*
X127755025Y-70000000D02*
G75*
G03*
X127755025Y-70000000I-5025J0D01*
G01*
D11*
X109750000Y-116000000D02*
G75*
G03*
X127750000Y-149000000I39250000J0D01*
G01*
X175350000Y-142000000D02*
G75*
G03*
X175350000Y-142000000I-1600000J0D01*
G01*
D10*
X149005025Y-96000000D02*
G75*
G03*
X149005025Y-96000000I-5025J0D01*
G01*
D11*
X132750000Y-63000000D02*
X127750000Y-63000000D01*
X132750000Y-71500000D02*
X132750000Y-63000000D01*
X197750047Y-84999994D02*
G75*
G03*
X172750000Y-63000000I-25000047J-3204606D01*
G01*
X160050000Y-86500000D02*
G75*
G03*
X160050000Y-86500000I-1050000J0D01*
G01*
D10*
X173755025Y-142000000D02*
G75*
G03*
X173755025Y-142000000I-5025J0D01*
G01*
X141505025Y-125500000D02*
G75*
G03*
X141505025Y-125500000I-5025J0D01*
G01*
D11*
X132750000Y-140500000D02*
X167750000Y-140500000D01*
X160050000Y-125500000D02*
G75*
G03*
X160050000Y-125500000I-1050000J0D01*
G01*
X142550000Y-125500000D02*
G75*
G03*
X142550000Y-125500000I-1050000J0D01*
G01*
X172750000Y-149000005D02*
G75*
G03*
X197750000Y-127000000I0J25204545D01*
G01*
D10*
X127755025Y-142000000D02*
G75*
G03*
X127755025Y-142000000I-5025J0D01*
G01*
D12*
%TO.C,M1*%
X142650000Y-139000000D02*
X142650000Y-121000000D01*
X157650000Y-121000000D02*
X159150000Y-121000000D01*
X142650000Y-121000000D02*
X157650000Y-121000000D01*
X134150000Y-143000000D02*
X166150000Y-143000000D01*
X166150000Y-143000000D02*
X166150000Y-150000000D01*
X146650000Y-143000000D02*
X146650000Y-139000000D01*
X156150000Y-109000000D02*
X156150000Y-121000000D01*
X144150000Y-109000000D02*
X156150000Y-109000000D01*
X142650000Y-125500000D02*
X142650000Y-130000000D01*
X142650000Y-130000000D02*
X141150000Y-130000000D01*
X153650000Y-139000000D02*
X153650000Y-143000000D01*
X157650000Y-121000000D02*
X157650000Y-139000000D01*
X157650000Y-130000000D02*
X159150000Y-130000000D01*
X147150000Y-139000000D02*
X154150000Y-139000000D01*
X134150000Y-150000000D02*
X134150000Y-143000000D01*
X157650000Y-139000000D02*
X142650000Y-139000000D01*
X166150000Y-150000000D02*
X134150000Y-150000000D01*
X142650000Y-121000000D02*
X141150000Y-121000000D01*
X144150000Y-121000000D02*
X144150000Y-109000000D01*
X141150000Y-121000000D02*
G75*
G03*
X141150000Y-130000000I0J-4500000D01*
G01*
X159150000Y-130000000D02*
G75*
G03*
X159150000Y-121000000I0J4500000D01*
G01*
X143400000Y-125500000D02*
G75*
G03*
X143400000Y-125500000I-2000000J0D01*
G01*
X161150000Y-125500000D02*
G75*
G03*
X161150000Y-125500000I-2000000J0D01*
G01*
D13*
%TO.C,SW1*%
X118134202Y-84496404D02*
X113233666Y-81999456D01*
X121675328Y-77546553D02*
X116774792Y-75049605D01*
X121675328Y-77546553D02*
X118134202Y-84496404D01*
X116774792Y-75049605D02*
X113233666Y-81999456D01*
%TO.C,J1*%
X134680000Y-76310000D02*
X124780000Y-76310000D01*
X134680000Y-92600000D02*
X134680000Y-76310000D01*
X124780000Y-76310000D02*
X124780000Y-92600000D01*
X124780000Y-92600000D02*
X134680000Y-92600000D01*
%TO.C,D2*%
X169390000Y-83510000D02*
X165890000Y-83510000D01*
X169390000Y-76510000D02*
X169390000Y-83510000D01*
X165890000Y-76510000D02*
X169390000Y-76510000D01*
X165890000Y-83510000D02*
X165890000Y-76510000D01*
%TO.C,D5*%
X116620077Y-135647724D02*
X115670077Y-134002276D01*
X118579923Y-132322276D02*
X119529923Y-133967724D01*
X119529923Y-133967724D02*
X116620077Y-135647724D01*
X115670077Y-134002276D02*
X118579923Y-132322276D01*
D12*
%TO.C,M2*%
X153900000Y-69000000D02*
X153900000Y-73000000D01*
X144400000Y-103000000D02*
X144400000Y-91000000D01*
X146900000Y-73000000D02*
X146900000Y-69000000D01*
X142900000Y-91000000D02*
X142900000Y-73000000D01*
X157900000Y-91000000D02*
X142900000Y-91000000D01*
X134400000Y-62000000D02*
X166400000Y-62000000D01*
X156400000Y-103000000D02*
X144400000Y-103000000D01*
X134400000Y-69000000D02*
X134400000Y-62000000D01*
X156400000Y-91000000D02*
X156400000Y-103000000D01*
X142900000Y-82000000D02*
X141400000Y-82000000D01*
X157900000Y-86500000D02*
X157900000Y-82000000D01*
X166400000Y-62000000D02*
X166400000Y-69000000D01*
X157900000Y-73000000D02*
X157900000Y-91000000D01*
X153400000Y-73000000D02*
X146400000Y-73000000D01*
X142900000Y-91000000D02*
X141400000Y-91000000D01*
X142900000Y-73000000D02*
X157900000Y-73000000D01*
X166400000Y-69000000D02*
X134400000Y-69000000D01*
X157900000Y-82000000D02*
X159400000Y-82000000D01*
X157900000Y-91000000D02*
X159400000Y-91000000D01*
X141400000Y-82000000D02*
G75*
G03*
X141400000Y-91000000I0J-4500000D01*
G01*
X159400000Y-91000000D02*
G75*
G03*
X159400000Y-82000000I0J4500000D01*
G01*
X143400000Y-86500000D02*
G75*
G03*
X143400000Y-86500000I-2000000J0D01*
G01*
X161150000Y-86500000D02*
G75*
G03*
X161150000Y-86500000I-2000000J0D01*
G01*
%TO.C,BT1*%
X172500000Y-136000000D02*
X188500000Y-136000000D01*
X188500000Y-136000000D02*
X188500000Y-76000000D01*
X188500000Y-76000000D02*
X172500000Y-76000000D01*
X172500000Y-76000000D02*
X172500000Y-136000000D01*
D13*
%TO.C,J2*%
X124780000Y-135600000D02*
X134680000Y-135600000D01*
X134680000Y-119310000D02*
X124780000Y-119310000D01*
X134680000Y-135600000D02*
X134680000Y-119310000D01*
X124780000Y-119310000D02*
X124780000Y-135600000D01*
%TO.C,P1*%
X190645000Y-100750000D02*
X198355000Y-100750000D01*
X198355000Y-111300000D02*
X198355000Y-100750000D01*
X190645000Y-111300000D02*
X190645000Y-100750000D01*
X190645000Y-111300000D02*
X198355000Y-111300000D01*
%TO.C,J3*%
X160165000Y-109745000D02*
X168765000Y-109745000D01*
X168765000Y-102345000D02*
X160165000Y-102345000D01*
X160165000Y-102345000D02*
X160165000Y-109745000D01*
X168765000Y-109745000D02*
X168765000Y-102345000D01*
%TO.C,L2*%
X164755000Y-89825000D02*
X164755000Y-94325000D01*
X169255000Y-94325000D02*
X169255000Y-89825000D01*
X164755000Y-94325000D02*
X169255000Y-94325000D01*
X169255000Y-89825000D02*
X164755000Y-89825000D01*
D12*
%TO.C,U1*%
X111835000Y-101200000D02*
X118335000Y-93600000D01*
X111835000Y-110400000D02*
X118335000Y-118000000D01*
X139435000Y-118000000D02*
X139435000Y-93600000D01*
X111835000Y-110400000D02*
X111835000Y-101200000D01*
X139435000Y-93600000D02*
X118335000Y-93600000D01*
X139435000Y-118000000D02*
X118335000Y-118000000D01*
D13*
%TO.C,D4*%
X118388923Y-132062724D02*
X115479077Y-133742724D01*
X115479077Y-133742724D02*
X114529077Y-132097276D01*
X114529077Y-132097276D02*
X117438923Y-130417276D01*
X117438923Y-130417276D02*
X118388923Y-132062724D01*
%TO.C,D3*%
X113470077Y-130192276D02*
X116379923Y-128512276D01*
X117329923Y-130157724D02*
X114420077Y-131837724D01*
X116379923Y-128512276D02*
X117329923Y-130157724D01*
X114420077Y-131837724D02*
X113470077Y-130192276D01*
%TD*%
M02*
