%TF.GenerationSoftware,KiCad,Pcbnew,6.0.7-f9a2dced07~116~ubuntu20.04.1*%
%TF.CreationDate,2022-08-31T16:11:48+02:00*%
%TF.ProjectId,dumber-v3,64756d62-6572-42d7-9633-2e6b69636164,1.1*%
%TF.SameCoordinates,Original*%
%TF.FileFunction,Other,User*%
%FSLAX46Y46*%
G04 Gerber Fmt 4.6, Leading zero omitted, Abs format (unit mm)*
G04 Created by KiCad (PCBNEW 6.0.7-f9a2dced07~116~ubuntu20.04.1) date 2022-08-31 16:11:48*
%MOMM*%
%LPD*%
G01*
G04 APERTURE LIST*
%TA.AperFunction,Profile*%
%ADD10C,0.010050*%
%TD*%
%TA.AperFunction,Profile*%
%ADD11C,0.500000*%
%TD*%
%ADD12C,0.050000*%
G04 APERTURE END LIST*
D10*
X173755025Y-70000000D02*
G75*
G03*
X173755025Y-70000000I-5025J0D01*
G01*
X141505025Y-86500000D02*
G75*
G03*
X141505025Y-86500000I-5025J0D01*
G01*
D11*
X175350000Y-70000000D02*
G75*
G03*
X175350000Y-70000000I-1600000J0D01*
G01*
X142550000Y-86500000D02*
G75*
G03*
X142550000Y-86500000I-1050000J0D01*
G01*
X167750000Y-63000000D02*
X167750000Y-71500000D01*
X109750000Y-96000000D02*
X109750000Y-116000000D01*
X129350000Y-142000000D02*
G75*
G03*
X129350000Y-142000000I-1600000J0D01*
G01*
X127750000Y-63000000D02*
G75*
G03*
X109750000Y-96000000I21250000J-33000000D01*
G01*
X197750000Y-127000000D02*
X197750000Y-85000000D01*
X129350000Y-70000000D02*
G75*
G03*
X129350000Y-70000000I-1600000J0D01*
G01*
X167750000Y-149000000D02*
X172750000Y-149000000D01*
X172750000Y-63000000D02*
X167750000Y-63000000D01*
D10*
X172755025Y-123795455D02*
G75*
G03*
X172755025Y-123795455I-5025J0D01*
G01*
X159005025Y-125500000D02*
G75*
G03*
X159005025Y-125500000I-5025J0D01*
G01*
X159005025Y-86500000D02*
G75*
G03*
X159005025Y-86500000I-5025J0D01*
G01*
X172755025Y-88204545D02*
G75*
G03*
X172755025Y-88204545I-5025J0D01*
G01*
X149005025Y-116000000D02*
G75*
G03*
X149005025Y-116000000I-5025J0D01*
G01*
D11*
X132750000Y-149000000D02*
X132750000Y-140500000D01*
X167750000Y-140500000D02*
X167750000Y-149000000D01*
X127750000Y-149000000D02*
X132750000Y-149000000D01*
X167750000Y-71500000D02*
X132750000Y-71500000D01*
D10*
X127755025Y-70000000D02*
G75*
G03*
X127755025Y-70000000I-5025J0D01*
G01*
D11*
X109750000Y-116000000D02*
G75*
G03*
X127750000Y-149000000I39250000J0D01*
G01*
X175350000Y-142000000D02*
G75*
G03*
X175350000Y-142000000I-1600000J0D01*
G01*
D10*
X149005025Y-96000000D02*
G75*
G03*
X149005025Y-96000000I-5025J0D01*
G01*
D11*
X132750000Y-63000000D02*
X127750000Y-63000000D01*
X132750000Y-71500000D02*
X132750000Y-63000000D01*
X197750047Y-84999994D02*
G75*
G03*
X172750000Y-63000000I-25000047J-3204606D01*
G01*
X160050000Y-86500000D02*
G75*
G03*
X160050000Y-86500000I-1050000J0D01*
G01*
D10*
X173755025Y-142000000D02*
G75*
G03*
X173755025Y-142000000I-5025J0D01*
G01*
X141505025Y-125500000D02*
G75*
G03*
X141505025Y-125500000I-5025J0D01*
G01*
D11*
X132750000Y-140500000D02*
X167750000Y-140500000D01*
X160050000Y-125500000D02*
G75*
G03*
X160050000Y-125500000I-1050000J0D01*
G01*
X142550000Y-125500000D02*
G75*
G03*
X142550000Y-125500000I-1050000J0D01*
G01*
X172750000Y-149000005D02*
G75*
G03*
X197750000Y-127000000I0J25204545D01*
G01*
D10*
X127755025Y-142000000D02*
G75*
G03*
X127755025Y-142000000I-5025J0D01*
G01*
D12*
%TO.C,D1*%
X136495000Y-102265000D02*
X139095000Y-102265000D01*
X139095000Y-99665000D02*
X136495000Y-99665000D01*
X136495000Y-99665000D02*
X136495000Y-102265000D01*
X139095000Y-99665000D02*
X139095000Y-102265000D01*
%TO.C,C17*%
X155230000Y-104345000D02*
X155230000Y-107745000D01*
X155230000Y-107745000D02*
X157190000Y-107745000D01*
X157190000Y-107745000D02*
X157190000Y-104345000D01*
X157190000Y-104345000D02*
X155230000Y-104345000D01*
%TO.C,R10*%
X176432000Y-80050000D02*
X173072000Y-80050000D01*
X173072000Y-80050000D02*
X173072000Y-81950000D01*
X173072000Y-81950000D02*
X176432000Y-81950000D01*
X176432000Y-81950000D02*
X176432000Y-80050000D01*
%TO.C,U2*%
X153645000Y-109280000D02*
X154245000Y-109280000D01*
X150495000Y-118180000D02*
X153645000Y-118180000D01*
X145345000Y-116180000D02*
X145345000Y-113030000D01*
X153645000Y-116780000D02*
X154245000Y-116780000D01*
X153645000Y-118180000D02*
X153645000Y-116780000D01*
X154245000Y-116780000D02*
X154245000Y-116180000D01*
X147345000Y-109280000D02*
X146745000Y-109280000D01*
X155645000Y-116180000D02*
X155645000Y-113030000D01*
X147345000Y-118180000D02*
X147345000Y-116780000D01*
X146745000Y-116780000D02*
X146745000Y-116180000D01*
X150495000Y-118180000D02*
X147345000Y-118180000D01*
X150495000Y-107880000D02*
X147345000Y-107880000D01*
X155645000Y-109880000D02*
X155645000Y-113030000D01*
X146745000Y-116180000D02*
X145345000Y-116180000D01*
X146745000Y-109280000D02*
X146745000Y-109880000D01*
X154245000Y-116180000D02*
X155645000Y-116180000D01*
X146745000Y-109880000D02*
X145345000Y-109880000D01*
X147345000Y-116780000D02*
X146745000Y-116780000D01*
X145345000Y-109880000D02*
X145345000Y-113030000D01*
X150495000Y-107880000D02*
X153645000Y-107880000D01*
X153645000Y-107880000D02*
X153645000Y-109280000D01*
X154245000Y-109880000D02*
X155645000Y-109880000D01*
X154245000Y-109280000D02*
X154245000Y-109880000D01*
X147345000Y-107880000D02*
X147345000Y-109280000D01*
%TO.C,C4*%
X183805000Y-113870000D02*
X183805000Y-117270000D01*
X183805000Y-117270000D02*
X185765000Y-117270000D01*
X185765000Y-113870000D02*
X183805000Y-113870000D01*
X185765000Y-117270000D02*
X185765000Y-113870000D01*
%TO.C,R7*%
X172945000Y-113980000D02*
X176305000Y-113980000D01*
X176305000Y-112080000D02*
X172945000Y-112080000D01*
X172945000Y-112080000D02*
X172945000Y-113980000D01*
X176305000Y-113980000D02*
X176305000Y-112080000D01*
%TO.C,C20*%
X140625000Y-110060000D02*
X140625000Y-113460000D01*
X140625000Y-113460000D02*
X142585000Y-113460000D01*
X142585000Y-113460000D02*
X142585000Y-110060000D01*
X142585000Y-110060000D02*
X140625000Y-110060000D01*
%TO.C,R17*%
X171225000Y-124140000D02*
X171225000Y-122240000D01*
X171225000Y-122240000D02*
X167865000Y-122240000D01*
X167865000Y-124140000D02*
X171225000Y-124140000D01*
X167865000Y-122240000D02*
X167865000Y-124140000D01*
%TO.C,C6*%
X171975000Y-101255000D02*
X171975000Y-103215000D01*
X175375000Y-103215000D02*
X175375000Y-101255000D01*
X175375000Y-101255000D02*
X171975000Y-101255000D01*
X171975000Y-103215000D02*
X175375000Y-103215000D01*
%TO.C,R3*%
X177932500Y-123505000D02*
X177932500Y-121605000D01*
X174572500Y-123505000D02*
X177932500Y-123505000D01*
X174572500Y-121605000D02*
X174572500Y-123505000D01*
X177932500Y-121605000D02*
X174572500Y-121605000D01*
%TO.C,C19*%
X143800000Y-118000000D02*
X143800000Y-121400000D01*
X143800000Y-121400000D02*
X145760000Y-121400000D01*
X145760000Y-121400000D02*
X145760000Y-118000000D01*
X145760000Y-118000000D02*
X143800000Y-118000000D01*
%TO.C,U3*%
X116060000Y-103300000D02*
X116060000Y-99900000D01*
X116060000Y-99900000D02*
X120160000Y-99900000D01*
X120160000Y-99900000D02*
X120160000Y-103300000D01*
X120160000Y-103300000D02*
X116060000Y-103300000D01*
%TO.C,Q2*%
X129685000Y-110990000D02*
X133205000Y-110990000D01*
X133205000Y-107440000D02*
X133205000Y-110990000D01*
X133205000Y-107440000D02*
X129685000Y-107440000D01*
X129685000Y-110990000D02*
X129685000Y-107440000D01*
%TO.C,R24*%
X133125000Y-111445000D02*
X129765000Y-111445000D01*
X129765000Y-111445000D02*
X129765000Y-113345000D01*
X129765000Y-113345000D02*
X133125000Y-113345000D01*
X133125000Y-113345000D02*
X133125000Y-111445000D01*
%TO.C,R1*%
X129765000Y-103190000D02*
X129765000Y-105090000D01*
X129765000Y-105090000D02*
X133125000Y-105090000D01*
X133125000Y-103190000D02*
X129765000Y-103190000D01*
X133125000Y-105090000D02*
X133125000Y-103190000D01*
%TO.C,C7*%
X183805000Y-128790000D02*
X183805000Y-132190000D01*
X183805000Y-132190000D02*
X185765000Y-132190000D01*
X185765000Y-128790000D02*
X183805000Y-128790000D01*
X185765000Y-132190000D02*
X185765000Y-128790000D01*
%TO.C,R16*%
X115890000Y-122607500D02*
X117790000Y-122607500D01*
X115890000Y-119247500D02*
X115890000Y-122607500D01*
X117790000Y-119247500D02*
X115890000Y-119247500D01*
X117790000Y-122607500D02*
X117790000Y-119247500D01*
%TO.C,R13*%
X179385000Y-111535000D02*
X179385000Y-108175000D01*
X179385000Y-108175000D02*
X177485000Y-108175000D01*
X177485000Y-111535000D02*
X179385000Y-111535000D01*
X177485000Y-108175000D02*
X177485000Y-111535000D01*
%TO.C,U7*%
X153845000Y-103030000D02*
X147145000Y-103030000D01*
X147145000Y-97630000D02*
X147145000Y-103030000D01*
X153845000Y-97630000D02*
X147145000Y-97630000D01*
X153845000Y-97630000D02*
X153845000Y-103030000D01*
%TO.C,R21*%
X176305000Y-114620000D02*
X172945000Y-114620000D01*
X172945000Y-116520000D02*
X176305000Y-116520000D01*
X176305000Y-116520000D02*
X176305000Y-114620000D01*
X172945000Y-114620000D02*
X172945000Y-116520000D01*
%TO.C,C3*%
X187615000Y-104345000D02*
X187615000Y-107745000D01*
X187615000Y-107745000D02*
X189575000Y-107745000D01*
X189575000Y-104345000D02*
X187615000Y-104345000D01*
X189575000Y-107745000D02*
X189575000Y-104345000D01*
%TO.C,R2*%
X120875000Y-101285000D02*
X120875000Y-103185000D01*
X120875000Y-103185000D02*
X124235000Y-103185000D01*
X124235000Y-103185000D02*
X124235000Y-101285000D01*
X124235000Y-101285000D02*
X120875000Y-101285000D01*
%TO.C,JP1*%
X152795000Y-125115000D02*
X152795000Y-127615000D01*
X148195000Y-127615000D02*
X148195000Y-125115000D01*
X148195000Y-127615000D02*
X152795000Y-127615000D01*
X152795000Y-125115000D02*
X148195000Y-125115000D01*
%TO.C,C8*%
X175055000Y-92552500D02*
X175055000Y-90592500D01*
X171655000Y-92552500D02*
X175055000Y-92552500D01*
X171655000Y-90592500D02*
X171655000Y-92552500D01*
X175055000Y-90592500D02*
X171655000Y-90592500D01*
%TO.C,R5*%
X174572500Y-120965000D02*
X177932500Y-120965000D01*
X174572500Y-119065000D02*
X174572500Y-120965000D01*
X177932500Y-120965000D02*
X177932500Y-119065000D01*
X177932500Y-119065000D02*
X174572500Y-119065000D01*
%TO.C,R11*%
X181916500Y-85278000D02*
X181916500Y-83378000D01*
X178556500Y-85278000D02*
X181916500Y-85278000D01*
X181916500Y-83378000D02*
X178556500Y-83378000D01*
X178556500Y-83378000D02*
X178556500Y-85278000D01*
%TO.C,C5*%
X185892000Y-86028000D02*
X185892000Y-82628000D01*
X183932000Y-86028000D02*
X185892000Y-86028000D01*
X185892000Y-82628000D02*
X183932000Y-82628000D01*
X183932000Y-82628000D02*
X183932000Y-86028000D01*
%TO.C,R18*%
X171225000Y-124780000D02*
X167865000Y-124780000D01*
X167865000Y-126680000D02*
X171225000Y-126680000D01*
X171225000Y-126680000D02*
X171225000Y-124780000D01*
X167865000Y-124780000D02*
X167865000Y-126680000D01*
%TO.C,R19*%
X167865000Y-130495000D02*
X167865000Y-132395000D01*
X167865000Y-132395000D02*
X171225000Y-132395000D01*
X171225000Y-130495000D02*
X167865000Y-130495000D01*
X171225000Y-132395000D02*
X171225000Y-130495000D01*
%TO.C,C13*%
X120125000Y-113320000D02*
X116725000Y-113320000D01*
X116725000Y-113320000D02*
X116725000Y-115280000D01*
X120125000Y-115280000D02*
X120125000Y-113320000D01*
X116725000Y-115280000D02*
X120125000Y-115280000D01*
%TO.C,U4*%
X178206400Y-113778600D02*
X178511200Y-113778600D01*
X182168800Y-116091400D02*
X182473600Y-116091400D01*
X179183600Y-116763800D02*
X179183600Y-117068600D01*
X179183600Y-116763800D02*
X178511200Y-116763800D01*
X182168800Y-113778600D02*
X182168800Y-113106200D01*
X178511200Y-116763800D02*
X178511200Y-116091400D01*
X179183600Y-113106200D02*
X178511200Y-113106200D01*
X182168800Y-116763800D02*
X182168800Y-116091400D01*
X181496400Y-116763800D02*
X182168800Y-116763800D01*
X178511200Y-116091400D02*
X178511200Y-116763800D01*
X181496400Y-112801400D02*
X179183600Y-112801400D01*
X182473600Y-113778600D02*
X182168800Y-113778600D01*
X178206400Y-116091400D02*
X178511200Y-116091400D01*
X179183600Y-117068600D02*
X181496400Y-117068600D01*
X182473600Y-116091400D02*
X182473600Y-113778600D01*
X178511200Y-116091400D02*
X178206400Y-116091400D01*
X182168800Y-113106200D02*
X181496400Y-113106200D01*
X181496400Y-117068600D02*
X181496400Y-116763800D01*
X179183600Y-112801400D02*
X179183600Y-113106200D01*
X182168800Y-116763800D02*
X181496400Y-116763800D01*
X178206400Y-116091400D02*
X178206400Y-113778600D01*
X181496400Y-116763800D02*
X181496400Y-117068600D01*
X182168800Y-116763800D02*
X182168800Y-116091400D01*
X179183600Y-117068600D02*
X179183600Y-116763800D01*
X181496400Y-117068600D02*
X179183600Y-117068600D01*
X181496400Y-112801400D02*
X179183600Y-112801400D01*
X181496400Y-113106200D02*
X181496400Y-112801400D01*
X178511200Y-113106200D02*
X178511200Y-113778600D01*
X179183600Y-113106200D02*
X178511200Y-113106200D01*
X181496400Y-113106200D02*
X181496400Y-112801400D01*
X182168800Y-113106200D02*
X181496400Y-113106200D01*
X178511200Y-116763800D02*
X179183600Y-116763800D01*
X178511200Y-113778600D02*
X178206400Y-113778600D01*
X178206400Y-113778600D02*
X178206400Y-116091400D01*
X179183600Y-112801400D02*
X179183600Y-113106200D01*
X182168800Y-113778600D02*
X182168800Y-113106200D01*
X182473600Y-116091400D02*
X182473600Y-113778600D01*
X182168800Y-116091400D02*
X182473600Y-116091400D01*
X182473600Y-113778600D02*
X182168800Y-113778600D01*
X178511200Y-113778600D02*
X178511200Y-113106200D01*
%TO.C,R9*%
X182020000Y-119446000D02*
X178660000Y-119446000D01*
X182020000Y-121346000D02*
X182020000Y-119446000D01*
X178660000Y-121346000D02*
X182020000Y-121346000D01*
X178660000Y-119446000D02*
X178660000Y-121346000D01*
%TO.C,R14*%
X184465000Y-108175000D02*
X182565000Y-108175000D01*
X184465000Y-111535000D02*
X184465000Y-108175000D01*
X182565000Y-108175000D02*
X182565000Y-111535000D01*
X182565000Y-111535000D02*
X184465000Y-111535000D01*
%TO.C,R29*%
X160975000Y-112977500D02*
X160975000Y-116337500D01*
X160975000Y-116337500D02*
X162875000Y-116337500D01*
X162875000Y-112977500D02*
X160975000Y-112977500D01*
X162875000Y-116337500D02*
X162875000Y-112977500D01*
%TO.C,C10*%
X166025000Y-88192500D02*
X167985000Y-88192500D01*
X166025000Y-84792500D02*
X166025000Y-88192500D01*
X167985000Y-88192500D02*
X167985000Y-84792500D01*
X167985000Y-84792500D02*
X166025000Y-84792500D01*
%TO.C,R26*%
X148910000Y-120240000D02*
X148910000Y-123600000D01*
X150810000Y-123600000D02*
X150810000Y-120240000D01*
X150810000Y-120240000D02*
X148910000Y-120240000D01*
X148910000Y-123600000D02*
X150810000Y-123600000D01*
%TO.C,R28*%
X165415000Y-112977500D02*
X163515000Y-112977500D01*
X163515000Y-116337500D02*
X165415000Y-116337500D01*
X165415000Y-116337500D02*
X165415000Y-112977500D01*
X163515000Y-112977500D02*
X163515000Y-116337500D01*
%TO.C,R8*%
X185862000Y-90072000D02*
X185862000Y-86712000D01*
X183962000Y-90072000D02*
X185862000Y-90072000D01*
X183962000Y-86712000D02*
X183962000Y-90072000D01*
X185862000Y-86712000D02*
X183962000Y-86712000D01*
%TO.C,R6*%
X124235000Y-98745000D02*
X120875000Y-98745000D01*
X124235000Y-100645000D02*
X124235000Y-98745000D01*
X120875000Y-100645000D02*
X124235000Y-100645000D01*
X120875000Y-98745000D02*
X120875000Y-100645000D01*
%TO.C,R25*%
X136205000Y-110900000D02*
X136205000Y-107540000D01*
X134305000Y-107540000D02*
X134305000Y-110900000D01*
X134305000Y-110900000D02*
X136205000Y-110900000D01*
X136205000Y-107540000D02*
X134305000Y-107540000D01*
%TO.C,R27*%
X167955000Y-112977500D02*
X166055000Y-112977500D01*
X166055000Y-116337500D02*
X167955000Y-116337500D01*
X166055000Y-112977500D02*
X166055000Y-116337500D01*
X167955000Y-116337500D02*
X167955000Y-112977500D01*
%TO.C,C14*%
X127840000Y-91150000D02*
X131240000Y-91150000D01*
X131240000Y-89190000D02*
X127840000Y-89190000D01*
X131240000Y-91150000D02*
X131240000Y-89190000D01*
X127840000Y-89190000D02*
X127840000Y-91150000D01*
%TO.C,R23*%
X119954000Y-119247500D02*
X119954000Y-122607500D01*
X121854000Y-122607500D02*
X121854000Y-119247500D01*
X119954000Y-122607500D02*
X121854000Y-122607500D01*
X121854000Y-119247500D02*
X119954000Y-119247500D01*
%TO.C,R12*%
X181925000Y-111535000D02*
X181925000Y-108175000D01*
X181925000Y-108175000D02*
X180025000Y-108175000D01*
X180025000Y-108175000D02*
X180025000Y-111535000D01*
X180025000Y-111535000D02*
X181925000Y-111535000D01*
%TO.C,C15*%
X125440000Y-130285000D02*
X125440000Y-126885000D01*
X123480000Y-130285000D02*
X125440000Y-130285000D01*
X123480000Y-126885000D02*
X123480000Y-130285000D01*
X125440000Y-126885000D02*
X123480000Y-126885000D01*
%TO.C,C12*%
X148734000Y-94016000D02*
X148734000Y-95976000D01*
X148734000Y-95976000D02*
X152134000Y-95976000D01*
X152134000Y-94016000D02*
X148734000Y-94016000D01*
X152134000Y-95976000D02*
X152134000Y-94016000D01*
%TO.C,C1*%
X113320000Y-99900000D02*
X113320000Y-103300000D01*
X115280000Y-103300000D02*
X115280000Y-99900000D01*
X113320000Y-103300000D02*
X115280000Y-103300000D01*
X115280000Y-99900000D02*
X113320000Y-99900000D01*
%TO.C,Q1*%
X133205000Y-99185000D02*
X129685000Y-99185000D01*
X129685000Y-102735000D02*
X133205000Y-102735000D01*
X133205000Y-99185000D02*
X133205000Y-102735000D01*
X129685000Y-102735000D02*
X129685000Y-99185000D01*
%TO.C,U6*%
X175690000Y-99972500D02*
X172290000Y-99972500D01*
X172290000Y-99972500D02*
X172290000Y-95872500D01*
X175690000Y-95872500D02*
X175690000Y-99972500D01*
X172290000Y-95872500D02*
X175690000Y-95872500D01*
%TO.C,C9*%
X179500000Y-103215000D02*
X179500000Y-101255000D01*
X179500000Y-101255000D02*
X176100000Y-101255000D01*
X176100000Y-103215000D02*
X179500000Y-103215000D01*
X176100000Y-101255000D02*
X176100000Y-103215000D01*
%TO.C,C11*%
X177455000Y-99490000D02*
X179415000Y-99490000D01*
X179415000Y-99490000D02*
X179415000Y-96090000D01*
X177455000Y-96090000D02*
X177455000Y-99490000D01*
X179415000Y-96090000D02*
X177455000Y-96090000D01*
%TO.C,C18*%
X158405000Y-112915000D02*
X158405000Y-116315000D01*
X160365000Y-112915000D02*
X158405000Y-112915000D01*
X158405000Y-116315000D02*
X160365000Y-116315000D01*
X160365000Y-116315000D02*
X160365000Y-112915000D01*
%TO.C,R22*%
X117922000Y-122607500D02*
X119822000Y-122607500D01*
X119822000Y-119247500D02*
X117922000Y-119247500D01*
X119822000Y-122607500D02*
X119822000Y-119247500D01*
X117922000Y-119247500D02*
X117922000Y-122607500D01*
%TO.C,U5*%
X177055000Y-83792500D02*
X177055000Y-89192500D01*
X169655000Y-89192500D02*
X169655000Y-83792500D01*
X177055000Y-89192500D02*
X169655000Y-89192500D01*
X169655000Y-83792500D02*
X177055000Y-83792500D01*
%TO.C,C16*%
X154420000Y-121575000D02*
X151020000Y-121575000D01*
X151020000Y-123535000D02*
X154420000Y-123535000D01*
X154420000Y-123535000D02*
X154420000Y-121575000D01*
X151020000Y-121575000D02*
X151020000Y-123535000D01*
%TO.C,R4*%
X124235000Y-105725000D02*
X124235000Y-103825000D01*
X124235000Y-103825000D02*
X120875000Y-103825000D01*
X120875000Y-105725000D02*
X124235000Y-105725000D01*
X120875000Y-103825000D02*
X120875000Y-105725000D01*
%TO.C,C2*%
X120125000Y-108295000D02*
X120125000Y-106335000D01*
X116725000Y-106335000D02*
X116725000Y-108295000D01*
X120125000Y-106335000D02*
X116725000Y-106335000D01*
X116725000Y-108295000D02*
X120125000Y-108295000D01*
%TO.C,R15*%
X170495000Y-99602500D02*
X170495000Y-96242500D01*
X170495000Y-96242500D02*
X168595000Y-96242500D01*
X168595000Y-96242500D02*
X168595000Y-99602500D01*
X168595000Y-99602500D02*
X170495000Y-99602500D01*
%TO.C,R20*%
X171225000Y-127955000D02*
X167865000Y-127955000D01*
X171225000Y-129855000D02*
X171225000Y-127955000D01*
X167865000Y-127955000D02*
X167865000Y-129855000D01*
X167865000Y-129855000D02*
X171225000Y-129855000D01*
%TD*%
M02*
