%TF.GenerationSoftware,KiCad,Pcbnew,6.0.7-f9a2dced07~116~ubuntu20.04.1*%
%TF.CreationDate,2022-08-31T16:11:48+02:00*%
%TF.ProjectId,dumber-v3,64756d62-6572-42d7-9633-2e6b69636164,1.1*%
%TF.SameCoordinates,Original*%
%TF.FileFunction,AssemblyDrawing,Bot*%
%FSLAX46Y46*%
G04 Gerber Fmt 4.6, Leading zero omitted, Abs format (unit mm)*
G04 Created by KiCad (PCBNEW 6.0.7-f9a2dced07~116~ubuntu20.04.1) date 2022-08-31 16:11:48*
%MOMM*%
%LPD*%
G01*
G04 APERTURE LIST*
%TA.AperFunction,Profile*%
%ADD10C,0.010050*%
%TD*%
%TA.AperFunction,Profile*%
%ADD11C,0.500000*%
%TD*%
%ADD12C,0.150000*%
%ADD13C,0.080000*%
%ADD14C,0.060000*%
%ADD15C,0.075000*%
%ADD16C,0.100000*%
G04 APERTURE END LIST*
D10*
X173755025Y-70000000D02*
G75*
G03*
X173755025Y-70000000I-5025J0D01*
G01*
X141505025Y-86500000D02*
G75*
G03*
X141505025Y-86500000I-5025J0D01*
G01*
D11*
X175350000Y-70000000D02*
G75*
G03*
X175350000Y-70000000I-1600000J0D01*
G01*
X142550000Y-86500000D02*
G75*
G03*
X142550000Y-86500000I-1050000J0D01*
G01*
X167750000Y-63000000D02*
X167750000Y-71500000D01*
X109750000Y-96000000D02*
X109750000Y-116000000D01*
X129350000Y-142000000D02*
G75*
G03*
X129350000Y-142000000I-1600000J0D01*
G01*
X127750000Y-63000000D02*
G75*
G03*
X109750000Y-96000000I21250000J-33000000D01*
G01*
X197750000Y-127000000D02*
X197750000Y-85000000D01*
X129350000Y-70000000D02*
G75*
G03*
X129350000Y-70000000I-1600000J0D01*
G01*
X167750000Y-149000000D02*
X172750000Y-149000000D01*
X172750000Y-63000000D02*
X167750000Y-63000000D01*
D10*
X172755025Y-123795455D02*
G75*
G03*
X172755025Y-123795455I-5025J0D01*
G01*
X159005025Y-125500000D02*
G75*
G03*
X159005025Y-125500000I-5025J0D01*
G01*
X159005025Y-86500000D02*
G75*
G03*
X159005025Y-86500000I-5025J0D01*
G01*
X172755025Y-88204545D02*
G75*
G03*
X172755025Y-88204545I-5025J0D01*
G01*
X149005025Y-116000000D02*
G75*
G03*
X149005025Y-116000000I-5025J0D01*
G01*
D11*
X132750000Y-149000000D02*
X132750000Y-140500000D01*
X167750000Y-140500000D02*
X167750000Y-149000000D01*
X127750000Y-149000000D02*
X132750000Y-149000000D01*
X167750000Y-71500000D02*
X132750000Y-71500000D01*
D10*
X127755025Y-70000000D02*
G75*
G03*
X127755025Y-70000000I-5025J0D01*
G01*
D11*
X109750000Y-116000000D02*
G75*
G03*
X127750000Y-149000000I39250000J0D01*
G01*
X175350000Y-142000000D02*
G75*
G03*
X175350000Y-142000000I-1600000J0D01*
G01*
D10*
X149005025Y-96000000D02*
G75*
G03*
X149005025Y-96000000I-5025J0D01*
G01*
D11*
X132750000Y-63000000D02*
X127750000Y-63000000D01*
X132750000Y-71500000D02*
X132750000Y-63000000D01*
X197750047Y-84999994D02*
G75*
G03*
X172750000Y-63000000I-25000047J-3204606D01*
G01*
X160050000Y-86500000D02*
G75*
G03*
X160050000Y-86500000I-1050000J0D01*
G01*
D10*
X173755025Y-142000000D02*
G75*
G03*
X173755025Y-142000000I-5025J0D01*
G01*
X141505025Y-125500000D02*
G75*
G03*
X141505025Y-125500000I-5025J0D01*
G01*
D11*
X132750000Y-140500000D02*
X167750000Y-140500000D01*
X160050000Y-125500000D02*
G75*
G03*
X160050000Y-125500000I-1050000J0D01*
G01*
X142550000Y-125500000D02*
G75*
G03*
X142550000Y-125500000I-1050000J0D01*
G01*
X172750000Y-149000005D02*
G75*
G03*
X197750000Y-127000000I0J25204545D01*
G01*
D10*
X127755025Y-142000000D02*
G75*
G03*
X127755025Y-142000000I-5025J0D01*
G01*
D12*
%TO.C,D1*%
X140647380Y-95945952D02*
X139647380Y-95945952D01*
X139647380Y-96326904D01*
X139695000Y-96422142D01*
X139742619Y-96469761D01*
X139837857Y-96517380D01*
X139980714Y-96517380D01*
X140075952Y-96469761D01*
X140123571Y-96422142D01*
X140171190Y-96326904D01*
X140171190Y-95945952D01*
X140647380Y-96945952D02*
X139647380Y-96945952D01*
X140361666Y-97279285D01*
X139647380Y-97612619D01*
X140647380Y-97612619D01*
X140123571Y-98088809D02*
X140123571Y-98422142D01*
X140647380Y-98565000D02*
X140647380Y-98088809D01*
X139647380Y-98088809D01*
X139647380Y-98565000D01*
X139695000Y-99517380D02*
X139647380Y-99422142D01*
X139647380Y-99279285D01*
X139695000Y-99136428D01*
X139790238Y-99041190D01*
X139885476Y-98993571D01*
X140075952Y-98945952D01*
X140218809Y-98945952D01*
X140409285Y-98993571D01*
X140504523Y-99041190D01*
X140599761Y-99136428D01*
X140647380Y-99279285D01*
X140647380Y-99374523D01*
X140599761Y-99517380D01*
X140552142Y-99565000D01*
X140218809Y-99565000D01*
X140218809Y-99374523D01*
X139742619Y-99945952D02*
X139695000Y-99993571D01*
X139647380Y-100088809D01*
X139647380Y-100326904D01*
X139695000Y-100422142D01*
X139742619Y-100469761D01*
X139837857Y-100517380D01*
X139933095Y-100517380D01*
X140075952Y-100469761D01*
X140647380Y-99898333D01*
X140647380Y-100517380D01*
X139647380Y-101136428D02*
X139647380Y-101231666D01*
X139695000Y-101326904D01*
X139742619Y-101374523D01*
X139837857Y-101422142D01*
X140028333Y-101469761D01*
X140266428Y-101469761D01*
X140456904Y-101422142D01*
X140552142Y-101374523D01*
X140599761Y-101326904D01*
X140647380Y-101231666D01*
X140647380Y-101136428D01*
X140599761Y-101041190D01*
X140552142Y-100993571D01*
X140456904Y-100945952D01*
X140266428Y-100898333D01*
X140028333Y-100898333D01*
X139837857Y-100945952D01*
X139742619Y-100993571D01*
X139695000Y-101041190D01*
X139647380Y-101136428D01*
X139742619Y-101850714D02*
X139695000Y-101898333D01*
X139647380Y-101993571D01*
X139647380Y-102231666D01*
X139695000Y-102326904D01*
X139742619Y-102374523D01*
X139837857Y-102422142D01*
X139933095Y-102422142D01*
X140075952Y-102374523D01*
X140647380Y-101803095D01*
X140647380Y-102422142D01*
X139647380Y-103041190D02*
X139647380Y-103136428D01*
X139695000Y-103231666D01*
X139742619Y-103279285D01*
X139837857Y-103326904D01*
X140028333Y-103374523D01*
X140266428Y-103374523D01*
X140456904Y-103326904D01*
X140552142Y-103279285D01*
X140599761Y-103231666D01*
X140647380Y-103136428D01*
X140647380Y-103041190D01*
X140599761Y-102945952D01*
X140552142Y-102898333D01*
X140456904Y-102850714D01*
X140266428Y-102803095D01*
X140028333Y-102803095D01*
X139837857Y-102850714D01*
X139742619Y-102898333D01*
X139695000Y-102945952D01*
X139647380Y-103041190D01*
X140552142Y-104374523D02*
X140599761Y-104326904D01*
X140647380Y-104184047D01*
X140647380Y-104088809D01*
X140599761Y-103945952D01*
X140504523Y-103850714D01*
X140409285Y-103803095D01*
X140218809Y-103755476D01*
X140075952Y-103755476D01*
X139885476Y-103803095D01*
X139790238Y-103850714D01*
X139695000Y-103945952D01*
X139647380Y-104088809D01*
X139647380Y-104184047D01*
X139695000Y-104326904D01*
X139742619Y-104374523D01*
X140647380Y-104803095D02*
X139647380Y-104803095D01*
X139647380Y-105184047D01*
X139695000Y-105279285D01*
X139742619Y-105326904D01*
X139837857Y-105374523D01*
X139980714Y-105374523D01*
X140075952Y-105326904D01*
X140123571Y-105279285D01*
X140171190Y-105184047D01*
X140171190Y-104803095D01*
X140361666Y-105755476D02*
X140361666Y-106231666D01*
X140647380Y-105660238D02*
X139647380Y-105993571D01*
X140647380Y-106326904D01*
X135947380Y-100826904D02*
X134947380Y-100826904D01*
X134947380Y-101065000D01*
X134995000Y-101207857D01*
X135090238Y-101303095D01*
X135185476Y-101350714D01*
X135375952Y-101398333D01*
X135518809Y-101398333D01*
X135709285Y-101350714D01*
X135804523Y-101303095D01*
X135899761Y-101207857D01*
X135947380Y-101065000D01*
X135947380Y-100826904D01*
X135947380Y-102350714D02*
X135947380Y-101779285D01*
X135947380Y-102065000D02*
X134947380Y-102065000D01*
X135090238Y-101969761D01*
X135185476Y-101874523D01*
X135233095Y-101779285D01*
%TO.C,C17*%
X154982380Y-104497380D02*
X154982380Y-103925952D01*
X154982380Y-104211666D02*
X153982380Y-104211666D01*
X154125238Y-104116428D01*
X154220476Y-104021190D01*
X154268095Y-103925952D01*
X153982380Y-105116428D02*
X153982380Y-105211666D01*
X154030000Y-105306904D01*
X154077619Y-105354523D01*
X154172857Y-105402142D01*
X154363333Y-105449761D01*
X154601428Y-105449761D01*
X154791904Y-105402142D01*
X154887142Y-105354523D01*
X154934761Y-105306904D01*
X154982380Y-105211666D01*
X154982380Y-105116428D01*
X154934761Y-105021190D01*
X154887142Y-104973571D01*
X154791904Y-104925952D01*
X154601428Y-104878333D01*
X154363333Y-104878333D01*
X154172857Y-104925952D01*
X154077619Y-104973571D01*
X154030000Y-105021190D01*
X153982380Y-105116428D01*
X153982380Y-106068809D02*
X153982380Y-106164047D01*
X154030000Y-106259285D01*
X154077619Y-106306904D01*
X154172857Y-106354523D01*
X154363333Y-106402142D01*
X154601428Y-106402142D01*
X154791904Y-106354523D01*
X154887142Y-106306904D01*
X154934761Y-106259285D01*
X154982380Y-106164047D01*
X154982380Y-106068809D01*
X154934761Y-105973571D01*
X154887142Y-105925952D01*
X154791904Y-105878333D01*
X154601428Y-105830714D01*
X154363333Y-105830714D01*
X154172857Y-105878333D01*
X154077619Y-105925952D01*
X154030000Y-105973571D01*
X153982380Y-106068809D01*
X154315714Y-106830714D02*
X154982380Y-106830714D01*
X154410952Y-106830714D02*
X154363333Y-106878333D01*
X154315714Y-106973571D01*
X154315714Y-107116428D01*
X154363333Y-107211666D01*
X154458571Y-107259285D01*
X154982380Y-107259285D01*
X154458571Y-108068809D02*
X154458571Y-107735476D01*
X154982380Y-107735476D02*
X153982380Y-107735476D01*
X153982380Y-108211666D01*
D13*
X156388571Y-105723571D02*
X156412380Y-105699761D01*
X156436190Y-105628333D01*
X156436190Y-105580714D01*
X156412380Y-105509285D01*
X156364761Y-105461666D01*
X156317142Y-105437857D01*
X156221904Y-105414047D01*
X156150476Y-105414047D01*
X156055238Y-105437857D01*
X156007619Y-105461666D01*
X155960000Y-105509285D01*
X155936190Y-105580714D01*
X155936190Y-105628333D01*
X155960000Y-105699761D01*
X155983809Y-105723571D01*
X156436190Y-106199761D02*
X156436190Y-105914047D01*
X156436190Y-106056904D02*
X155936190Y-106056904D01*
X156007619Y-106009285D01*
X156055238Y-105961666D01*
X156079047Y-105914047D01*
X155936190Y-106366428D02*
X155936190Y-106699761D01*
X156436190Y-106485476D01*
D12*
%TO.C,R10*%
X176775809Y-78802380D02*
X176156761Y-78802380D01*
X176490095Y-79183333D01*
X176347238Y-79183333D01*
X176252000Y-79230952D01*
X176204380Y-79278571D01*
X176156761Y-79373809D01*
X176156761Y-79611904D01*
X176204380Y-79707142D01*
X176252000Y-79754761D01*
X176347238Y-79802380D01*
X176632952Y-79802380D01*
X176728190Y-79754761D01*
X176775809Y-79707142D01*
X175728190Y-79707142D02*
X175680571Y-79754761D01*
X175728190Y-79802380D01*
X175775809Y-79754761D01*
X175728190Y-79707142D01*
X175728190Y-79802380D01*
X175347238Y-78802380D02*
X174680571Y-78802380D01*
X175109142Y-79802380D01*
X174347238Y-78897619D02*
X174299619Y-78850000D01*
X174204380Y-78802380D01*
X173966285Y-78802380D01*
X173871047Y-78850000D01*
X173823428Y-78897619D01*
X173775809Y-78992857D01*
X173775809Y-79088095D01*
X173823428Y-79230952D01*
X174394857Y-79802380D01*
X173775809Y-79802380D01*
X173347238Y-79802380D02*
X173347238Y-78802380D01*
X172775809Y-79802380D02*
X173204380Y-79230952D01*
X172775809Y-78802380D02*
X173347238Y-79373809D01*
D13*
X175073428Y-81226190D02*
X175240095Y-80988095D01*
X175359142Y-81226190D02*
X175359142Y-80726190D01*
X175168666Y-80726190D01*
X175121047Y-80750000D01*
X175097238Y-80773809D01*
X175073428Y-80821428D01*
X175073428Y-80892857D01*
X175097238Y-80940476D01*
X175121047Y-80964285D01*
X175168666Y-80988095D01*
X175359142Y-80988095D01*
X174597238Y-81226190D02*
X174882952Y-81226190D01*
X174740095Y-81226190D02*
X174740095Y-80726190D01*
X174787714Y-80797619D01*
X174835333Y-80845238D01*
X174882952Y-80869047D01*
X174287714Y-80726190D02*
X174240095Y-80726190D01*
X174192476Y-80750000D01*
X174168666Y-80773809D01*
X174144857Y-80821428D01*
X174121047Y-80916666D01*
X174121047Y-81035714D01*
X174144857Y-81130952D01*
X174168666Y-81178571D01*
X174192476Y-81202380D01*
X174240095Y-81226190D01*
X174287714Y-81226190D01*
X174335333Y-81202380D01*
X174359142Y-81178571D01*
X174382952Y-81130952D01*
X174406761Y-81035714D01*
X174406761Y-80916666D01*
X174382952Y-80821428D01*
X174359142Y-80773809D01*
X174335333Y-80750000D01*
X174287714Y-80726190D01*
D12*
%TO.C,U2*%
X156280714Y-107584761D02*
X156137857Y-107632380D01*
X155899761Y-107632380D01*
X155804523Y-107584761D01*
X155756904Y-107537142D01*
X155709285Y-107441904D01*
X155709285Y-107346666D01*
X155756904Y-107251428D01*
X155804523Y-107203809D01*
X155899761Y-107156190D01*
X156090238Y-107108571D01*
X156185476Y-107060952D01*
X156233095Y-107013333D01*
X156280714Y-106918095D01*
X156280714Y-106822857D01*
X156233095Y-106727619D01*
X156185476Y-106680000D01*
X156090238Y-106632380D01*
X155852142Y-106632380D01*
X155709285Y-106680000D01*
X155423571Y-106632380D02*
X154852142Y-106632380D01*
X155137857Y-107632380D02*
X155137857Y-106632380D01*
X154518809Y-107632380D02*
X154518809Y-106632380D01*
X154185476Y-107346666D01*
X153852142Y-106632380D01*
X153852142Y-107632380D01*
X153471190Y-106632380D02*
X152852142Y-106632380D01*
X153185476Y-107013333D01*
X153042619Y-107013333D01*
X152947380Y-107060952D01*
X152899761Y-107108571D01*
X152852142Y-107203809D01*
X152852142Y-107441904D01*
X152899761Y-107537142D01*
X152947380Y-107584761D01*
X153042619Y-107632380D01*
X153328333Y-107632380D01*
X153423571Y-107584761D01*
X153471190Y-107537142D01*
X152471190Y-106727619D02*
X152423571Y-106680000D01*
X152328333Y-106632380D01*
X152090238Y-106632380D01*
X151995000Y-106680000D01*
X151947380Y-106727619D01*
X151899761Y-106822857D01*
X151899761Y-106918095D01*
X151947380Y-107060952D01*
X152518809Y-107632380D01*
X151899761Y-107632380D01*
X150995000Y-107632380D02*
X151471190Y-107632380D01*
X151471190Y-106632380D01*
X150471190Y-106632380D02*
X150375952Y-106632380D01*
X150280714Y-106680000D01*
X150233095Y-106727619D01*
X150185476Y-106822857D01*
X150137857Y-107013333D01*
X150137857Y-107251428D01*
X150185476Y-107441904D01*
X150233095Y-107537142D01*
X150280714Y-107584761D01*
X150375952Y-107632380D01*
X150471190Y-107632380D01*
X150566428Y-107584761D01*
X150614047Y-107537142D01*
X150661666Y-107441904D01*
X150709285Y-107251428D01*
X150709285Y-107013333D01*
X150661666Y-106822857D01*
X150614047Y-106727619D01*
X150566428Y-106680000D01*
X150471190Y-106632380D01*
X149185476Y-107632380D02*
X149756904Y-107632380D01*
X149471190Y-107632380D02*
X149471190Y-106632380D01*
X149566428Y-106775238D01*
X149661666Y-106870476D01*
X149756904Y-106918095D01*
X148566428Y-106632380D02*
X148471190Y-106632380D01*
X148375952Y-106680000D01*
X148328333Y-106727619D01*
X148280714Y-106822857D01*
X148233095Y-107013333D01*
X148233095Y-107251428D01*
X148280714Y-107441904D01*
X148328333Y-107537142D01*
X148375952Y-107584761D01*
X148471190Y-107632380D01*
X148566428Y-107632380D01*
X148661666Y-107584761D01*
X148709285Y-107537142D01*
X148756904Y-107441904D01*
X148804523Y-107251428D01*
X148804523Y-107013333D01*
X148756904Y-106822857D01*
X148709285Y-106727619D01*
X148661666Y-106680000D01*
X148566428Y-106632380D01*
X147233095Y-107537142D02*
X147280714Y-107584761D01*
X147423571Y-107632380D01*
X147518809Y-107632380D01*
X147661666Y-107584761D01*
X147756904Y-107489523D01*
X147804523Y-107394285D01*
X147852142Y-107203809D01*
X147852142Y-107060952D01*
X147804523Y-106870476D01*
X147756904Y-106775238D01*
X147661666Y-106680000D01*
X147518809Y-106632380D01*
X147423571Y-106632380D01*
X147280714Y-106680000D01*
X147233095Y-106727619D01*
X146375952Y-106632380D02*
X146566428Y-106632380D01*
X146661666Y-106680000D01*
X146709285Y-106727619D01*
X146804523Y-106870476D01*
X146852142Y-107060952D01*
X146852142Y-107441904D01*
X146804523Y-107537142D01*
X146756904Y-107584761D01*
X146661666Y-107632380D01*
X146471190Y-107632380D01*
X146375952Y-107584761D01*
X146328333Y-107537142D01*
X146280714Y-107441904D01*
X146280714Y-107203809D01*
X146328333Y-107108571D01*
X146375952Y-107060952D01*
X146471190Y-107013333D01*
X146661666Y-107013333D01*
X146756904Y-107060952D01*
X146804523Y-107108571D01*
X146852142Y-107203809D01*
X145995000Y-106632380D02*
X145423571Y-106632380D01*
X145709285Y-107632380D02*
X145709285Y-106632380D01*
X145185476Y-107632380D02*
X144661666Y-106965714D01*
X145185476Y-106965714D02*
X144661666Y-107632380D01*
X151256904Y-112482380D02*
X151256904Y-113291904D01*
X151209285Y-113387142D01*
X151161666Y-113434761D01*
X151066428Y-113482380D01*
X150875952Y-113482380D01*
X150780714Y-113434761D01*
X150733095Y-113387142D01*
X150685476Y-113291904D01*
X150685476Y-112482380D01*
X150256904Y-112577619D02*
X150209285Y-112530000D01*
X150114047Y-112482380D01*
X149875952Y-112482380D01*
X149780714Y-112530000D01*
X149733095Y-112577619D01*
X149685476Y-112672857D01*
X149685476Y-112768095D01*
X149733095Y-112910952D01*
X150304523Y-113482380D01*
X149685476Y-113482380D01*
%TO.C,C4*%
X183557380Y-114498571D02*
X183557380Y-113927142D01*
X183557380Y-114212857D02*
X182557380Y-114212857D01*
X182700238Y-114117619D01*
X182795476Y-114022380D01*
X182843095Y-113927142D01*
X182557380Y-115117619D02*
X182557380Y-115212857D01*
X182605000Y-115308095D01*
X182652619Y-115355714D01*
X182747857Y-115403333D01*
X182938333Y-115450952D01*
X183176428Y-115450952D01*
X183366904Y-115403333D01*
X183462142Y-115355714D01*
X183509761Y-115308095D01*
X183557380Y-115212857D01*
X183557380Y-115117619D01*
X183509761Y-115022380D01*
X183462142Y-114974761D01*
X183366904Y-114927142D01*
X183176428Y-114879523D01*
X182938333Y-114879523D01*
X182747857Y-114927142D01*
X182652619Y-114974761D01*
X182605000Y-115022380D01*
X182557380Y-115117619D01*
X182890714Y-115879523D02*
X183557380Y-115879523D01*
X182985952Y-115879523D02*
X182938333Y-115927142D01*
X182890714Y-116022380D01*
X182890714Y-116165238D01*
X182938333Y-116260476D01*
X183033571Y-116308095D01*
X183557380Y-116308095D01*
X183033571Y-117117619D02*
X183033571Y-116784285D01*
X183557380Y-116784285D02*
X182557380Y-116784285D01*
X182557380Y-117260476D01*
D13*
X184963571Y-115486666D02*
X184987380Y-115462857D01*
X185011190Y-115391428D01*
X185011190Y-115343809D01*
X184987380Y-115272380D01*
X184939761Y-115224761D01*
X184892142Y-115200952D01*
X184796904Y-115177142D01*
X184725476Y-115177142D01*
X184630238Y-115200952D01*
X184582619Y-115224761D01*
X184535000Y-115272380D01*
X184511190Y-115343809D01*
X184511190Y-115391428D01*
X184535000Y-115462857D01*
X184558809Y-115486666D01*
X184677857Y-115915238D02*
X185011190Y-115915238D01*
X184487380Y-115796190D02*
X184844523Y-115677142D01*
X184844523Y-115986666D01*
D12*
%TO.C,R7*%
X174839285Y-115132380D02*
X175410714Y-115132380D01*
X175125000Y-115132380D02*
X175125000Y-114132380D01*
X175220238Y-114275238D01*
X175315476Y-114370476D01*
X175410714Y-114418095D01*
X174410714Y-115132380D02*
X174410714Y-114132380D01*
X173839285Y-115132380D02*
X174267857Y-114560952D01*
X173839285Y-114132380D02*
X174410714Y-114703809D01*
D13*
X174708333Y-113256190D02*
X174875000Y-113018095D01*
X174994047Y-113256190D02*
X174994047Y-112756190D01*
X174803571Y-112756190D01*
X174755952Y-112780000D01*
X174732142Y-112803809D01*
X174708333Y-112851428D01*
X174708333Y-112922857D01*
X174732142Y-112970476D01*
X174755952Y-112994285D01*
X174803571Y-113018095D01*
X174994047Y-113018095D01*
X174541666Y-112756190D02*
X174208333Y-112756190D01*
X174422619Y-113256190D01*
D12*
%TO.C,C20*%
X143737380Y-110212380D02*
X143737380Y-109640952D01*
X143737380Y-109926666D02*
X142737380Y-109926666D01*
X142880238Y-109831428D01*
X142975476Y-109736190D01*
X143023095Y-109640952D01*
X142737380Y-110831428D02*
X142737380Y-110926666D01*
X142785000Y-111021904D01*
X142832619Y-111069523D01*
X142927857Y-111117142D01*
X143118333Y-111164761D01*
X143356428Y-111164761D01*
X143546904Y-111117142D01*
X143642142Y-111069523D01*
X143689761Y-111021904D01*
X143737380Y-110926666D01*
X143737380Y-110831428D01*
X143689761Y-110736190D01*
X143642142Y-110688571D01*
X143546904Y-110640952D01*
X143356428Y-110593333D01*
X143118333Y-110593333D01*
X142927857Y-110640952D01*
X142832619Y-110688571D01*
X142785000Y-110736190D01*
X142737380Y-110831428D01*
X142737380Y-111783809D02*
X142737380Y-111879047D01*
X142785000Y-111974285D01*
X142832619Y-112021904D01*
X142927857Y-112069523D01*
X143118333Y-112117142D01*
X143356428Y-112117142D01*
X143546904Y-112069523D01*
X143642142Y-112021904D01*
X143689761Y-111974285D01*
X143737380Y-111879047D01*
X143737380Y-111783809D01*
X143689761Y-111688571D01*
X143642142Y-111640952D01*
X143546904Y-111593333D01*
X143356428Y-111545714D01*
X143118333Y-111545714D01*
X142927857Y-111593333D01*
X142832619Y-111640952D01*
X142785000Y-111688571D01*
X142737380Y-111783809D01*
X143070714Y-112545714D02*
X143737380Y-112545714D01*
X143165952Y-112545714D02*
X143118333Y-112593333D01*
X143070714Y-112688571D01*
X143070714Y-112831428D01*
X143118333Y-112926666D01*
X143213571Y-112974285D01*
X143737380Y-112974285D01*
X143213571Y-113783809D02*
X143213571Y-113450476D01*
X143737380Y-113450476D02*
X142737380Y-113450476D01*
X142737380Y-113926666D01*
D13*
X141783571Y-111438571D02*
X141807380Y-111414761D01*
X141831190Y-111343333D01*
X141831190Y-111295714D01*
X141807380Y-111224285D01*
X141759761Y-111176666D01*
X141712142Y-111152857D01*
X141616904Y-111129047D01*
X141545476Y-111129047D01*
X141450238Y-111152857D01*
X141402619Y-111176666D01*
X141355000Y-111224285D01*
X141331190Y-111295714D01*
X141331190Y-111343333D01*
X141355000Y-111414761D01*
X141378809Y-111438571D01*
X141378809Y-111629047D02*
X141355000Y-111652857D01*
X141331190Y-111700476D01*
X141331190Y-111819523D01*
X141355000Y-111867142D01*
X141378809Y-111890952D01*
X141426428Y-111914761D01*
X141474047Y-111914761D01*
X141545476Y-111890952D01*
X141831190Y-111605238D01*
X141831190Y-111914761D01*
X141331190Y-112224285D02*
X141331190Y-112271904D01*
X141355000Y-112319523D01*
X141378809Y-112343333D01*
X141426428Y-112367142D01*
X141521666Y-112390952D01*
X141640714Y-112390952D01*
X141735952Y-112367142D01*
X141783571Y-112343333D01*
X141807380Y-112319523D01*
X141831190Y-112271904D01*
X141831190Y-112224285D01*
X141807380Y-112176666D01*
X141783571Y-112152857D01*
X141735952Y-112129047D01*
X141640714Y-112105238D01*
X141521666Y-112105238D01*
X141426428Y-112129047D01*
X141378809Y-112152857D01*
X141355000Y-112176666D01*
X141331190Y-112224285D01*
D12*
%TO.C,R17*%
X170711666Y-125292380D02*
X171283095Y-125292380D01*
X170997380Y-125292380D02*
X170997380Y-124292380D01*
X171092619Y-124435238D01*
X171187857Y-124530476D01*
X171283095Y-124578095D01*
X169806904Y-124292380D02*
X170283095Y-124292380D01*
X170330714Y-124768571D01*
X170283095Y-124720952D01*
X170187857Y-124673333D01*
X169949761Y-124673333D01*
X169854523Y-124720952D01*
X169806904Y-124768571D01*
X169759285Y-124863809D01*
X169759285Y-125101904D01*
X169806904Y-125197142D01*
X169854523Y-125244761D01*
X169949761Y-125292380D01*
X170187857Y-125292380D01*
X170283095Y-125244761D01*
X170330714Y-125197142D01*
X169140238Y-124292380D02*
X169045000Y-124292380D01*
X168949761Y-124340000D01*
X168902142Y-124387619D01*
X168854523Y-124482857D01*
X168806904Y-124673333D01*
X168806904Y-124911428D01*
X168854523Y-125101904D01*
X168902142Y-125197142D01*
X168949761Y-125244761D01*
X169045000Y-125292380D01*
X169140238Y-125292380D01*
X169235476Y-125244761D01*
X169283095Y-125197142D01*
X169330714Y-125101904D01*
X169378333Y-124911428D01*
X169378333Y-124673333D01*
X169330714Y-124482857D01*
X169283095Y-124387619D01*
X169235476Y-124340000D01*
X169140238Y-124292380D01*
X168378333Y-125292380D02*
X168378333Y-124292380D01*
X167806904Y-125292380D02*
X168235476Y-124720952D01*
X167806904Y-124292380D02*
X168378333Y-124863809D01*
D13*
X169866428Y-123416190D02*
X170033095Y-123178095D01*
X170152142Y-123416190D02*
X170152142Y-122916190D01*
X169961666Y-122916190D01*
X169914047Y-122940000D01*
X169890238Y-122963809D01*
X169866428Y-123011428D01*
X169866428Y-123082857D01*
X169890238Y-123130476D01*
X169914047Y-123154285D01*
X169961666Y-123178095D01*
X170152142Y-123178095D01*
X169390238Y-123416190D02*
X169675952Y-123416190D01*
X169533095Y-123416190D02*
X169533095Y-122916190D01*
X169580714Y-122987619D01*
X169628333Y-123035238D01*
X169675952Y-123059047D01*
X169223571Y-122916190D02*
X168890238Y-122916190D01*
X169104523Y-123416190D01*
D12*
%TO.C,C6*%
X174341666Y-101007380D02*
X174913095Y-101007380D01*
X174627380Y-101007380D02*
X174627380Y-100007380D01*
X174722619Y-100150238D01*
X174817857Y-100245476D01*
X174913095Y-100293095D01*
X173913095Y-100340714D02*
X173913095Y-101340714D01*
X173436904Y-100864523D02*
X173389285Y-100959761D01*
X173294047Y-101007380D01*
X173913095Y-100864523D02*
X173865476Y-100959761D01*
X173770238Y-101007380D01*
X173579761Y-101007380D01*
X173484523Y-100959761D01*
X173436904Y-100864523D01*
X173436904Y-100340714D01*
X172532142Y-100483571D02*
X172865476Y-100483571D01*
X172865476Y-101007380D02*
X172865476Y-100007380D01*
X172389285Y-100007380D01*
D13*
X173758333Y-102413571D02*
X173782142Y-102437380D01*
X173853571Y-102461190D01*
X173901190Y-102461190D01*
X173972619Y-102437380D01*
X174020238Y-102389761D01*
X174044047Y-102342142D01*
X174067857Y-102246904D01*
X174067857Y-102175476D01*
X174044047Y-102080238D01*
X174020238Y-102032619D01*
X173972619Y-101985000D01*
X173901190Y-101961190D01*
X173853571Y-101961190D01*
X173782142Y-101985000D01*
X173758333Y-102008809D01*
X173329761Y-101961190D02*
X173425000Y-101961190D01*
X173472619Y-101985000D01*
X173496428Y-102008809D01*
X173544047Y-102080238D01*
X173567857Y-102175476D01*
X173567857Y-102365952D01*
X173544047Y-102413571D01*
X173520238Y-102437380D01*
X173472619Y-102461190D01*
X173377380Y-102461190D01*
X173329761Y-102437380D01*
X173305952Y-102413571D01*
X173282142Y-102365952D01*
X173282142Y-102246904D01*
X173305952Y-102199285D01*
X173329761Y-102175476D01*
X173377380Y-102151666D01*
X173472619Y-102151666D01*
X173520238Y-102175476D01*
X173544047Y-102199285D01*
X173567857Y-102246904D01*
D12*
%TO.C,R3*%
X176466785Y-121357380D02*
X177038214Y-121357380D01*
X176752500Y-121357380D02*
X176752500Y-120357380D01*
X176847738Y-120500238D01*
X176942976Y-120595476D01*
X177038214Y-120643095D01*
X176038214Y-121357380D02*
X176038214Y-120357380D01*
X175466785Y-121357380D02*
X175895357Y-120785952D01*
X175466785Y-120357380D02*
X176038214Y-120928809D01*
D13*
X176335833Y-122781190D02*
X176502500Y-122543095D01*
X176621547Y-122781190D02*
X176621547Y-122281190D01*
X176431071Y-122281190D01*
X176383452Y-122305000D01*
X176359642Y-122328809D01*
X176335833Y-122376428D01*
X176335833Y-122447857D01*
X176359642Y-122495476D01*
X176383452Y-122519285D01*
X176431071Y-122543095D01*
X176621547Y-122543095D01*
X176169166Y-122281190D02*
X175859642Y-122281190D01*
X176026309Y-122471666D01*
X175954880Y-122471666D01*
X175907261Y-122495476D01*
X175883452Y-122519285D01*
X175859642Y-122566904D01*
X175859642Y-122685952D01*
X175883452Y-122733571D01*
X175907261Y-122757380D01*
X175954880Y-122781190D01*
X176097738Y-122781190D01*
X176145357Y-122757380D01*
X176169166Y-122733571D01*
D12*
%TO.C,C19*%
X146912380Y-118152380D02*
X146912380Y-117580952D01*
X146912380Y-117866666D02*
X145912380Y-117866666D01*
X146055238Y-117771428D01*
X146150476Y-117676190D01*
X146198095Y-117580952D01*
X145912380Y-118771428D02*
X145912380Y-118866666D01*
X145960000Y-118961904D01*
X146007619Y-119009523D01*
X146102857Y-119057142D01*
X146293333Y-119104761D01*
X146531428Y-119104761D01*
X146721904Y-119057142D01*
X146817142Y-119009523D01*
X146864761Y-118961904D01*
X146912380Y-118866666D01*
X146912380Y-118771428D01*
X146864761Y-118676190D01*
X146817142Y-118628571D01*
X146721904Y-118580952D01*
X146531428Y-118533333D01*
X146293333Y-118533333D01*
X146102857Y-118580952D01*
X146007619Y-118628571D01*
X145960000Y-118676190D01*
X145912380Y-118771428D01*
X145912380Y-119723809D02*
X145912380Y-119819047D01*
X145960000Y-119914285D01*
X146007619Y-119961904D01*
X146102857Y-120009523D01*
X146293333Y-120057142D01*
X146531428Y-120057142D01*
X146721904Y-120009523D01*
X146817142Y-119961904D01*
X146864761Y-119914285D01*
X146912380Y-119819047D01*
X146912380Y-119723809D01*
X146864761Y-119628571D01*
X146817142Y-119580952D01*
X146721904Y-119533333D01*
X146531428Y-119485714D01*
X146293333Y-119485714D01*
X146102857Y-119533333D01*
X146007619Y-119580952D01*
X145960000Y-119628571D01*
X145912380Y-119723809D01*
X146245714Y-120485714D02*
X146912380Y-120485714D01*
X146340952Y-120485714D02*
X146293333Y-120533333D01*
X146245714Y-120628571D01*
X146245714Y-120771428D01*
X146293333Y-120866666D01*
X146388571Y-120914285D01*
X146912380Y-120914285D01*
X146388571Y-121723809D02*
X146388571Y-121390476D01*
X146912380Y-121390476D02*
X145912380Y-121390476D01*
X145912380Y-121866666D01*
D13*
X144958571Y-119378571D02*
X144982380Y-119354761D01*
X145006190Y-119283333D01*
X145006190Y-119235714D01*
X144982380Y-119164285D01*
X144934761Y-119116666D01*
X144887142Y-119092857D01*
X144791904Y-119069047D01*
X144720476Y-119069047D01*
X144625238Y-119092857D01*
X144577619Y-119116666D01*
X144530000Y-119164285D01*
X144506190Y-119235714D01*
X144506190Y-119283333D01*
X144530000Y-119354761D01*
X144553809Y-119378571D01*
X145006190Y-119854761D02*
X145006190Y-119569047D01*
X145006190Y-119711904D02*
X144506190Y-119711904D01*
X144577619Y-119664285D01*
X144625238Y-119616666D01*
X144649047Y-119569047D01*
X145006190Y-120092857D02*
X145006190Y-120188095D01*
X144982380Y-120235714D01*
X144958571Y-120259523D01*
X144887142Y-120307142D01*
X144791904Y-120330952D01*
X144601428Y-120330952D01*
X144553809Y-120307142D01*
X144530000Y-120283333D01*
X144506190Y-120235714D01*
X144506190Y-120140476D01*
X144530000Y-120092857D01*
X144553809Y-120069047D01*
X144601428Y-120045238D01*
X144720476Y-120045238D01*
X144768095Y-120069047D01*
X144791904Y-120092857D01*
X144815714Y-120140476D01*
X144815714Y-120235714D01*
X144791904Y-120283333D01*
X144768095Y-120307142D01*
X144720476Y-120330952D01*
D12*
%TO.C,U3*%
X121681428Y-99652380D02*
X122157619Y-99652380D01*
X122157619Y-98652380D01*
X121490952Y-98652380D02*
X120919523Y-98652380D01*
X121205238Y-99652380D02*
X121205238Y-98652380D01*
X120014761Y-99557142D02*
X120062380Y-99604761D01*
X120205238Y-99652380D01*
X120300476Y-99652380D01*
X120443333Y-99604761D01*
X120538571Y-99509523D01*
X120586190Y-99414285D01*
X120633809Y-99223809D01*
X120633809Y-99080952D01*
X120586190Y-98890476D01*
X120538571Y-98795238D01*
X120443333Y-98700000D01*
X120300476Y-98652380D01*
X120205238Y-98652380D01*
X120062380Y-98700000D01*
X120014761Y-98747619D01*
X119633809Y-98747619D02*
X119586190Y-98700000D01*
X119490952Y-98652380D01*
X119252857Y-98652380D01*
X119157619Y-98700000D01*
X119110000Y-98747619D01*
X119062380Y-98842857D01*
X119062380Y-98938095D01*
X119110000Y-99080952D01*
X119681428Y-99652380D01*
X119062380Y-99652380D01*
X118586190Y-99652380D02*
X118395714Y-99652380D01*
X118300476Y-99604761D01*
X118252857Y-99557142D01*
X118157619Y-99414285D01*
X118110000Y-99223809D01*
X118110000Y-98842857D01*
X118157619Y-98747619D01*
X118205238Y-98700000D01*
X118300476Y-98652380D01*
X118490952Y-98652380D01*
X118586190Y-98700000D01*
X118633809Y-98747619D01*
X118681428Y-98842857D01*
X118681428Y-99080952D01*
X118633809Y-99176190D01*
X118586190Y-99223809D01*
X118490952Y-99271428D01*
X118300476Y-99271428D01*
X118205238Y-99223809D01*
X118157619Y-99176190D01*
X118110000Y-99080952D01*
X117205238Y-98652380D02*
X117681428Y-98652380D01*
X117729047Y-99128571D01*
X117681428Y-99080952D01*
X117586190Y-99033333D01*
X117348095Y-99033333D01*
X117252857Y-99080952D01*
X117205238Y-99128571D01*
X117157619Y-99223809D01*
X117157619Y-99461904D01*
X117205238Y-99557142D01*
X117252857Y-99604761D01*
X117348095Y-99652380D01*
X117586190Y-99652380D01*
X117681428Y-99604761D01*
X117729047Y-99557142D01*
X116300476Y-98985714D02*
X116300476Y-99652380D01*
X116538571Y-98604761D02*
X116776666Y-99319047D01*
X116157619Y-99319047D01*
X115776666Y-99271428D02*
X115014761Y-99271428D01*
X114586190Y-98747619D02*
X114538571Y-98700000D01*
X114443333Y-98652380D01*
X114205238Y-98652380D01*
X114110000Y-98700000D01*
X114062380Y-98747619D01*
X114014761Y-98842857D01*
X114014761Y-98938095D01*
X114062380Y-99080952D01*
X114633809Y-99652380D01*
X114014761Y-99652380D01*
D14*
X118414761Y-101380952D02*
X118414761Y-101704761D01*
X118395714Y-101742857D01*
X118376666Y-101761904D01*
X118338571Y-101780952D01*
X118262380Y-101780952D01*
X118224285Y-101761904D01*
X118205238Y-101742857D01*
X118186190Y-101704761D01*
X118186190Y-101380952D01*
X118033809Y-101380952D02*
X117786190Y-101380952D01*
X117919523Y-101533333D01*
X117862380Y-101533333D01*
X117824285Y-101552380D01*
X117805238Y-101571428D01*
X117786190Y-101609523D01*
X117786190Y-101704761D01*
X117805238Y-101742857D01*
X117824285Y-101761904D01*
X117862380Y-101780952D01*
X117976666Y-101780952D01*
X118014761Y-101761904D01*
X118033809Y-101742857D01*
D12*
%TO.C,Q2*%
X134730714Y-112172380D02*
X134730714Y-111172380D01*
X134349761Y-111172380D01*
X134254523Y-111220000D01*
X134206904Y-111267619D01*
X134159285Y-111362857D01*
X134159285Y-111505714D01*
X134206904Y-111600952D01*
X134254523Y-111648571D01*
X134349761Y-111696190D01*
X134730714Y-111696190D01*
X133730714Y-112172380D02*
X133730714Y-111172380D01*
X133397380Y-111886666D01*
X133064047Y-111172380D01*
X133064047Y-112172380D01*
X132587857Y-112172380D02*
X132587857Y-111172380D01*
X132016428Y-112172380D01*
X132016428Y-111172380D01*
X131064047Y-111172380D02*
X131540238Y-111172380D01*
X131587857Y-111648571D01*
X131540238Y-111600952D01*
X131445000Y-111553333D01*
X131206904Y-111553333D01*
X131111666Y-111600952D01*
X131064047Y-111648571D01*
X131016428Y-111743809D01*
X131016428Y-111981904D01*
X131064047Y-112077142D01*
X131111666Y-112124761D01*
X131206904Y-112172380D01*
X131445000Y-112172380D01*
X131540238Y-112124761D01*
X131587857Y-112077142D01*
X130635476Y-111267619D02*
X130587857Y-111220000D01*
X130492619Y-111172380D01*
X130254523Y-111172380D01*
X130159285Y-111220000D01*
X130111666Y-111267619D01*
X130064047Y-111362857D01*
X130064047Y-111458095D01*
X130111666Y-111600952D01*
X130683095Y-112172380D01*
X130064047Y-112172380D01*
X129730714Y-111172380D02*
X129064047Y-112172380D01*
X129064047Y-111172380D02*
X129730714Y-112172380D01*
X128683095Y-112172380D02*
X128683095Y-111172380D01*
X128302142Y-111172380D01*
X128206904Y-111220000D01*
X128159285Y-111267619D01*
X128111666Y-111362857D01*
X128111666Y-111505714D01*
X128159285Y-111600952D01*
X128206904Y-111648571D01*
X128302142Y-111696190D01*
X128683095Y-111696190D01*
D15*
X131718809Y-109172380D02*
X131695000Y-109124761D01*
X131647380Y-109077142D01*
X131575952Y-109005714D01*
X131552142Y-108958095D01*
X131552142Y-108910476D01*
X131671190Y-108934285D02*
X131647380Y-108886666D01*
X131599761Y-108839047D01*
X131504523Y-108815238D01*
X131337857Y-108815238D01*
X131242619Y-108839047D01*
X131195000Y-108886666D01*
X131171190Y-108934285D01*
X131171190Y-109029523D01*
X131195000Y-109077142D01*
X131242619Y-109124761D01*
X131337857Y-109148571D01*
X131504523Y-109148571D01*
X131599761Y-109124761D01*
X131647380Y-109077142D01*
X131671190Y-109029523D01*
X131671190Y-108934285D01*
X131218809Y-109339047D02*
X131195000Y-109362857D01*
X131171190Y-109410476D01*
X131171190Y-109529523D01*
X131195000Y-109577142D01*
X131218809Y-109600952D01*
X131266428Y-109624761D01*
X131314047Y-109624761D01*
X131385476Y-109600952D01*
X131671190Y-109315238D01*
X131671190Y-109624761D01*
D12*
%TO.C,R24*%
X132611666Y-111197380D02*
X133183095Y-111197380D01*
X132897380Y-111197380D02*
X132897380Y-110197380D01*
X132992619Y-110340238D01*
X133087857Y-110435476D01*
X133183095Y-110483095D01*
X131992619Y-110197380D02*
X131897380Y-110197380D01*
X131802142Y-110245000D01*
X131754523Y-110292619D01*
X131706904Y-110387857D01*
X131659285Y-110578333D01*
X131659285Y-110816428D01*
X131706904Y-111006904D01*
X131754523Y-111102142D01*
X131802142Y-111149761D01*
X131897380Y-111197380D01*
X131992619Y-111197380D01*
X132087857Y-111149761D01*
X132135476Y-111102142D01*
X132183095Y-111006904D01*
X132230714Y-110816428D01*
X132230714Y-110578333D01*
X132183095Y-110387857D01*
X132135476Y-110292619D01*
X132087857Y-110245000D01*
X131992619Y-110197380D01*
X131040238Y-110197380D02*
X130945000Y-110197380D01*
X130849761Y-110245000D01*
X130802142Y-110292619D01*
X130754523Y-110387857D01*
X130706904Y-110578333D01*
X130706904Y-110816428D01*
X130754523Y-111006904D01*
X130802142Y-111102142D01*
X130849761Y-111149761D01*
X130945000Y-111197380D01*
X131040238Y-111197380D01*
X131135476Y-111149761D01*
X131183095Y-111102142D01*
X131230714Y-111006904D01*
X131278333Y-110816428D01*
X131278333Y-110578333D01*
X131230714Y-110387857D01*
X131183095Y-110292619D01*
X131135476Y-110245000D01*
X131040238Y-110197380D01*
X130278333Y-111197380D02*
X130278333Y-110197380D01*
X129706904Y-111197380D02*
X130135476Y-110625952D01*
X129706904Y-110197380D02*
X130278333Y-110768809D01*
D13*
X131766428Y-112621190D02*
X131933095Y-112383095D01*
X132052142Y-112621190D02*
X132052142Y-112121190D01*
X131861666Y-112121190D01*
X131814047Y-112145000D01*
X131790238Y-112168809D01*
X131766428Y-112216428D01*
X131766428Y-112287857D01*
X131790238Y-112335476D01*
X131814047Y-112359285D01*
X131861666Y-112383095D01*
X132052142Y-112383095D01*
X131575952Y-112168809D02*
X131552142Y-112145000D01*
X131504523Y-112121190D01*
X131385476Y-112121190D01*
X131337857Y-112145000D01*
X131314047Y-112168809D01*
X131290238Y-112216428D01*
X131290238Y-112264047D01*
X131314047Y-112335476D01*
X131599761Y-112621190D01*
X131290238Y-112621190D01*
X130861666Y-112287857D02*
X130861666Y-112621190D01*
X130980714Y-112097380D02*
X131099761Y-112454523D01*
X130790238Y-112454523D01*
D12*
%TO.C,R1*%
X132611666Y-102942380D02*
X133183095Y-102942380D01*
X132897380Y-102942380D02*
X132897380Y-101942380D01*
X132992619Y-102085238D01*
X133087857Y-102180476D01*
X133183095Y-102228095D01*
X131992619Y-101942380D02*
X131897380Y-101942380D01*
X131802142Y-101990000D01*
X131754523Y-102037619D01*
X131706904Y-102132857D01*
X131659285Y-102323333D01*
X131659285Y-102561428D01*
X131706904Y-102751904D01*
X131754523Y-102847142D01*
X131802142Y-102894761D01*
X131897380Y-102942380D01*
X131992619Y-102942380D01*
X132087857Y-102894761D01*
X132135476Y-102847142D01*
X132183095Y-102751904D01*
X132230714Y-102561428D01*
X132230714Y-102323333D01*
X132183095Y-102132857D01*
X132135476Y-102037619D01*
X132087857Y-101990000D01*
X131992619Y-101942380D01*
X131040238Y-101942380D02*
X130945000Y-101942380D01*
X130849761Y-101990000D01*
X130802142Y-102037619D01*
X130754523Y-102132857D01*
X130706904Y-102323333D01*
X130706904Y-102561428D01*
X130754523Y-102751904D01*
X130802142Y-102847142D01*
X130849761Y-102894761D01*
X130945000Y-102942380D01*
X131040238Y-102942380D01*
X131135476Y-102894761D01*
X131183095Y-102847142D01*
X131230714Y-102751904D01*
X131278333Y-102561428D01*
X131278333Y-102323333D01*
X131230714Y-102132857D01*
X131183095Y-102037619D01*
X131135476Y-101990000D01*
X131040238Y-101942380D01*
X130278333Y-102942380D02*
X130278333Y-101942380D01*
X129706904Y-102942380D02*
X130135476Y-102370952D01*
X129706904Y-101942380D02*
X130278333Y-102513809D01*
D13*
X131528333Y-104366190D02*
X131695000Y-104128095D01*
X131814047Y-104366190D02*
X131814047Y-103866190D01*
X131623571Y-103866190D01*
X131575952Y-103890000D01*
X131552142Y-103913809D01*
X131528333Y-103961428D01*
X131528333Y-104032857D01*
X131552142Y-104080476D01*
X131575952Y-104104285D01*
X131623571Y-104128095D01*
X131814047Y-104128095D01*
X131052142Y-104366190D02*
X131337857Y-104366190D01*
X131195000Y-104366190D02*
X131195000Y-103866190D01*
X131242619Y-103937619D01*
X131290238Y-103985238D01*
X131337857Y-104009047D01*
D12*
%TO.C,C7*%
X183557380Y-129823333D02*
X183557380Y-129251904D01*
X183557380Y-129537619D02*
X182557380Y-129537619D01*
X182700238Y-129442380D01*
X182795476Y-129347142D01*
X182843095Y-129251904D01*
X182890714Y-130251904D02*
X183890714Y-130251904D01*
X183414523Y-130728095D02*
X183509761Y-130775714D01*
X183557380Y-130870952D01*
X183414523Y-130251904D02*
X183509761Y-130299523D01*
X183557380Y-130394761D01*
X183557380Y-130585238D01*
X183509761Y-130680476D01*
X183414523Y-130728095D01*
X182890714Y-130728095D01*
X183033571Y-131632857D02*
X183033571Y-131299523D01*
X183557380Y-131299523D02*
X182557380Y-131299523D01*
X182557380Y-131775714D01*
D13*
X184963571Y-130406666D02*
X184987380Y-130382857D01*
X185011190Y-130311428D01*
X185011190Y-130263809D01*
X184987380Y-130192380D01*
X184939761Y-130144761D01*
X184892142Y-130120952D01*
X184796904Y-130097142D01*
X184725476Y-130097142D01*
X184630238Y-130120952D01*
X184582619Y-130144761D01*
X184535000Y-130192380D01*
X184511190Y-130263809D01*
X184511190Y-130311428D01*
X184535000Y-130382857D01*
X184558809Y-130406666D01*
X184511190Y-130573333D02*
X184511190Y-130906666D01*
X185011190Y-130692380D01*
D12*
%TO.C,R16*%
X118942380Y-119998928D02*
X118942380Y-119427500D01*
X118942380Y-119713214D02*
X117942380Y-119713214D01*
X118085238Y-119617976D01*
X118180476Y-119522738D01*
X118228095Y-119427500D01*
X118847142Y-120427500D02*
X118894761Y-120475119D01*
X118942380Y-120427500D01*
X118894761Y-120379880D01*
X118847142Y-120427500D01*
X118942380Y-120427500D01*
X117942380Y-121379880D02*
X117942380Y-120903690D01*
X118418571Y-120856071D01*
X118370952Y-120903690D01*
X118323333Y-120998928D01*
X118323333Y-121237023D01*
X118370952Y-121332261D01*
X118418571Y-121379880D01*
X118513809Y-121427500D01*
X118751904Y-121427500D01*
X118847142Y-121379880D01*
X118894761Y-121332261D01*
X118942380Y-121237023D01*
X118942380Y-120998928D01*
X118894761Y-120903690D01*
X118847142Y-120856071D01*
X118942380Y-121856071D02*
X117942380Y-121856071D01*
X118942380Y-122427500D02*
X118370952Y-121998928D01*
X117942380Y-122427500D02*
X118513809Y-121856071D01*
D13*
X117066190Y-120606071D02*
X116828095Y-120439404D01*
X117066190Y-120320357D02*
X116566190Y-120320357D01*
X116566190Y-120510833D01*
X116590000Y-120558452D01*
X116613809Y-120582261D01*
X116661428Y-120606071D01*
X116732857Y-120606071D01*
X116780476Y-120582261D01*
X116804285Y-120558452D01*
X116828095Y-120510833D01*
X116828095Y-120320357D01*
X117066190Y-121082261D02*
X117066190Y-120796547D01*
X117066190Y-120939404D02*
X116566190Y-120939404D01*
X116637619Y-120891785D01*
X116685238Y-120844166D01*
X116709047Y-120796547D01*
X116566190Y-121510833D02*
X116566190Y-121415595D01*
X116590000Y-121367976D01*
X116613809Y-121344166D01*
X116685238Y-121296547D01*
X116780476Y-121272738D01*
X116970952Y-121272738D01*
X117018571Y-121296547D01*
X117042380Y-121320357D01*
X117066190Y-121367976D01*
X117066190Y-121463214D01*
X117042380Y-121510833D01*
X117018571Y-121534642D01*
X116970952Y-121558452D01*
X116851904Y-121558452D01*
X116804285Y-121534642D01*
X116780476Y-121510833D01*
X116756666Y-121463214D01*
X116756666Y-121367976D01*
X116780476Y-121320357D01*
X116804285Y-121296547D01*
X116851904Y-121272738D01*
D12*
%TO.C,R13*%
X176332619Y-108355000D02*
X176285000Y-108402619D01*
X176237380Y-108497857D01*
X176237380Y-108735952D01*
X176285000Y-108831190D01*
X176332619Y-108878809D01*
X176427857Y-108926428D01*
X176523095Y-108926428D01*
X176665952Y-108878809D01*
X177237380Y-108307380D01*
X177237380Y-108926428D01*
X177142142Y-109355000D02*
X177189761Y-109402619D01*
X177237380Y-109355000D01*
X177189761Y-109307380D01*
X177142142Y-109355000D01*
X177237380Y-109355000D01*
X176332619Y-109783571D02*
X176285000Y-109831190D01*
X176237380Y-109926428D01*
X176237380Y-110164523D01*
X176285000Y-110259761D01*
X176332619Y-110307380D01*
X176427857Y-110355000D01*
X176523095Y-110355000D01*
X176665952Y-110307380D01*
X177237380Y-109735952D01*
X177237380Y-110355000D01*
X177237380Y-110783571D02*
X176237380Y-110783571D01*
X177237380Y-111355000D02*
X176665952Y-110926428D01*
X176237380Y-111355000D02*
X176808809Y-110783571D01*
D13*
X178661190Y-109533571D02*
X178423095Y-109366904D01*
X178661190Y-109247857D02*
X178161190Y-109247857D01*
X178161190Y-109438333D01*
X178185000Y-109485952D01*
X178208809Y-109509761D01*
X178256428Y-109533571D01*
X178327857Y-109533571D01*
X178375476Y-109509761D01*
X178399285Y-109485952D01*
X178423095Y-109438333D01*
X178423095Y-109247857D01*
X178661190Y-110009761D02*
X178661190Y-109724047D01*
X178661190Y-109866904D02*
X178161190Y-109866904D01*
X178232619Y-109819285D01*
X178280238Y-109771666D01*
X178304047Y-109724047D01*
X178161190Y-110176428D02*
X178161190Y-110485952D01*
X178351666Y-110319285D01*
X178351666Y-110390714D01*
X178375476Y-110438333D01*
X178399285Y-110462142D01*
X178446904Y-110485952D01*
X178565952Y-110485952D01*
X178613571Y-110462142D01*
X178637380Y-110438333D01*
X178661190Y-110390714D01*
X178661190Y-110247857D01*
X178637380Y-110200238D01*
X178613571Y-110176428D01*
D12*
%TO.C,U7*%
X152637857Y-103996666D02*
X152161666Y-103996666D01*
X152733095Y-104282380D02*
X152399761Y-103282380D01*
X152066428Y-104282380D01*
X151828333Y-103282380D02*
X151209285Y-103282380D01*
X151542619Y-103663333D01*
X151399761Y-103663333D01*
X151304523Y-103710952D01*
X151256904Y-103758571D01*
X151209285Y-103853809D01*
X151209285Y-104091904D01*
X151256904Y-104187142D01*
X151304523Y-104234761D01*
X151399761Y-104282380D01*
X151685476Y-104282380D01*
X151780714Y-104234761D01*
X151828333Y-104187142D01*
X150733095Y-104282380D02*
X150542619Y-104282380D01*
X150447380Y-104234761D01*
X150399761Y-104187142D01*
X150304523Y-104044285D01*
X150256904Y-103853809D01*
X150256904Y-103472857D01*
X150304523Y-103377619D01*
X150352142Y-103330000D01*
X150447380Y-103282380D01*
X150637857Y-103282380D01*
X150733095Y-103330000D01*
X150780714Y-103377619D01*
X150828333Y-103472857D01*
X150828333Y-103710952D01*
X150780714Y-103806190D01*
X150733095Y-103853809D01*
X150637857Y-103901428D01*
X150447380Y-103901428D01*
X150352142Y-103853809D01*
X150304523Y-103806190D01*
X150256904Y-103710952D01*
X149637857Y-103282380D02*
X149542619Y-103282380D01*
X149447380Y-103330000D01*
X149399761Y-103377619D01*
X149352142Y-103472857D01*
X149304523Y-103663333D01*
X149304523Y-103901428D01*
X149352142Y-104091904D01*
X149399761Y-104187142D01*
X149447380Y-104234761D01*
X149542619Y-104282380D01*
X149637857Y-104282380D01*
X149733095Y-104234761D01*
X149780714Y-104187142D01*
X149828333Y-104091904D01*
X149875952Y-103901428D01*
X149875952Y-103663333D01*
X149828333Y-103472857D01*
X149780714Y-103377619D01*
X149733095Y-103330000D01*
X149637857Y-103282380D01*
X148828333Y-104282380D02*
X148637857Y-104282380D01*
X148542619Y-104234761D01*
X148495000Y-104187142D01*
X148399761Y-104044285D01*
X148352142Y-103853809D01*
X148352142Y-103472857D01*
X148399761Y-103377619D01*
X148447380Y-103330000D01*
X148542619Y-103282380D01*
X148733095Y-103282380D01*
X148828333Y-103330000D01*
X148875952Y-103377619D01*
X148923571Y-103472857D01*
X148923571Y-103710952D01*
X148875952Y-103806190D01*
X148828333Y-103853809D01*
X148733095Y-103901428D01*
X148542619Y-103901428D01*
X148447380Y-103853809D01*
X148399761Y-103806190D01*
X148352142Y-103710952D01*
X151256904Y-99782380D02*
X151256904Y-100591904D01*
X151209285Y-100687142D01*
X151161666Y-100734761D01*
X151066428Y-100782380D01*
X150875952Y-100782380D01*
X150780714Y-100734761D01*
X150733095Y-100687142D01*
X150685476Y-100591904D01*
X150685476Y-99782380D01*
X150304523Y-99782380D02*
X149637857Y-99782380D01*
X150066428Y-100782380D01*
%TO.C,R21*%
X176172619Y-116672380D02*
X175505952Y-116672380D01*
X175934523Y-117672380D01*
X175077380Y-117624761D02*
X175077380Y-117672380D01*
X175125000Y-117767619D01*
X175172619Y-117815238D01*
X174172619Y-116672380D02*
X174648809Y-116672380D01*
X174696428Y-117148571D01*
X174648809Y-117100952D01*
X174553571Y-117053333D01*
X174315476Y-117053333D01*
X174220238Y-117100952D01*
X174172619Y-117148571D01*
X174125000Y-117243809D01*
X174125000Y-117481904D01*
X174172619Y-117577142D01*
X174220238Y-117624761D01*
X174315476Y-117672380D01*
X174553571Y-117672380D01*
X174648809Y-117624761D01*
X174696428Y-117577142D01*
X173696428Y-117672380D02*
X173696428Y-116672380D01*
X173125000Y-117672380D02*
X173553571Y-117100952D01*
X173125000Y-116672380D02*
X173696428Y-117243809D01*
D13*
X174946428Y-115796190D02*
X175113095Y-115558095D01*
X175232142Y-115796190D02*
X175232142Y-115296190D01*
X175041666Y-115296190D01*
X174994047Y-115320000D01*
X174970238Y-115343809D01*
X174946428Y-115391428D01*
X174946428Y-115462857D01*
X174970238Y-115510476D01*
X174994047Y-115534285D01*
X175041666Y-115558095D01*
X175232142Y-115558095D01*
X174755952Y-115343809D02*
X174732142Y-115320000D01*
X174684523Y-115296190D01*
X174565476Y-115296190D01*
X174517857Y-115320000D01*
X174494047Y-115343809D01*
X174470238Y-115391428D01*
X174470238Y-115439047D01*
X174494047Y-115510476D01*
X174779761Y-115796190D01*
X174470238Y-115796190D01*
X173994047Y-115796190D02*
X174279761Y-115796190D01*
X174136904Y-115796190D02*
X174136904Y-115296190D01*
X174184523Y-115367619D01*
X174232142Y-115415238D01*
X174279761Y-115439047D01*
D12*
%TO.C,C3*%
X190727380Y-105378333D02*
X190727380Y-104806904D01*
X190727380Y-105092619D02*
X189727380Y-105092619D01*
X189870238Y-104997380D01*
X189965476Y-104902142D01*
X190013095Y-104806904D01*
X190060714Y-105806904D02*
X191060714Y-105806904D01*
X190584523Y-106283095D02*
X190679761Y-106330714D01*
X190727380Y-106425952D01*
X190584523Y-105806904D02*
X190679761Y-105854523D01*
X190727380Y-105949761D01*
X190727380Y-106140238D01*
X190679761Y-106235476D01*
X190584523Y-106283095D01*
X190060714Y-106283095D01*
X190203571Y-107187857D02*
X190203571Y-106854523D01*
X190727380Y-106854523D02*
X189727380Y-106854523D01*
X189727380Y-107330714D01*
D13*
X188773571Y-105961666D02*
X188797380Y-105937857D01*
X188821190Y-105866428D01*
X188821190Y-105818809D01*
X188797380Y-105747380D01*
X188749761Y-105699761D01*
X188702142Y-105675952D01*
X188606904Y-105652142D01*
X188535476Y-105652142D01*
X188440238Y-105675952D01*
X188392619Y-105699761D01*
X188345000Y-105747380D01*
X188321190Y-105818809D01*
X188321190Y-105866428D01*
X188345000Y-105937857D01*
X188368809Y-105961666D01*
X188321190Y-106128333D02*
X188321190Y-106437857D01*
X188511666Y-106271190D01*
X188511666Y-106342619D01*
X188535476Y-106390238D01*
X188559285Y-106414047D01*
X188606904Y-106437857D01*
X188725952Y-106437857D01*
X188773571Y-106414047D01*
X188797380Y-106390238D01*
X188821190Y-106342619D01*
X188821190Y-106199761D01*
X188797380Y-106152142D01*
X188773571Y-106128333D01*
D12*
%TO.C,R2*%
X123721666Y-104337380D02*
X124293095Y-104337380D01*
X124007380Y-104337380D02*
X124007380Y-103337380D01*
X124102619Y-103480238D01*
X124197857Y-103575476D01*
X124293095Y-103623095D01*
X123102619Y-103337380D02*
X123007380Y-103337380D01*
X122912142Y-103385000D01*
X122864523Y-103432619D01*
X122816904Y-103527857D01*
X122769285Y-103718333D01*
X122769285Y-103956428D01*
X122816904Y-104146904D01*
X122864523Y-104242142D01*
X122912142Y-104289761D01*
X123007380Y-104337380D01*
X123102619Y-104337380D01*
X123197857Y-104289761D01*
X123245476Y-104242142D01*
X123293095Y-104146904D01*
X123340714Y-103956428D01*
X123340714Y-103718333D01*
X123293095Y-103527857D01*
X123245476Y-103432619D01*
X123197857Y-103385000D01*
X123102619Y-103337380D01*
X122150238Y-103337380D02*
X122055000Y-103337380D01*
X121959761Y-103385000D01*
X121912142Y-103432619D01*
X121864523Y-103527857D01*
X121816904Y-103718333D01*
X121816904Y-103956428D01*
X121864523Y-104146904D01*
X121912142Y-104242142D01*
X121959761Y-104289761D01*
X122055000Y-104337380D01*
X122150238Y-104337380D01*
X122245476Y-104289761D01*
X122293095Y-104242142D01*
X122340714Y-104146904D01*
X122388333Y-103956428D01*
X122388333Y-103718333D01*
X122340714Y-103527857D01*
X122293095Y-103432619D01*
X122245476Y-103385000D01*
X122150238Y-103337380D01*
X121388333Y-104337380D02*
X121388333Y-103337380D01*
X120816904Y-104337380D02*
X121245476Y-103765952D01*
X120816904Y-103337380D02*
X121388333Y-103908809D01*
D13*
X122638333Y-102461190D02*
X122805000Y-102223095D01*
X122924047Y-102461190D02*
X122924047Y-101961190D01*
X122733571Y-101961190D01*
X122685952Y-101985000D01*
X122662142Y-102008809D01*
X122638333Y-102056428D01*
X122638333Y-102127857D01*
X122662142Y-102175476D01*
X122685952Y-102199285D01*
X122733571Y-102223095D01*
X122924047Y-102223095D01*
X122447857Y-102008809D02*
X122424047Y-101985000D01*
X122376428Y-101961190D01*
X122257380Y-101961190D01*
X122209761Y-101985000D01*
X122185952Y-102008809D01*
X122162142Y-102056428D01*
X122162142Y-102104047D01*
X122185952Y-102175476D01*
X122471666Y-102461190D01*
X122162142Y-102461190D01*
D12*
%TO.C,JP1*%
X157685476Y-127717380D02*
X157685476Y-128431666D01*
X157733095Y-128574523D01*
X157828333Y-128669761D01*
X157971190Y-128717380D01*
X158066428Y-128717380D01*
X156780714Y-128050714D02*
X156780714Y-128717380D01*
X157209285Y-128050714D02*
X157209285Y-128574523D01*
X157161666Y-128669761D01*
X157066428Y-128717380D01*
X156923571Y-128717380D01*
X156828333Y-128669761D01*
X156780714Y-128622142D01*
X156304523Y-128717380D02*
X156304523Y-128050714D01*
X156304523Y-128145952D02*
X156256904Y-128098333D01*
X156161666Y-128050714D01*
X156018809Y-128050714D01*
X155923571Y-128098333D01*
X155875952Y-128193571D01*
X155875952Y-128717380D01*
X155875952Y-128193571D02*
X155828333Y-128098333D01*
X155733095Y-128050714D01*
X155590238Y-128050714D01*
X155495000Y-128098333D01*
X155447380Y-128193571D01*
X155447380Y-128717380D01*
X154971190Y-128050714D02*
X154971190Y-129050714D01*
X154971190Y-128098333D02*
X154875952Y-128050714D01*
X154685476Y-128050714D01*
X154590238Y-128098333D01*
X154542619Y-128145952D01*
X154495000Y-128241190D01*
X154495000Y-128526904D01*
X154542619Y-128622142D01*
X154590238Y-128669761D01*
X154685476Y-128717380D01*
X154875952Y-128717380D01*
X154971190Y-128669761D01*
X153685476Y-128669761D02*
X153780714Y-128717380D01*
X153971190Y-128717380D01*
X154066428Y-128669761D01*
X154114047Y-128574523D01*
X154114047Y-128193571D01*
X154066428Y-128098333D01*
X153971190Y-128050714D01*
X153780714Y-128050714D01*
X153685476Y-128098333D01*
X153637857Y-128193571D01*
X153637857Y-128288809D01*
X154114047Y-128384047D01*
X153209285Y-128717380D02*
X153209285Y-128050714D01*
X153209285Y-128241190D02*
X153161666Y-128145952D01*
X153114047Y-128098333D01*
X153018809Y-128050714D01*
X152923571Y-128050714D01*
X152828333Y-128812619D02*
X152066428Y-128812619D01*
X151923571Y-127717380D02*
X151304523Y-127717380D01*
X151637857Y-128098333D01*
X151495000Y-128098333D01*
X151399761Y-128145952D01*
X151352142Y-128193571D01*
X151304523Y-128288809D01*
X151304523Y-128526904D01*
X151352142Y-128622142D01*
X151399761Y-128669761D01*
X151495000Y-128717380D01*
X151780714Y-128717380D01*
X151875952Y-128669761D01*
X151923571Y-128622142D01*
X151114047Y-128812619D02*
X150352142Y-128812619D01*
X149780714Y-128193571D02*
X149637857Y-128241190D01*
X149590238Y-128288809D01*
X149542619Y-128384047D01*
X149542619Y-128526904D01*
X149590238Y-128622142D01*
X149637857Y-128669761D01*
X149733095Y-128717380D01*
X150114047Y-128717380D01*
X150114047Y-127717380D01*
X149780714Y-127717380D01*
X149685476Y-127765000D01*
X149637857Y-127812619D01*
X149590238Y-127907857D01*
X149590238Y-128003095D01*
X149637857Y-128098333D01*
X149685476Y-128145952D01*
X149780714Y-128193571D01*
X150114047Y-128193571D01*
X149114047Y-128717380D02*
X149114047Y-128050714D01*
X149114047Y-128241190D02*
X149066428Y-128145952D01*
X149018809Y-128098333D01*
X148923571Y-128050714D01*
X148828333Y-128050714D01*
X148495000Y-128717380D02*
X148495000Y-128050714D01*
X148495000Y-127717380D02*
X148542619Y-127765000D01*
X148495000Y-127812619D01*
X148447380Y-127765000D01*
X148495000Y-127717380D01*
X148495000Y-127812619D01*
X147590238Y-128717380D02*
X147590238Y-127717380D01*
X147590238Y-128669761D02*
X147685476Y-128717380D01*
X147875952Y-128717380D01*
X147971190Y-128669761D01*
X148018809Y-128622142D01*
X148066428Y-128526904D01*
X148066428Y-128241190D01*
X148018809Y-128145952D01*
X147971190Y-128098333D01*
X147875952Y-128050714D01*
X147685476Y-128050714D01*
X147590238Y-128098333D01*
X146685476Y-128050714D02*
X146685476Y-128860238D01*
X146733095Y-128955476D01*
X146780714Y-129003095D01*
X146875952Y-129050714D01*
X147018809Y-129050714D01*
X147114047Y-129003095D01*
X146685476Y-128669761D02*
X146780714Y-128717380D01*
X146971190Y-128717380D01*
X147066428Y-128669761D01*
X147114047Y-128622142D01*
X147161666Y-128526904D01*
X147161666Y-128241190D01*
X147114047Y-128145952D01*
X147066428Y-128098333D01*
X146971190Y-128050714D01*
X146780714Y-128050714D01*
X146685476Y-128098333D01*
X145828333Y-128669761D02*
X145923571Y-128717380D01*
X146114047Y-128717380D01*
X146209285Y-128669761D01*
X146256904Y-128574523D01*
X146256904Y-128193571D01*
X146209285Y-128098333D01*
X146114047Y-128050714D01*
X145923571Y-128050714D01*
X145828333Y-128098333D01*
X145780714Y-128193571D01*
X145780714Y-128288809D01*
X146256904Y-128384047D01*
X144923571Y-128717380D02*
X144923571Y-127717380D01*
X144923571Y-128669761D02*
X145018809Y-128717380D01*
X145209285Y-128717380D01*
X145304523Y-128669761D01*
X145352142Y-128622142D01*
X145399761Y-128526904D01*
X145399761Y-128241190D01*
X145352142Y-128145952D01*
X145304523Y-128098333D01*
X145209285Y-128050714D01*
X145018809Y-128050714D01*
X144923571Y-128098333D01*
X143923571Y-128717380D02*
X144495000Y-128717380D01*
X144209285Y-128717380D02*
X144209285Y-127717380D01*
X144304523Y-127860238D01*
X144399761Y-127955476D01*
X144495000Y-128003095D01*
X143542619Y-127812619D02*
X143495000Y-127765000D01*
X143399761Y-127717380D01*
X143161666Y-127717380D01*
X143066428Y-127765000D01*
X143018809Y-127812619D01*
X142971190Y-127907857D01*
X142971190Y-128003095D01*
X143018809Y-128145952D01*
X143590238Y-128717380D01*
X142971190Y-128717380D01*
%TO.C,C8*%
X175069285Y-89440119D02*
X175021666Y-89392500D01*
X174926428Y-89344880D01*
X174688333Y-89344880D01*
X174593095Y-89392500D01*
X174545476Y-89440119D01*
X174497857Y-89535357D01*
X174497857Y-89630595D01*
X174545476Y-89773452D01*
X175116904Y-90344880D01*
X174497857Y-90344880D01*
X174116904Y-89440119D02*
X174069285Y-89392500D01*
X173974047Y-89344880D01*
X173735952Y-89344880D01*
X173640714Y-89392500D01*
X173593095Y-89440119D01*
X173545476Y-89535357D01*
X173545476Y-89630595D01*
X173593095Y-89773452D01*
X174164523Y-90344880D01*
X173545476Y-90344880D01*
X173116904Y-89678214D02*
X173116904Y-90678214D01*
X172640714Y-90202023D02*
X172593095Y-90297261D01*
X172497857Y-90344880D01*
X173116904Y-90202023D02*
X173069285Y-90297261D01*
X172974047Y-90344880D01*
X172783571Y-90344880D01*
X172688333Y-90297261D01*
X172640714Y-90202023D01*
X172640714Y-89678214D01*
X171735952Y-89821071D02*
X172069285Y-89821071D01*
X172069285Y-90344880D02*
X172069285Y-89344880D01*
X171593095Y-89344880D01*
D13*
X173438333Y-91751071D02*
X173462142Y-91774880D01*
X173533571Y-91798690D01*
X173581190Y-91798690D01*
X173652619Y-91774880D01*
X173700238Y-91727261D01*
X173724047Y-91679642D01*
X173747857Y-91584404D01*
X173747857Y-91512976D01*
X173724047Y-91417738D01*
X173700238Y-91370119D01*
X173652619Y-91322500D01*
X173581190Y-91298690D01*
X173533571Y-91298690D01*
X173462142Y-91322500D01*
X173438333Y-91346309D01*
X173152619Y-91512976D02*
X173200238Y-91489166D01*
X173224047Y-91465357D01*
X173247857Y-91417738D01*
X173247857Y-91393928D01*
X173224047Y-91346309D01*
X173200238Y-91322500D01*
X173152619Y-91298690D01*
X173057380Y-91298690D01*
X173009761Y-91322500D01*
X172985952Y-91346309D01*
X172962142Y-91393928D01*
X172962142Y-91417738D01*
X172985952Y-91465357D01*
X173009761Y-91489166D01*
X173057380Y-91512976D01*
X173152619Y-91512976D01*
X173200238Y-91536785D01*
X173224047Y-91560595D01*
X173247857Y-91608214D01*
X173247857Y-91703452D01*
X173224047Y-91751071D01*
X173200238Y-91774880D01*
X173152619Y-91798690D01*
X173057380Y-91798690D01*
X173009761Y-91774880D01*
X172985952Y-91751071D01*
X172962142Y-91703452D01*
X172962142Y-91608214D01*
X172985952Y-91560595D01*
X173009761Y-91536785D01*
X173057380Y-91512976D01*
D12*
%TO.C,R5*%
X176466785Y-118817380D02*
X177038214Y-118817380D01*
X176752500Y-118817380D02*
X176752500Y-117817380D01*
X176847738Y-117960238D01*
X176942976Y-118055476D01*
X177038214Y-118103095D01*
X176038214Y-118817380D02*
X176038214Y-117817380D01*
X175466785Y-118817380D02*
X175895357Y-118245952D01*
X175466785Y-117817380D02*
X176038214Y-118388809D01*
D13*
X176335833Y-120241190D02*
X176502500Y-120003095D01*
X176621547Y-120241190D02*
X176621547Y-119741190D01*
X176431071Y-119741190D01*
X176383452Y-119765000D01*
X176359642Y-119788809D01*
X176335833Y-119836428D01*
X176335833Y-119907857D01*
X176359642Y-119955476D01*
X176383452Y-119979285D01*
X176431071Y-120003095D01*
X176621547Y-120003095D01*
X175883452Y-119741190D02*
X176121547Y-119741190D01*
X176145357Y-119979285D01*
X176121547Y-119955476D01*
X176073928Y-119931666D01*
X175954880Y-119931666D01*
X175907261Y-119955476D01*
X175883452Y-119979285D01*
X175859642Y-120026904D01*
X175859642Y-120145952D01*
X175883452Y-120193571D01*
X175907261Y-120217380D01*
X175954880Y-120241190D01*
X176073928Y-120241190D01*
X176121547Y-120217380D01*
X176145357Y-120193571D01*
D12*
%TO.C,R11*%
X181641261Y-86430380D02*
X182212690Y-86430380D01*
X181926976Y-86430380D02*
X181926976Y-85430380D01*
X182022214Y-85573238D01*
X182117452Y-85668476D01*
X182212690Y-85716095D01*
X181212690Y-86335142D02*
X181165071Y-86382761D01*
X181212690Y-86430380D01*
X181260309Y-86382761D01*
X181212690Y-86335142D01*
X181212690Y-86430380D01*
X180784119Y-85525619D02*
X180736500Y-85478000D01*
X180641261Y-85430380D01*
X180403166Y-85430380D01*
X180307928Y-85478000D01*
X180260309Y-85525619D01*
X180212690Y-85620857D01*
X180212690Y-85716095D01*
X180260309Y-85858952D01*
X180831738Y-86430380D01*
X180212690Y-86430380D01*
X179641261Y-85858952D02*
X179736500Y-85811333D01*
X179784119Y-85763714D01*
X179831738Y-85668476D01*
X179831738Y-85620857D01*
X179784119Y-85525619D01*
X179736500Y-85478000D01*
X179641261Y-85430380D01*
X179450785Y-85430380D01*
X179355547Y-85478000D01*
X179307928Y-85525619D01*
X179260309Y-85620857D01*
X179260309Y-85668476D01*
X179307928Y-85763714D01*
X179355547Y-85811333D01*
X179450785Y-85858952D01*
X179641261Y-85858952D01*
X179736500Y-85906571D01*
X179784119Y-85954190D01*
X179831738Y-86049428D01*
X179831738Y-86239904D01*
X179784119Y-86335142D01*
X179736500Y-86382761D01*
X179641261Y-86430380D01*
X179450785Y-86430380D01*
X179355547Y-86382761D01*
X179307928Y-86335142D01*
X179260309Y-86239904D01*
X179260309Y-86049428D01*
X179307928Y-85954190D01*
X179355547Y-85906571D01*
X179450785Y-85858952D01*
X178831738Y-86430380D02*
X178831738Y-85430380D01*
X178260309Y-86430380D02*
X178688880Y-85858952D01*
X178260309Y-85430380D02*
X178831738Y-86001809D01*
D13*
X180557928Y-84554190D02*
X180724595Y-84316095D01*
X180843642Y-84554190D02*
X180843642Y-84054190D01*
X180653166Y-84054190D01*
X180605547Y-84078000D01*
X180581738Y-84101809D01*
X180557928Y-84149428D01*
X180557928Y-84220857D01*
X180581738Y-84268476D01*
X180605547Y-84292285D01*
X180653166Y-84316095D01*
X180843642Y-84316095D01*
X180081738Y-84554190D02*
X180367452Y-84554190D01*
X180224595Y-84554190D02*
X180224595Y-84054190D01*
X180272214Y-84125619D01*
X180319833Y-84173238D01*
X180367452Y-84197047D01*
X179605547Y-84554190D02*
X179891261Y-84554190D01*
X179748404Y-84554190D02*
X179748404Y-84054190D01*
X179796023Y-84125619D01*
X179843642Y-84173238D01*
X179891261Y-84197047D01*
D12*
%TO.C,C5*%
X187044380Y-82780380D02*
X187044380Y-82208952D01*
X187044380Y-82494666D02*
X186044380Y-82494666D01*
X186187238Y-82399428D01*
X186282476Y-82304190D01*
X186330095Y-82208952D01*
X186044380Y-83399428D02*
X186044380Y-83494666D01*
X186092000Y-83589904D01*
X186139619Y-83637523D01*
X186234857Y-83685142D01*
X186425333Y-83732761D01*
X186663428Y-83732761D01*
X186853904Y-83685142D01*
X186949142Y-83637523D01*
X186996761Y-83589904D01*
X187044380Y-83494666D01*
X187044380Y-83399428D01*
X186996761Y-83304190D01*
X186949142Y-83256571D01*
X186853904Y-83208952D01*
X186663428Y-83161333D01*
X186425333Y-83161333D01*
X186234857Y-83208952D01*
X186139619Y-83256571D01*
X186092000Y-83304190D01*
X186044380Y-83399428D01*
X186044380Y-84351809D02*
X186044380Y-84447047D01*
X186092000Y-84542285D01*
X186139619Y-84589904D01*
X186234857Y-84637523D01*
X186425333Y-84685142D01*
X186663428Y-84685142D01*
X186853904Y-84637523D01*
X186949142Y-84589904D01*
X186996761Y-84542285D01*
X187044380Y-84447047D01*
X187044380Y-84351809D01*
X186996761Y-84256571D01*
X186949142Y-84208952D01*
X186853904Y-84161333D01*
X186663428Y-84113714D01*
X186425333Y-84113714D01*
X186234857Y-84161333D01*
X186139619Y-84208952D01*
X186092000Y-84256571D01*
X186044380Y-84351809D01*
X186377714Y-85113714D02*
X187044380Y-85113714D01*
X186472952Y-85113714D02*
X186425333Y-85161333D01*
X186377714Y-85256571D01*
X186377714Y-85399428D01*
X186425333Y-85494666D01*
X186520571Y-85542285D01*
X187044380Y-85542285D01*
X186520571Y-86351809D02*
X186520571Y-86018476D01*
X187044380Y-86018476D02*
X186044380Y-86018476D01*
X186044380Y-86494666D01*
D13*
X185090571Y-84244666D02*
X185114380Y-84220857D01*
X185138190Y-84149428D01*
X185138190Y-84101809D01*
X185114380Y-84030380D01*
X185066761Y-83982761D01*
X185019142Y-83958952D01*
X184923904Y-83935142D01*
X184852476Y-83935142D01*
X184757238Y-83958952D01*
X184709619Y-83982761D01*
X184662000Y-84030380D01*
X184638190Y-84101809D01*
X184638190Y-84149428D01*
X184662000Y-84220857D01*
X184685809Y-84244666D01*
X184638190Y-84697047D02*
X184638190Y-84458952D01*
X184876285Y-84435142D01*
X184852476Y-84458952D01*
X184828666Y-84506571D01*
X184828666Y-84625619D01*
X184852476Y-84673238D01*
X184876285Y-84697047D01*
X184923904Y-84720857D01*
X185042952Y-84720857D01*
X185090571Y-84697047D01*
X185114380Y-84673238D01*
X185138190Y-84625619D01*
X185138190Y-84506571D01*
X185114380Y-84458952D01*
X185090571Y-84435142D01*
D12*
%TO.C,R18*%
X170711666Y-124532380D02*
X171283095Y-124532380D01*
X170997380Y-124532380D02*
X170997380Y-123532380D01*
X171092619Y-123675238D01*
X171187857Y-123770476D01*
X171283095Y-123818095D01*
X170092619Y-123532380D02*
X169997380Y-123532380D01*
X169902142Y-123580000D01*
X169854523Y-123627619D01*
X169806904Y-123722857D01*
X169759285Y-123913333D01*
X169759285Y-124151428D01*
X169806904Y-124341904D01*
X169854523Y-124437142D01*
X169902142Y-124484761D01*
X169997380Y-124532380D01*
X170092619Y-124532380D01*
X170187857Y-124484761D01*
X170235476Y-124437142D01*
X170283095Y-124341904D01*
X170330714Y-124151428D01*
X170330714Y-123913333D01*
X170283095Y-123722857D01*
X170235476Y-123627619D01*
X170187857Y-123580000D01*
X170092619Y-123532380D01*
X169140238Y-123532380D02*
X169045000Y-123532380D01*
X168949761Y-123580000D01*
X168902142Y-123627619D01*
X168854523Y-123722857D01*
X168806904Y-123913333D01*
X168806904Y-124151428D01*
X168854523Y-124341904D01*
X168902142Y-124437142D01*
X168949761Y-124484761D01*
X169045000Y-124532380D01*
X169140238Y-124532380D01*
X169235476Y-124484761D01*
X169283095Y-124437142D01*
X169330714Y-124341904D01*
X169378333Y-124151428D01*
X169378333Y-123913333D01*
X169330714Y-123722857D01*
X169283095Y-123627619D01*
X169235476Y-123580000D01*
X169140238Y-123532380D01*
X168378333Y-124532380D02*
X168378333Y-123532380D01*
X167806904Y-124532380D02*
X168235476Y-123960952D01*
X167806904Y-123532380D02*
X168378333Y-124103809D01*
D13*
X169866428Y-125956190D02*
X170033095Y-125718095D01*
X170152142Y-125956190D02*
X170152142Y-125456190D01*
X169961666Y-125456190D01*
X169914047Y-125480000D01*
X169890238Y-125503809D01*
X169866428Y-125551428D01*
X169866428Y-125622857D01*
X169890238Y-125670476D01*
X169914047Y-125694285D01*
X169961666Y-125718095D01*
X170152142Y-125718095D01*
X169390238Y-125956190D02*
X169675952Y-125956190D01*
X169533095Y-125956190D02*
X169533095Y-125456190D01*
X169580714Y-125527619D01*
X169628333Y-125575238D01*
X169675952Y-125599047D01*
X169104523Y-125670476D02*
X169152142Y-125646666D01*
X169175952Y-125622857D01*
X169199761Y-125575238D01*
X169199761Y-125551428D01*
X169175952Y-125503809D01*
X169152142Y-125480000D01*
X169104523Y-125456190D01*
X169009285Y-125456190D01*
X168961666Y-125480000D01*
X168937857Y-125503809D01*
X168914047Y-125551428D01*
X168914047Y-125575238D01*
X168937857Y-125622857D01*
X168961666Y-125646666D01*
X169009285Y-125670476D01*
X169104523Y-125670476D01*
X169152142Y-125694285D01*
X169175952Y-125718095D01*
X169199761Y-125765714D01*
X169199761Y-125860952D01*
X169175952Y-125908571D01*
X169152142Y-125932380D01*
X169104523Y-125956190D01*
X169009285Y-125956190D01*
X168961666Y-125932380D01*
X168937857Y-125908571D01*
X168914047Y-125860952D01*
X168914047Y-125765714D01*
X168937857Y-125718095D01*
X168961666Y-125694285D01*
X169009285Y-125670476D01*
D12*
%TO.C,R19*%
X170711666Y-133547380D02*
X171283095Y-133547380D01*
X170997380Y-133547380D02*
X170997380Y-132547380D01*
X171092619Y-132690238D01*
X171187857Y-132785476D01*
X171283095Y-132833095D01*
X169806904Y-132547380D02*
X170283095Y-132547380D01*
X170330714Y-133023571D01*
X170283095Y-132975952D01*
X170187857Y-132928333D01*
X169949761Y-132928333D01*
X169854523Y-132975952D01*
X169806904Y-133023571D01*
X169759285Y-133118809D01*
X169759285Y-133356904D01*
X169806904Y-133452142D01*
X169854523Y-133499761D01*
X169949761Y-133547380D01*
X170187857Y-133547380D01*
X170283095Y-133499761D01*
X170330714Y-133452142D01*
X169140238Y-132547380D02*
X169045000Y-132547380D01*
X168949761Y-132595000D01*
X168902142Y-132642619D01*
X168854523Y-132737857D01*
X168806904Y-132928333D01*
X168806904Y-133166428D01*
X168854523Y-133356904D01*
X168902142Y-133452142D01*
X168949761Y-133499761D01*
X169045000Y-133547380D01*
X169140238Y-133547380D01*
X169235476Y-133499761D01*
X169283095Y-133452142D01*
X169330714Y-133356904D01*
X169378333Y-133166428D01*
X169378333Y-132928333D01*
X169330714Y-132737857D01*
X169283095Y-132642619D01*
X169235476Y-132595000D01*
X169140238Y-132547380D01*
X168378333Y-133547380D02*
X168378333Y-132547380D01*
X167806904Y-133547380D02*
X168235476Y-132975952D01*
X167806904Y-132547380D02*
X168378333Y-133118809D01*
D13*
X169866428Y-131671190D02*
X170033095Y-131433095D01*
X170152142Y-131671190D02*
X170152142Y-131171190D01*
X169961666Y-131171190D01*
X169914047Y-131195000D01*
X169890238Y-131218809D01*
X169866428Y-131266428D01*
X169866428Y-131337857D01*
X169890238Y-131385476D01*
X169914047Y-131409285D01*
X169961666Y-131433095D01*
X170152142Y-131433095D01*
X169390238Y-131671190D02*
X169675952Y-131671190D01*
X169533095Y-131671190D02*
X169533095Y-131171190D01*
X169580714Y-131242619D01*
X169628333Y-131290238D01*
X169675952Y-131314047D01*
X169152142Y-131671190D02*
X169056904Y-131671190D01*
X169009285Y-131647380D01*
X168985476Y-131623571D01*
X168937857Y-131552142D01*
X168914047Y-131456904D01*
X168914047Y-131266428D01*
X168937857Y-131218809D01*
X168961666Y-131195000D01*
X169009285Y-131171190D01*
X169104523Y-131171190D01*
X169152142Y-131195000D01*
X169175952Y-131218809D01*
X169199761Y-131266428D01*
X169199761Y-131385476D01*
X169175952Y-131433095D01*
X169152142Y-131456904D01*
X169104523Y-131480714D01*
X169009285Y-131480714D01*
X168961666Y-131456904D01*
X168937857Y-131433095D01*
X168914047Y-131385476D01*
D12*
%TO.C,C13*%
X119091666Y-116432380D02*
X119663095Y-116432380D01*
X119377380Y-116432380D02*
X119377380Y-115432380D01*
X119472619Y-115575238D01*
X119567857Y-115670476D01*
X119663095Y-115718095D01*
X118663095Y-115765714D02*
X118663095Y-116765714D01*
X118186904Y-116289523D02*
X118139285Y-116384761D01*
X118044047Y-116432380D01*
X118663095Y-116289523D02*
X118615476Y-116384761D01*
X118520238Y-116432380D01*
X118329761Y-116432380D01*
X118234523Y-116384761D01*
X118186904Y-116289523D01*
X118186904Y-115765714D01*
X117282142Y-115908571D02*
X117615476Y-115908571D01*
X117615476Y-116432380D02*
X117615476Y-115432380D01*
X117139285Y-115432380D01*
D13*
X118746428Y-114478571D02*
X118770238Y-114502380D01*
X118841666Y-114526190D01*
X118889285Y-114526190D01*
X118960714Y-114502380D01*
X119008333Y-114454761D01*
X119032142Y-114407142D01*
X119055952Y-114311904D01*
X119055952Y-114240476D01*
X119032142Y-114145238D01*
X119008333Y-114097619D01*
X118960714Y-114050000D01*
X118889285Y-114026190D01*
X118841666Y-114026190D01*
X118770238Y-114050000D01*
X118746428Y-114073809D01*
X118270238Y-114526190D02*
X118555952Y-114526190D01*
X118413095Y-114526190D02*
X118413095Y-114026190D01*
X118460714Y-114097619D01*
X118508333Y-114145238D01*
X118555952Y-114169047D01*
X118103571Y-114026190D02*
X117794047Y-114026190D01*
X117960714Y-114216666D01*
X117889285Y-114216666D01*
X117841666Y-114240476D01*
X117817857Y-114264285D01*
X117794047Y-114311904D01*
X117794047Y-114430952D01*
X117817857Y-114478571D01*
X117841666Y-114502380D01*
X117889285Y-114526190D01*
X118032142Y-114526190D01*
X118079761Y-114502380D01*
X118103571Y-114478571D01*
D12*
%TO.C,R9*%
X181601904Y-118531714D02*
X181601904Y-119198380D01*
X181840000Y-118150761D02*
X182078095Y-118865047D01*
X181459047Y-118865047D01*
X181173333Y-118198380D02*
X180506666Y-118198380D01*
X180935238Y-119198380D01*
X179935238Y-118198380D02*
X179840000Y-118198380D01*
X179744761Y-118246000D01*
X179697142Y-118293619D01*
X179649523Y-118388857D01*
X179601904Y-118579333D01*
X179601904Y-118817428D01*
X179649523Y-119007904D01*
X179697142Y-119103142D01*
X179744761Y-119150761D01*
X179840000Y-119198380D01*
X179935238Y-119198380D01*
X180030476Y-119150761D01*
X180078095Y-119103142D01*
X180125714Y-119007904D01*
X180173333Y-118817428D01*
X180173333Y-118579333D01*
X180125714Y-118388857D01*
X180078095Y-118293619D01*
X180030476Y-118246000D01*
X179935238Y-118198380D01*
X178601904Y-119198380D02*
X178935238Y-118722190D01*
X179173333Y-119198380D02*
X179173333Y-118198380D01*
X178792380Y-118198380D01*
X178697142Y-118246000D01*
X178649523Y-118293619D01*
X178601904Y-118388857D01*
X178601904Y-118531714D01*
X178649523Y-118626952D01*
X178697142Y-118674571D01*
X178792380Y-118722190D01*
X179173333Y-118722190D01*
D13*
X180423333Y-120622190D02*
X180590000Y-120384095D01*
X180709047Y-120622190D02*
X180709047Y-120122190D01*
X180518571Y-120122190D01*
X180470952Y-120146000D01*
X180447142Y-120169809D01*
X180423333Y-120217428D01*
X180423333Y-120288857D01*
X180447142Y-120336476D01*
X180470952Y-120360285D01*
X180518571Y-120384095D01*
X180709047Y-120384095D01*
X180185238Y-120622190D02*
X180090000Y-120622190D01*
X180042380Y-120598380D01*
X180018571Y-120574571D01*
X179970952Y-120503142D01*
X179947142Y-120407904D01*
X179947142Y-120217428D01*
X179970952Y-120169809D01*
X179994761Y-120146000D01*
X180042380Y-120122190D01*
X180137619Y-120122190D01*
X180185238Y-120146000D01*
X180209047Y-120169809D01*
X180232857Y-120217428D01*
X180232857Y-120336476D01*
X180209047Y-120384095D01*
X180185238Y-120407904D01*
X180137619Y-120431714D01*
X180042380Y-120431714D01*
X179994761Y-120407904D01*
X179970952Y-120384095D01*
X179947142Y-120336476D01*
D12*
%TO.C,R14*%
X181412619Y-107878809D02*
X181365000Y-107926428D01*
X181317380Y-108021666D01*
X181317380Y-108259761D01*
X181365000Y-108355000D01*
X181412619Y-108402619D01*
X181507857Y-108450238D01*
X181603095Y-108450238D01*
X181745952Y-108402619D01*
X182317380Y-107831190D01*
X182317380Y-108450238D01*
X181317380Y-109355000D02*
X181317380Y-108878809D01*
X181793571Y-108831190D01*
X181745952Y-108878809D01*
X181698333Y-108974047D01*
X181698333Y-109212142D01*
X181745952Y-109307380D01*
X181793571Y-109355000D01*
X181888809Y-109402619D01*
X182126904Y-109402619D01*
X182222142Y-109355000D01*
X182269761Y-109307380D01*
X182317380Y-109212142D01*
X182317380Y-108974047D01*
X182269761Y-108878809D01*
X182222142Y-108831190D01*
X182222142Y-109831190D02*
X182269761Y-109878809D01*
X182317380Y-109831190D01*
X182269761Y-109783571D01*
X182222142Y-109831190D01*
X182317380Y-109831190D01*
X181317380Y-110783571D02*
X181317380Y-110307380D01*
X181793571Y-110259761D01*
X181745952Y-110307380D01*
X181698333Y-110402619D01*
X181698333Y-110640714D01*
X181745952Y-110735952D01*
X181793571Y-110783571D01*
X181888809Y-110831190D01*
X182126904Y-110831190D01*
X182222142Y-110783571D01*
X182269761Y-110735952D01*
X182317380Y-110640714D01*
X182317380Y-110402619D01*
X182269761Y-110307380D01*
X182222142Y-110259761D01*
X182317380Y-111259761D02*
X181317380Y-111259761D01*
X182317380Y-111831190D02*
X181745952Y-111402619D01*
X181317380Y-111831190D02*
X181888809Y-111259761D01*
D13*
X183741190Y-109533571D02*
X183503095Y-109366904D01*
X183741190Y-109247857D02*
X183241190Y-109247857D01*
X183241190Y-109438333D01*
X183265000Y-109485952D01*
X183288809Y-109509761D01*
X183336428Y-109533571D01*
X183407857Y-109533571D01*
X183455476Y-109509761D01*
X183479285Y-109485952D01*
X183503095Y-109438333D01*
X183503095Y-109247857D01*
X183741190Y-110009761D02*
X183741190Y-109724047D01*
X183741190Y-109866904D02*
X183241190Y-109866904D01*
X183312619Y-109819285D01*
X183360238Y-109771666D01*
X183384047Y-109724047D01*
X183407857Y-110438333D02*
X183741190Y-110438333D01*
X183217380Y-110319285D02*
X183574523Y-110200238D01*
X183574523Y-110509761D01*
D12*
%TO.C,R29*%
X160727380Y-113490833D02*
X160727380Y-112919404D01*
X160727380Y-113205119D02*
X159727380Y-113205119D01*
X159870238Y-113109880D01*
X159965476Y-113014642D01*
X160013095Y-112919404D01*
X159727380Y-114109880D02*
X159727380Y-114205119D01*
X159775000Y-114300357D01*
X159822619Y-114347976D01*
X159917857Y-114395595D01*
X160108333Y-114443214D01*
X160346428Y-114443214D01*
X160536904Y-114395595D01*
X160632142Y-114347976D01*
X160679761Y-114300357D01*
X160727380Y-114205119D01*
X160727380Y-114109880D01*
X160679761Y-114014642D01*
X160632142Y-113967023D01*
X160536904Y-113919404D01*
X160346428Y-113871785D01*
X160108333Y-113871785D01*
X159917857Y-113919404D01*
X159822619Y-113967023D01*
X159775000Y-114014642D01*
X159727380Y-114109880D01*
X159727380Y-115062261D02*
X159727380Y-115157500D01*
X159775000Y-115252738D01*
X159822619Y-115300357D01*
X159917857Y-115347976D01*
X160108333Y-115395595D01*
X160346428Y-115395595D01*
X160536904Y-115347976D01*
X160632142Y-115300357D01*
X160679761Y-115252738D01*
X160727380Y-115157500D01*
X160727380Y-115062261D01*
X160679761Y-114967023D01*
X160632142Y-114919404D01*
X160536904Y-114871785D01*
X160346428Y-114824166D01*
X160108333Y-114824166D01*
X159917857Y-114871785D01*
X159822619Y-114919404D01*
X159775000Y-114967023D01*
X159727380Y-115062261D01*
X160727380Y-115824166D02*
X159727380Y-115824166D01*
X160727380Y-116395595D02*
X160155952Y-115967023D01*
X159727380Y-116395595D02*
X160298809Y-115824166D01*
D13*
X162151190Y-114336071D02*
X161913095Y-114169404D01*
X162151190Y-114050357D02*
X161651190Y-114050357D01*
X161651190Y-114240833D01*
X161675000Y-114288452D01*
X161698809Y-114312261D01*
X161746428Y-114336071D01*
X161817857Y-114336071D01*
X161865476Y-114312261D01*
X161889285Y-114288452D01*
X161913095Y-114240833D01*
X161913095Y-114050357D01*
X161698809Y-114526547D02*
X161675000Y-114550357D01*
X161651190Y-114597976D01*
X161651190Y-114717023D01*
X161675000Y-114764642D01*
X161698809Y-114788452D01*
X161746428Y-114812261D01*
X161794047Y-114812261D01*
X161865476Y-114788452D01*
X162151190Y-114502738D01*
X162151190Y-114812261D01*
X162151190Y-115050357D02*
X162151190Y-115145595D01*
X162127380Y-115193214D01*
X162103571Y-115217023D01*
X162032142Y-115264642D01*
X161936904Y-115288452D01*
X161746428Y-115288452D01*
X161698809Y-115264642D01*
X161675000Y-115240833D01*
X161651190Y-115193214D01*
X161651190Y-115097976D01*
X161675000Y-115050357D01*
X161698809Y-115026547D01*
X161746428Y-115002738D01*
X161865476Y-115002738D01*
X161913095Y-115026547D01*
X161936904Y-115050357D01*
X161960714Y-115097976D01*
X161960714Y-115193214D01*
X161936904Y-115240833D01*
X161913095Y-115264642D01*
X161865476Y-115288452D01*
D12*
%TO.C,C10*%
X168232619Y-84778214D02*
X168185000Y-84825833D01*
X168137380Y-84921071D01*
X168137380Y-85159166D01*
X168185000Y-85254404D01*
X168232619Y-85302023D01*
X168327857Y-85349642D01*
X168423095Y-85349642D01*
X168565952Y-85302023D01*
X169137380Y-84730595D01*
X169137380Y-85349642D01*
X168232619Y-85730595D02*
X168185000Y-85778214D01*
X168137380Y-85873452D01*
X168137380Y-86111547D01*
X168185000Y-86206785D01*
X168232619Y-86254404D01*
X168327857Y-86302023D01*
X168423095Y-86302023D01*
X168565952Y-86254404D01*
X169137380Y-85682976D01*
X169137380Y-86302023D01*
X168470714Y-86730595D02*
X169470714Y-86730595D01*
X168994523Y-87206785D02*
X169089761Y-87254404D01*
X169137380Y-87349642D01*
X168994523Y-86730595D02*
X169089761Y-86778214D01*
X169137380Y-86873452D01*
X169137380Y-87063928D01*
X169089761Y-87159166D01*
X168994523Y-87206785D01*
X168470714Y-87206785D01*
X168613571Y-88111547D02*
X168613571Y-87778214D01*
X169137380Y-87778214D02*
X168137380Y-87778214D01*
X168137380Y-88254404D01*
D13*
X167183571Y-86171071D02*
X167207380Y-86147261D01*
X167231190Y-86075833D01*
X167231190Y-86028214D01*
X167207380Y-85956785D01*
X167159761Y-85909166D01*
X167112142Y-85885357D01*
X167016904Y-85861547D01*
X166945476Y-85861547D01*
X166850238Y-85885357D01*
X166802619Y-85909166D01*
X166755000Y-85956785D01*
X166731190Y-86028214D01*
X166731190Y-86075833D01*
X166755000Y-86147261D01*
X166778809Y-86171071D01*
X167231190Y-86647261D02*
X167231190Y-86361547D01*
X167231190Y-86504404D02*
X166731190Y-86504404D01*
X166802619Y-86456785D01*
X166850238Y-86409166D01*
X166874047Y-86361547D01*
X166731190Y-86956785D02*
X166731190Y-87004404D01*
X166755000Y-87052023D01*
X166778809Y-87075833D01*
X166826428Y-87099642D01*
X166921666Y-87123452D01*
X167040714Y-87123452D01*
X167135952Y-87099642D01*
X167183571Y-87075833D01*
X167207380Y-87052023D01*
X167231190Y-87004404D01*
X167231190Y-86956785D01*
X167207380Y-86909166D01*
X167183571Y-86885357D01*
X167135952Y-86861547D01*
X167040714Y-86837738D01*
X166921666Y-86837738D01*
X166826428Y-86861547D01*
X166778809Y-86885357D01*
X166755000Y-86909166D01*
X166731190Y-86956785D01*
D12*
%TO.C,R26*%
X148662380Y-121229523D02*
X148662380Y-120658095D01*
X148662380Y-120943809D02*
X147662380Y-120943809D01*
X147805238Y-120848571D01*
X147900476Y-120753333D01*
X147948095Y-120658095D01*
X147662380Y-121848571D02*
X147662380Y-121943809D01*
X147710000Y-122039047D01*
X147757619Y-122086666D01*
X147852857Y-122134285D01*
X148043333Y-122181904D01*
X148281428Y-122181904D01*
X148471904Y-122134285D01*
X148567142Y-122086666D01*
X148614761Y-122039047D01*
X148662380Y-121943809D01*
X148662380Y-121848571D01*
X148614761Y-121753333D01*
X148567142Y-121705714D01*
X148471904Y-121658095D01*
X148281428Y-121610476D01*
X148043333Y-121610476D01*
X147852857Y-121658095D01*
X147757619Y-121705714D01*
X147710000Y-121753333D01*
X147662380Y-121848571D01*
X148662380Y-122610476D02*
X147662380Y-122610476D01*
X148662380Y-123181904D02*
X148090952Y-122753333D01*
X147662380Y-123181904D02*
X148233809Y-122610476D01*
D13*
X150086190Y-121598571D02*
X149848095Y-121431904D01*
X150086190Y-121312857D02*
X149586190Y-121312857D01*
X149586190Y-121503333D01*
X149610000Y-121550952D01*
X149633809Y-121574761D01*
X149681428Y-121598571D01*
X149752857Y-121598571D01*
X149800476Y-121574761D01*
X149824285Y-121550952D01*
X149848095Y-121503333D01*
X149848095Y-121312857D01*
X149633809Y-121789047D02*
X149610000Y-121812857D01*
X149586190Y-121860476D01*
X149586190Y-121979523D01*
X149610000Y-122027142D01*
X149633809Y-122050952D01*
X149681428Y-122074761D01*
X149729047Y-122074761D01*
X149800476Y-122050952D01*
X150086190Y-121765238D01*
X150086190Y-122074761D01*
X149586190Y-122503333D02*
X149586190Y-122408095D01*
X149610000Y-122360476D01*
X149633809Y-122336666D01*
X149705238Y-122289047D01*
X149800476Y-122265238D01*
X149990952Y-122265238D01*
X150038571Y-122289047D01*
X150062380Y-122312857D01*
X150086190Y-122360476D01*
X150086190Y-122455714D01*
X150062380Y-122503333D01*
X150038571Y-122527142D01*
X149990952Y-122550952D01*
X149871904Y-122550952D01*
X149824285Y-122527142D01*
X149800476Y-122503333D01*
X149776666Y-122455714D01*
X149776666Y-122360476D01*
X149800476Y-122312857D01*
X149824285Y-122289047D01*
X149871904Y-122265238D01*
D12*
%TO.C,R28*%
X166567380Y-113490833D02*
X166567380Y-112919404D01*
X166567380Y-113205119D02*
X165567380Y-113205119D01*
X165710238Y-113109880D01*
X165805476Y-113014642D01*
X165853095Y-112919404D01*
X165567380Y-114109880D02*
X165567380Y-114205119D01*
X165615000Y-114300357D01*
X165662619Y-114347976D01*
X165757857Y-114395595D01*
X165948333Y-114443214D01*
X166186428Y-114443214D01*
X166376904Y-114395595D01*
X166472142Y-114347976D01*
X166519761Y-114300357D01*
X166567380Y-114205119D01*
X166567380Y-114109880D01*
X166519761Y-114014642D01*
X166472142Y-113967023D01*
X166376904Y-113919404D01*
X166186428Y-113871785D01*
X165948333Y-113871785D01*
X165757857Y-113919404D01*
X165662619Y-113967023D01*
X165615000Y-114014642D01*
X165567380Y-114109880D01*
X165567380Y-115062261D02*
X165567380Y-115157500D01*
X165615000Y-115252738D01*
X165662619Y-115300357D01*
X165757857Y-115347976D01*
X165948333Y-115395595D01*
X166186428Y-115395595D01*
X166376904Y-115347976D01*
X166472142Y-115300357D01*
X166519761Y-115252738D01*
X166567380Y-115157500D01*
X166567380Y-115062261D01*
X166519761Y-114967023D01*
X166472142Y-114919404D01*
X166376904Y-114871785D01*
X166186428Y-114824166D01*
X165948333Y-114824166D01*
X165757857Y-114871785D01*
X165662619Y-114919404D01*
X165615000Y-114967023D01*
X165567380Y-115062261D01*
X166567380Y-115824166D02*
X165567380Y-115824166D01*
X166567380Y-116395595D02*
X165995952Y-115967023D01*
X165567380Y-116395595D02*
X166138809Y-115824166D01*
D13*
X164691190Y-114336071D02*
X164453095Y-114169404D01*
X164691190Y-114050357D02*
X164191190Y-114050357D01*
X164191190Y-114240833D01*
X164215000Y-114288452D01*
X164238809Y-114312261D01*
X164286428Y-114336071D01*
X164357857Y-114336071D01*
X164405476Y-114312261D01*
X164429285Y-114288452D01*
X164453095Y-114240833D01*
X164453095Y-114050357D01*
X164238809Y-114526547D02*
X164215000Y-114550357D01*
X164191190Y-114597976D01*
X164191190Y-114717023D01*
X164215000Y-114764642D01*
X164238809Y-114788452D01*
X164286428Y-114812261D01*
X164334047Y-114812261D01*
X164405476Y-114788452D01*
X164691190Y-114502738D01*
X164691190Y-114812261D01*
X164405476Y-115097976D02*
X164381666Y-115050357D01*
X164357857Y-115026547D01*
X164310238Y-115002738D01*
X164286428Y-115002738D01*
X164238809Y-115026547D01*
X164215000Y-115050357D01*
X164191190Y-115097976D01*
X164191190Y-115193214D01*
X164215000Y-115240833D01*
X164238809Y-115264642D01*
X164286428Y-115288452D01*
X164310238Y-115288452D01*
X164357857Y-115264642D01*
X164381666Y-115240833D01*
X164405476Y-115193214D01*
X164405476Y-115097976D01*
X164429285Y-115050357D01*
X164453095Y-115026547D01*
X164500714Y-115002738D01*
X164595952Y-115002738D01*
X164643571Y-115026547D01*
X164667380Y-115050357D01*
X164691190Y-115097976D01*
X164691190Y-115193214D01*
X164667380Y-115240833D01*
X164643571Y-115264642D01*
X164595952Y-115288452D01*
X164500714Y-115288452D01*
X164453095Y-115264642D01*
X164429285Y-115240833D01*
X164405476Y-115193214D01*
D12*
%TO.C,R8*%
X182714380Y-88130095D02*
X182714380Y-87653904D01*
X183190571Y-87606285D01*
X183142952Y-87653904D01*
X183095333Y-87749142D01*
X183095333Y-87987238D01*
X183142952Y-88082476D01*
X183190571Y-88130095D01*
X183285809Y-88177714D01*
X183523904Y-88177714D01*
X183619142Y-88130095D01*
X183666761Y-88082476D01*
X183714380Y-87987238D01*
X183714380Y-87749142D01*
X183666761Y-87653904D01*
X183619142Y-87606285D01*
X183714380Y-88606285D02*
X182714380Y-88606285D01*
X183714380Y-89177714D02*
X183142952Y-88749142D01*
X182714380Y-89177714D02*
X183285809Y-88606285D01*
D13*
X185138190Y-88308666D02*
X184900095Y-88142000D01*
X185138190Y-88022952D02*
X184638190Y-88022952D01*
X184638190Y-88213428D01*
X184662000Y-88261047D01*
X184685809Y-88284857D01*
X184733428Y-88308666D01*
X184804857Y-88308666D01*
X184852476Y-88284857D01*
X184876285Y-88261047D01*
X184900095Y-88213428D01*
X184900095Y-88022952D01*
X184852476Y-88594380D02*
X184828666Y-88546761D01*
X184804857Y-88522952D01*
X184757238Y-88499142D01*
X184733428Y-88499142D01*
X184685809Y-88522952D01*
X184662000Y-88546761D01*
X184638190Y-88594380D01*
X184638190Y-88689619D01*
X184662000Y-88737238D01*
X184685809Y-88761047D01*
X184733428Y-88784857D01*
X184757238Y-88784857D01*
X184804857Y-88761047D01*
X184828666Y-88737238D01*
X184852476Y-88689619D01*
X184852476Y-88594380D01*
X184876285Y-88546761D01*
X184900095Y-88522952D01*
X184947714Y-88499142D01*
X185042952Y-88499142D01*
X185090571Y-88522952D01*
X185114380Y-88546761D01*
X185138190Y-88594380D01*
X185138190Y-88689619D01*
X185114380Y-88737238D01*
X185090571Y-88761047D01*
X185042952Y-88784857D01*
X184947714Y-88784857D01*
X184900095Y-88761047D01*
X184876285Y-88737238D01*
X184852476Y-88689619D01*
D12*
%TO.C,R6*%
X123245476Y-101797380D02*
X123816904Y-101797380D01*
X123531190Y-101797380D02*
X123531190Y-100797380D01*
X123626428Y-100940238D01*
X123721666Y-101035476D01*
X123816904Y-101083095D01*
X122626428Y-100797380D02*
X122531190Y-100797380D01*
X122435952Y-100845000D01*
X122388333Y-100892619D01*
X122340714Y-100987857D01*
X122293095Y-101178333D01*
X122293095Y-101416428D01*
X122340714Y-101606904D01*
X122388333Y-101702142D01*
X122435952Y-101749761D01*
X122531190Y-101797380D01*
X122626428Y-101797380D01*
X122721666Y-101749761D01*
X122769285Y-101702142D01*
X122816904Y-101606904D01*
X122864523Y-101416428D01*
X122864523Y-101178333D01*
X122816904Y-100987857D01*
X122769285Y-100892619D01*
X122721666Y-100845000D01*
X122626428Y-100797380D01*
X121864523Y-101797380D02*
X121864523Y-100797380D01*
X121293095Y-101797380D02*
X121721666Y-101225952D01*
X121293095Y-100797380D02*
X121864523Y-101368809D01*
D13*
X122638333Y-99921190D02*
X122805000Y-99683095D01*
X122924047Y-99921190D02*
X122924047Y-99421190D01*
X122733571Y-99421190D01*
X122685952Y-99445000D01*
X122662142Y-99468809D01*
X122638333Y-99516428D01*
X122638333Y-99587857D01*
X122662142Y-99635476D01*
X122685952Y-99659285D01*
X122733571Y-99683095D01*
X122924047Y-99683095D01*
X122209761Y-99421190D02*
X122305000Y-99421190D01*
X122352619Y-99445000D01*
X122376428Y-99468809D01*
X122424047Y-99540238D01*
X122447857Y-99635476D01*
X122447857Y-99825952D01*
X122424047Y-99873571D01*
X122400238Y-99897380D01*
X122352619Y-99921190D01*
X122257380Y-99921190D01*
X122209761Y-99897380D01*
X122185952Y-99873571D01*
X122162142Y-99825952D01*
X122162142Y-99706904D01*
X122185952Y-99659285D01*
X122209761Y-99635476D01*
X122257380Y-99611666D01*
X122352619Y-99611666D01*
X122400238Y-99635476D01*
X122424047Y-99659285D01*
X122447857Y-99706904D01*
D12*
%TO.C,R25*%
X134057380Y-108529523D02*
X134057380Y-107958095D01*
X134057380Y-108243809D02*
X133057380Y-108243809D01*
X133200238Y-108148571D01*
X133295476Y-108053333D01*
X133343095Y-107958095D01*
X133057380Y-109148571D02*
X133057380Y-109243809D01*
X133105000Y-109339047D01*
X133152619Y-109386666D01*
X133247857Y-109434285D01*
X133438333Y-109481904D01*
X133676428Y-109481904D01*
X133866904Y-109434285D01*
X133962142Y-109386666D01*
X134009761Y-109339047D01*
X134057380Y-109243809D01*
X134057380Y-109148571D01*
X134009761Y-109053333D01*
X133962142Y-109005714D01*
X133866904Y-108958095D01*
X133676428Y-108910476D01*
X133438333Y-108910476D01*
X133247857Y-108958095D01*
X133152619Y-109005714D01*
X133105000Y-109053333D01*
X133057380Y-109148571D01*
X134057380Y-110481904D02*
X133581190Y-110148571D01*
X134057380Y-109910476D02*
X133057380Y-109910476D01*
X133057380Y-110291428D01*
X133105000Y-110386666D01*
X133152619Y-110434285D01*
X133247857Y-110481904D01*
X133390714Y-110481904D01*
X133485952Y-110434285D01*
X133533571Y-110386666D01*
X133581190Y-110291428D01*
X133581190Y-109910476D01*
D13*
X135481190Y-108898571D02*
X135243095Y-108731904D01*
X135481190Y-108612857D02*
X134981190Y-108612857D01*
X134981190Y-108803333D01*
X135005000Y-108850952D01*
X135028809Y-108874761D01*
X135076428Y-108898571D01*
X135147857Y-108898571D01*
X135195476Y-108874761D01*
X135219285Y-108850952D01*
X135243095Y-108803333D01*
X135243095Y-108612857D01*
X135028809Y-109089047D02*
X135005000Y-109112857D01*
X134981190Y-109160476D01*
X134981190Y-109279523D01*
X135005000Y-109327142D01*
X135028809Y-109350952D01*
X135076428Y-109374761D01*
X135124047Y-109374761D01*
X135195476Y-109350952D01*
X135481190Y-109065238D01*
X135481190Y-109374761D01*
X134981190Y-109827142D02*
X134981190Y-109589047D01*
X135219285Y-109565238D01*
X135195476Y-109589047D01*
X135171666Y-109636666D01*
X135171666Y-109755714D01*
X135195476Y-109803333D01*
X135219285Y-109827142D01*
X135266904Y-109850952D01*
X135385952Y-109850952D01*
X135433571Y-109827142D01*
X135457380Y-109803333D01*
X135481190Y-109755714D01*
X135481190Y-109636666D01*
X135457380Y-109589047D01*
X135433571Y-109565238D01*
D12*
%TO.C,R27*%
X165807380Y-113490833D02*
X165807380Y-112919404D01*
X165807380Y-113205119D02*
X164807380Y-113205119D01*
X164950238Y-113109880D01*
X165045476Y-113014642D01*
X165093095Y-112919404D01*
X164807380Y-114109880D02*
X164807380Y-114205119D01*
X164855000Y-114300357D01*
X164902619Y-114347976D01*
X164997857Y-114395595D01*
X165188333Y-114443214D01*
X165426428Y-114443214D01*
X165616904Y-114395595D01*
X165712142Y-114347976D01*
X165759761Y-114300357D01*
X165807380Y-114205119D01*
X165807380Y-114109880D01*
X165759761Y-114014642D01*
X165712142Y-113967023D01*
X165616904Y-113919404D01*
X165426428Y-113871785D01*
X165188333Y-113871785D01*
X164997857Y-113919404D01*
X164902619Y-113967023D01*
X164855000Y-114014642D01*
X164807380Y-114109880D01*
X164807380Y-115062261D02*
X164807380Y-115157500D01*
X164855000Y-115252738D01*
X164902619Y-115300357D01*
X164997857Y-115347976D01*
X165188333Y-115395595D01*
X165426428Y-115395595D01*
X165616904Y-115347976D01*
X165712142Y-115300357D01*
X165759761Y-115252738D01*
X165807380Y-115157500D01*
X165807380Y-115062261D01*
X165759761Y-114967023D01*
X165712142Y-114919404D01*
X165616904Y-114871785D01*
X165426428Y-114824166D01*
X165188333Y-114824166D01*
X164997857Y-114871785D01*
X164902619Y-114919404D01*
X164855000Y-114967023D01*
X164807380Y-115062261D01*
X165807380Y-115824166D02*
X164807380Y-115824166D01*
X165807380Y-116395595D02*
X165235952Y-115967023D01*
X164807380Y-116395595D02*
X165378809Y-115824166D01*
D13*
X167231190Y-114336071D02*
X166993095Y-114169404D01*
X167231190Y-114050357D02*
X166731190Y-114050357D01*
X166731190Y-114240833D01*
X166755000Y-114288452D01*
X166778809Y-114312261D01*
X166826428Y-114336071D01*
X166897857Y-114336071D01*
X166945476Y-114312261D01*
X166969285Y-114288452D01*
X166993095Y-114240833D01*
X166993095Y-114050357D01*
X166778809Y-114526547D02*
X166755000Y-114550357D01*
X166731190Y-114597976D01*
X166731190Y-114717023D01*
X166755000Y-114764642D01*
X166778809Y-114788452D01*
X166826428Y-114812261D01*
X166874047Y-114812261D01*
X166945476Y-114788452D01*
X167231190Y-114502738D01*
X167231190Y-114812261D01*
X166731190Y-114978928D02*
X166731190Y-115312261D01*
X167231190Y-115097976D01*
D12*
%TO.C,C14*%
X131182857Y-91635714D02*
X131182857Y-92302380D01*
X131420952Y-91254761D02*
X131659047Y-91969047D01*
X131040000Y-91969047D01*
X130754285Y-91302380D02*
X130087619Y-91302380D01*
X130516190Y-92302380D01*
X129516190Y-91302380D02*
X129420952Y-91302380D01*
X129325714Y-91350000D01*
X129278095Y-91397619D01*
X129230476Y-91492857D01*
X129182857Y-91683333D01*
X129182857Y-91921428D01*
X129230476Y-92111904D01*
X129278095Y-92207142D01*
X129325714Y-92254761D01*
X129420952Y-92302380D01*
X129516190Y-92302380D01*
X129611428Y-92254761D01*
X129659047Y-92207142D01*
X129706666Y-92111904D01*
X129754285Y-91921428D01*
X129754285Y-91683333D01*
X129706666Y-91492857D01*
X129659047Y-91397619D01*
X129611428Y-91350000D01*
X129516190Y-91302380D01*
X128754285Y-91635714D02*
X128754285Y-92302380D01*
X128754285Y-91730952D02*
X128706666Y-91683333D01*
X128611428Y-91635714D01*
X128468571Y-91635714D01*
X128373333Y-91683333D01*
X128325714Y-91778571D01*
X128325714Y-92302380D01*
X127516190Y-91778571D02*
X127849523Y-91778571D01*
X127849523Y-92302380D02*
X127849523Y-91302380D01*
X127373333Y-91302380D01*
D13*
X129861428Y-90348571D02*
X129885238Y-90372380D01*
X129956666Y-90396190D01*
X130004285Y-90396190D01*
X130075714Y-90372380D01*
X130123333Y-90324761D01*
X130147142Y-90277142D01*
X130170952Y-90181904D01*
X130170952Y-90110476D01*
X130147142Y-90015238D01*
X130123333Y-89967619D01*
X130075714Y-89920000D01*
X130004285Y-89896190D01*
X129956666Y-89896190D01*
X129885238Y-89920000D01*
X129861428Y-89943809D01*
X129385238Y-90396190D02*
X129670952Y-90396190D01*
X129528095Y-90396190D02*
X129528095Y-89896190D01*
X129575714Y-89967619D01*
X129623333Y-90015238D01*
X129670952Y-90039047D01*
X128956666Y-90062857D02*
X128956666Y-90396190D01*
X129075714Y-89872380D02*
X129194761Y-90229523D01*
X128885238Y-90229523D01*
D12*
%TO.C,R23*%
X123006380Y-119998928D02*
X123006380Y-119427500D01*
X123006380Y-119713214D02*
X122006380Y-119713214D01*
X122149238Y-119617976D01*
X122244476Y-119522738D01*
X122292095Y-119427500D01*
X122911142Y-120427500D02*
X122958761Y-120475119D01*
X123006380Y-120427500D01*
X122958761Y-120379880D01*
X122911142Y-120427500D01*
X123006380Y-120427500D01*
X122006380Y-121379880D02*
X122006380Y-120903690D01*
X122482571Y-120856071D01*
X122434952Y-120903690D01*
X122387333Y-120998928D01*
X122387333Y-121237023D01*
X122434952Y-121332261D01*
X122482571Y-121379880D01*
X122577809Y-121427500D01*
X122815904Y-121427500D01*
X122911142Y-121379880D01*
X122958761Y-121332261D01*
X123006380Y-121237023D01*
X123006380Y-120998928D01*
X122958761Y-120903690D01*
X122911142Y-120856071D01*
X123006380Y-121856071D02*
X122006380Y-121856071D01*
X123006380Y-122427500D02*
X122434952Y-121998928D01*
X122006380Y-122427500D02*
X122577809Y-121856071D01*
D13*
X121130190Y-120606071D02*
X120892095Y-120439404D01*
X121130190Y-120320357D02*
X120630190Y-120320357D01*
X120630190Y-120510833D01*
X120654000Y-120558452D01*
X120677809Y-120582261D01*
X120725428Y-120606071D01*
X120796857Y-120606071D01*
X120844476Y-120582261D01*
X120868285Y-120558452D01*
X120892095Y-120510833D01*
X120892095Y-120320357D01*
X120677809Y-120796547D02*
X120654000Y-120820357D01*
X120630190Y-120867976D01*
X120630190Y-120987023D01*
X120654000Y-121034642D01*
X120677809Y-121058452D01*
X120725428Y-121082261D01*
X120773047Y-121082261D01*
X120844476Y-121058452D01*
X121130190Y-120772738D01*
X121130190Y-121082261D01*
X120630190Y-121248928D02*
X120630190Y-121558452D01*
X120820666Y-121391785D01*
X120820666Y-121463214D01*
X120844476Y-121510833D01*
X120868285Y-121534642D01*
X120915904Y-121558452D01*
X121034952Y-121558452D01*
X121082571Y-121534642D01*
X121106380Y-121510833D01*
X121130190Y-121463214D01*
X121130190Y-121320357D01*
X121106380Y-121272738D01*
X121082571Y-121248928D01*
D12*
%TO.C,R12*%
X178872619Y-107878809D02*
X178825000Y-107926428D01*
X178777380Y-108021666D01*
X178777380Y-108259761D01*
X178825000Y-108355000D01*
X178872619Y-108402619D01*
X178967857Y-108450238D01*
X179063095Y-108450238D01*
X179205952Y-108402619D01*
X179777380Y-107831190D01*
X179777380Y-108450238D01*
X178777380Y-109355000D02*
X178777380Y-108878809D01*
X179253571Y-108831190D01*
X179205952Y-108878809D01*
X179158333Y-108974047D01*
X179158333Y-109212142D01*
X179205952Y-109307380D01*
X179253571Y-109355000D01*
X179348809Y-109402619D01*
X179586904Y-109402619D01*
X179682142Y-109355000D01*
X179729761Y-109307380D01*
X179777380Y-109212142D01*
X179777380Y-108974047D01*
X179729761Y-108878809D01*
X179682142Y-108831190D01*
X179682142Y-109831190D02*
X179729761Y-109878809D01*
X179777380Y-109831190D01*
X179729761Y-109783571D01*
X179682142Y-109831190D01*
X179777380Y-109831190D01*
X178777380Y-110783571D02*
X178777380Y-110307380D01*
X179253571Y-110259761D01*
X179205952Y-110307380D01*
X179158333Y-110402619D01*
X179158333Y-110640714D01*
X179205952Y-110735952D01*
X179253571Y-110783571D01*
X179348809Y-110831190D01*
X179586904Y-110831190D01*
X179682142Y-110783571D01*
X179729761Y-110735952D01*
X179777380Y-110640714D01*
X179777380Y-110402619D01*
X179729761Y-110307380D01*
X179682142Y-110259761D01*
X179777380Y-111259761D02*
X178777380Y-111259761D01*
X179777380Y-111831190D02*
X179205952Y-111402619D01*
X178777380Y-111831190D02*
X179348809Y-111259761D01*
D13*
X181201190Y-109533571D02*
X180963095Y-109366904D01*
X181201190Y-109247857D02*
X180701190Y-109247857D01*
X180701190Y-109438333D01*
X180725000Y-109485952D01*
X180748809Y-109509761D01*
X180796428Y-109533571D01*
X180867857Y-109533571D01*
X180915476Y-109509761D01*
X180939285Y-109485952D01*
X180963095Y-109438333D01*
X180963095Y-109247857D01*
X181201190Y-110009761D02*
X181201190Y-109724047D01*
X181201190Y-109866904D02*
X180701190Y-109866904D01*
X180772619Y-109819285D01*
X180820238Y-109771666D01*
X180844047Y-109724047D01*
X180748809Y-110200238D02*
X180725000Y-110224047D01*
X180701190Y-110271666D01*
X180701190Y-110390714D01*
X180725000Y-110438333D01*
X180748809Y-110462142D01*
X180796428Y-110485952D01*
X180844047Y-110485952D01*
X180915476Y-110462142D01*
X181201190Y-110176428D01*
X181201190Y-110485952D01*
D12*
%TO.C,C15*%
X122565714Y-126942142D02*
X123232380Y-126942142D01*
X122184761Y-126704047D02*
X122899047Y-126465952D01*
X122899047Y-127085000D01*
X122232380Y-127370714D02*
X122232380Y-128037380D01*
X123232380Y-127608809D01*
X122232380Y-128608809D02*
X122232380Y-128704047D01*
X122280000Y-128799285D01*
X122327619Y-128846904D01*
X122422857Y-128894523D01*
X122613333Y-128942142D01*
X122851428Y-128942142D01*
X123041904Y-128894523D01*
X123137142Y-128846904D01*
X123184761Y-128799285D01*
X123232380Y-128704047D01*
X123232380Y-128608809D01*
X123184761Y-128513571D01*
X123137142Y-128465952D01*
X123041904Y-128418333D01*
X122851428Y-128370714D01*
X122613333Y-128370714D01*
X122422857Y-128418333D01*
X122327619Y-128465952D01*
X122280000Y-128513571D01*
X122232380Y-128608809D01*
X122565714Y-129370714D02*
X123232380Y-129370714D01*
X122660952Y-129370714D02*
X122613333Y-129418333D01*
X122565714Y-129513571D01*
X122565714Y-129656428D01*
X122613333Y-129751666D01*
X122708571Y-129799285D01*
X123232380Y-129799285D01*
X122708571Y-130608809D02*
X122708571Y-130275476D01*
X123232380Y-130275476D02*
X122232380Y-130275476D01*
X122232380Y-130751666D01*
D13*
X124638571Y-128263571D02*
X124662380Y-128239761D01*
X124686190Y-128168333D01*
X124686190Y-128120714D01*
X124662380Y-128049285D01*
X124614761Y-128001666D01*
X124567142Y-127977857D01*
X124471904Y-127954047D01*
X124400476Y-127954047D01*
X124305238Y-127977857D01*
X124257619Y-128001666D01*
X124210000Y-128049285D01*
X124186190Y-128120714D01*
X124186190Y-128168333D01*
X124210000Y-128239761D01*
X124233809Y-128263571D01*
X124686190Y-128739761D02*
X124686190Y-128454047D01*
X124686190Y-128596904D02*
X124186190Y-128596904D01*
X124257619Y-128549285D01*
X124305238Y-128501666D01*
X124329047Y-128454047D01*
X124186190Y-129192142D02*
X124186190Y-128954047D01*
X124424285Y-128930238D01*
X124400476Y-128954047D01*
X124376666Y-129001666D01*
X124376666Y-129120714D01*
X124400476Y-129168333D01*
X124424285Y-129192142D01*
X124471904Y-129215952D01*
X124590952Y-129215952D01*
X124638571Y-129192142D01*
X124662380Y-129168333D01*
X124686190Y-129120714D01*
X124686190Y-129001666D01*
X124662380Y-128954047D01*
X124638571Y-128930238D01*
D12*
%TO.C,C12*%
X151100666Y-97128380D02*
X151672095Y-97128380D01*
X151386380Y-97128380D02*
X151386380Y-96128380D01*
X151481619Y-96271238D01*
X151576857Y-96366476D01*
X151672095Y-96414095D01*
X150672095Y-96461714D02*
X150672095Y-97461714D01*
X150195904Y-96985523D02*
X150148285Y-97080761D01*
X150053047Y-97128380D01*
X150672095Y-96985523D02*
X150624476Y-97080761D01*
X150529238Y-97128380D01*
X150338761Y-97128380D01*
X150243523Y-97080761D01*
X150195904Y-96985523D01*
X150195904Y-96461714D01*
X149291142Y-96604571D02*
X149624476Y-96604571D01*
X149624476Y-97128380D02*
X149624476Y-96128380D01*
X149148285Y-96128380D01*
D13*
X150755428Y-95174571D02*
X150779238Y-95198380D01*
X150850666Y-95222190D01*
X150898285Y-95222190D01*
X150969714Y-95198380D01*
X151017333Y-95150761D01*
X151041142Y-95103142D01*
X151064952Y-95007904D01*
X151064952Y-94936476D01*
X151041142Y-94841238D01*
X151017333Y-94793619D01*
X150969714Y-94746000D01*
X150898285Y-94722190D01*
X150850666Y-94722190D01*
X150779238Y-94746000D01*
X150755428Y-94769809D01*
X150279238Y-95222190D02*
X150564952Y-95222190D01*
X150422095Y-95222190D02*
X150422095Y-94722190D01*
X150469714Y-94793619D01*
X150517333Y-94841238D01*
X150564952Y-94865047D01*
X150088761Y-94769809D02*
X150064952Y-94746000D01*
X150017333Y-94722190D01*
X149898285Y-94722190D01*
X149850666Y-94746000D01*
X149826857Y-94769809D01*
X149803047Y-94817428D01*
X149803047Y-94865047D01*
X149826857Y-94936476D01*
X150112571Y-95222190D01*
X149803047Y-95222190D01*
D12*
%TO.C,C1*%
X113072380Y-100528571D02*
X113072380Y-99957142D01*
X113072380Y-100242857D02*
X112072380Y-100242857D01*
X112215238Y-100147619D01*
X112310476Y-100052380D01*
X112358095Y-99957142D01*
X112072380Y-101147619D02*
X112072380Y-101242857D01*
X112120000Y-101338095D01*
X112167619Y-101385714D01*
X112262857Y-101433333D01*
X112453333Y-101480952D01*
X112691428Y-101480952D01*
X112881904Y-101433333D01*
X112977142Y-101385714D01*
X113024761Y-101338095D01*
X113072380Y-101242857D01*
X113072380Y-101147619D01*
X113024761Y-101052380D01*
X112977142Y-101004761D01*
X112881904Y-100957142D01*
X112691428Y-100909523D01*
X112453333Y-100909523D01*
X112262857Y-100957142D01*
X112167619Y-101004761D01*
X112120000Y-101052380D01*
X112072380Y-101147619D01*
X112405714Y-101909523D02*
X113072380Y-101909523D01*
X112500952Y-101909523D02*
X112453333Y-101957142D01*
X112405714Y-102052380D01*
X112405714Y-102195238D01*
X112453333Y-102290476D01*
X112548571Y-102338095D01*
X113072380Y-102338095D01*
X112548571Y-103147619D02*
X112548571Y-102814285D01*
X113072380Y-102814285D02*
X112072380Y-102814285D01*
X112072380Y-103290476D01*
D13*
X114478571Y-101516666D02*
X114502380Y-101492857D01*
X114526190Y-101421428D01*
X114526190Y-101373809D01*
X114502380Y-101302380D01*
X114454761Y-101254761D01*
X114407142Y-101230952D01*
X114311904Y-101207142D01*
X114240476Y-101207142D01*
X114145238Y-101230952D01*
X114097619Y-101254761D01*
X114050000Y-101302380D01*
X114026190Y-101373809D01*
X114026190Y-101421428D01*
X114050000Y-101492857D01*
X114073809Y-101516666D01*
X114526190Y-101992857D02*
X114526190Y-101707142D01*
X114526190Y-101850000D02*
X114026190Y-101850000D01*
X114097619Y-101802380D01*
X114145238Y-101754761D01*
X114169047Y-101707142D01*
D12*
%TO.C,Q1*%
X134730714Y-103917380D02*
X134730714Y-102917380D01*
X134349761Y-102917380D01*
X134254523Y-102965000D01*
X134206904Y-103012619D01*
X134159285Y-103107857D01*
X134159285Y-103250714D01*
X134206904Y-103345952D01*
X134254523Y-103393571D01*
X134349761Y-103441190D01*
X134730714Y-103441190D01*
X133730714Y-103917380D02*
X133730714Y-102917380D01*
X133397380Y-103631666D01*
X133064047Y-102917380D01*
X133064047Y-103917380D01*
X132587857Y-103917380D02*
X132587857Y-102917380D01*
X132016428Y-103917380D01*
X132016428Y-102917380D01*
X131064047Y-102917380D02*
X131540238Y-102917380D01*
X131587857Y-103393571D01*
X131540238Y-103345952D01*
X131445000Y-103298333D01*
X131206904Y-103298333D01*
X131111666Y-103345952D01*
X131064047Y-103393571D01*
X131016428Y-103488809D01*
X131016428Y-103726904D01*
X131064047Y-103822142D01*
X131111666Y-103869761D01*
X131206904Y-103917380D01*
X131445000Y-103917380D01*
X131540238Y-103869761D01*
X131587857Y-103822142D01*
X130635476Y-103012619D02*
X130587857Y-102965000D01*
X130492619Y-102917380D01*
X130254523Y-102917380D01*
X130159285Y-102965000D01*
X130111666Y-103012619D01*
X130064047Y-103107857D01*
X130064047Y-103203095D01*
X130111666Y-103345952D01*
X130683095Y-103917380D01*
X130064047Y-103917380D01*
X129730714Y-102917380D02*
X129064047Y-103917380D01*
X129064047Y-102917380D02*
X129730714Y-103917380D01*
X128683095Y-103917380D02*
X128683095Y-102917380D01*
X128302142Y-102917380D01*
X128206904Y-102965000D01*
X128159285Y-103012619D01*
X128111666Y-103107857D01*
X128111666Y-103250714D01*
X128159285Y-103345952D01*
X128206904Y-103393571D01*
X128302142Y-103441190D01*
X128683095Y-103441190D01*
D15*
X131718809Y-100917380D02*
X131695000Y-100869761D01*
X131647380Y-100822142D01*
X131575952Y-100750714D01*
X131552142Y-100703095D01*
X131552142Y-100655476D01*
X131671190Y-100679285D02*
X131647380Y-100631666D01*
X131599761Y-100584047D01*
X131504523Y-100560238D01*
X131337857Y-100560238D01*
X131242619Y-100584047D01*
X131195000Y-100631666D01*
X131171190Y-100679285D01*
X131171190Y-100774523D01*
X131195000Y-100822142D01*
X131242619Y-100869761D01*
X131337857Y-100893571D01*
X131504523Y-100893571D01*
X131599761Y-100869761D01*
X131647380Y-100822142D01*
X131671190Y-100774523D01*
X131671190Y-100679285D01*
X131671190Y-101369761D02*
X131671190Y-101084047D01*
X131671190Y-101226904D02*
X131171190Y-101226904D01*
X131242619Y-101179285D01*
X131290238Y-101131666D01*
X131314047Y-101084047D01*
D12*
%TO.C,U6*%
X171042380Y-95232023D02*
X171042380Y-95803452D01*
X172042380Y-95517738D02*
X171042380Y-95517738D01*
X171947142Y-96708214D02*
X171994761Y-96660595D01*
X172042380Y-96517738D01*
X172042380Y-96422500D01*
X171994761Y-96279642D01*
X171899523Y-96184404D01*
X171804285Y-96136785D01*
X171613809Y-96089166D01*
X171470952Y-96089166D01*
X171280476Y-96136785D01*
X171185238Y-96184404D01*
X171090000Y-96279642D01*
X171042380Y-96422500D01*
X171042380Y-96517738D01*
X171090000Y-96660595D01*
X171137619Y-96708214D01*
X172042380Y-97660595D02*
X172042380Y-97089166D01*
X172042380Y-97374880D02*
X171042380Y-97374880D01*
X171185238Y-97279642D01*
X171280476Y-97184404D01*
X171328095Y-97089166D01*
X172042380Y-98612976D02*
X172042380Y-98041547D01*
X172042380Y-98327261D02*
X171042380Y-98327261D01*
X171185238Y-98232023D01*
X171280476Y-98136785D01*
X171328095Y-98041547D01*
X171470952Y-99184404D02*
X171423333Y-99089166D01*
X171375714Y-99041547D01*
X171280476Y-98993928D01*
X171232857Y-98993928D01*
X171137619Y-99041547D01*
X171090000Y-99089166D01*
X171042380Y-99184404D01*
X171042380Y-99374880D01*
X171090000Y-99470119D01*
X171137619Y-99517738D01*
X171232857Y-99565357D01*
X171280476Y-99565357D01*
X171375714Y-99517738D01*
X171423333Y-99470119D01*
X171470952Y-99374880D01*
X171470952Y-99184404D01*
X171518571Y-99089166D01*
X171566190Y-99041547D01*
X171661428Y-98993928D01*
X171851904Y-98993928D01*
X171947142Y-99041547D01*
X171994761Y-99089166D01*
X172042380Y-99184404D01*
X172042380Y-99374880D01*
X171994761Y-99470119D01*
X171947142Y-99517738D01*
X171851904Y-99565357D01*
X171661428Y-99565357D01*
X171566190Y-99517738D01*
X171518571Y-99470119D01*
X171470952Y-99374880D01*
X171042380Y-100422500D02*
X171042380Y-100232023D01*
X171090000Y-100136785D01*
X171137619Y-100089166D01*
X171280476Y-99993928D01*
X171470952Y-99946309D01*
X171851904Y-99946309D01*
X171947142Y-99993928D01*
X171994761Y-100041547D01*
X172042380Y-100136785D01*
X172042380Y-100327261D01*
X171994761Y-100422500D01*
X171947142Y-100470119D01*
X171851904Y-100517738D01*
X171613809Y-100517738D01*
X171518571Y-100470119D01*
X171470952Y-100422500D01*
X171423333Y-100327261D01*
X171423333Y-100136785D01*
X171470952Y-100041547D01*
X171518571Y-99993928D01*
X171613809Y-99946309D01*
D14*
X173770952Y-97617738D02*
X174094761Y-97617738D01*
X174132857Y-97636785D01*
X174151904Y-97655833D01*
X174170952Y-97693928D01*
X174170952Y-97770119D01*
X174151904Y-97808214D01*
X174132857Y-97827261D01*
X174094761Y-97846309D01*
X173770952Y-97846309D01*
X173770952Y-98208214D02*
X173770952Y-98132023D01*
X173790000Y-98093928D01*
X173809047Y-98074880D01*
X173866190Y-98036785D01*
X173942380Y-98017738D01*
X174094761Y-98017738D01*
X174132857Y-98036785D01*
X174151904Y-98055833D01*
X174170952Y-98093928D01*
X174170952Y-98170119D01*
X174151904Y-98208214D01*
X174132857Y-98227261D01*
X174094761Y-98246309D01*
X173999523Y-98246309D01*
X173961428Y-98227261D01*
X173942380Y-98208214D01*
X173923333Y-98170119D01*
X173923333Y-98093928D01*
X173942380Y-98055833D01*
X173961428Y-98036785D01*
X173999523Y-98017738D01*
D12*
%TO.C,C9*%
X179347619Y-104367380D02*
X179919047Y-104367380D01*
X179633333Y-104367380D02*
X179633333Y-103367380D01*
X179728571Y-103510238D01*
X179823809Y-103605476D01*
X179919047Y-103653095D01*
X178728571Y-103367380D02*
X178633333Y-103367380D01*
X178538095Y-103415000D01*
X178490476Y-103462619D01*
X178442857Y-103557857D01*
X178395238Y-103748333D01*
X178395238Y-103986428D01*
X178442857Y-104176904D01*
X178490476Y-104272142D01*
X178538095Y-104319761D01*
X178633333Y-104367380D01*
X178728571Y-104367380D01*
X178823809Y-104319761D01*
X178871428Y-104272142D01*
X178919047Y-104176904D01*
X178966666Y-103986428D01*
X178966666Y-103748333D01*
X178919047Y-103557857D01*
X178871428Y-103462619D01*
X178823809Y-103415000D01*
X178728571Y-103367380D01*
X177776190Y-103367380D02*
X177680952Y-103367380D01*
X177585714Y-103415000D01*
X177538095Y-103462619D01*
X177490476Y-103557857D01*
X177442857Y-103748333D01*
X177442857Y-103986428D01*
X177490476Y-104176904D01*
X177538095Y-104272142D01*
X177585714Y-104319761D01*
X177680952Y-104367380D01*
X177776190Y-104367380D01*
X177871428Y-104319761D01*
X177919047Y-104272142D01*
X177966666Y-104176904D01*
X178014285Y-103986428D01*
X178014285Y-103748333D01*
X177966666Y-103557857D01*
X177919047Y-103462619D01*
X177871428Y-103415000D01*
X177776190Y-103367380D01*
X177014285Y-103700714D02*
X177014285Y-104700714D01*
X177014285Y-103748333D02*
X176919047Y-103700714D01*
X176728571Y-103700714D01*
X176633333Y-103748333D01*
X176585714Y-103795952D01*
X176538095Y-103891190D01*
X176538095Y-104176904D01*
X176585714Y-104272142D01*
X176633333Y-104319761D01*
X176728571Y-104367380D01*
X176919047Y-104367380D01*
X177014285Y-104319761D01*
X175776190Y-103843571D02*
X176109523Y-103843571D01*
X176109523Y-104367380D02*
X176109523Y-103367380D01*
X175633333Y-103367380D01*
D13*
X177883333Y-102413571D02*
X177907142Y-102437380D01*
X177978571Y-102461190D01*
X178026190Y-102461190D01*
X178097619Y-102437380D01*
X178145238Y-102389761D01*
X178169047Y-102342142D01*
X178192857Y-102246904D01*
X178192857Y-102175476D01*
X178169047Y-102080238D01*
X178145238Y-102032619D01*
X178097619Y-101985000D01*
X178026190Y-101961190D01*
X177978571Y-101961190D01*
X177907142Y-101985000D01*
X177883333Y-102008809D01*
X177645238Y-102461190D02*
X177550000Y-102461190D01*
X177502380Y-102437380D01*
X177478571Y-102413571D01*
X177430952Y-102342142D01*
X177407142Y-102246904D01*
X177407142Y-102056428D01*
X177430952Y-102008809D01*
X177454761Y-101985000D01*
X177502380Y-101961190D01*
X177597619Y-101961190D01*
X177645238Y-101985000D01*
X177669047Y-102008809D01*
X177692857Y-102056428D01*
X177692857Y-102175476D01*
X177669047Y-102223095D01*
X177645238Y-102246904D01*
X177597619Y-102270714D01*
X177502380Y-102270714D01*
X177454761Y-102246904D01*
X177430952Y-102223095D01*
X177407142Y-102175476D01*
D12*
%TO.C,C18*%
X158157380Y-113067380D02*
X158157380Y-112495952D01*
X158157380Y-112781666D02*
X157157380Y-112781666D01*
X157300238Y-112686428D01*
X157395476Y-112591190D01*
X157443095Y-112495952D01*
X157157380Y-113686428D02*
X157157380Y-113781666D01*
X157205000Y-113876904D01*
X157252619Y-113924523D01*
X157347857Y-113972142D01*
X157538333Y-114019761D01*
X157776428Y-114019761D01*
X157966904Y-113972142D01*
X158062142Y-113924523D01*
X158109761Y-113876904D01*
X158157380Y-113781666D01*
X158157380Y-113686428D01*
X158109761Y-113591190D01*
X158062142Y-113543571D01*
X157966904Y-113495952D01*
X157776428Y-113448333D01*
X157538333Y-113448333D01*
X157347857Y-113495952D01*
X157252619Y-113543571D01*
X157205000Y-113591190D01*
X157157380Y-113686428D01*
X157157380Y-114638809D02*
X157157380Y-114734047D01*
X157205000Y-114829285D01*
X157252619Y-114876904D01*
X157347857Y-114924523D01*
X157538333Y-114972142D01*
X157776428Y-114972142D01*
X157966904Y-114924523D01*
X158062142Y-114876904D01*
X158109761Y-114829285D01*
X158157380Y-114734047D01*
X158157380Y-114638809D01*
X158109761Y-114543571D01*
X158062142Y-114495952D01*
X157966904Y-114448333D01*
X157776428Y-114400714D01*
X157538333Y-114400714D01*
X157347857Y-114448333D01*
X157252619Y-114495952D01*
X157205000Y-114543571D01*
X157157380Y-114638809D01*
X157490714Y-115400714D02*
X158157380Y-115400714D01*
X157585952Y-115400714D02*
X157538333Y-115448333D01*
X157490714Y-115543571D01*
X157490714Y-115686428D01*
X157538333Y-115781666D01*
X157633571Y-115829285D01*
X158157380Y-115829285D01*
X157633571Y-116638809D02*
X157633571Y-116305476D01*
X158157380Y-116305476D02*
X157157380Y-116305476D01*
X157157380Y-116781666D01*
D13*
X159563571Y-114293571D02*
X159587380Y-114269761D01*
X159611190Y-114198333D01*
X159611190Y-114150714D01*
X159587380Y-114079285D01*
X159539761Y-114031666D01*
X159492142Y-114007857D01*
X159396904Y-113984047D01*
X159325476Y-113984047D01*
X159230238Y-114007857D01*
X159182619Y-114031666D01*
X159135000Y-114079285D01*
X159111190Y-114150714D01*
X159111190Y-114198333D01*
X159135000Y-114269761D01*
X159158809Y-114293571D01*
X159611190Y-114769761D02*
X159611190Y-114484047D01*
X159611190Y-114626904D02*
X159111190Y-114626904D01*
X159182619Y-114579285D01*
X159230238Y-114531666D01*
X159254047Y-114484047D01*
X159325476Y-115055476D02*
X159301666Y-115007857D01*
X159277857Y-114984047D01*
X159230238Y-114960238D01*
X159206428Y-114960238D01*
X159158809Y-114984047D01*
X159135000Y-115007857D01*
X159111190Y-115055476D01*
X159111190Y-115150714D01*
X159135000Y-115198333D01*
X159158809Y-115222142D01*
X159206428Y-115245952D01*
X159230238Y-115245952D01*
X159277857Y-115222142D01*
X159301666Y-115198333D01*
X159325476Y-115150714D01*
X159325476Y-115055476D01*
X159349285Y-115007857D01*
X159373095Y-114984047D01*
X159420714Y-114960238D01*
X159515952Y-114960238D01*
X159563571Y-114984047D01*
X159587380Y-115007857D01*
X159611190Y-115055476D01*
X159611190Y-115150714D01*
X159587380Y-115198333D01*
X159563571Y-115222142D01*
X159515952Y-115245952D01*
X159420714Y-115245952D01*
X159373095Y-115222142D01*
X159349285Y-115198333D01*
X159325476Y-115150714D01*
D12*
%TO.C,R22*%
X120974380Y-119998928D02*
X120974380Y-119427500D01*
X120974380Y-119713214D02*
X119974380Y-119713214D01*
X120117238Y-119617976D01*
X120212476Y-119522738D01*
X120260095Y-119427500D01*
X120879142Y-120427500D02*
X120926761Y-120475119D01*
X120974380Y-120427500D01*
X120926761Y-120379880D01*
X120879142Y-120427500D01*
X120974380Y-120427500D01*
X119974380Y-121379880D02*
X119974380Y-120903690D01*
X120450571Y-120856071D01*
X120402952Y-120903690D01*
X120355333Y-120998928D01*
X120355333Y-121237023D01*
X120402952Y-121332261D01*
X120450571Y-121379880D01*
X120545809Y-121427500D01*
X120783904Y-121427500D01*
X120879142Y-121379880D01*
X120926761Y-121332261D01*
X120974380Y-121237023D01*
X120974380Y-120998928D01*
X120926761Y-120903690D01*
X120879142Y-120856071D01*
X120974380Y-121856071D02*
X119974380Y-121856071D01*
X120974380Y-122427500D02*
X120402952Y-121998928D01*
X119974380Y-122427500D02*
X120545809Y-121856071D01*
D13*
X119098190Y-120606071D02*
X118860095Y-120439404D01*
X119098190Y-120320357D02*
X118598190Y-120320357D01*
X118598190Y-120510833D01*
X118622000Y-120558452D01*
X118645809Y-120582261D01*
X118693428Y-120606071D01*
X118764857Y-120606071D01*
X118812476Y-120582261D01*
X118836285Y-120558452D01*
X118860095Y-120510833D01*
X118860095Y-120320357D01*
X118645809Y-120796547D02*
X118622000Y-120820357D01*
X118598190Y-120867976D01*
X118598190Y-120987023D01*
X118622000Y-121034642D01*
X118645809Y-121058452D01*
X118693428Y-121082261D01*
X118741047Y-121082261D01*
X118812476Y-121058452D01*
X119098190Y-120772738D01*
X119098190Y-121082261D01*
X118645809Y-121272738D02*
X118622000Y-121296547D01*
X118598190Y-121344166D01*
X118598190Y-121463214D01*
X118622000Y-121510833D01*
X118645809Y-121534642D01*
X118693428Y-121558452D01*
X118741047Y-121558452D01*
X118812476Y-121534642D01*
X119098190Y-121248928D01*
X119098190Y-121558452D01*
D12*
%TO.C,U5*%
X176474047Y-90344880D02*
X176474047Y-89344880D01*
X175902619Y-90344880D01*
X175902619Y-89344880D01*
X174855000Y-90249642D02*
X174902619Y-90297261D01*
X175045476Y-90344880D01*
X175140714Y-90344880D01*
X175283571Y-90297261D01*
X175378809Y-90202023D01*
X175426428Y-90106785D01*
X175474047Y-89916309D01*
X175474047Y-89773452D01*
X175426428Y-89582976D01*
X175378809Y-89487738D01*
X175283571Y-89392500D01*
X175140714Y-89344880D01*
X175045476Y-89344880D01*
X174902619Y-89392500D01*
X174855000Y-89440119D01*
X174569285Y-89344880D02*
X174235952Y-90344880D01*
X173902619Y-89344880D01*
X173093095Y-89344880D02*
X173569285Y-89344880D01*
X173616904Y-89821071D01*
X173569285Y-89773452D01*
X173474047Y-89725833D01*
X173235952Y-89725833D01*
X173140714Y-89773452D01*
X173093095Y-89821071D01*
X173045476Y-89916309D01*
X173045476Y-90154404D01*
X173093095Y-90249642D01*
X173140714Y-90297261D01*
X173235952Y-90344880D01*
X173474047Y-90344880D01*
X173569285Y-90297261D01*
X173616904Y-90249642D01*
X172093095Y-90344880D02*
X172664523Y-90344880D01*
X172378809Y-90344880D02*
X172378809Y-89344880D01*
X172474047Y-89487738D01*
X172569285Y-89582976D01*
X172664523Y-89630595D01*
X171759761Y-89344880D02*
X171093095Y-89344880D01*
X171521666Y-90344880D01*
X170188333Y-90344880D02*
X170759761Y-90344880D01*
X170474047Y-90344880D02*
X170474047Y-89344880D01*
X170569285Y-89487738D01*
X170664523Y-89582976D01*
X170759761Y-89630595D01*
X174101666Y-85955833D02*
X174101666Y-86749166D01*
X174055000Y-86842500D01*
X174008333Y-86889166D01*
X173915000Y-86935833D01*
X173728333Y-86935833D01*
X173635000Y-86889166D01*
X173588333Y-86842500D01*
X173541666Y-86749166D01*
X173541666Y-85955833D01*
X172608333Y-85955833D02*
X173075000Y-85955833D01*
X173121666Y-86422500D01*
X173075000Y-86375833D01*
X172981666Y-86329166D01*
X172748333Y-86329166D01*
X172655000Y-86375833D01*
X172608333Y-86422500D01*
X172561666Y-86515833D01*
X172561666Y-86749166D01*
X172608333Y-86842500D01*
X172655000Y-86889166D01*
X172748333Y-86935833D01*
X172981666Y-86935833D01*
X173075000Y-86889166D01*
X173121666Y-86842500D01*
%TO.C,C16*%
X154267619Y-124687380D02*
X154839047Y-124687380D01*
X154553333Y-124687380D02*
X154553333Y-123687380D01*
X154648571Y-123830238D01*
X154743809Y-123925476D01*
X154839047Y-123973095D01*
X153648571Y-123687380D02*
X153553333Y-123687380D01*
X153458095Y-123735000D01*
X153410476Y-123782619D01*
X153362857Y-123877857D01*
X153315238Y-124068333D01*
X153315238Y-124306428D01*
X153362857Y-124496904D01*
X153410476Y-124592142D01*
X153458095Y-124639761D01*
X153553333Y-124687380D01*
X153648571Y-124687380D01*
X153743809Y-124639761D01*
X153791428Y-124592142D01*
X153839047Y-124496904D01*
X153886666Y-124306428D01*
X153886666Y-124068333D01*
X153839047Y-123877857D01*
X153791428Y-123782619D01*
X153743809Y-123735000D01*
X153648571Y-123687380D01*
X152696190Y-123687380D02*
X152600952Y-123687380D01*
X152505714Y-123735000D01*
X152458095Y-123782619D01*
X152410476Y-123877857D01*
X152362857Y-124068333D01*
X152362857Y-124306428D01*
X152410476Y-124496904D01*
X152458095Y-124592142D01*
X152505714Y-124639761D01*
X152600952Y-124687380D01*
X152696190Y-124687380D01*
X152791428Y-124639761D01*
X152839047Y-124592142D01*
X152886666Y-124496904D01*
X152934285Y-124306428D01*
X152934285Y-124068333D01*
X152886666Y-123877857D01*
X152839047Y-123782619D01*
X152791428Y-123735000D01*
X152696190Y-123687380D01*
X151934285Y-124020714D02*
X151934285Y-124687380D01*
X151934285Y-124115952D02*
X151886666Y-124068333D01*
X151791428Y-124020714D01*
X151648571Y-124020714D01*
X151553333Y-124068333D01*
X151505714Y-124163571D01*
X151505714Y-124687380D01*
X150696190Y-124163571D02*
X151029523Y-124163571D01*
X151029523Y-124687380D02*
X151029523Y-123687380D01*
X150553333Y-123687380D01*
D13*
X153041428Y-122733571D02*
X153065238Y-122757380D01*
X153136666Y-122781190D01*
X153184285Y-122781190D01*
X153255714Y-122757380D01*
X153303333Y-122709761D01*
X153327142Y-122662142D01*
X153350952Y-122566904D01*
X153350952Y-122495476D01*
X153327142Y-122400238D01*
X153303333Y-122352619D01*
X153255714Y-122305000D01*
X153184285Y-122281190D01*
X153136666Y-122281190D01*
X153065238Y-122305000D01*
X153041428Y-122328809D01*
X152565238Y-122781190D02*
X152850952Y-122781190D01*
X152708095Y-122781190D02*
X152708095Y-122281190D01*
X152755714Y-122352619D01*
X152803333Y-122400238D01*
X152850952Y-122424047D01*
X152136666Y-122281190D02*
X152231904Y-122281190D01*
X152279523Y-122305000D01*
X152303333Y-122328809D01*
X152350952Y-122400238D01*
X152374761Y-122495476D01*
X152374761Y-122685952D01*
X152350952Y-122733571D01*
X152327142Y-122757380D01*
X152279523Y-122781190D01*
X152184285Y-122781190D01*
X152136666Y-122757380D01*
X152112857Y-122733571D01*
X152089047Y-122685952D01*
X152089047Y-122566904D01*
X152112857Y-122519285D01*
X152136666Y-122495476D01*
X152184285Y-122471666D01*
X152279523Y-122471666D01*
X152327142Y-122495476D01*
X152350952Y-122519285D01*
X152374761Y-122566904D01*
D12*
%TO.C,R4*%
X123721666Y-106877380D02*
X124293095Y-106877380D01*
X124007380Y-106877380D02*
X124007380Y-105877380D01*
X124102619Y-106020238D01*
X124197857Y-106115476D01*
X124293095Y-106163095D01*
X123102619Y-105877380D02*
X123007380Y-105877380D01*
X122912142Y-105925000D01*
X122864523Y-105972619D01*
X122816904Y-106067857D01*
X122769285Y-106258333D01*
X122769285Y-106496428D01*
X122816904Y-106686904D01*
X122864523Y-106782142D01*
X122912142Y-106829761D01*
X123007380Y-106877380D01*
X123102619Y-106877380D01*
X123197857Y-106829761D01*
X123245476Y-106782142D01*
X123293095Y-106686904D01*
X123340714Y-106496428D01*
X123340714Y-106258333D01*
X123293095Y-106067857D01*
X123245476Y-105972619D01*
X123197857Y-105925000D01*
X123102619Y-105877380D01*
X122150238Y-105877380D02*
X122055000Y-105877380D01*
X121959761Y-105925000D01*
X121912142Y-105972619D01*
X121864523Y-106067857D01*
X121816904Y-106258333D01*
X121816904Y-106496428D01*
X121864523Y-106686904D01*
X121912142Y-106782142D01*
X121959761Y-106829761D01*
X122055000Y-106877380D01*
X122150238Y-106877380D01*
X122245476Y-106829761D01*
X122293095Y-106782142D01*
X122340714Y-106686904D01*
X122388333Y-106496428D01*
X122388333Y-106258333D01*
X122340714Y-106067857D01*
X122293095Y-105972619D01*
X122245476Y-105925000D01*
X122150238Y-105877380D01*
X121388333Y-106877380D02*
X121388333Y-105877380D01*
X120816904Y-106877380D02*
X121245476Y-106305952D01*
X120816904Y-105877380D02*
X121388333Y-106448809D01*
D13*
X122638333Y-105001190D02*
X122805000Y-104763095D01*
X122924047Y-105001190D02*
X122924047Y-104501190D01*
X122733571Y-104501190D01*
X122685952Y-104525000D01*
X122662142Y-104548809D01*
X122638333Y-104596428D01*
X122638333Y-104667857D01*
X122662142Y-104715476D01*
X122685952Y-104739285D01*
X122733571Y-104763095D01*
X122924047Y-104763095D01*
X122209761Y-104667857D02*
X122209761Y-105001190D01*
X122328809Y-104477380D02*
X122447857Y-104834523D01*
X122138333Y-104834523D01*
D12*
%TO.C,C2*%
X119591666Y-108447380D02*
X119782142Y-108447380D01*
X119877380Y-108495000D01*
X119925000Y-108542619D01*
X120020238Y-108685476D01*
X120067857Y-108875952D01*
X120067857Y-109256904D01*
X120020238Y-109352142D01*
X119972619Y-109399761D01*
X119877380Y-109447380D01*
X119686904Y-109447380D01*
X119591666Y-109399761D01*
X119544047Y-109352142D01*
X119496428Y-109256904D01*
X119496428Y-109018809D01*
X119544047Y-108923571D01*
X119591666Y-108875952D01*
X119686904Y-108828333D01*
X119877380Y-108828333D01*
X119972619Y-108875952D01*
X120020238Y-108923571D01*
X120067857Y-109018809D01*
X118925000Y-108875952D02*
X119020238Y-108828333D01*
X119067857Y-108780714D01*
X119115476Y-108685476D01*
X119115476Y-108637857D01*
X119067857Y-108542619D01*
X119020238Y-108495000D01*
X118925000Y-108447380D01*
X118734523Y-108447380D01*
X118639285Y-108495000D01*
X118591666Y-108542619D01*
X118544047Y-108637857D01*
X118544047Y-108685476D01*
X118591666Y-108780714D01*
X118639285Y-108828333D01*
X118734523Y-108875952D01*
X118925000Y-108875952D01*
X119020238Y-108923571D01*
X119067857Y-108971190D01*
X119115476Y-109066428D01*
X119115476Y-109256904D01*
X119067857Y-109352142D01*
X119020238Y-109399761D01*
X118925000Y-109447380D01*
X118734523Y-109447380D01*
X118639285Y-109399761D01*
X118591666Y-109352142D01*
X118544047Y-109256904D01*
X118544047Y-109066428D01*
X118591666Y-108971190D01*
X118639285Y-108923571D01*
X118734523Y-108875952D01*
X118115476Y-108780714D02*
X118115476Y-109447380D01*
X118115476Y-108875952D02*
X118067857Y-108828333D01*
X117972619Y-108780714D01*
X117829761Y-108780714D01*
X117734523Y-108828333D01*
X117686904Y-108923571D01*
X117686904Y-109447380D01*
X116877380Y-108923571D02*
X117210714Y-108923571D01*
X117210714Y-109447380D02*
X117210714Y-108447380D01*
X116734523Y-108447380D01*
D13*
X118508333Y-107493571D02*
X118532142Y-107517380D01*
X118603571Y-107541190D01*
X118651190Y-107541190D01*
X118722619Y-107517380D01*
X118770238Y-107469761D01*
X118794047Y-107422142D01*
X118817857Y-107326904D01*
X118817857Y-107255476D01*
X118794047Y-107160238D01*
X118770238Y-107112619D01*
X118722619Y-107065000D01*
X118651190Y-107041190D01*
X118603571Y-107041190D01*
X118532142Y-107065000D01*
X118508333Y-107088809D01*
X118317857Y-107088809D02*
X118294047Y-107065000D01*
X118246428Y-107041190D01*
X118127380Y-107041190D01*
X118079761Y-107065000D01*
X118055952Y-107088809D01*
X118032142Y-107136428D01*
X118032142Y-107184047D01*
X118055952Y-107255476D01*
X118341666Y-107541190D01*
X118032142Y-107541190D01*
D12*
%TO.C,R15*%
X171647380Y-97636785D02*
X171647380Y-97065357D01*
X171647380Y-97351071D02*
X170647380Y-97351071D01*
X170790238Y-97255833D01*
X170885476Y-97160595D01*
X170933095Y-97065357D01*
X171647380Y-98065357D02*
X170647380Y-98065357D01*
X171361666Y-98398690D01*
X170647380Y-98732023D01*
X171647380Y-98732023D01*
D13*
X169771190Y-97601071D02*
X169533095Y-97434404D01*
X169771190Y-97315357D02*
X169271190Y-97315357D01*
X169271190Y-97505833D01*
X169295000Y-97553452D01*
X169318809Y-97577261D01*
X169366428Y-97601071D01*
X169437857Y-97601071D01*
X169485476Y-97577261D01*
X169509285Y-97553452D01*
X169533095Y-97505833D01*
X169533095Y-97315357D01*
X169771190Y-98077261D02*
X169771190Y-97791547D01*
X169771190Y-97934404D02*
X169271190Y-97934404D01*
X169342619Y-97886785D01*
X169390238Y-97839166D01*
X169414047Y-97791547D01*
X169271190Y-98529642D02*
X169271190Y-98291547D01*
X169509285Y-98267738D01*
X169485476Y-98291547D01*
X169461666Y-98339166D01*
X169461666Y-98458214D01*
X169485476Y-98505833D01*
X169509285Y-98529642D01*
X169556904Y-98553452D01*
X169675952Y-98553452D01*
X169723571Y-98529642D01*
X169747380Y-98505833D01*
X169771190Y-98458214D01*
X169771190Y-98339166D01*
X169747380Y-98291547D01*
X169723571Y-98267738D01*
D12*
%TO.C,R20*%
X170711666Y-127707380D02*
X171283095Y-127707380D01*
X170997380Y-127707380D02*
X170997380Y-126707380D01*
X171092619Y-126850238D01*
X171187857Y-126945476D01*
X171283095Y-126993095D01*
X170092619Y-126707380D02*
X169997380Y-126707380D01*
X169902142Y-126755000D01*
X169854523Y-126802619D01*
X169806904Y-126897857D01*
X169759285Y-127088333D01*
X169759285Y-127326428D01*
X169806904Y-127516904D01*
X169854523Y-127612142D01*
X169902142Y-127659761D01*
X169997380Y-127707380D01*
X170092619Y-127707380D01*
X170187857Y-127659761D01*
X170235476Y-127612142D01*
X170283095Y-127516904D01*
X170330714Y-127326428D01*
X170330714Y-127088333D01*
X170283095Y-126897857D01*
X170235476Y-126802619D01*
X170187857Y-126755000D01*
X170092619Y-126707380D01*
X169140238Y-126707380D02*
X169045000Y-126707380D01*
X168949761Y-126755000D01*
X168902142Y-126802619D01*
X168854523Y-126897857D01*
X168806904Y-127088333D01*
X168806904Y-127326428D01*
X168854523Y-127516904D01*
X168902142Y-127612142D01*
X168949761Y-127659761D01*
X169045000Y-127707380D01*
X169140238Y-127707380D01*
X169235476Y-127659761D01*
X169283095Y-127612142D01*
X169330714Y-127516904D01*
X169378333Y-127326428D01*
X169378333Y-127088333D01*
X169330714Y-126897857D01*
X169283095Y-126802619D01*
X169235476Y-126755000D01*
X169140238Y-126707380D01*
X168378333Y-127707380D02*
X168378333Y-126707380D01*
X167806904Y-127707380D02*
X168235476Y-127135952D01*
X167806904Y-126707380D02*
X168378333Y-127278809D01*
D13*
X169866428Y-129131190D02*
X170033095Y-128893095D01*
X170152142Y-129131190D02*
X170152142Y-128631190D01*
X169961666Y-128631190D01*
X169914047Y-128655000D01*
X169890238Y-128678809D01*
X169866428Y-128726428D01*
X169866428Y-128797857D01*
X169890238Y-128845476D01*
X169914047Y-128869285D01*
X169961666Y-128893095D01*
X170152142Y-128893095D01*
X169675952Y-128678809D02*
X169652142Y-128655000D01*
X169604523Y-128631190D01*
X169485476Y-128631190D01*
X169437857Y-128655000D01*
X169414047Y-128678809D01*
X169390238Y-128726428D01*
X169390238Y-128774047D01*
X169414047Y-128845476D01*
X169699761Y-129131190D01*
X169390238Y-129131190D01*
X169080714Y-128631190D02*
X169033095Y-128631190D01*
X168985476Y-128655000D01*
X168961666Y-128678809D01*
X168937857Y-128726428D01*
X168914047Y-128821666D01*
X168914047Y-128940714D01*
X168937857Y-129035952D01*
X168961666Y-129083571D01*
X168985476Y-129107380D01*
X169033095Y-129131190D01*
X169080714Y-129131190D01*
X169128333Y-129107380D01*
X169152142Y-129083571D01*
X169175952Y-129035952D01*
X169199761Y-128940714D01*
X169199761Y-128821666D01*
X169175952Y-128726428D01*
X169152142Y-128678809D01*
X169128333Y-128655000D01*
X169080714Y-128631190D01*
D16*
%TO.C,D1*%
X138795000Y-99965000D02*
X136795000Y-99965000D01*
X136795000Y-101965000D02*
X138795000Y-101965000D01*
X138795000Y-101965000D02*
X138795000Y-99965000D01*
X136795000Y-99965000D02*
X136795000Y-101965000D01*
%TO.C,C17*%
X155585000Y-107045000D02*
X156835000Y-107045000D01*
X156835000Y-107045000D02*
X156835000Y-105045000D01*
X156835000Y-105045000D02*
X155585000Y-105045000D01*
X155585000Y-105045000D02*
X155585000Y-107045000D01*
%TO.C,R10*%
X175752000Y-81625000D02*
X175752000Y-80375000D01*
X173752000Y-81625000D02*
X175752000Y-81625000D01*
X175752000Y-80375000D02*
X173752000Y-80375000D01*
X173752000Y-80375000D02*
X173752000Y-81625000D01*
%TO.C,U2*%
X153995000Y-109530000D02*
X146995000Y-109530000D01*
X147995000Y-116530000D02*
X153995000Y-116530000D01*
X153995000Y-116530000D02*
X153995000Y-109530000D01*
X146995000Y-109530000D02*
X146995000Y-115530000D01*
X146995000Y-115530000D02*
X147995000Y-116530000D01*
%TO.C,C4*%
X185410000Y-116570000D02*
X185410000Y-114570000D01*
X184160000Y-114570000D02*
X184160000Y-116570000D01*
X184160000Y-116570000D02*
X185410000Y-116570000D01*
X185410000Y-114570000D02*
X184160000Y-114570000D01*
%TO.C,R7*%
X173625000Y-112405000D02*
X173625000Y-113655000D01*
X175625000Y-112405000D02*
X173625000Y-112405000D01*
X175625000Y-113655000D02*
X175625000Y-112405000D01*
X173625000Y-113655000D02*
X175625000Y-113655000D01*
%TO.C,C20*%
X142230000Y-112760000D02*
X142230000Y-110760000D01*
X140980000Y-112760000D02*
X142230000Y-112760000D01*
X140980000Y-110760000D02*
X140980000Y-112760000D01*
X142230000Y-110760000D02*
X140980000Y-110760000D01*
%TO.C,R17*%
X168545000Y-122565000D02*
X168545000Y-123815000D01*
X170545000Y-123815000D02*
X170545000Y-122565000D01*
X170545000Y-122565000D02*
X168545000Y-122565000D01*
X168545000Y-123815000D02*
X170545000Y-123815000D01*
%TO.C,C6*%
X172675000Y-101610000D02*
X172675000Y-102860000D01*
X172675000Y-102860000D02*
X174675000Y-102860000D01*
X174675000Y-101610000D02*
X172675000Y-101610000D01*
X174675000Y-102860000D02*
X174675000Y-101610000D01*
%TO.C,R3*%
X177252500Y-121930000D02*
X175252500Y-121930000D01*
X177252500Y-123180000D02*
X177252500Y-121930000D01*
X175252500Y-121930000D02*
X175252500Y-123180000D01*
X175252500Y-123180000D02*
X177252500Y-123180000D01*
%TO.C,C19*%
X144155000Y-120700000D02*
X145405000Y-120700000D01*
X145405000Y-120700000D02*
X145405000Y-118700000D01*
X144155000Y-118700000D02*
X144155000Y-120700000D01*
X145405000Y-118700000D02*
X144155000Y-118700000D01*
%TO.C,U3*%
X118910000Y-103050000D02*
X118910000Y-100150000D01*
X117310000Y-102650000D02*
X117710000Y-103050000D01*
X117710000Y-103050000D02*
X118910000Y-103050000D01*
X117310000Y-100150000D02*
X117310000Y-102650000D01*
X118910000Y-100150000D02*
X117310000Y-100150000D01*
%TO.C,Q2*%
X132270000Y-108120000D02*
X131870000Y-107695000D01*
X130620000Y-107695000D02*
X131870000Y-107695000D01*
X132270000Y-108120000D02*
X132270000Y-110745000D01*
X130620000Y-107695000D02*
X130620000Y-110745000D01*
X130620000Y-110745000D02*
X132270000Y-110745000D01*
%TO.C,R24*%
X130445000Y-113020000D02*
X132445000Y-113020000D01*
X132445000Y-113020000D02*
X132445000Y-111770000D01*
X132445000Y-111770000D02*
X130445000Y-111770000D01*
X130445000Y-111770000D02*
X130445000Y-113020000D01*
%TO.C,R1*%
X130445000Y-103515000D02*
X130445000Y-104765000D01*
X132445000Y-103515000D02*
X130445000Y-103515000D01*
X132445000Y-104765000D02*
X132445000Y-103515000D01*
X130445000Y-104765000D02*
X132445000Y-104765000D01*
%TO.C,C7*%
X184160000Y-129490000D02*
X184160000Y-131490000D01*
X184160000Y-131490000D02*
X185410000Y-131490000D01*
X185410000Y-131490000D02*
X185410000Y-129490000D01*
X185410000Y-129490000D02*
X184160000Y-129490000D01*
%TO.C,R16*%
X116215000Y-121927500D02*
X117465000Y-121927500D01*
X117465000Y-121927500D02*
X117465000Y-119927500D01*
X116215000Y-119927500D02*
X116215000Y-121927500D01*
X117465000Y-119927500D02*
X116215000Y-119927500D01*
%TO.C,R13*%
X179060000Y-110855000D02*
X179060000Y-108855000D01*
X177810000Y-108855000D02*
X177810000Y-110855000D01*
X177810000Y-110855000D02*
X179060000Y-110855000D01*
X179060000Y-108855000D02*
X177810000Y-108855000D01*
%TO.C,U7*%
X148545000Y-97880000D02*
X148545000Y-102780000D01*
X152445000Y-102780000D02*
X152445000Y-98880000D01*
X152445000Y-98880000D02*
X151445000Y-97880000D01*
X148545000Y-102780000D02*
X152445000Y-102780000D01*
X151445000Y-97880000D02*
X148545000Y-97880000D01*
%TO.C,R21*%
X173625000Y-114945000D02*
X173625000Y-116195000D01*
X173625000Y-116195000D02*
X175625000Y-116195000D01*
X175625000Y-116195000D02*
X175625000Y-114945000D01*
X175625000Y-114945000D02*
X173625000Y-114945000D01*
%TO.C,C3*%
X189220000Y-107045000D02*
X189220000Y-105045000D01*
X187970000Y-107045000D02*
X189220000Y-107045000D01*
X189220000Y-105045000D02*
X187970000Y-105045000D01*
X187970000Y-105045000D02*
X187970000Y-107045000D01*
%TO.C,R2*%
X121555000Y-102860000D02*
X123555000Y-102860000D01*
X123555000Y-102860000D02*
X123555000Y-101610000D01*
X123555000Y-101610000D02*
X121555000Y-101610000D01*
X121555000Y-101610000D02*
X121555000Y-102860000D01*
%TO.C,C8*%
X172355000Y-92197500D02*
X174355000Y-92197500D01*
X174355000Y-92197500D02*
X174355000Y-90947500D01*
X174355000Y-90947500D02*
X172355000Y-90947500D01*
X172355000Y-90947500D02*
X172355000Y-92197500D01*
%TO.C,R5*%
X175252500Y-120640000D02*
X177252500Y-120640000D01*
X175252500Y-119390000D02*
X175252500Y-120640000D01*
X177252500Y-120640000D02*
X177252500Y-119390000D01*
X177252500Y-119390000D02*
X175252500Y-119390000D01*
%TO.C,R11*%
X181236500Y-83703000D02*
X179236500Y-83703000D01*
X179236500Y-84953000D02*
X181236500Y-84953000D01*
X179236500Y-83703000D02*
X179236500Y-84953000D01*
X181236500Y-84953000D02*
X181236500Y-83703000D01*
%TO.C,C5*%
X185537000Y-85328000D02*
X185537000Y-83328000D01*
X184287000Y-85328000D02*
X185537000Y-85328000D01*
X185537000Y-83328000D02*
X184287000Y-83328000D01*
X184287000Y-83328000D02*
X184287000Y-85328000D01*
%TO.C,R18*%
X168545000Y-126355000D02*
X170545000Y-126355000D01*
X170545000Y-126355000D02*
X170545000Y-125105000D01*
X170545000Y-125105000D02*
X168545000Y-125105000D01*
X168545000Y-125105000D02*
X168545000Y-126355000D01*
%TO.C,R19*%
X168545000Y-132070000D02*
X170545000Y-132070000D01*
X170545000Y-132070000D02*
X170545000Y-130820000D01*
X168545000Y-130820000D02*
X168545000Y-132070000D01*
X170545000Y-130820000D02*
X168545000Y-130820000D01*
%TO.C,C13*%
X117425000Y-114925000D02*
X119425000Y-114925000D01*
X117425000Y-113675000D02*
X117425000Y-114925000D01*
X119425000Y-114925000D02*
X119425000Y-113675000D01*
X119425000Y-113675000D02*
X117425000Y-113675000D01*
%TO.C,U4*%
X178765200Y-116509800D02*
X178765200Y-113360200D01*
X178765200Y-113360200D02*
X181914800Y-113360200D01*
X181914800Y-114630200D02*
X180644800Y-113360200D01*
X181914800Y-116509800D02*
X178765200Y-116509800D01*
X181914800Y-113360200D02*
X181914800Y-116509800D01*
%TO.C,R9*%
X179340000Y-121021000D02*
X181340000Y-121021000D01*
X181340000Y-121021000D02*
X181340000Y-119771000D01*
X181340000Y-119771000D02*
X179340000Y-119771000D01*
X179340000Y-119771000D02*
X179340000Y-121021000D01*
%TO.C,R14*%
X182890000Y-110855000D02*
X184140000Y-110855000D01*
X184140000Y-110855000D02*
X184140000Y-108855000D01*
X182890000Y-108855000D02*
X182890000Y-110855000D01*
X184140000Y-108855000D02*
X182890000Y-108855000D01*
%TO.C,R29*%
X161300000Y-115657500D02*
X162550000Y-115657500D01*
X161300000Y-113657500D02*
X161300000Y-115657500D01*
X162550000Y-113657500D02*
X161300000Y-113657500D01*
X162550000Y-115657500D02*
X162550000Y-113657500D01*
%TO.C,C10*%
X166380000Y-87492500D02*
X167630000Y-87492500D01*
X166380000Y-85492500D02*
X166380000Y-87492500D01*
X167630000Y-85492500D02*
X166380000Y-85492500D01*
X167630000Y-87492500D02*
X167630000Y-85492500D01*
%TO.C,R26*%
X149235000Y-120920000D02*
X149235000Y-122920000D01*
X150485000Y-120920000D02*
X149235000Y-120920000D01*
X149235000Y-122920000D02*
X150485000Y-122920000D01*
X150485000Y-122920000D02*
X150485000Y-120920000D01*
%TO.C,R28*%
X165090000Y-115657500D02*
X165090000Y-113657500D01*
X163840000Y-113657500D02*
X163840000Y-115657500D01*
X165090000Y-113657500D02*
X163840000Y-113657500D01*
X163840000Y-115657500D02*
X165090000Y-115657500D01*
%TO.C,R8*%
X185537000Y-87392000D02*
X184287000Y-87392000D01*
X184287000Y-89392000D02*
X185537000Y-89392000D01*
X184287000Y-87392000D02*
X184287000Y-89392000D01*
X185537000Y-89392000D02*
X185537000Y-87392000D01*
%TO.C,R6*%
X123555000Y-99070000D02*
X121555000Y-99070000D01*
X121555000Y-99070000D02*
X121555000Y-100320000D01*
X121555000Y-100320000D02*
X123555000Y-100320000D01*
X123555000Y-100320000D02*
X123555000Y-99070000D01*
%TO.C,R25*%
X134630000Y-108220000D02*
X134630000Y-110220000D01*
X134630000Y-110220000D02*
X135880000Y-110220000D01*
X135880000Y-110220000D02*
X135880000Y-108220000D01*
X135880000Y-108220000D02*
X134630000Y-108220000D01*
%TO.C,R27*%
X166380000Y-113657500D02*
X166380000Y-115657500D01*
X167630000Y-113657500D02*
X166380000Y-113657500D01*
X166380000Y-115657500D02*
X167630000Y-115657500D01*
X167630000Y-115657500D02*
X167630000Y-113657500D01*
%TO.C,C14*%
X128540000Y-90795000D02*
X130540000Y-90795000D01*
X130540000Y-89545000D02*
X128540000Y-89545000D01*
X130540000Y-90795000D02*
X130540000Y-89545000D01*
X128540000Y-89545000D02*
X128540000Y-90795000D01*
%TO.C,R23*%
X120279000Y-121927500D02*
X121529000Y-121927500D01*
X120279000Y-119927500D02*
X120279000Y-121927500D01*
X121529000Y-119927500D02*
X120279000Y-119927500D01*
X121529000Y-121927500D02*
X121529000Y-119927500D01*
%TO.C,R12*%
X181600000Y-108855000D02*
X180350000Y-108855000D01*
X180350000Y-110855000D02*
X181600000Y-110855000D01*
X181600000Y-110855000D02*
X181600000Y-108855000D01*
X180350000Y-108855000D02*
X180350000Y-110855000D01*
%TO.C,C15*%
X125085000Y-129585000D02*
X125085000Y-127585000D01*
X123835000Y-127585000D02*
X123835000Y-129585000D01*
X125085000Y-127585000D02*
X123835000Y-127585000D01*
X123835000Y-129585000D02*
X125085000Y-129585000D01*
%TO.C,C12*%
X151434000Y-94371000D02*
X149434000Y-94371000D01*
X151434000Y-95621000D02*
X151434000Y-94371000D01*
X149434000Y-94371000D02*
X149434000Y-95621000D01*
X149434000Y-95621000D02*
X151434000Y-95621000D01*
%TO.C,C1*%
X113675000Y-100600000D02*
X113675000Y-102600000D01*
X114925000Y-100600000D02*
X113675000Y-100600000D01*
X114925000Y-102600000D02*
X114925000Y-100600000D01*
X113675000Y-102600000D02*
X114925000Y-102600000D01*
%TO.C,Q1*%
X130620000Y-99440000D02*
X130620000Y-102490000D01*
X132270000Y-99865000D02*
X131870000Y-99440000D01*
X130620000Y-102490000D02*
X132270000Y-102490000D01*
X132270000Y-99865000D02*
X132270000Y-102490000D01*
X130620000Y-99440000D02*
X131870000Y-99440000D01*
%TO.C,U6*%
X172540000Y-97122500D02*
X172540000Y-98722500D01*
X175440000Y-98322500D02*
X175440000Y-97122500D01*
X175040000Y-98722500D02*
X175440000Y-98322500D01*
X172540000Y-98722500D02*
X175040000Y-98722500D01*
X175440000Y-97122500D02*
X172540000Y-97122500D01*
%TO.C,C9*%
X178800000Y-101610000D02*
X176800000Y-101610000D01*
X178800000Y-102860000D02*
X178800000Y-101610000D01*
X176800000Y-101610000D02*
X176800000Y-102860000D01*
X176800000Y-102860000D02*
X178800000Y-102860000D01*
%TO.C,C11*%
X179060000Y-98790000D02*
X179060000Y-96790000D01*
X177810000Y-96790000D02*
X177810000Y-98790000D01*
X179060000Y-96790000D02*
X177810000Y-96790000D01*
X177810000Y-98790000D02*
X179060000Y-98790000D01*
%TO.C,C18*%
X160010000Y-115615000D02*
X160010000Y-113615000D01*
X158760000Y-113615000D02*
X158760000Y-115615000D01*
X158760000Y-115615000D02*
X160010000Y-115615000D01*
X160010000Y-113615000D02*
X158760000Y-113615000D01*
%TO.C,R22*%
X119497000Y-119927500D02*
X118247000Y-119927500D01*
X118247000Y-121927500D02*
X119497000Y-121927500D01*
X119497000Y-121927500D02*
X119497000Y-119927500D01*
X118247000Y-119927500D02*
X118247000Y-121927500D01*
%TO.C,U5*%
X171405000Y-88942500D02*
X175305000Y-88942500D01*
X174330000Y-84042500D02*
X171405000Y-84042500D01*
X171405000Y-84042500D02*
X171405000Y-88942500D01*
X175305000Y-85017500D02*
X174330000Y-84042500D01*
X175305000Y-88942500D02*
X175305000Y-85017500D01*
%TO.C,C16*%
X153720000Y-121930000D02*
X151720000Y-121930000D01*
X151720000Y-123180000D02*
X153720000Y-123180000D01*
X151720000Y-121930000D02*
X151720000Y-123180000D01*
X153720000Y-123180000D02*
X153720000Y-121930000D01*
%TO.C,R4*%
X121555000Y-105400000D02*
X123555000Y-105400000D01*
X123555000Y-105400000D02*
X123555000Y-104150000D01*
X123555000Y-104150000D02*
X121555000Y-104150000D01*
X121555000Y-104150000D02*
X121555000Y-105400000D01*
%TO.C,C2*%
X119425000Y-106690000D02*
X117425000Y-106690000D01*
X119425000Y-107940000D02*
X119425000Y-106690000D01*
X117425000Y-107940000D02*
X119425000Y-107940000D01*
X117425000Y-106690000D02*
X117425000Y-107940000D01*
%TO.C,R15*%
X170170000Y-98922500D02*
X170170000Y-96922500D01*
X168920000Y-98922500D02*
X170170000Y-98922500D01*
X168920000Y-96922500D02*
X168920000Y-98922500D01*
X170170000Y-96922500D02*
X168920000Y-96922500D01*
%TO.C,R20*%
X170545000Y-129530000D02*
X170545000Y-128280000D01*
X168545000Y-128280000D02*
X168545000Y-129530000D01*
X168545000Y-129530000D02*
X170545000Y-129530000D01*
X170545000Y-128280000D02*
X168545000Y-128280000D01*
%TD*%
M02*
