%TF.GenerationSoftware,KiCad,Pcbnew,6.0.7-f9a2dced07~116~ubuntu20.04.1*%
%TF.CreationDate,2022-08-31T16:11:48+02:00*%
%TF.ProjectId,dumber-v3,64756d62-6572-42d7-9633-2e6b69636164,1.1*%
%TF.SameCoordinates,Original*%
%TF.FileFunction,Soldermask,Bot*%
%TF.FilePolarity,Negative*%
%FSLAX46Y46*%
G04 Gerber Fmt 4.6, Leading zero omitted, Abs format (unit mm)*
G04 Created by KiCad (PCBNEW 6.0.7-f9a2dced07~116~ubuntu20.04.1) date 2022-08-31 16:11:48*
%MOMM*%
%LPD*%
G01*
G04 APERTURE LIST*
G04 Aperture macros list*
%AMRoundRect*
0 Rectangle with rounded corners*
0 $1 Rounding radius*
0 $2 $3 $4 $5 $6 $7 $8 $9 X,Y pos of 4 corners*
0 Add a 4 corners polygon primitive as box body*
4,1,4,$2,$3,$4,$5,$6,$7,$8,$9,$2,$3,0*
0 Add four circle primitives for the rounded corners*
1,1,$1+$1,$2,$3*
1,1,$1+$1,$4,$5*
1,1,$1+$1,$6,$7*
1,1,$1+$1,$8,$9*
0 Add four rect primitives between the rounded corners*
20,1,$1+$1,$2,$3,$4,$5,0*
20,1,$1+$1,$4,$5,$6,$7,0*
20,1,$1+$1,$6,$7,$8,$9,0*
20,1,$1+$1,$8,$9,$2,$3,0*%
%AMFreePoly0*
4,1,22,0.550000,-0.750000,0.000000,-0.750000,0.000000,-0.745033,-0.079941,-0.743568,-0.215256,-0.701293,-0.333266,-0.622738,-0.424486,-0.514219,-0.481581,-0.384460,-0.499164,-0.250000,-0.500000,-0.250000,-0.500000,0.250000,-0.499164,0.250000,-0.499963,0.256109,-0.478152,0.396186,-0.417904,0.524511,-0.324060,0.630769,-0.204165,0.706417,-0.067858,0.745374,0.000000,0.744959,0.000000,0.750000,
0.550000,0.750000,0.550000,-0.750000,0.550000,-0.750000,$1*%
%AMFreePoly1*
4,1,20,0.000000,0.744959,0.073905,0.744508,0.209726,0.703889,0.328688,0.626782,0.421226,0.519385,0.479903,0.390333,0.500000,0.250000,0.500000,-0.250000,0.499851,-0.262216,0.476331,-0.402017,0.414519,-0.529596,0.319384,-0.634700,0.198574,-0.708877,0.061801,-0.746166,0.000000,-0.745033,0.000000,-0.750000,-0.550000,-0.750000,-0.550000,0.750000,0.000000,0.750000,0.000000,0.744959,
0.000000,0.744959,$1*%
G04 Aperture macros list end*
%TA.AperFunction,Profile*%
%ADD10C,0.010050*%
%TD*%
%TA.AperFunction,Profile*%
%ADD11C,0.500000*%
%TD*%
%ADD12R,0.300000X0.300000*%
%ADD13R,0.250000X0.250000*%
%ADD14R,1.000000X1.500000*%
%ADD15RoundRect,0.250000X0.600000X0.600000X-0.600000X0.600000X-0.600000X-0.600000X0.600000X-0.600000X0*%
%ADD16C,1.700000*%
%ADD17C,3.500000*%
%ADD18O,1.700000X1.100000*%
%ADD19R,1.200000X1.200000*%
%ADD20C,1.200000*%
%ADD21RoundRect,0.250000X0.475000X-0.250000X0.475000X0.250000X-0.475000X0.250000X-0.475000X-0.250000X0*%
%ADD22RoundRect,0.250000X-0.262500X-0.450000X0.262500X-0.450000X0.262500X0.450000X-0.262500X0.450000X0*%
%ADD23RoundRect,0.075000X-0.662500X-0.075000X0.662500X-0.075000X0.662500X0.075000X-0.662500X0.075000X0*%
%ADD24RoundRect,0.075000X-0.075000X-0.662500X0.075000X-0.662500X0.075000X0.662500X-0.075000X0.662500X0*%
%ADD25RoundRect,0.250000X0.262500X0.450000X-0.262500X0.450000X-0.262500X-0.450000X0.262500X-0.450000X0*%
%ADD26RoundRect,0.250000X-0.475000X0.250000X-0.475000X-0.250000X0.475000X-0.250000X0.475000X0.250000X0*%
%ADD27RoundRect,0.250000X-0.250000X-0.475000X0.250000X-0.475000X0.250000X0.475000X-0.250000X0.475000X0*%
%ADD28RoundRect,0.125000X-0.537500X-0.125000X0.537500X-0.125000X0.537500X0.125000X-0.537500X0.125000X0*%
%ADD29R,0.700000X0.510000*%
%ADD30RoundRect,0.250000X-0.450000X0.262500X-0.450000X-0.262500X0.450000X-0.262500X0.450000X0.262500X0*%
%ADD31RoundRect,0.250000X0.450000X-0.262500X0.450000X0.262500X-0.450000X0.262500X-0.450000X-0.262500X0*%
%ADD32R,1.100000X0.510000*%
%ADD33FreePoly0,180.000000*%
%ADD34FreePoly1,180.000000*%
%ADD35RoundRect,0.250000X0.250000X0.475000X-0.250000X0.475000X-0.250000X-0.475000X0.250000X-0.475000X0*%
%ADD36R,0.812800X0.254000*%
%ADD37R,0.254000X0.812800*%
%ADD38R,1.752600X1.752600*%
%ADD39RoundRect,0.150000X0.150000X-0.512500X0.150000X0.512500X-0.150000X0.512500X-0.150000X-0.512500X0*%
%ADD40RoundRect,0.150000X0.725000X0.150000X-0.725000X0.150000X-0.725000X-0.150000X0.725000X-0.150000X0*%
G04 APERTURE END LIST*
D10*
X173755025Y-70000000D02*
G75*
G03*
X173755025Y-70000000I-5025J0D01*
G01*
X141505025Y-86500000D02*
G75*
G03*
X141505025Y-86500000I-5025J0D01*
G01*
D11*
X175350000Y-70000000D02*
G75*
G03*
X175350000Y-70000000I-1600000J0D01*
G01*
X142550000Y-86500000D02*
G75*
G03*
X142550000Y-86500000I-1050000J0D01*
G01*
X167750000Y-63000000D02*
X167750000Y-71500000D01*
X109750000Y-96000000D02*
X109750000Y-116000000D01*
X129350000Y-142000000D02*
G75*
G03*
X129350000Y-142000000I-1600000J0D01*
G01*
X127750000Y-63000000D02*
G75*
G03*
X109750000Y-96000000I21250000J-33000000D01*
G01*
X197750000Y-127000000D02*
X197750000Y-85000000D01*
X129350000Y-70000000D02*
G75*
G03*
X129350000Y-70000000I-1600000J0D01*
G01*
X167750000Y-149000000D02*
X172750000Y-149000000D01*
X172750000Y-63000000D02*
X167750000Y-63000000D01*
D10*
X172755025Y-123795455D02*
G75*
G03*
X172755025Y-123795455I-5025J0D01*
G01*
X159005025Y-125500000D02*
G75*
G03*
X159005025Y-125500000I-5025J0D01*
G01*
X159005025Y-86500000D02*
G75*
G03*
X159005025Y-86500000I-5025J0D01*
G01*
X172755025Y-88204545D02*
G75*
G03*
X172755025Y-88204545I-5025J0D01*
G01*
X149005025Y-116000000D02*
G75*
G03*
X149005025Y-116000000I-5025J0D01*
G01*
D11*
X132750000Y-149000000D02*
X132750000Y-140500000D01*
X167750000Y-140500000D02*
X167750000Y-149000000D01*
X127750000Y-149000000D02*
X132750000Y-149000000D01*
X167750000Y-71500000D02*
X132750000Y-71500000D01*
D10*
X127755025Y-70000000D02*
G75*
G03*
X127755025Y-70000000I-5025J0D01*
G01*
D11*
X109750000Y-116000000D02*
G75*
G03*
X127750000Y-149000000I39250000J0D01*
G01*
X175350000Y-142000000D02*
G75*
G03*
X175350000Y-142000000I-1600000J0D01*
G01*
D10*
X149005025Y-96000000D02*
G75*
G03*
X149005025Y-96000000I-5025J0D01*
G01*
D11*
X132750000Y-63000000D02*
X127750000Y-63000000D01*
X132750000Y-71500000D02*
X132750000Y-63000000D01*
X197750047Y-84999994D02*
G75*
G03*
X172750000Y-63000000I-25000047J-3204606D01*
G01*
X160050000Y-86500000D02*
G75*
G03*
X160050000Y-86500000I-1050000J0D01*
G01*
D10*
X173755025Y-142000000D02*
G75*
G03*
X173755025Y-142000000I-5025J0D01*
G01*
X141505025Y-125500000D02*
G75*
G03*
X141505025Y-125500000I-5025J0D01*
G01*
D11*
X132750000Y-140500000D02*
X167750000Y-140500000D01*
X160050000Y-125500000D02*
G75*
G03*
X160050000Y-125500000I-1050000J0D01*
G01*
X142550000Y-125500000D02*
G75*
G03*
X142550000Y-125500000I-1050000J0D01*
G01*
X172750000Y-149000005D02*
G75*
G03*
X197750000Y-127000000I0J25204545D01*
G01*
D10*
X127755025Y-142000000D02*
G75*
G03*
X127755025Y-142000000I-5025J0D01*
G01*
D12*
%TO.C,D1*%
X136945000Y-101615000D03*
X136945000Y-100315000D03*
D13*
X138670000Y-100965000D03*
D14*
X138045000Y-100965000D03*
%TD*%
D15*
%TO.C,J1*%
X131000000Y-87000000D03*
D16*
X128460000Y-87000000D03*
X131000000Y-84460000D03*
X128460000Y-84460000D03*
X131000000Y-81920000D03*
X128460000Y-81920000D03*
%TD*%
D17*
%TO.C,BT1*%
X180500000Y-124250000D03*
X180500000Y-131850000D03*
X180500000Y-80150000D03*
X180500000Y-87750000D03*
%TD*%
D15*
%TO.C,J2*%
X131000000Y-130000000D03*
D16*
X128460000Y-130000000D03*
X131000000Y-127460000D03*
X128460000Y-127460000D03*
X131000000Y-124920000D03*
X128460000Y-124920000D03*
%TD*%
D18*
%TO.C,P1*%
X191835000Y-101710000D03*
X195635000Y-110350000D03*
X195635000Y-101700000D03*
X191835000Y-110350000D03*
%TD*%
D19*
%TO.C,U1*%
X119435000Y-116800000D03*
D20*
X121435000Y-116800000D03*
X123435000Y-116800000D03*
X125435000Y-116800000D03*
X127435000Y-116800000D03*
X129435000Y-116800000D03*
X131435000Y-116800000D03*
X133435000Y-116800000D03*
X135435000Y-116800000D03*
X137435000Y-116800000D03*
X137435000Y-94800000D03*
X135435000Y-94800000D03*
X133435000Y-94800000D03*
X131435000Y-94800000D03*
X129435000Y-94800000D03*
X127435000Y-94800000D03*
X125435000Y-94800000D03*
X123435000Y-94800000D03*
X121435000Y-94800000D03*
X119435000Y-94800000D03*
%TD*%
D21*
%TO.C,C17*%
X156210000Y-106995000D03*
X156210000Y-105095000D03*
%TD*%
D22*
%TO.C,R10*%
X173839500Y-81000000D03*
X175664500Y-81000000D03*
%TD*%
D23*
%TO.C,U2*%
X146332500Y-115780000D03*
X146332500Y-115280000D03*
X146332500Y-114780000D03*
X146332500Y-114280000D03*
X146332500Y-113780000D03*
X146332500Y-113280000D03*
X146332500Y-112780000D03*
X146332500Y-112280000D03*
X146332500Y-111780000D03*
X146332500Y-111280000D03*
X146332500Y-110780000D03*
X146332500Y-110280000D03*
D24*
X147745000Y-108867500D03*
X148245000Y-108867500D03*
X148745000Y-108867500D03*
X149245000Y-108867500D03*
X149745000Y-108867500D03*
X150245000Y-108867500D03*
X150745000Y-108867500D03*
X151245000Y-108867500D03*
X151745000Y-108867500D03*
X152245000Y-108867500D03*
X152745000Y-108867500D03*
X153245000Y-108867500D03*
D23*
X154657500Y-110280000D03*
X154657500Y-110780000D03*
X154657500Y-111280000D03*
X154657500Y-111780000D03*
X154657500Y-112280000D03*
X154657500Y-112780000D03*
X154657500Y-113280000D03*
X154657500Y-113780000D03*
X154657500Y-114280000D03*
X154657500Y-114780000D03*
X154657500Y-115280000D03*
X154657500Y-115780000D03*
D24*
X153245000Y-117192500D03*
X152745000Y-117192500D03*
X152245000Y-117192500D03*
X151745000Y-117192500D03*
X151245000Y-117192500D03*
X150745000Y-117192500D03*
X150245000Y-117192500D03*
X149745000Y-117192500D03*
X149245000Y-117192500D03*
X148745000Y-117192500D03*
X148245000Y-117192500D03*
X147745000Y-117192500D03*
%TD*%
D21*
%TO.C,C4*%
X184785000Y-116520000D03*
X184785000Y-114620000D03*
%TD*%
D25*
%TO.C,R7*%
X175537500Y-113030000D03*
X173712500Y-113030000D03*
%TD*%
D26*
%TO.C,C20*%
X141605000Y-110810000D03*
X141605000Y-112710000D03*
%TD*%
D25*
%TO.C,R17*%
X170457500Y-123190000D03*
X168632500Y-123190000D03*
%TD*%
D27*
%TO.C,C6*%
X172725000Y-102235000D03*
X174625000Y-102235000D03*
%TD*%
D22*
%TO.C,R3*%
X175340000Y-122555000D03*
X177165000Y-122555000D03*
%TD*%
D26*
%TO.C,C19*%
X144780000Y-118750000D03*
X144780000Y-120650000D03*
%TD*%
D28*
%TO.C,U3*%
X116972500Y-102575000D03*
X116972500Y-101925000D03*
X116972500Y-101275000D03*
X116972500Y-100625000D03*
X119247500Y-100625000D03*
X119247500Y-101275000D03*
X119247500Y-101925000D03*
X119247500Y-102575000D03*
%TD*%
D29*
%TO.C,Q2*%
X132605000Y-108270000D03*
X132605000Y-109220000D03*
X132605000Y-110170000D03*
X130285000Y-110170000D03*
X130285000Y-109220000D03*
X130285000Y-108270000D03*
%TD*%
D22*
%TO.C,R24*%
X130532500Y-112395000D03*
X132357500Y-112395000D03*
%TD*%
%TO.C,R1*%
X130532500Y-104140000D03*
X132357500Y-104140000D03*
%TD*%
D21*
%TO.C,C7*%
X184785000Y-131440000D03*
X184785000Y-129540000D03*
%TD*%
D30*
%TO.C,R16*%
X116840000Y-120015000D03*
X116840000Y-121840000D03*
%TD*%
D31*
%TO.C,R13*%
X178435000Y-110767500D03*
X178435000Y-108942500D03*
%TD*%
D32*
%TO.C,U7*%
X153045000Y-98330000D03*
X153045000Y-99330000D03*
X153045000Y-100330000D03*
X153045000Y-101330000D03*
X153045000Y-102330000D03*
X147945000Y-102330000D03*
X147945000Y-101330000D03*
X147945000Y-100330000D03*
X147945000Y-99330000D03*
X147945000Y-98330000D03*
%TD*%
D25*
%TO.C,R21*%
X175537500Y-115570000D03*
X173712500Y-115570000D03*
%TD*%
D26*
%TO.C,C3*%
X188595000Y-105095000D03*
X188595000Y-106995000D03*
%TD*%
D25*
%TO.C,R2*%
X123467500Y-102235000D03*
X121642500Y-102235000D03*
%TD*%
D33*
%TO.C,JP1*%
X151795000Y-126365000D03*
D14*
X150495000Y-126365000D03*
D34*
X149195000Y-126365000D03*
%TD*%
D27*
%TO.C,C8*%
X172405000Y-91572500D03*
X174305000Y-91572500D03*
%TD*%
D22*
%TO.C,R5*%
X175340000Y-120015000D03*
X177165000Y-120015000D03*
%TD*%
D25*
%TO.C,R11*%
X181149000Y-84328000D03*
X179324000Y-84328000D03*
%TD*%
D26*
%TO.C,C5*%
X184912000Y-83378000D03*
X184912000Y-85278000D03*
%TD*%
D22*
%TO.C,R18*%
X168632500Y-125730000D03*
X170457500Y-125730000D03*
%TD*%
D25*
%TO.C,R19*%
X170457500Y-131445000D03*
X168632500Y-131445000D03*
%TD*%
D35*
%TO.C,C13*%
X119375000Y-114300000D03*
X117475000Y-114300000D03*
%TD*%
D36*
%TO.C,U4*%
X181813200Y-114184999D03*
X181813200Y-114685000D03*
X181813200Y-115185000D03*
X181813200Y-115685001D03*
D37*
X181090001Y-116408200D03*
X180590000Y-116408200D03*
X180090000Y-116408200D03*
X179589999Y-116408200D03*
D36*
X178866800Y-115685001D03*
X178866800Y-115185000D03*
X178866800Y-114685000D03*
X178866800Y-114184999D03*
D37*
X179589999Y-113461800D03*
X180090000Y-113461800D03*
X180590000Y-113461800D03*
X181090001Y-113461800D03*
D38*
X180340000Y-114935000D03*
%TD*%
D22*
%TO.C,R9*%
X179427500Y-120396000D03*
X181252500Y-120396000D03*
%TD*%
D31*
%TO.C,R14*%
X183515000Y-110767500D03*
X183515000Y-108942500D03*
%TD*%
%TO.C,R29*%
X161925000Y-115570000D03*
X161925000Y-113745000D03*
%TD*%
D26*
%TO.C,C10*%
X167005000Y-85542500D03*
X167005000Y-87442500D03*
%TD*%
D31*
%TO.C,R26*%
X149860000Y-122832500D03*
X149860000Y-121007500D03*
%TD*%
D30*
%TO.C,R28*%
X164465000Y-113745000D03*
X164465000Y-115570000D03*
%TD*%
D31*
%TO.C,R8*%
X184912000Y-89304500D03*
X184912000Y-87479500D03*
%TD*%
D25*
%TO.C,R6*%
X123467500Y-99695000D03*
X121642500Y-99695000D03*
%TD*%
D31*
%TO.C,R25*%
X135255000Y-110132500D03*
X135255000Y-108307500D03*
%TD*%
%TO.C,R27*%
X167005000Y-115570000D03*
X167005000Y-113745000D03*
%TD*%
D35*
%TO.C,C14*%
X130490000Y-90170000D03*
X128590000Y-90170000D03*
%TD*%
D30*
%TO.C,R23*%
X120904000Y-120015000D03*
X120904000Y-121840000D03*
%TD*%
D31*
%TO.C,R12*%
X180975000Y-110767500D03*
X180975000Y-108942500D03*
%TD*%
D21*
%TO.C,C15*%
X124460000Y-129535000D03*
X124460000Y-127635000D03*
%TD*%
D35*
%TO.C,C12*%
X151384000Y-94996000D03*
X149484000Y-94996000D03*
%TD*%
D21*
%TO.C,C1*%
X114300000Y-100650000D03*
X114300000Y-102550000D03*
%TD*%
D29*
%TO.C,Q1*%
X132605000Y-100015000D03*
X132605000Y-100965000D03*
X132605000Y-101915000D03*
X130285000Y-101915000D03*
X130285000Y-100965000D03*
X130285000Y-100015000D03*
%TD*%
D39*
%TO.C,U6*%
X174940000Y-99060000D03*
X173990000Y-99060000D03*
X173040000Y-99060000D03*
X173040000Y-96785000D03*
X174940000Y-96785000D03*
%TD*%
D35*
%TO.C,C9*%
X178750000Y-102235000D03*
X176850000Y-102235000D03*
%TD*%
D26*
%TO.C,C11*%
X178435000Y-96840000D03*
X178435000Y-98740000D03*
%TD*%
D21*
%TO.C,C18*%
X159385000Y-115565000D03*
X159385000Y-113665000D03*
%TD*%
D30*
%TO.C,R22*%
X118872000Y-120015000D03*
X118872000Y-121840000D03*
%TD*%
D40*
%TO.C,U5*%
X175930000Y-84587500D03*
X175930000Y-85857500D03*
X175930000Y-87127500D03*
X175930000Y-88397500D03*
X170780000Y-88397500D03*
X170780000Y-87127500D03*
X170780000Y-85857500D03*
X170780000Y-84587500D03*
%TD*%
D35*
%TO.C,C16*%
X153670000Y-122555000D03*
X151770000Y-122555000D03*
%TD*%
D25*
%TO.C,R4*%
X123467500Y-104775000D03*
X121642500Y-104775000D03*
%TD*%
D35*
%TO.C,C2*%
X119375000Y-107315000D03*
X117475000Y-107315000D03*
%TD*%
D30*
%TO.C,R15*%
X169545000Y-97010000D03*
X169545000Y-98835000D03*
%TD*%
D22*
%TO.C,R20*%
X168632500Y-128905000D03*
X170457500Y-128905000D03*
%TD*%
M02*
