  0
SECTION
  2
HEADER
  9
$ANGBASE
  50
0.0
  9
$ANGDIR
  70
1
  9
$MEASUREMENT
  70
1
  0
ENDSEC
  0
SECTION
  2
TABLES
  0
TABLE
  2
LTYPE
  70
4
  0
LTYPE
  5
40F
  2
CONTINUOUS
  70
0
  3
Solid line
  72
65
  73
0
  40
0.0
  0
LTYPE
  5
410
  2
DASHDOT
 70
0
  3
Dash Dot ____ _ ____ _
 72
65
 73
4
 40
2.0
 49
1.25
 49
-0.25
 49
0.25
 49
-0.25
  0
LTYPE
  5
411
  2
DASHED
 70
0
  3
Dashed __ __ __ __ __
 72
65
 73
2
 40
0.75
 49
0.5
 49
-0.25
  0
LTYPE
  5
43B
  2
DOTTED
 70
0
  3
Dotted .  .  .  .
 72
65
 73
2
 40
0.2
 49
0.0
 49
-0.2
  0
ENDTAB
  0
TABLE
  2
STYLE
  70
4
  0
STYLE
  2
KICAD
  70
0
  40
0
  41
1
  42
1
  50
0
  71
0
  3
isocp.shx
  0
STYLE
  2
KICADB
  70
0
  40
0
  41
1
  42
1
  50
0
  71
0
  3
isocp.shx
  0
STYLE
  2
KICADI
  70
0
  40
0
  41
1
  42
1
  50
15
  71
0
  3
isocp.shx
  0
STYLE
  2
KICADBI
  70
0
  40
0
  41
1
  42
1
  50
15
  71
0
  3
isocp.shx
  0
ENDTAB
  0
TABLE
  2
LAYER
  70
1
  0
LAYER
  2
BLACK
  70
0
  62
7
  6
CONTINUOUS
  0
ENDTAB
  0
ENDSEC
  0
SECTION
  2
ENTITIES
0
LINE
8
BLACK
6
CONTINUOUS
10
127
20
-120
11
90.5
21
-120
0
LINE
8
BLACK
6
CONTINUOUS
10
127
20
-96
11
127
21
-120
0
LINE
8
BLACK
6
CONTINUOUS
10
90.5
20
-120
11
90.5
21
-96
0
LINE
8
BLACK
6
CONTINUOUS
10
90.5
20
-96
11
127
21
-96
0
LINE
8
BLACK
6
CONTINUOUS
10
98.5
20
-98.5
11
101.5
21
-101.5
0
LINE
8
BLACK
6
CONTINUOUS
10
101.5
20
-98.5
11
98.5
21
-101.5
0
LINE
8
BLACK
6
CONTINUOUS
10
98.5
20
-114.5
11
101.5
21
-117.5
0
LINE
8
BLACK
6
CONTINUOUS
10
101.5
20
-114.5
11
98.5
21
-117.5
0
LINE
8
BLACK
6
CONTINUOUS
10
121.5
20
-98.5
11
124.5
21
-101.5
0
LINE
8
BLACK
6
CONTINUOUS
10
124.5
20
-98.5
11
121.5
21
-101.5
0
LINE
8
BLACK
6
CONTINUOUS
10
121.5
20
-114.5
11
124.5
21
-117.5
0
LINE
8
BLACK
6
CONTINUOUS
10
124.5
20
-114.5
11
121.5
21
-117.5
0
LINE
8
BLACK
6
CONTINUOUS
10
93.0262
20
-123.155
11
93.0262
21
-121.155
0
LINE
8
BLACK
6
CONTINUOUS
10
93.0262
20
-121.155
11
93.5024
21
-121.155
0
LINE
8
BLACK
6
CONTINUOUS
10
93.5024
20
-121.155
11
93.7881
21
-121.25
0
LINE
8
BLACK
6
CONTINUOUS
10
93.7881
20
-121.25
11
93.9786
21
-121.44
0
LINE
8
BLACK
6
CONTINUOUS
10
93.9786
20
-121.44
11
94.0738
21
-121.631
0
LINE
8
BLACK
6
CONTINUOUS
10
94.0738
20
-121.631
11
94.169
21
-122.012
0
LINE
8
BLACK
6
CONTINUOUS
10
94.169
20
-122.012
11
94.169
21
-122.298
0
LINE
8
BLACK
6
CONTINUOUS
10
94.169
20
-122.298
11
94.0738
21
-122.679
0
LINE
8
BLACK
6
CONTINUOUS
10
94.0738
20
-122.679
11
93.9786
21
-122.869
0
LINE
8
BLACK
6
CONTINUOUS
10
93.9786
20
-122.869
11
93.7881
21
-123.06
0
LINE
8
BLACK
6
CONTINUOUS
10
93.7881
20
-123.06
11
93.5024
21
-123.155
0
LINE
8
BLACK
6
CONTINUOUS
10
93.5024
20
-123.155
11
93.0262
21
-123.155
0
LINE
8
BLACK
6
CONTINUOUS
10
95.0262
20
-123.155
11
95.0262
21
-121.821
0
LINE
8
BLACK
6
CONTINUOUS
10
95.0262
20
-122.202
11
95.1214
21
-122.012
0
LINE
8
BLACK
6
CONTINUOUS
10
95.1214
20
-122.012
11
95.2167
21
-121.917
0
LINE
8
BLACK
6
CONTINUOUS
10
95.2167
20
-121.917
11
95.4071
21
-121.821
0
LINE
8
BLACK
6
CONTINUOUS
10
95.4071
20
-121.821
11
95.5976
21
-121.821
0
LINE
8
BLACK
6
CONTINUOUS
10
96.2643
20
-123.155
11
96.2643
21
-121.821
0
LINE
8
BLACK
6
CONTINUOUS
10
96.2643
20
-121.155
11
96.169
21
-121.25
0
LINE
8
BLACK
6
CONTINUOUS
10
96.169
20
-121.25
11
96.2643
21
-121.345
0
LINE
8
BLACK
6
CONTINUOUS
10
96.2643
20
-121.345
11
96.3595
21
-121.25
0
LINE
8
BLACK
6
CONTINUOUS
10
96.3595
20
-121.25
11
96.2643
21
-121.155
0
LINE
8
BLACK
6
CONTINUOUS
10
96.2643
20
-121.155
11
96.2643
21
-121.345
0
LINE
8
BLACK
6
CONTINUOUS
10
97.5024
20
-123.155
11
97.3119
21
-123.06
0
LINE
8
BLACK
6
CONTINUOUS
10
97.3119
20
-123.06
11
97.2167
21
-122.869
0
LINE
8
BLACK
6
CONTINUOUS
10
97.2167
20
-122.869
11
97.2167
21
-121.155
0
LINE
8
BLACK
6
CONTINUOUS
10
98.55
20
-123.155
11
98.3595
21
-123.06
0
LINE
8
BLACK
6
CONTINUOUS
10
98.3595
20
-123.06
11
98.2643
21
-122.869
0
LINE
8
BLACK
6
CONTINUOUS
10
98.2643
20
-122.869
11
98.2643
21
-121.155
0
LINE
8
BLACK
6
CONTINUOUS
10
100.836
20
-123.155
11
100.836
21
-121.155
0
LINE
8
BLACK
6
CONTINUOUS
10
100.836
20
-121.155
11
101.502
21
-122.583
0
LINE
8
BLACK
6
CONTINUOUS
10
101.502
20
-122.583
11
102.169
21
-121.155
0
LINE
8
BLACK
6
CONTINUOUS
10
102.169
20
-121.155
11
102.169
21
-123.155
0
LINE
8
BLACK
6
CONTINUOUS
10
103.979
20
-123.155
11
103.979
21
-122.107
0
LINE
8
BLACK
6
CONTINUOUS
10
103.979
20
-122.107
11
103.883
21
-121.917
0
LINE
8
BLACK
6
CONTINUOUS
10
103.883
20
-121.917
11
103.693
21
-121.821
0
LINE
8
BLACK
6
CONTINUOUS
10
103.693
20
-121.821
11
103.312
21
-121.821
0
LINE
8
BLACK
6
CONTINUOUS
10
103.312
20
-121.821
11
103.121
21
-121.917
0
LINE
8
BLACK
6
CONTINUOUS
10
103.979
20
-123.06
11
103.788
21
-123.155
0
LINE
8
BLACK
6
CONTINUOUS
10
103.788
20
-123.155
11
103.312
21
-123.155
0
LINE
8
BLACK
6
CONTINUOUS
10
103.312
20
-123.155
11
103.121
21
-123.06
0
LINE
8
BLACK
6
CONTINUOUS
10
103.121
20
-123.06
11
103.026
21
-122.869
0
LINE
8
BLACK
6
CONTINUOUS
10
103.026
20
-122.869
11
103.026
21
-122.679
0
LINE
8
BLACK
6
CONTINUOUS
10
103.026
20
-122.679
11
103.121
21
-122.488
0
LINE
8
BLACK
6
CONTINUOUS
10
103.121
20
-122.488
11
103.312
21
-122.393
0
LINE
8
BLACK
6
CONTINUOUS
10
103.312
20
-122.393
11
103.788
21
-122.393
0
LINE
8
BLACK
6
CONTINUOUS
10
103.788
20
-122.393
11
103.979
21
-122.298
0
LINE
8
BLACK
6
CONTINUOUS
10
104.931
20
-121.821
11
104.931
21
-123.821
0
LINE
8
BLACK
6
CONTINUOUS
10
104.931
20
-121.917
11
105.121
21
-121.821
0
LINE
8
BLACK
6
CONTINUOUS
10
105.121
20
-121.821
11
105.502
21
-121.821
0
LINE
8
BLACK
6
CONTINUOUS
10
105.502
20
-121.821
11
105.693
21
-121.917
0
LINE
8
BLACK
6
CONTINUOUS
10
105.693
20
-121.917
11
105.788
21
-122.012
0
LINE
8
BLACK
6
CONTINUOUS
10
105.788
20
-122.012
11
105.883
21
-122.202
0
LINE
8
BLACK
6
CONTINUOUS
10
105.883
20
-122.202
11
105.883
21
-122.774
0
LINE
8
BLACK
6
CONTINUOUS
10
105.883
20
-122.774
11
105.788
21
-122.964
0
LINE
8
BLACK
6
CONTINUOUS
10
105.788
20
-122.964
11
105.693
21
-123.06
0
LINE
8
BLACK
6
CONTINUOUS
10
105.693
20
-123.06
11
105.502
21
-123.155
0
LINE
8
BLACK
6
CONTINUOUS
10
105.502
20
-123.155
11
105.121
21
-123.155
0
LINE
8
BLACK
6
CONTINUOUS
10
105.121
20
-123.155
11
104.931
21
-123.06
0
LINE
8
BLACK
6
CONTINUOUS
10
106.74
20
-122.964
11
106.836
21
-123.06
0
LINE
8
BLACK
6
CONTINUOUS
10
106.836
20
-123.06
11
106.74
21
-123.155
0
LINE
8
BLACK
6
CONTINUOUS
10
106.74
20
-123.155
11
106.645
21
-123.06
0
LINE
8
BLACK
6
CONTINUOUS
10
106.645
20
-123.06
11
106.74
21
-122.964
0
LINE
8
BLACK
6
CONTINUOUS
10
106.74
20
-122.964
11
106.74
21
-123.155
0
LINE
8
BLACK
6
CONTINUOUS
10
106.74
20
-121.917
11
106.836
21
-122.012
0
LINE
8
BLACK
6
CONTINUOUS
10
106.836
20
-122.012
11
106.74
21
-122.107
0
LINE
8
BLACK
6
CONTINUOUS
10
106.74
20
-122.107
11
106.645
21
-122.012
0
LINE
8
BLACK
6
CONTINUOUS
10
106.645
20
-122.012
11
106.74
21
-121.917
0
LINE
8
BLACK
6
CONTINUOUS
10
106.74
20
-121.917
11
106.74
21
-122.107
0
LINE
8
BLACK
6
CONTINUOUS
10
88.45
20
-125.45
11
90.45
21
-127.45
0
LINE
8
BLACK
6
CONTINUOUS
10
90.45
20
-125.45
11
88.45
21
-127.45
0
LINE
8
BLACK
6
CONTINUOUS
10
92.8357
20
-125.355
11
94.0738
21
-125.355
0
LINE
8
BLACK
6
CONTINUOUS
10
94.0738
20
-125.355
11
93.4071
21
-126.117
0
LINE
8
BLACK
6
CONTINUOUS
10
93.4071
20
-126.117
11
93.6929
21
-126.117
0
LINE
8
BLACK
6
CONTINUOUS
10
93.6929
20
-126.117
11
93.8833
21
-126.212
0
LINE
8
BLACK
6
CONTINUOUS
10
93.8833
20
-126.212
11
93.9786
21
-126.307
0
LINE
8
BLACK
6
CONTINUOUS
10
93.9786
20
-126.307
11
94.0738
21
-126.498
0
LINE
8
BLACK
6
CONTINUOUS
10
94.0738
20
-126.498
11
94.0738
21
-126.974
0
LINE
8
BLACK
6
CONTINUOUS
10
94.0738
20
-126.974
11
93.9786
21
-127.164
0
LINE
8
BLACK
6
CONTINUOUS
10
93.9786
20
-127.164
11
93.8833
21
-127.26
0
LINE
8
BLACK
6
CONTINUOUS
10
93.8833
20
-127.26
11
93.6929
21
-127.355
0
LINE
8
BLACK
6
CONTINUOUS
10
93.6929
20
-127.355
11
93.1214
21
-127.355
0
LINE
8
BLACK
6
CONTINUOUS
10
93.1214
20
-127.355
11
92.931
21
-127.26
0
LINE
8
BLACK
6
CONTINUOUS
10
92.931
20
-127.26
11
92.8357
21
-127.164
0
LINE
8
BLACK
6
CONTINUOUS
10
94.931
20
-127.164
11
95.0262
21
-127.26
0
LINE
8
BLACK
6
CONTINUOUS
10
95.0262
20
-127.26
11
94.931
21
-127.355
0
LINE
8
BLACK
6
CONTINUOUS
10
94.931
20
-127.355
11
94.8357
21
-127.26
0
LINE
8
BLACK
6
CONTINUOUS
10
94.8357
20
-127.26
11
94.931
21
-127.164
0
LINE
8
BLACK
6
CONTINUOUS
10
94.931
20
-127.164
11
94.931
21
-127.355
0
LINE
8
BLACK
6
CONTINUOUS
10
96.2643
20
-125.355
11
96.4548
21
-125.355
0
LINE
8
BLACK
6
CONTINUOUS
10
96.4548
20
-125.355
11
96.6452
21
-125.45
0
LINE
8
BLACK
6
CONTINUOUS
10
96.6452
20
-125.45
11
96.7405
21
-125.545
0
LINE
8
BLACK
6
CONTINUOUS
10
96.7405
20
-125.545
11
96.8357
21
-125.736
0
LINE
8
BLACK
6
CONTINUOUS
10
96.8357
20
-125.736
11
96.931
21
-126.117
0
LINE
8
BLACK
6
CONTINUOUS
10
96.931
20
-126.117
11
96.931
21
-126.593
0
LINE
8
BLACK
6
CONTINUOUS
10
96.931
20
-126.593
11
96.8357
21
-126.974
0
LINE
8
BLACK
6
CONTINUOUS
10
96.8357
20
-126.974
11
96.7405
21
-127.164
0
LINE
8
BLACK
6
CONTINUOUS
10
96.7405
20
-127.164
11
96.6452
21
-127.26
0
LINE
8
BLACK
6
CONTINUOUS
10
96.6452
20
-127.26
11
96.4548
21
-127.355
0
LINE
8
BLACK
6
CONTINUOUS
10
96.4548
20
-127.355
11
96.2643
21
-127.355
0
LINE
8
BLACK
6
CONTINUOUS
10
96.2643
20
-127.355
11
96.0738
21
-127.26
0
LINE
8
BLACK
6
CONTINUOUS
10
96.0738
20
-127.26
11
95.9786
21
-127.164
0
LINE
8
BLACK
6
CONTINUOUS
10
95.9786
20
-127.164
11
95.8833
21
-126.974
0
LINE
8
BLACK
6
CONTINUOUS
10
95.8833
20
-126.974
11
95.7881
21
-126.593
0
LINE
8
BLACK
6
CONTINUOUS
10
95.7881
20
-126.593
11
95.7881
21
-126.117
0
LINE
8
BLACK
6
CONTINUOUS
10
95.7881
20
-126.117
11
95.8833
21
-125.736
0
LINE
8
BLACK
6
CONTINUOUS
10
95.8833
20
-125.736
11
95.9786
21
-125.545
0
LINE
8
BLACK
6
CONTINUOUS
10
95.9786
20
-125.545
11
96.0738
21
-125.45
0
LINE
8
BLACK
6
CONTINUOUS
10
96.0738
20
-125.45
11
96.2643
21
-125.355
0
LINE
8
BLACK
6
CONTINUOUS
10
98.169
20
-125.355
11
98.3595
21
-125.355
0
LINE
8
BLACK
6
CONTINUOUS
10
98.3595
20
-125.355
11
98.55
21
-125.45
0
LINE
8
BLACK
6
CONTINUOUS
10
98.55
20
-125.45
11
98.6452
21
-125.545
0
LINE
8
BLACK
6
CONTINUOUS
10
98.6452
20
-125.545
11
98.7405
21
-125.736
0
LINE
8
BLACK
6
CONTINUOUS
10
98.7405
20
-125.736
11
98.8357
21
-126.117
0
LINE
8
BLACK
6
CONTINUOUS
10
98.8357
20
-126.117
11
98.8357
21
-126.593
0
LINE
8
BLACK
6
CONTINUOUS
10
98.8357
20
-126.593
11
98.7405
21
-126.974
0
LINE
8
BLACK
6
CONTINUOUS
10
98.7405
20
-126.974
11
98.6452
21
-127.164
0
LINE
8
BLACK
6
CONTINUOUS
10
98.6452
20
-127.164
11
98.55
21
-127.26
0
LINE
8
BLACK
6
CONTINUOUS
10
98.55
20
-127.26
11
98.3595
21
-127.355
0
LINE
8
BLACK
6
CONTINUOUS
10
98.3595
20
-127.355
11
98.169
21
-127.355
0
LINE
8
BLACK
6
CONTINUOUS
10
98.169
20
-127.355
11
97.9786
21
-127.26
0
LINE
8
BLACK
6
CONTINUOUS
10
97.9786
20
-127.26
11
97.8833
21
-127.164
0
LINE
8
BLACK
6
CONTINUOUS
10
97.8833
20
-127.164
11
97.7881
21
-126.974
0
LINE
8
BLACK
6
CONTINUOUS
10
97.7881
20
-126.974
11
97.6929
21
-126.593
0
LINE
8
BLACK
6
CONTINUOUS
10
97.6929
20
-126.593
11
97.6929
21
-126.117
0
LINE
8
BLACK
6
CONTINUOUS
10
97.6929
20
-126.117
11
97.7881
21
-125.736
0
LINE
8
BLACK
6
CONTINUOUS
10
97.7881
20
-125.736
11
97.8833
21
-125.545
0
LINE
8
BLACK
6
CONTINUOUS
10
97.8833
20
-125.545
11
97.9786
21
-125.45
0
LINE
8
BLACK
6
CONTINUOUS
10
97.9786
20
-125.45
11
98.169
21
-125.355
0
LINE
8
BLACK
6
CONTINUOUS
10
100.074
20
-125.355
11
100.264
21
-125.355
0
LINE
8
BLACK
6
CONTINUOUS
10
100.264
20
-125.355
11
100.455
21
-125.45
0
LINE
8
BLACK
6
CONTINUOUS
10
100.455
20
-125.45
11
100.55
21
-125.545
0
LINE
8
BLACK
6
CONTINUOUS
10
100.55
20
-125.545
11
100.645
21
-125.736
0
LINE
8
BLACK
6
CONTINUOUS
10
100.645
20
-125.736
11
100.74
21
-126.117
0
LINE
8
BLACK
6
CONTINUOUS
10
100.74
20
-126.117
11
100.74
21
-126.593
0
LINE
8
BLACK
6
CONTINUOUS
10
100.74
20
-126.593
11
100.645
21
-126.974
0
LINE
8
BLACK
6
CONTINUOUS
10
100.645
20
-126.974
11
100.55
21
-127.164
0
LINE
8
BLACK
6
CONTINUOUS
10
100.55
20
-127.164
11
100.455
21
-127.26
0
LINE
8
BLACK
6
CONTINUOUS
10
100.455
20
-127.26
11
100.264
21
-127.355
0
LINE
8
BLACK
6
CONTINUOUS
10
100.264
20
-127.355
11
100.074
21
-127.355
0
LINE
8
BLACK
6
CONTINUOUS
10
100.074
20
-127.355
11
99.8833
21
-127.26
0
LINE
8
BLACK
6
CONTINUOUS
10
99.8833
20
-127.26
11
99.7881
21
-127.164
0
LINE
8
BLACK
6
CONTINUOUS
10
99.7881
20
-127.164
11
99.6929
21
-126.974
0
LINE
8
BLACK
6
CONTINUOUS
10
99.6929
20
-126.974
11
99.5976
21
-126.593
0
LINE
8
BLACK
6
CONTINUOUS
10
99.5976
20
-126.593
11
99.5976
21
-126.117
0
LINE
8
BLACK
6
CONTINUOUS
10
99.5976
20
-126.117
11
99.6929
21
-125.736
0
LINE
8
BLACK
6
CONTINUOUS
10
99.6929
20
-125.736
11
99.7881
21
-125.545
0
LINE
8
BLACK
6
CONTINUOUS
10
99.7881
20
-125.545
11
99.8833
21
-125.45
0
LINE
8
BLACK
6
CONTINUOUS
10
99.8833
20
-125.45
11
100.074
21
-125.355
0
LINE
8
BLACK
6
CONTINUOUS
10
101.598
20
-127.355
11
101.598
21
-126.021
0
LINE
8
BLACK
6
CONTINUOUS
10
101.598
20
-126.212
11
101.693
21
-126.117
0
LINE
8
BLACK
6
CONTINUOUS
10
101.693
20
-126.117
11
101.883
21
-126.021
0
LINE
8
BLACK
6
CONTINUOUS
10
101.883
20
-126.021
11
102.169
21
-126.021
0
LINE
8
BLACK
6
CONTINUOUS
10
102.169
20
-126.021
11
102.36
21
-126.117
0
LINE
8
BLACK
6
CONTINUOUS
10
102.36
20
-126.117
11
102.455
21
-126.307
0
LINE
8
BLACK
6
CONTINUOUS
10
102.455
20
-126.307
11
102.455
21
-127.355
0
LINE
8
BLACK
6
CONTINUOUS
10
102.455
20
-126.307
11
102.55
21
-126.117
0
LINE
8
BLACK
6
CONTINUOUS
10
102.55
20
-126.117
11
102.74
21
-126.021
0
LINE
8
BLACK
6
CONTINUOUS
10
102.74
20
-126.021
11
103.026
21
-126.021
0
LINE
8
BLACK
6
CONTINUOUS
10
103.026
20
-126.021
11
103.217
21
-126.117
0
LINE
8
BLACK
6
CONTINUOUS
10
103.217
20
-126.117
11
103.312
21
-126.307
0
LINE
8
BLACK
6
CONTINUOUS
10
103.312
20
-126.307
11
103.312
21
-127.355
0
LINE
8
BLACK
6
CONTINUOUS
10
104.264
20
-127.355
11
104.264
21
-126.021
0
LINE
8
BLACK
6
CONTINUOUS
10
104.264
20
-126.212
11
104.36
21
-126.117
0
LINE
8
BLACK
6
CONTINUOUS
10
104.36
20
-126.117
11
104.55
21
-126.021
0
LINE
8
BLACK
6
CONTINUOUS
10
104.55
20
-126.021
11
104.836
21
-126.021
0
LINE
8
BLACK
6
CONTINUOUS
10
104.836
20
-126.021
11
105.026
21
-126.117
0
LINE
8
BLACK
6
CONTINUOUS
10
105.026
20
-126.117
11
105.121
21
-126.307
0
LINE
8
BLACK
6
CONTINUOUS
10
105.121
20
-126.307
11
105.121
21
-127.355
0
LINE
8
BLACK
6
CONTINUOUS
10
105.121
20
-126.307
11
105.217
21
-126.117
0
LINE
8
BLACK
6
CONTINUOUS
10
105.217
20
-126.117
11
105.407
21
-126.021
0
LINE
8
BLACK
6
CONTINUOUS
10
105.407
20
-126.021
11
105.693
21
-126.021
0
LINE
8
BLACK
6
CONTINUOUS
10
105.693
20
-126.021
11
105.883
21
-126.117
0
LINE
8
BLACK
6
CONTINUOUS
10
105.883
20
-126.117
11
105.979
21
-126.307
0
LINE
8
BLACK
6
CONTINUOUS
10
105.979
20
-126.307
11
105.979
21
-127.355
0
LINE
8
BLACK
6
CONTINUOUS
10
109.883
20
-125.26
11
108.169
21
-127.831
0
LINE
8
BLACK
6
CONTINUOUS
10
112.455
20
-125.355
11
112.645
21
-125.355
0
LINE
8
BLACK
6
CONTINUOUS
10
112.645
20
-125.355
11
112.836
21
-125.45
0
LINE
8
BLACK
6
CONTINUOUS
10
112.836
20
-125.45
11
112.931
21
-125.545
0
LINE
8
BLACK
6
CONTINUOUS
10
112.931
20
-125.545
11
113.026
21
-125.736
0
LINE
8
BLACK
6
CONTINUOUS
10
113.026
20
-125.736
11
113.121
21
-126.117
0
LINE
8
BLACK
6
CONTINUOUS
10
113.121
20
-126.117
11
113.121
21
-126.593
0
LINE
8
BLACK
6
CONTINUOUS
10
113.121
20
-126.593
11
113.026
21
-126.974
0
LINE
8
BLACK
6
CONTINUOUS
10
113.026
20
-126.974
11
112.931
21
-127.164
0
LINE
8
BLACK
6
CONTINUOUS
10
112.931
20
-127.164
11
112.836
21
-127.26
0
LINE
8
BLACK
6
CONTINUOUS
10
112.836
20
-127.26
11
112.645
21
-127.355
0
LINE
8
BLACK
6
CONTINUOUS
10
112.645
20
-127.355
11
112.455
21
-127.355
0
LINE
8
BLACK
6
CONTINUOUS
10
112.455
20
-127.355
11
112.264
21
-127.26
0
LINE
8
BLACK
6
CONTINUOUS
10
112.264
20
-127.26
11
112.169
21
-127.164
0
LINE
8
BLACK
6
CONTINUOUS
10
112.169
20
-127.164
11
112.074
21
-126.974
0
LINE
8
BLACK
6
CONTINUOUS
10
112.074
20
-126.974
11
111.979
21
-126.593
0
LINE
8
BLACK
6
CONTINUOUS
10
111.979
20
-126.593
11
111.979
21
-126.117
0
LINE
8
BLACK
6
CONTINUOUS
10
111.979
20
-126.117
11
112.074
21
-125.736
0
LINE
8
BLACK
6
CONTINUOUS
10
112.074
20
-125.736
11
112.169
21
-125.545
0
LINE
8
BLACK
6
CONTINUOUS
10
112.169
20
-125.545
11
112.264
21
-125.45
0
LINE
8
BLACK
6
CONTINUOUS
10
112.264
20
-125.45
11
112.455
21
-125.355
0
LINE
8
BLACK
6
CONTINUOUS
10
113.979
20
-127.164
11
114.074
21
-127.26
0
LINE
8
BLACK
6
CONTINUOUS
10
114.074
20
-127.26
11
113.979
21
-127.355
0
LINE
8
BLACK
6
CONTINUOUS
10
113.979
20
-127.355
11
113.883
21
-127.26
0
LINE
8
BLACK
6
CONTINUOUS
10
113.883
20
-127.26
11
113.979
21
-127.164
0
LINE
8
BLACK
6
CONTINUOUS
10
113.979
20
-127.164
11
113.979
21
-127.355
0
LINE
8
BLACK
6
CONTINUOUS
10
115.979
20
-127.355
11
114.836
21
-127.355
0
LINE
8
BLACK
6
CONTINUOUS
10
115.407
20
-127.355
11
115.407
21
-125.355
0
LINE
8
BLACK
6
CONTINUOUS
10
115.407
20
-125.355
11
115.217
21
-125.64
0
LINE
8
BLACK
6
CONTINUOUS
10
115.217
20
-125.64
11
115.026
21
-125.831
0
LINE
8
BLACK
6
CONTINUOUS
10
115.026
20
-125.831
11
114.836
21
-125.926
0
LINE
8
BLACK
6
CONTINUOUS
10
117.883
20
-127.355
11
116.74
21
-127.355
0
LINE
8
BLACK
6
CONTINUOUS
10
117.312
20
-127.355
11
117.312
21
-125.355
0
LINE
8
BLACK
6
CONTINUOUS
10
117.312
20
-125.355
11
117.121
21
-125.64
0
LINE
8
BLACK
6
CONTINUOUS
10
117.121
20
-125.64
11
116.931
21
-125.831
0
LINE
8
BLACK
6
CONTINUOUS
10
116.931
20
-125.831
11
116.74
21
-125.926
0
LINE
8
BLACK
6
CONTINUOUS
10
119.026
20
-126.212
11
118.836
21
-126.117
0
LINE
8
BLACK
6
CONTINUOUS
10
118.836
20
-126.117
11
118.74
21
-126.021
0
LINE
8
BLACK
6
CONTINUOUS
10
118.74
20
-126.021
11
118.645
21
-125.831
0
LINE
8
BLACK
6
CONTINUOUS
10
118.645
20
-125.831
11
118.645
21
-125.736
0
LINE
8
BLACK
6
CONTINUOUS
10
118.645
20
-125.736
11
118.74
21
-125.545
0
LINE
8
BLACK
6
CONTINUOUS
10
118.74
20
-125.545
11
118.836
21
-125.45
0
LINE
8
BLACK
6
CONTINUOUS
10
118.836
20
-125.45
11
119.026
21
-125.355
0
LINE
8
BLACK
6
CONTINUOUS
10
119.026
20
-125.355
11
119.407
21
-125.355
0
LINE
8
BLACK
6
CONTINUOUS
10
119.407
20
-125.355
11
119.598
21
-125.45
0
LINE
8
BLACK
6
CONTINUOUS
10
119.598
20
-125.45
11
119.693
21
-125.545
0
LINE
8
BLACK
6
CONTINUOUS
10
119.693
20
-125.545
11
119.788
21
-125.736
0
LINE
8
BLACK
6
CONTINUOUS
10
119.788
20
-125.736
11
119.788
21
-125.831
0
LINE
8
BLACK
6
CONTINUOUS
10
119.788
20
-125.831
11
119.693
21
-126.021
0
LINE
8
BLACK
6
CONTINUOUS
10
119.693
20
-126.021
11
119.598
21
-126.117
0
LINE
8
BLACK
6
CONTINUOUS
10
119.598
20
-126.117
11
119.407
21
-126.212
0
LINE
8
BLACK
6
CONTINUOUS
10
119.407
20
-126.212
11
119.026
21
-126.212
0
LINE
8
BLACK
6
CONTINUOUS
10
119.026
20
-126.212
11
118.836
21
-126.307
0
LINE
8
BLACK
6
CONTINUOUS
10
118.836
20
-126.307
11
118.74
21
-126.402
0
LINE
8
BLACK
6
CONTINUOUS
10
118.74
20
-126.402
11
118.645
21
-126.593
0
LINE
8
BLACK
6
CONTINUOUS
10
118.645
20
-126.593
11
118.645
21
-126.974
0
LINE
8
BLACK
6
CONTINUOUS
10
118.645
20
-126.974
11
118.74
21
-127.164
0
LINE
8
BLACK
6
CONTINUOUS
10
118.74
20
-127.164
11
118.836
21
-127.26
0
LINE
8
BLACK
6
CONTINUOUS
10
118.836
20
-127.26
11
119.026
21
-127.355
0
LINE
8
BLACK
6
CONTINUOUS
10
119.026
20
-127.355
11
119.407
21
-127.355
0
LINE
8
BLACK
6
CONTINUOUS
10
119.407
20
-127.355
11
119.598
21
-127.26
0
LINE
8
BLACK
6
CONTINUOUS
10
119.598
20
-127.26
11
119.693
21
-127.164
0
LINE
8
BLACK
6
CONTINUOUS
10
119.693
20
-127.164
11
119.788
21
-126.974
0
LINE
8
BLACK
6
CONTINUOUS
10
119.788
20
-126.974
11
119.788
21
-126.593
0
LINE
8
BLACK
6
CONTINUOUS
10
119.788
20
-126.593
11
119.693
21
-126.402
0
LINE
8
BLACK
6
CONTINUOUS
10
119.693
20
-126.402
11
119.598
21
-126.307
0
LINE
8
BLACK
6
CONTINUOUS
10
119.598
20
-126.307
11
119.407
21
-126.212
0
LINE
8
BLACK
6
CONTINUOUS
10
121.693
20
-127.355
11
120.55
21
-127.355
0
LINE
8
BLACK
6
CONTINUOUS
10
121.121
20
-127.355
11
121.121
21
-125.355
0
LINE
8
BLACK
6
CONTINUOUS
10
121.121
20
-125.355
11
120.931
21
-125.64
0
LINE
8
BLACK
6
CONTINUOUS
10
120.931
20
-125.64
11
120.74
21
-125.831
0
LINE
8
BLACK
6
CONTINUOUS
10
120.74
20
-125.831
11
120.55
21
-125.926
0
LINE
8
BLACK
6
CONTINUOUS
10
122.455
20
-125.355
11
122.455
21
-125.736
0
LINE
8
BLACK
6
CONTINUOUS
10
123.217
20
-125.355
11
123.217
21
-125.736
0
LINE
8
BLACK
6
CONTINUOUS
10
126.169
20
-128.117
11
126.074
21
-128.021
0
LINE
8
BLACK
6
CONTINUOUS
10
126.074
20
-128.021
11
125.883
21
-127.736
0
LINE
8
BLACK
6
CONTINUOUS
10
125.883
20
-127.736
11
125.788
21
-127.545
0
LINE
8
BLACK
6
CONTINUOUS
10
125.788
20
-127.545
11
125.693
21
-127.26
0
LINE
8
BLACK
6
CONTINUOUS
10
125.693
20
-127.26
11
125.598
21
-126.783
0
LINE
8
BLACK
6
CONTINUOUS
10
125.598
20
-126.783
11
125.598
21
-126.402
0
LINE
8
BLACK
6
CONTINUOUS
10
125.598
20
-126.402
11
125.693
21
-125.926
0
LINE
8
BLACK
6
CONTINUOUS
10
125.693
20
-125.926
11
125.788
21
-125.64
0
LINE
8
BLACK
6
CONTINUOUS
10
125.788
20
-125.64
11
125.883
21
-125.45
0
LINE
8
BLACK
6
CONTINUOUS
10
125.883
20
-125.45
11
126.074
21
-125.164
0
LINE
8
BLACK
6
CONTINUOUS
10
126.074
20
-125.164
11
126.169
21
-125.069
0
LINE
8
BLACK
6
CONTINUOUS
10
127.788
20
-126.021
11
127.788
21
-127.355
0
LINE
8
BLACK
6
CONTINUOUS
10
127.312
20
-125.26
11
126.836
21
-126.688
0
LINE
8
BLACK
6
CONTINUOUS
10
126.836
20
-126.688
11
128.074
21
-126.688
0
LINE
8
BLACK
6
CONTINUOUS
10
130.36
20
-127.355
11
130.36
21
-125.355
0
LINE
8
BLACK
6
CONTINUOUS
10
131.217
20
-127.355
11
131.217
21
-126.307
0
LINE
8
BLACK
6
CONTINUOUS
10
131.217
20
-126.307
11
131.121
21
-126.117
0
LINE
8
BLACK
6
CONTINUOUS
10
131.121
20
-126.117
11
130.931
21
-126.021
0
LINE
8
BLACK
6
CONTINUOUS
10
130.931
20
-126.021
11
130.645
21
-126.021
0
LINE
8
BLACK
6
CONTINUOUS
10
130.645
20
-126.021
11
130.455
21
-126.117
0
LINE
8
BLACK
6
CONTINUOUS
10
130.455
20
-126.117
11
130.36
21
-126.212
0
LINE
8
BLACK
6
CONTINUOUS
10
132.455
20
-127.355
11
132.264
21
-127.26
0
LINE
8
BLACK
6
CONTINUOUS
10
132.264
20
-127.26
11
132.169
21
-127.164
0
LINE
8
BLACK
6
CONTINUOUS
10
132.169
20
-127.164
11
132.074
21
-126.974
0
LINE
8
BLACK
6
CONTINUOUS
10
132.074
20
-126.974
11
132.074
21
-126.402
0
LINE
8
BLACK
6
CONTINUOUS
10
132.074
20
-126.402
11
132.169
21
-126.212
0
LINE
8
BLACK
6
CONTINUOUS
10
132.169
20
-126.212
11
132.264
21
-126.117
0
LINE
8
BLACK
6
CONTINUOUS
10
132.264
20
-126.117
11
132.455
21
-126.021
0
LINE
8
BLACK
6
CONTINUOUS
10
132.455
20
-126.021
11
132.74
21
-126.021
0
LINE
8
BLACK
6
CONTINUOUS
10
132.74
20
-126.021
11
132.931
21
-126.117
0
LINE
8
BLACK
6
CONTINUOUS
10
132.931
20
-126.117
11
133.026
21
-126.212
0
LINE
8
BLACK
6
CONTINUOUS
10
133.026
20
-126.212
11
133.121
21
-126.402
0
LINE
8
BLACK
6
CONTINUOUS
10
133.121
20
-126.402
11
133.121
21
-126.974
0
LINE
8
BLACK
6
CONTINUOUS
10
133.121
20
-126.974
11
133.026
21
-127.164
0
LINE
8
BLACK
6
CONTINUOUS
10
133.026
20
-127.164
11
132.931
21
-127.26
0
LINE
8
BLACK
6
CONTINUOUS
10
132.931
20
-127.26
11
132.74
21
-127.355
0
LINE
8
BLACK
6
CONTINUOUS
10
132.74
20
-127.355
11
132.455
21
-127.355
0
LINE
8
BLACK
6
CONTINUOUS
10
134.264
20
-127.355
11
134.074
21
-127.26
0
LINE
8
BLACK
6
CONTINUOUS
10
134.074
20
-127.26
11
133.979
21
-127.069
0
LINE
8
BLACK
6
CONTINUOUS
10
133.979
20
-127.069
11
133.979
21
-125.355
0
LINE
8
BLACK
6
CONTINUOUS
10
135.788
20
-127.26
11
135.598
21
-127.355
0
LINE
8
BLACK
6
CONTINUOUS
10
135.598
20
-127.355
11
135.217
21
-127.355
0
LINE
8
BLACK
6
CONTINUOUS
10
135.217
20
-127.355
11
135.026
21
-127.26
0
LINE
8
BLACK
6
CONTINUOUS
10
135.026
20
-127.26
11
134.931
21
-127.069
0
LINE
8
BLACK
6
CONTINUOUS
10
134.931
20
-127.069
11
134.931
21
-126.307
0
LINE
8
BLACK
6
CONTINUOUS
10
134.931
20
-126.307
11
135.026
21
-126.117
0
LINE
8
BLACK
6
CONTINUOUS
10
135.026
20
-126.117
11
135.217
21
-126.021
0
LINE
8
BLACK
6
CONTINUOUS
10
135.217
20
-126.021
11
135.598
21
-126.021
0
LINE
8
BLACK
6
CONTINUOUS
10
135.598
20
-126.021
11
135.788
21
-126.117
0
LINE
8
BLACK
6
CONTINUOUS
10
135.788
20
-126.117
11
135.883
21
-126.307
0
LINE
8
BLACK
6
CONTINUOUS
10
135.883
20
-126.307
11
135.883
21
-126.498
0
LINE
8
BLACK
6
CONTINUOUS
10
135.883
20
-126.498
11
134.931
21
-126.688
0
LINE
8
BLACK
6
CONTINUOUS
10
136.645
20
-127.26
11
136.836
21
-127.355
0
LINE
8
BLACK
6
CONTINUOUS
10
136.836
20
-127.355
11
137.217
21
-127.355
0
LINE
8
BLACK
6
CONTINUOUS
10
137.217
20
-127.355
11
137.407
21
-127.26
0
LINE
8
BLACK
6
CONTINUOUS
10
137.407
20
-127.26
11
137.502
21
-127.069
0
LINE
8
BLACK
6
CONTINUOUS
10
137.502
20
-127.069
11
137.502
21
-126.974
0
LINE
8
BLACK
6
CONTINUOUS
10
137.502
20
-126.974
11
137.407
21
-126.783
0
LINE
8
BLACK
6
CONTINUOUS
10
137.407
20
-126.783
11
137.217
21
-126.688
0
LINE
8
BLACK
6
CONTINUOUS
10
137.217
20
-126.688
11
136.931
21
-126.688
0
LINE
8
BLACK
6
CONTINUOUS
10
136.931
20
-126.688
11
136.74
21
-126.593
0
LINE
8
BLACK
6
CONTINUOUS
10
136.74
20
-126.593
11
136.645
21
-126.402
0
LINE
8
BLACK
6
CONTINUOUS
10
136.645
20
-126.402
11
136.645
21
-126.307
0
LINE
8
BLACK
6
CONTINUOUS
10
136.645
20
-126.307
11
136.74
21
-126.117
0
LINE
8
BLACK
6
CONTINUOUS
10
136.74
20
-126.117
11
136.931
21
-126.021
0
LINE
8
BLACK
6
CONTINUOUS
10
136.931
20
-126.021
11
137.217
21
-126.021
0
LINE
8
BLACK
6
CONTINUOUS
10
137.217
20
-126.021
11
137.407
21
-126.117
0
LINE
8
BLACK
6
CONTINUOUS
10
138.169
20
-128.117
11
138.264
21
-128.021
0
LINE
8
BLACK
6
CONTINUOUS
10
138.264
20
-128.021
11
138.455
21
-127.736
0
LINE
8
BLACK
6
CONTINUOUS
10
138.455
20
-127.736
11
138.55
21
-127.545
0
LINE
8
BLACK
6
CONTINUOUS
10
138.55
20
-127.545
11
138.645
21
-127.26
0
LINE
8
BLACK
6
CONTINUOUS
10
138.645
20
-127.26
11
138.74
21
-126.783
0
LINE
8
BLACK
6
CONTINUOUS
10
138.74
20
-126.783
11
138.74
21
-126.402
0
LINE
8
BLACK
6
CONTINUOUS
10
138.74
20
-126.402
11
138.645
21
-125.926
0
LINE
8
BLACK
6
CONTINUOUS
10
138.645
20
-125.926
11
138.55
21
-125.64
0
LINE
8
BLACK
6
CONTINUOUS
10
138.55
20
-125.64
11
138.455
21
-125.45
0
LINE
8
BLACK
6
CONTINUOUS
10
138.455
20
-125.45
11
138.264
21
-125.164
0
LINE
8
BLACK
6
CONTINUOUS
10
138.264
20
-125.164
11
138.169
21
-125.069
0
LINE
8
BLACK
6
CONTINUOUS
10
141.788
20
-128.117
11
141.693
21
-128.021
0
LINE
8
BLACK
6
CONTINUOUS
10
141.693
20
-128.021
11
141.502
21
-127.736
0
LINE
8
BLACK
6
CONTINUOUS
10
141.502
20
-127.736
11
141.407
21
-127.545
0
LINE
8
BLACK
6
CONTINUOUS
10
141.407
20
-127.545
11
141.312
21
-127.26
0
LINE
8
BLACK
6
CONTINUOUS
10
141.312
20
-127.26
11
141.217
21
-126.783
0
LINE
8
BLACK
6
CONTINUOUS
10
141.217
20
-126.783
11
141.217
21
-126.402
0
LINE
8
BLACK
6
CONTINUOUS
10
141.217
20
-126.402
11
141.312
21
-125.926
0
LINE
8
BLACK
6
CONTINUOUS
10
141.312
20
-125.926
11
141.407
21
-125.64
0
LINE
8
BLACK
6
CONTINUOUS
10
141.407
20
-125.64
11
141.502
21
-125.45
0
LINE
8
BLACK
6
CONTINUOUS
10
141.502
20
-125.45
11
141.693
21
-125.164
0
LINE
8
BLACK
6
CONTINUOUS
10
141.693
20
-125.164
11
141.788
21
-125.069
0
LINE
8
BLACK
6
CONTINUOUS
10
142.55
20
-126.021
11
142.55
21
-127.355
0
LINE
8
BLACK
6
CONTINUOUS
10
142.55
20
-126.212
11
142.645
21
-126.117
0
LINE
8
BLACK
6
CONTINUOUS
10
142.645
20
-126.117
11
142.836
21
-126.021
0
LINE
8
BLACK
6
CONTINUOUS
10
142.836
20
-126.021
11
143.121
21
-126.021
0
LINE
8
BLACK
6
CONTINUOUS
10
143.121
20
-126.021
11
143.312
21
-126.117
0
LINE
8
BLACK
6
CONTINUOUS
10
143.312
20
-126.117
11
143.407
21
-126.307
0
LINE
8
BLACK
6
CONTINUOUS
10
143.407
20
-126.307
11
143.407
21
-127.355
0
LINE
8
BLACK
6
CONTINUOUS
10
144.645
20
-127.355
11
144.455
21
-127.26
0
LINE
8
BLACK
6
CONTINUOUS
10
144.455
20
-127.26
11
144.36
21
-127.164
0
LINE
8
BLACK
6
CONTINUOUS
10
144.36
20
-127.164
11
144.264
21
-126.974
0
LINE
8
BLACK
6
CONTINUOUS
10
144.264
20
-126.974
11
144.264
21
-126.402
0
LINE
8
BLACK
6
CONTINUOUS
10
144.264
20
-126.402
11
144.36
21
-126.212
0
LINE
8
BLACK
6
CONTINUOUS
10
144.36
20
-126.212
11
144.455
21
-126.117
0
LINE
8
BLACK
6
CONTINUOUS
10
144.455
20
-126.117
11
144.645
21
-126.021
0
LINE
8
BLACK
6
CONTINUOUS
10
144.645
20
-126.021
11
144.931
21
-126.021
0
LINE
8
BLACK
6
CONTINUOUS
10
144.931
20
-126.021
11
145.121
21
-126.117
0
LINE
8
BLACK
6
CONTINUOUS
10
145.121
20
-126.117
11
145.217
21
-126.212
0
LINE
8
BLACK
6
CONTINUOUS
10
145.217
20
-126.212
11
145.312
21
-126.402
0
LINE
8
BLACK
6
CONTINUOUS
10
145.312
20
-126.402
11
145.312
21
-126.974
0
LINE
8
BLACK
6
CONTINUOUS
10
145.312
20
-126.974
11
145.217
21
-127.164
0
LINE
8
BLACK
6
CONTINUOUS
10
145.217
20
-127.164
11
145.121
21
-127.26
0
LINE
8
BLACK
6
CONTINUOUS
10
145.121
20
-127.26
11
144.931
21
-127.355
0
LINE
8
BLACK
6
CONTINUOUS
10
144.931
20
-127.355
11
144.645
21
-127.355
0
LINE
8
BLACK
6
CONTINUOUS
10
145.883
20
-126.021
11
146.645
21
-126.021
0
LINE
8
BLACK
6
CONTINUOUS
10
146.169
20
-125.355
11
146.169
21
-127.069
0
LINE
8
BLACK
6
CONTINUOUS
10
146.169
20
-127.069
11
146.264
21
-127.26
0
LINE
8
BLACK
6
CONTINUOUS
10
146.264
20
-127.26
11
146.455
21
-127.355
0
LINE
8
BLACK
6
CONTINUOUS
10
146.455
20
-127.355
11
146.645
21
-127.355
0
LINE
8
BLACK
6
CONTINUOUS
10
148.836
20
-126.021
11
148.836
21
-128.021
0
LINE
8
BLACK
6
CONTINUOUS
10
148.836
20
-126.117
11
149.026
21
-126.021
0
LINE
8
BLACK
6
CONTINUOUS
10
149.026
20
-126.021
11
149.407
21
-126.021
0
LINE
8
BLACK
6
CONTINUOUS
10
149.407
20
-126.021
11
149.598
21
-126.117
0
LINE
8
BLACK
6
CONTINUOUS
10
149.598
20
-126.117
11
149.693
21
-126.212
0
LINE
8
BLACK
6
CONTINUOUS
10
149.693
20
-126.212
11
149.788
21
-126.402
0
LINE
8
BLACK
6
CONTINUOUS
10
149.788
20
-126.402
11
149.788
21
-126.974
0
LINE
8
BLACK
6
CONTINUOUS
10
149.788
20
-126.974
11
149.693
21
-127.164
0
LINE
8
BLACK
6
CONTINUOUS
10
149.693
20
-127.164
11
149.598
21
-127.26
0
LINE
8
BLACK
6
CONTINUOUS
10
149.598
20
-127.26
11
149.407
21
-127.355
0
LINE
8
BLACK
6
CONTINUOUS
10
149.407
20
-127.355
11
149.026
21
-127.355
0
LINE
8
BLACK
6
CONTINUOUS
10
149.026
20
-127.355
11
148.836
21
-127.26
0
LINE
8
BLACK
6
CONTINUOUS
10
150.931
20
-127.355
11
150.74
21
-127.26
0
LINE
8
BLACK
6
CONTINUOUS
10
150.74
20
-127.26
11
150.645
21
-127.069
0
LINE
8
BLACK
6
CONTINUOUS
10
150.645
20
-127.069
11
150.645
21
-125.355
0
LINE
8
BLACK
6
CONTINUOUS
10
152.55
20
-127.355
11
152.55
21
-126.307
0
LINE
8
BLACK
6
CONTINUOUS
10
152.55
20
-126.307
11
152.455
21
-126.117
0
LINE
8
BLACK
6
CONTINUOUS
10
152.455
20
-126.117
11
152.264
21
-126.021
0
LINE
8
BLACK
6
CONTINUOUS
10
152.264
20
-126.021
11
151.883
21
-126.021
0
LINE
8
BLACK
6
CONTINUOUS
10
151.883
20
-126.021
11
151.693
21
-126.117
0
LINE
8
BLACK
6
CONTINUOUS
10
152.55
20
-127.26
11
152.36
21
-127.355
0
LINE
8
BLACK
6
CONTINUOUS
10
152.36
20
-127.355
11
151.883
21
-127.355
0
LINE
8
BLACK
6
CONTINUOUS
10
151.883
20
-127.355
11
151.693
21
-127.26
0
LINE
8
BLACK
6
CONTINUOUS
10
151.693
20
-127.26
11
151.598
21
-127.069
0
LINE
8
BLACK
6
CONTINUOUS
10
151.598
20
-127.069
11
151.598
21
-126.879
0
LINE
8
BLACK
6
CONTINUOUS
10
151.598
20
-126.879
11
151.693
21
-126.688
0
LINE
8
BLACK
6
CONTINUOUS
10
151.693
20
-126.688
11
151.883
21
-126.593
0
LINE
8
BLACK
6
CONTINUOUS
10
151.883
20
-126.593
11
152.36
21
-126.593
0
LINE
8
BLACK
6
CONTINUOUS
10
152.36
20
-126.593
11
152.55
21
-126.498
0
LINE
8
BLACK
6
CONTINUOUS
10
153.217
20
-126.021
11
153.979
21
-126.021
0
LINE
8
BLACK
6
CONTINUOUS
10
153.502
20
-125.355
11
153.502
21
-127.069
0
LINE
8
BLACK
6
CONTINUOUS
10
153.502
20
-127.069
11
153.598
21
-127.26
0
LINE
8
BLACK
6
CONTINUOUS
10
153.598
20
-127.26
11
153.788
21
-127.355
0
LINE
8
BLACK
6
CONTINUOUS
10
153.788
20
-127.355
11
153.979
21
-127.355
0
LINE
8
BLACK
6
CONTINUOUS
10
155.407
20
-127.26
11
155.217
21
-127.355
0
LINE
8
BLACK
6
CONTINUOUS
10
155.217
20
-127.355
11
154.836
21
-127.355
0
LINE
8
BLACK
6
CONTINUOUS
10
154.836
20
-127.355
11
154.645
21
-127.26
0
LINE
8
BLACK
6
CONTINUOUS
10
154.645
20
-127.26
11
154.55
21
-127.069
0
LINE
8
BLACK
6
CONTINUOUS
10
154.55
20
-127.069
11
154.55
21
-126.307
0
LINE
8
BLACK
6
CONTINUOUS
10
154.55
20
-126.307
11
154.645
21
-126.117
0
LINE
8
BLACK
6
CONTINUOUS
10
154.645
20
-126.117
11
154.836
21
-126.021
0
LINE
8
BLACK
6
CONTINUOUS
10
154.836
20
-126.021
11
155.217
21
-126.021
0
LINE
8
BLACK
6
CONTINUOUS
10
155.217
20
-126.021
11
155.407
21
-126.117
0
LINE
8
BLACK
6
CONTINUOUS
10
155.407
20
-126.117
11
155.502
21
-126.307
0
LINE
8
BLACK
6
CONTINUOUS
10
155.502
20
-126.307
11
155.502
21
-126.498
0
LINE
8
BLACK
6
CONTINUOUS
10
155.502
20
-126.498
11
154.55
21
-126.688
0
LINE
8
BLACK
6
CONTINUOUS
10
157.217
20
-127.355
11
157.217
21
-125.355
0
LINE
8
BLACK
6
CONTINUOUS
10
157.217
20
-127.26
11
157.026
21
-127.355
0
LINE
8
BLACK
6
CONTINUOUS
10
157.026
20
-127.355
11
156.645
21
-127.355
0
LINE
8
BLACK
6
CONTINUOUS
10
156.645
20
-127.355
11
156.455
21
-127.26
0
LINE
8
BLACK
6
CONTINUOUS
10
156.455
20
-127.26
11
156.36
21
-127.164
0
LINE
8
BLACK
6
CONTINUOUS
10
156.36
20
-127.164
11
156.264
21
-126.974
0
LINE
8
BLACK
6
CONTINUOUS
10
156.264
20
-126.974
11
156.264
21
-126.402
0
LINE
8
BLACK
6
CONTINUOUS
10
156.264
20
-126.402
11
156.36
21
-126.212
0
LINE
8
BLACK
6
CONTINUOUS
10
156.36
20
-126.212
11
156.455
21
-126.117
0
LINE
8
BLACK
6
CONTINUOUS
10
156.455
20
-126.117
11
156.645
21
-126.021
0
LINE
8
BLACK
6
CONTINUOUS
10
156.645
20
-126.021
11
157.026
21
-126.021
0
LINE
8
BLACK
6
CONTINUOUS
10
157.026
20
-126.021
11
157.217
21
-126.117
0
LINE
8
BLACK
6
CONTINUOUS
10
157.979
20
-128.117
11
158.074
21
-128.021
0
LINE
8
BLACK
6
CONTINUOUS
10
158.074
20
-128.021
11
158.264
21
-127.736
0
LINE
8
BLACK
6
CONTINUOUS
10
158.264
20
-127.736
11
158.36
21
-127.545
0
LINE
8
BLACK
6
CONTINUOUS
10
158.36
20
-127.545
11
158.455
21
-127.26
0
LINE
8
BLACK
6
CONTINUOUS
10
158.455
20
-127.26
11
158.55
21
-126.783
0
LINE
8
BLACK
6
CONTINUOUS
10
158.55
20
-126.783
11
158.55
21
-126.402
0
LINE
8
BLACK
6
CONTINUOUS
10
158.55
20
-126.402
11
158.455
21
-125.926
0
LINE
8
BLACK
6
CONTINUOUS
10
158.455
20
-125.926
11
158.36
21
-125.64
0
LINE
8
BLACK
6
CONTINUOUS
10
158.36
20
-125.64
11
158.264
21
-125.45
0
LINE
8
BLACK
6
CONTINUOUS
10
158.264
20
-125.45
11
158.074
21
-125.164
0
LINE
8
BLACK
6
CONTINUOUS
10
158.074
20
-125.164
11
157.979
21
-125.069
  0
ENDSEC
  0
EOF
