  0
SECTION
  2
HEADER
  9
$ANGBASE
  50
0.0
  9
$ANGDIR
  70
1
  9
$MEASUREMENT
  70
1
  0
ENDSEC
  0
SECTION
  2
TABLES
  0
TABLE
  2
LTYPE
  70
4
  0
LTYPE
  5
40F
  2
CONTINUOUS
  70
0
  3
Solid line
  72
65
  73
0
  40
0.0
  0
LTYPE
  5
410
  2
DASHDOT
 70
0
  3
Dash Dot ____ _ ____ _
 72
65
 73
4
 40
2.0
 49
1.25
 49
-0.25
 49
0.25
 49
-0.25
  0
LTYPE
  5
411
  2
DASHED
 70
0
  3
Dashed __ __ __ __ __
 72
65
 73
2
 40
0.75
 49
0.5
 49
-0.25
  0
LTYPE
  5
43B
  2
DOTTED
 70
0
  3
Dotted .  .  .  .
 72
65
 73
2
 40
0.2
 49
0.0
 49
-0.2
  0
ENDTAB
  0
TABLE
  2
STYLE
  70
4
  0
STYLE
  2
KICAD
  70
0
  40
0
  41
1
  42
1
  50
0
  71
0
  3
isocp.shx
  0
STYLE
  2
KICADB
  70
0
  40
0
  41
1
  42
1
  50
0
  71
0
  3
isocp.shx
  0
STYLE
  2
KICADI
  70
0
  40
0
  41
1
  42
1
  50
15
  71
0
  3
isocp.shx
  0
STYLE
  2
KICADBI
  70
0
  40
0
  41
1
  42
1
  50
15
  71
0
  3
isocp.shx
  0
ENDTAB
  0
TABLE
  2
LAYER
  70
1
  0
LAYER
  2
BLACK
  70
0
  62
7
  6
CONTINUOUS
  0
ENDTAB
  0
ENDSEC
  0
SECTION
  2
ENTITIES
0
LINE
8
BLACK
6
CONTINUOUS
10
127
20
-120
11
90.5
21
-120
0
LINE
8
BLACK
6
CONTINUOUS
10
127
20
-96
11
127
21
-120
0
LINE
8
BLACK
6
CONTINUOUS
10
90.5
20
-120
11
90.5
21
-96
0
LINE
8
BLACK
6
CONTINUOUS
10
90.5
20
-96
11
127
21
-96
0
LINE
8
BLACK
6
CONTINUOUS
10
91.875
20
-103.94
11
92.275
21
-104.34
0
LINE
8
BLACK
6
CONTINUOUS
10
92.275
20
-103.94
11
91.875
21
-104.34
0
LINE
8
BLACK
6
CONTINUOUS
10
105.21
20
-116.64
11
105.61
21
-117.04
0
LINE
8
BLACK
6
CONTINUOUS
10
105.61
20
-116.64
11
105.21
21
-117.04
0
LINE
8
BLACK
6
CONTINUOUS
10
105.21
20
-117.91
11
105.61
21
-118.31
0
LINE
8
BLACK
6
CONTINUOUS
10
105.61
20
-117.91
11
105.21
21
-118.31
0
LINE
8
BLACK
6
CONTINUOUS
10
107.115
20
-116.64
11
107.515
21
-117.04
0
LINE
8
BLACK
6
CONTINUOUS
10
107.515
20
-116.64
11
107.115
21
-117.04
0
LINE
8
BLACK
6
CONTINUOUS
10
107.115
20
-117.91
11
107.515
21
-118.31
0
LINE
8
BLACK
6
CONTINUOUS
10
107.515
20
-117.91
11
107.115
21
-118.31
0
CIRCLE
8
BLACK
10
92.075
20
-106.045
40
0.25
0
CIRCLE
8
BLACK
10
109.22
20
-116.84
40
0.25
0
CIRCLE
8
BLACK
10
109.22
20
-118.11
40
0.25
0
CIRCLE
8
BLACK
10
111.125
20
-116.84
40
0.25
0
CIRCLE
8
BLACK
10
111.125
20
-118.11
40
0.25
0
LINE
8
BLACK
6
CONTINUOUS
10
92.075
20
-107.65
11
92.075
21
-108.25
0
LINE
8
BLACK
6
CONTINUOUS
10
91.775
20
-107.95
11
92.375
21
-107.95
0
LINE
8
BLACK
6
CONTINUOUS
10
94.615
20
-98.125
11
94.615
21
-98.725
0
LINE
8
BLACK
6
CONTINUOUS
10
94.315
20
-98.425
11
94.915
21
-98.425
0
LINE
8
BLACK
6
CONTINUOUS
10
102.235
20
-110.19
11
102.235
21
-110.79
0
LINE
8
BLACK
6
CONTINUOUS
10
101.935
20
-110.49
11
102.535
21
-110.49
0
LINE
8
BLACK
6
CONTINUOUS
10
104.14
20
-109.555
11
104.14
21
-110.155
0
LINE
8
BLACK
6
CONTINUOUS
10
103.84
20
-109.855
11
104.44
21
-109.855
0
LINE
8
BLACK
6
CONTINUOUS
10
104.775
20
-108.285
11
104.775
21
-108.885
0
LINE
8
BLACK
6
CONTINUOUS
10
104.475
20
-108.585
11
105.075
21
-108.585
0
LINE
8
BLACK
6
CONTINUOUS
10
107.95
20
-107.65
11
107.95
21
-108.25
0
LINE
8
BLACK
6
CONTINUOUS
10
107.65
20
-107.95
11
108.25
21
-107.95
0
LINE
8
BLACK
6
CONTINUOUS
10
109.22
20
-103.84
11
109.22
21
-104.44
0
LINE
8
BLACK
6
CONTINUOUS
10
108.92
20
-104.14
11
109.52
21
-104.14
0
LINE
8
BLACK
6
CONTINUOUS
10
110.49
20
-105.11
11
110.49
21
-105.71
0
LINE
8
BLACK
6
CONTINUOUS
10
110.19
20
-105.41
11
110.79
21
-105.41
0
LINE
8
BLACK
6
CONTINUOUS
10
111.76
20
-112.73
11
111.76
21
-113.33
0
LINE
8
BLACK
6
CONTINUOUS
10
111.46
20
-113.03
11
112.06
21
-113.03
0
LINE
8
BLACK
6
CONTINUOUS
10
113.03
20
-116.54
11
113.03
21
-117.14
0
LINE
8
BLACK
6
CONTINUOUS
10
112.73
20
-116.84
11
113.33
21
-116.84
0
LINE
8
BLACK
6
CONTINUOUS
10
113.03
20
-117.81
11
113.03
21
-118.41
0
LINE
8
BLACK
6
CONTINUOUS
10
112.73
20
-118.11
11
113.33
21
-118.11
0
LINE
8
BLACK
6
CONTINUOUS
10
113.665
20
-105.745
11
113.665
21
-106.345
0
LINE
8
BLACK
6
CONTINUOUS
10
113.365
20
-106.045
11
113.965
21
-106.045
0
LINE
8
BLACK
6
CONTINUOUS
10
114.935
20
-116.54
11
114.935
21
-117.14
0
LINE
8
BLACK
6
CONTINUOUS
10
114.635
20
-116.84
11
115.235
21
-116.84
0
LINE
8
BLACK
6
CONTINUOUS
10
114.935
20
-117.81
11
114.935
21
-118.41
0
LINE
8
BLACK
6
CONTINUOUS
10
114.635
20
-118.11
11
115.235
21
-118.11
0
LINE
8
BLACK
6
CONTINUOUS
10
92.3225
20
-110.102
11
92.3225
21
-109.608
0
LINE
8
BLACK
6
CONTINUOUS
10
92.3225
20
-109.608
11
91.8275
21
-109.608
0
LINE
8
BLACK
6
CONTINUOUS
10
91.8275
20
-109.608
11
91.8275
21
-110.102
0
LINE
8
BLACK
6
CONTINUOUS
10
91.8275
20
-110.102
11
92.3225
21
-110.102
0
LINE
8
BLACK
6
CONTINUOUS
10
117.087
20
-117.087
11
117.087
21
-116.593
0
LINE
8
BLACK
6
CONTINUOUS
10
117.087
20
-116.593
11
116.593
21
-116.593
0
LINE
8
BLACK
6
CONTINUOUS
10
116.593
20
-116.593
11
116.593
21
-117.087
0
LINE
8
BLACK
6
CONTINUOUS
10
116.593
20
-117.087
11
117.087
21
-117.087
0
LINE
8
BLACK
6
CONTINUOUS
10
117.087
20
-118.357
11
117.087
21
-117.863
0
LINE
8
BLACK
6
CONTINUOUS
10
117.087
20
-117.863
11
116.593
21
-117.863
0
LINE
8
BLACK
6
CONTINUOUS
10
116.593
20
-117.863
11
116.593
21
-118.357
0
LINE
8
BLACK
6
CONTINUOUS
10
116.593
20
-118.357
11
117.087
21
-118.357
0
LINE
8
BLACK
6
CONTINUOUS
10
92.075
20
-112.16
11
92.475
21
-111.76
0
LINE
8
BLACK
6
CONTINUOUS
10
92.475
20
-111.76
11
92.075
21
-111.36
0
LINE
8
BLACK
6
CONTINUOUS
10
92.075
20
-111.36
11
91.675
21
-111.76
0
LINE
8
BLACK
6
CONTINUOUS
10
91.675
20
-111.76
11
92.075
21
-112.16
0
LINE
8
BLACK
6
CONTINUOUS
10
93.0262
20
-123.155
11
93.0262
21
-121.155
0
LINE
8
BLACK
6
CONTINUOUS
10
93.0262
20
-121.155
11
93.5024
21
-121.155
0
LINE
8
BLACK
6
CONTINUOUS
10
93.5024
20
-121.155
11
93.7881
21
-121.25
0
LINE
8
BLACK
6
CONTINUOUS
10
93.7881
20
-121.25
11
93.9786
21
-121.44
0
LINE
8
BLACK
6
CONTINUOUS
10
93.9786
20
-121.44
11
94.0738
21
-121.631
0
LINE
8
BLACK
6
CONTINUOUS
10
94.0738
20
-121.631
11
94.169
21
-122.012
0
LINE
8
BLACK
6
CONTINUOUS
10
94.169
20
-122.012
11
94.169
21
-122.298
0
LINE
8
BLACK
6
CONTINUOUS
10
94.169
20
-122.298
11
94.0738
21
-122.679
0
LINE
8
BLACK
6
CONTINUOUS
10
94.0738
20
-122.679
11
93.9786
21
-122.869
0
LINE
8
BLACK
6
CONTINUOUS
10
93.9786
20
-122.869
11
93.7881
21
-123.06
0
LINE
8
BLACK
6
CONTINUOUS
10
93.7881
20
-123.06
11
93.5024
21
-123.155
0
LINE
8
BLACK
6
CONTINUOUS
10
93.5024
20
-123.155
11
93.0262
21
-123.155
0
LINE
8
BLACK
6
CONTINUOUS
10
95.0262
20
-123.155
11
95.0262
21
-121.821
0
LINE
8
BLACK
6
CONTINUOUS
10
95.0262
20
-122.202
11
95.1214
21
-122.012
0
LINE
8
BLACK
6
CONTINUOUS
10
95.1214
20
-122.012
11
95.2167
21
-121.917
0
LINE
8
BLACK
6
CONTINUOUS
10
95.2167
20
-121.917
11
95.4071
21
-121.821
0
LINE
8
BLACK
6
CONTINUOUS
10
95.4071
20
-121.821
11
95.5976
21
-121.821
0
LINE
8
BLACK
6
CONTINUOUS
10
96.2643
20
-123.155
11
96.2643
21
-121.821
0
LINE
8
BLACK
6
CONTINUOUS
10
96.2643
20
-121.155
11
96.169
21
-121.25
0
LINE
8
BLACK
6
CONTINUOUS
10
96.169
20
-121.25
11
96.2643
21
-121.345
0
LINE
8
BLACK
6
CONTINUOUS
10
96.2643
20
-121.345
11
96.3595
21
-121.25
0
LINE
8
BLACK
6
CONTINUOUS
10
96.3595
20
-121.25
11
96.2643
21
-121.155
0
LINE
8
BLACK
6
CONTINUOUS
10
96.2643
20
-121.155
11
96.2643
21
-121.345
0
LINE
8
BLACK
6
CONTINUOUS
10
97.5024
20
-123.155
11
97.3119
21
-123.06
0
LINE
8
BLACK
6
CONTINUOUS
10
97.3119
20
-123.06
11
97.2167
21
-122.869
0
LINE
8
BLACK
6
CONTINUOUS
10
97.2167
20
-122.869
11
97.2167
21
-121.155
0
LINE
8
BLACK
6
CONTINUOUS
10
98.55
20
-123.155
11
98.3595
21
-123.06
0
LINE
8
BLACK
6
CONTINUOUS
10
98.3595
20
-123.06
11
98.2643
21
-122.869
0
LINE
8
BLACK
6
CONTINUOUS
10
98.2643
20
-122.869
11
98.2643
21
-121.155
0
LINE
8
BLACK
6
CONTINUOUS
10
100.836
20
-123.155
11
100.836
21
-121.155
0
LINE
8
BLACK
6
CONTINUOUS
10
100.836
20
-121.155
11
101.502
21
-122.583
0
LINE
8
BLACK
6
CONTINUOUS
10
101.502
20
-122.583
11
102.169
21
-121.155
0
LINE
8
BLACK
6
CONTINUOUS
10
102.169
20
-121.155
11
102.169
21
-123.155
0
LINE
8
BLACK
6
CONTINUOUS
10
103.979
20
-123.155
11
103.979
21
-122.107
0
LINE
8
BLACK
6
CONTINUOUS
10
103.979
20
-122.107
11
103.883
21
-121.917
0
LINE
8
BLACK
6
CONTINUOUS
10
103.883
20
-121.917
11
103.693
21
-121.821
0
LINE
8
BLACK
6
CONTINUOUS
10
103.693
20
-121.821
11
103.312
21
-121.821
0
LINE
8
BLACK
6
CONTINUOUS
10
103.312
20
-121.821
11
103.121
21
-121.917
0
LINE
8
BLACK
6
CONTINUOUS
10
103.979
20
-123.06
11
103.788
21
-123.155
0
LINE
8
BLACK
6
CONTINUOUS
10
103.788
20
-123.155
11
103.312
21
-123.155
0
LINE
8
BLACK
6
CONTINUOUS
10
103.312
20
-123.155
11
103.121
21
-123.06
0
LINE
8
BLACK
6
CONTINUOUS
10
103.121
20
-123.06
11
103.026
21
-122.869
0
LINE
8
BLACK
6
CONTINUOUS
10
103.026
20
-122.869
11
103.026
21
-122.679
0
LINE
8
BLACK
6
CONTINUOUS
10
103.026
20
-122.679
11
103.121
21
-122.488
0
LINE
8
BLACK
6
CONTINUOUS
10
103.121
20
-122.488
11
103.312
21
-122.393
0
LINE
8
BLACK
6
CONTINUOUS
10
103.312
20
-122.393
11
103.788
21
-122.393
0
LINE
8
BLACK
6
CONTINUOUS
10
103.788
20
-122.393
11
103.979
21
-122.298
0
LINE
8
BLACK
6
CONTINUOUS
10
104.931
20
-121.821
11
104.931
21
-123.821
0
LINE
8
BLACK
6
CONTINUOUS
10
104.931
20
-121.917
11
105.121
21
-121.821
0
LINE
8
BLACK
6
CONTINUOUS
10
105.121
20
-121.821
11
105.502
21
-121.821
0
LINE
8
BLACK
6
CONTINUOUS
10
105.502
20
-121.821
11
105.693
21
-121.917
0
LINE
8
BLACK
6
CONTINUOUS
10
105.693
20
-121.917
11
105.788
21
-122.012
0
LINE
8
BLACK
6
CONTINUOUS
10
105.788
20
-122.012
11
105.883
21
-122.202
0
LINE
8
BLACK
6
CONTINUOUS
10
105.883
20
-122.202
11
105.883
21
-122.774
0
LINE
8
BLACK
6
CONTINUOUS
10
105.883
20
-122.774
11
105.788
21
-122.964
0
LINE
8
BLACK
6
CONTINUOUS
10
105.788
20
-122.964
11
105.693
21
-123.06
0
LINE
8
BLACK
6
CONTINUOUS
10
105.693
20
-123.06
11
105.502
21
-123.155
0
LINE
8
BLACK
6
CONTINUOUS
10
105.502
20
-123.155
11
105.121
21
-123.155
0
LINE
8
BLACK
6
CONTINUOUS
10
105.121
20
-123.155
11
104.931
21
-123.06
0
LINE
8
BLACK
6
CONTINUOUS
10
106.74
20
-122.964
11
106.836
21
-123.06
0
LINE
8
BLACK
6
CONTINUOUS
10
106.836
20
-123.06
11
106.74
21
-123.155
0
LINE
8
BLACK
6
CONTINUOUS
10
106.74
20
-123.155
11
106.645
21
-123.06
0
LINE
8
BLACK
6
CONTINUOUS
10
106.645
20
-123.06
11
106.74
21
-122.964
0
LINE
8
BLACK
6
CONTINUOUS
10
106.74
20
-122.964
11
106.74
21
-123.155
0
LINE
8
BLACK
6
CONTINUOUS
10
106.74
20
-121.917
11
106.836
21
-122.012
0
LINE
8
BLACK
6
CONTINUOUS
10
106.836
20
-122.012
11
106.74
21
-122.107
0
LINE
8
BLACK
6
CONTINUOUS
10
106.74
20
-122.107
11
106.645
21
-122.012
0
LINE
8
BLACK
6
CONTINUOUS
10
106.645
20
-122.012
11
106.74
21
-121.917
0
LINE
8
BLACK
6
CONTINUOUS
10
106.74
20
-121.917
11
106.74
21
-122.107
0
LINE
8
BLACK
6
CONTINUOUS
10
90.05
20
-126.25
11
90.45
21
-126.65
0
LINE
8
BLACK
6
CONTINUOUS
10
90.45
20
-126.25
11
90.05
21
-126.65
0
LINE
8
BLACK
6
CONTINUOUS
10
93.4071
20
-125.355
11
93.5976
21
-125.355
0
LINE
8
BLACK
6
CONTINUOUS
10
93.5976
20
-125.355
11
93.7881
21
-125.45
0
LINE
8
BLACK
6
CONTINUOUS
10
93.7881
20
-125.45
11
93.8833
21
-125.545
0
LINE
8
BLACK
6
CONTINUOUS
10
93.8833
20
-125.545
11
93.9786
21
-125.736
0
LINE
8
BLACK
6
CONTINUOUS
10
93.9786
20
-125.736
11
94.0738
21
-126.117
0
LINE
8
BLACK
6
CONTINUOUS
10
94.0738
20
-126.117
11
94.0738
21
-126.593
0
LINE
8
BLACK
6
CONTINUOUS
10
94.0738
20
-126.593
11
93.9786
21
-126.974
0
LINE
8
BLACK
6
CONTINUOUS
10
93.9786
20
-126.974
11
93.8833
21
-127.164
0
LINE
8
BLACK
6
CONTINUOUS
10
93.8833
20
-127.164
11
93.7881
21
-127.26
0
LINE
8
BLACK
6
CONTINUOUS
10
93.7881
20
-127.26
11
93.5976
21
-127.355
0
LINE
8
BLACK
6
CONTINUOUS
10
93.5976
20
-127.355
11
93.4071
21
-127.355
0
LINE
8
BLACK
6
CONTINUOUS
10
93.4071
20
-127.355
11
93.2167
21
-127.26
0
LINE
8
BLACK
6
CONTINUOUS
10
93.2167
20
-127.26
11
93.1214
21
-127.164
0
LINE
8
BLACK
6
CONTINUOUS
10
93.1214
20
-127.164
11
93.0262
21
-126.974
0
LINE
8
BLACK
6
CONTINUOUS
10
93.0262
20
-126.974
11
92.931
21
-126.593
0
LINE
8
BLACK
6
CONTINUOUS
10
92.931
20
-126.593
11
92.931
21
-126.117
0
LINE
8
BLACK
6
CONTINUOUS
10
92.931
20
-126.117
11
93.0262
21
-125.736
0
LINE
8
BLACK
6
CONTINUOUS
10
93.0262
20
-125.736
11
93.1214
21
-125.545
0
LINE
8
BLACK
6
CONTINUOUS
10
93.1214
20
-125.545
11
93.2167
21
-125.45
0
LINE
8
BLACK
6
CONTINUOUS
10
93.2167
20
-125.45
11
93.4071
21
-125.355
0
LINE
8
BLACK
6
CONTINUOUS
10
94.931
20
-127.164
11
95.0262
21
-127.26
0
LINE
8
BLACK
6
CONTINUOUS
10
95.0262
20
-127.26
11
94.931
21
-127.355
0
LINE
8
BLACK
6
CONTINUOUS
10
94.931
20
-127.355
11
94.8357
21
-127.26
0
LINE
8
BLACK
6
CONTINUOUS
10
94.8357
20
-127.26
11
94.931
21
-127.164
0
LINE
8
BLACK
6
CONTINUOUS
10
94.931
20
-127.164
11
94.931
21
-127.355
0
LINE
8
BLACK
6
CONTINUOUS
10
96.7405
20
-126.021
11
96.7405
21
-127.355
0
LINE
8
BLACK
6
CONTINUOUS
10
96.2643
20
-125.26
11
95.7881
21
-126.688
0
LINE
8
BLACK
6
CONTINUOUS
10
95.7881
20
-126.688
11
97.0262
21
-126.688
0
LINE
8
BLACK
6
CONTINUOUS
10
98.169
20
-125.355
11
98.3595
21
-125.355
0
LINE
8
BLACK
6
CONTINUOUS
10
98.3595
20
-125.355
11
98.55
21
-125.45
0
LINE
8
BLACK
6
CONTINUOUS
10
98.55
20
-125.45
11
98.6452
21
-125.545
0
LINE
8
BLACK
6
CONTINUOUS
10
98.6452
20
-125.545
11
98.7405
21
-125.736
0
LINE
8
BLACK
6
CONTINUOUS
10
98.7405
20
-125.736
11
98.8357
21
-126.117
0
LINE
8
BLACK
6
CONTINUOUS
10
98.8357
20
-126.117
11
98.8357
21
-126.593
0
LINE
8
BLACK
6
CONTINUOUS
10
98.8357
20
-126.593
11
98.7405
21
-126.974
0
LINE
8
BLACK
6
CONTINUOUS
10
98.7405
20
-126.974
11
98.6452
21
-127.164
0
LINE
8
BLACK
6
CONTINUOUS
10
98.6452
20
-127.164
11
98.55
21
-127.26
0
LINE
8
BLACK
6
CONTINUOUS
10
98.55
20
-127.26
11
98.3595
21
-127.355
0
LINE
8
BLACK
6
CONTINUOUS
10
98.3595
20
-127.355
11
98.169
21
-127.355
0
LINE
8
BLACK
6
CONTINUOUS
10
98.169
20
-127.355
11
97.9786
21
-127.26
0
LINE
8
BLACK
6
CONTINUOUS
10
97.9786
20
-127.26
11
97.8833
21
-127.164
0
LINE
8
BLACK
6
CONTINUOUS
10
97.8833
20
-127.164
11
97.7881
21
-126.974
0
LINE
8
BLACK
6
CONTINUOUS
10
97.7881
20
-126.974
11
97.6929
21
-126.593
0
LINE
8
BLACK
6
CONTINUOUS
10
97.6929
20
-126.593
11
97.6929
21
-126.117
0
LINE
8
BLACK
6
CONTINUOUS
10
97.6929
20
-126.117
11
97.7881
21
-125.736
0
LINE
8
BLACK
6
CONTINUOUS
10
97.7881
20
-125.736
11
97.8833
21
-125.545
0
LINE
8
BLACK
6
CONTINUOUS
10
97.8833
20
-125.545
11
97.9786
21
-125.45
0
LINE
8
BLACK
6
CONTINUOUS
10
97.9786
20
-125.45
11
98.169
21
-125.355
0
LINE
8
BLACK
6
CONTINUOUS
10
100.074
20
-125.355
11
100.264
21
-125.355
0
LINE
8
BLACK
6
CONTINUOUS
10
100.264
20
-125.355
11
100.455
21
-125.45
0
LINE
8
BLACK
6
CONTINUOUS
10
100.455
20
-125.45
11
100.55
21
-125.545
0
LINE
8
BLACK
6
CONTINUOUS
10
100.55
20
-125.545
11
100.645
21
-125.736
0
LINE
8
BLACK
6
CONTINUOUS
10
100.645
20
-125.736
11
100.74
21
-126.117
0
LINE
8
BLACK
6
CONTINUOUS
10
100.74
20
-126.117
11
100.74
21
-126.593
0
LINE
8
BLACK
6
CONTINUOUS
10
100.74
20
-126.593
11
100.645
21
-126.974
0
LINE
8
BLACK
6
CONTINUOUS
10
100.645
20
-126.974
11
100.55
21
-127.164
0
LINE
8
BLACK
6
CONTINUOUS
10
100.55
20
-127.164
11
100.455
21
-127.26
0
LINE
8
BLACK
6
CONTINUOUS
10
100.455
20
-127.26
11
100.264
21
-127.355
0
LINE
8
BLACK
6
CONTINUOUS
10
100.264
20
-127.355
11
100.074
21
-127.355
0
LINE
8
BLACK
6
CONTINUOUS
10
100.074
20
-127.355
11
99.8833
21
-127.26
0
LINE
8
BLACK
6
CONTINUOUS
10
99.8833
20
-127.26
11
99.7881
21
-127.164
0
LINE
8
BLACK
6
CONTINUOUS
10
99.7881
20
-127.164
11
99.6929
21
-126.974
0
LINE
8
BLACK
6
CONTINUOUS
10
99.6929
20
-126.974
11
99.5976
21
-126.593
0
LINE
8
BLACK
6
CONTINUOUS
10
99.5976
20
-126.593
11
99.5976
21
-126.117
0
LINE
8
BLACK
6
CONTINUOUS
10
99.5976
20
-126.117
11
99.6929
21
-125.736
0
LINE
8
BLACK
6
CONTINUOUS
10
99.6929
20
-125.736
11
99.7881
21
-125.545
0
LINE
8
BLACK
6
CONTINUOUS
10
99.7881
20
-125.545
11
99.8833
21
-125.45
0
LINE
8
BLACK
6
CONTINUOUS
10
99.8833
20
-125.45
11
100.074
21
-125.355
0
LINE
8
BLACK
6
CONTINUOUS
10
101.598
20
-127.355
11
101.598
21
-126.021
0
LINE
8
BLACK
6
CONTINUOUS
10
101.598
20
-126.212
11
101.693
21
-126.117
0
LINE
8
BLACK
6
CONTINUOUS
10
101.693
20
-126.117
11
101.883
21
-126.021
0
LINE
8
BLACK
6
CONTINUOUS
10
101.883
20
-126.021
11
102.169
21
-126.021
0
LINE
8
BLACK
6
CONTINUOUS
10
102.169
20
-126.021
11
102.36
21
-126.117
0
LINE
8
BLACK
6
CONTINUOUS
10
102.36
20
-126.117
11
102.455
21
-126.307
0
LINE
8
BLACK
6
CONTINUOUS
10
102.455
20
-126.307
11
102.455
21
-127.355
0
LINE
8
BLACK
6
CONTINUOUS
10
102.455
20
-126.307
11
102.55
21
-126.117
0
LINE
8
BLACK
6
CONTINUOUS
10
102.55
20
-126.117
11
102.74
21
-126.021
0
LINE
8
BLACK
6
CONTINUOUS
10
102.74
20
-126.021
11
103.026
21
-126.021
0
LINE
8
BLACK
6
CONTINUOUS
10
103.026
20
-126.021
11
103.217
21
-126.117
0
LINE
8
BLACK
6
CONTINUOUS
10
103.217
20
-126.117
11
103.312
21
-126.307
0
LINE
8
BLACK
6
CONTINUOUS
10
103.312
20
-126.307
11
103.312
21
-127.355
0
LINE
8
BLACK
6
CONTINUOUS
10
104.264
20
-127.355
11
104.264
21
-126.021
0
LINE
8
BLACK
6
CONTINUOUS
10
104.264
20
-126.212
11
104.36
21
-126.117
0
LINE
8
BLACK
6
CONTINUOUS
10
104.36
20
-126.117
11
104.55
21
-126.021
0
LINE
8
BLACK
6
CONTINUOUS
10
104.55
20
-126.021
11
104.836
21
-126.021
0
LINE
8
BLACK
6
CONTINUOUS
10
104.836
20
-126.021
11
105.026
21
-126.117
0
LINE
8
BLACK
6
CONTINUOUS
10
105.026
20
-126.117
11
105.121
21
-126.307
0
LINE
8
BLACK
6
CONTINUOUS
10
105.121
20
-126.307
11
105.121
21
-127.355
0
LINE
8
BLACK
6
CONTINUOUS
10
105.121
20
-126.307
11
105.217
21
-126.117
0
LINE
8
BLACK
6
CONTINUOUS
10
105.217
20
-126.117
11
105.407
21
-126.021
0
LINE
8
BLACK
6
CONTINUOUS
10
105.407
20
-126.021
11
105.693
21
-126.021
0
LINE
8
BLACK
6
CONTINUOUS
10
105.693
20
-126.021
11
105.883
21
-126.117
0
LINE
8
BLACK
6
CONTINUOUS
10
105.883
20
-126.117
11
105.979
21
-126.307
0
LINE
8
BLACK
6
CONTINUOUS
10
105.979
20
-126.307
11
105.979
21
-127.355
0
LINE
8
BLACK
6
CONTINUOUS
10
109.883
20
-125.26
11
108.169
21
-127.831
0
LINE
8
BLACK
6
CONTINUOUS
10
112.455
20
-125.355
11
112.645
21
-125.355
0
LINE
8
BLACK
6
CONTINUOUS
10
112.645
20
-125.355
11
112.836
21
-125.45
0
LINE
8
BLACK
6
CONTINUOUS
10
112.836
20
-125.45
11
112.931
21
-125.545
0
LINE
8
BLACK
6
CONTINUOUS
10
112.931
20
-125.545
11
113.026
21
-125.736
0
LINE
8
BLACK
6
CONTINUOUS
10
113.026
20
-125.736
11
113.121
21
-126.117
0
LINE
8
BLACK
6
CONTINUOUS
10
113.121
20
-126.117
11
113.121
21
-126.593
0
LINE
8
BLACK
6
CONTINUOUS
10
113.121
20
-126.593
11
113.026
21
-126.974
0
LINE
8
BLACK
6
CONTINUOUS
10
113.026
20
-126.974
11
112.931
21
-127.164
0
LINE
8
BLACK
6
CONTINUOUS
10
112.931
20
-127.164
11
112.836
21
-127.26
0
LINE
8
BLACK
6
CONTINUOUS
10
112.836
20
-127.26
11
112.645
21
-127.355
0
LINE
8
BLACK
6
CONTINUOUS
10
112.645
20
-127.355
11
112.455
21
-127.355
0
LINE
8
BLACK
6
CONTINUOUS
10
112.455
20
-127.355
11
112.264
21
-127.26
0
LINE
8
BLACK
6
CONTINUOUS
10
112.264
20
-127.26
11
112.169
21
-127.164
0
LINE
8
BLACK
6
CONTINUOUS
10
112.169
20
-127.164
11
112.074
21
-126.974
0
LINE
8
BLACK
6
CONTINUOUS
10
112.074
20
-126.974
11
111.979
21
-126.593
0
LINE
8
BLACK
6
CONTINUOUS
10
111.979
20
-126.593
11
111.979
21
-126.117
0
LINE
8
BLACK
6
CONTINUOUS
10
111.979
20
-126.117
11
112.074
21
-125.736
0
LINE
8
BLACK
6
CONTINUOUS
10
112.074
20
-125.736
11
112.169
21
-125.545
0
LINE
8
BLACK
6
CONTINUOUS
10
112.169
20
-125.545
11
112.264
21
-125.45
0
LINE
8
BLACK
6
CONTINUOUS
10
112.264
20
-125.45
11
112.455
21
-125.355
0
LINE
8
BLACK
6
CONTINUOUS
10
113.979
20
-127.164
11
114.074
21
-127.26
0
LINE
8
BLACK
6
CONTINUOUS
10
114.074
20
-127.26
11
113.979
21
-127.355
0
LINE
8
BLACK
6
CONTINUOUS
10
113.979
20
-127.355
11
113.883
21
-127.26
0
LINE
8
BLACK
6
CONTINUOUS
10
113.883
20
-127.26
11
113.979
21
-127.164
0
LINE
8
BLACK
6
CONTINUOUS
10
113.979
20
-127.164
11
113.979
21
-127.355
0
LINE
8
BLACK
6
CONTINUOUS
10
115.312
20
-125.355
11
115.502
21
-125.355
0
LINE
8
BLACK
6
CONTINUOUS
10
115.502
20
-125.355
11
115.693
21
-125.45
0
LINE
8
BLACK
6
CONTINUOUS
10
115.693
20
-125.45
11
115.788
21
-125.545
0
LINE
8
BLACK
6
CONTINUOUS
10
115.788
20
-125.545
11
115.883
21
-125.736
0
LINE
8
BLACK
6
CONTINUOUS
10
115.883
20
-125.736
11
115.979
21
-126.117
0
LINE
8
BLACK
6
CONTINUOUS
10
115.979
20
-126.117
11
115.979
21
-126.593
0
LINE
8
BLACK
6
CONTINUOUS
10
115.979
20
-126.593
11
115.883
21
-126.974
0
LINE
8
BLACK
6
CONTINUOUS
10
115.883
20
-126.974
11
115.788
21
-127.164
0
LINE
8
BLACK
6
CONTINUOUS
10
115.788
20
-127.164
11
115.693
21
-127.26
0
LINE
8
BLACK
6
CONTINUOUS
10
115.693
20
-127.26
11
115.502
21
-127.355
0
LINE
8
BLACK
6
CONTINUOUS
10
115.502
20
-127.355
11
115.312
21
-127.355
0
LINE
8
BLACK
6
CONTINUOUS
10
115.312
20
-127.355
11
115.121
21
-127.26
0
LINE
8
BLACK
6
CONTINUOUS
10
115.121
20
-127.26
11
115.026
21
-127.164
0
LINE
8
BLACK
6
CONTINUOUS
10
115.026
20
-127.164
11
114.931
21
-126.974
0
LINE
8
BLACK
6
CONTINUOUS
10
114.931
20
-126.974
11
114.836
21
-126.593
0
LINE
8
BLACK
6
CONTINUOUS
10
114.836
20
-126.593
11
114.836
21
-126.117
0
LINE
8
BLACK
6
CONTINUOUS
10
114.836
20
-126.117
11
114.931
21
-125.736
0
LINE
8
BLACK
6
CONTINUOUS
10
114.931
20
-125.736
11
115.026
21
-125.545
0
LINE
8
BLACK
6
CONTINUOUS
10
115.026
20
-125.545
11
115.121
21
-125.45
0
LINE
8
BLACK
6
CONTINUOUS
10
115.121
20
-125.45
11
115.312
21
-125.355
0
LINE
8
BLACK
6
CONTINUOUS
10
117.883
20
-127.355
11
116.74
21
-127.355
0
LINE
8
BLACK
6
CONTINUOUS
10
117.312
20
-127.355
11
117.312
21
-125.355
0
LINE
8
BLACK
6
CONTINUOUS
10
117.312
20
-125.355
11
117.121
21
-125.64
0
LINE
8
BLACK
6
CONTINUOUS
10
117.121
20
-125.64
11
116.931
21
-125.831
0
LINE
8
BLACK
6
CONTINUOUS
10
116.931
20
-125.831
11
116.74
21
-125.926
0
LINE
8
BLACK
6
CONTINUOUS
10
119.693
20
-125.355
11
118.74
21
-125.355
0
LINE
8
BLACK
6
CONTINUOUS
10
118.74
20
-125.355
11
118.645
21
-126.307
0
LINE
8
BLACK
6
CONTINUOUS
10
118.645
20
-126.307
11
118.74
21
-126.212
0
LINE
8
BLACK
6
CONTINUOUS
10
118.74
20
-126.212
11
118.931
21
-126.117
0
LINE
8
BLACK
6
CONTINUOUS
10
118.931
20
-126.117
11
119.407
21
-126.117
0
LINE
8
BLACK
6
CONTINUOUS
10
119.407
20
-126.117
11
119.598
21
-126.212
0
LINE
8
BLACK
6
CONTINUOUS
10
119.598
20
-126.212
11
119.693
21
-126.307
0
LINE
8
BLACK
6
CONTINUOUS
10
119.693
20
-126.307
11
119.788
21
-126.498
0
LINE
8
BLACK
6
CONTINUOUS
10
119.788
20
-126.498
11
119.788
21
-126.974
0
LINE
8
BLACK
6
CONTINUOUS
10
119.788
20
-126.974
11
119.693
21
-127.164
0
LINE
8
BLACK
6
CONTINUOUS
10
119.693
20
-127.164
11
119.598
21
-127.26
0
LINE
8
BLACK
6
CONTINUOUS
10
119.598
20
-127.26
11
119.407
21
-127.355
0
LINE
8
BLACK
6
CONTINUOUS
10
119.407
20
-127.355
11
118.931
21
-127.355
0
LINE
8
BLACK
6
CONTINUOUS
10
118.931
20
-127.355
11
118.74
21
-127.26
0
LINE
8
BLACK
6
CONTINUOUS
10
118.74
20
-127.26
11
118.645
21
-127.164
0
LINE
8
BLACK
6
CONTINUOUS
10
120.455
20
-125.355
11
121.788
21
-125.355
0
LINE
8
BLACK
6
CONTINUOUS
10
121.788
20
-125.355
11
120.931
21
-127.355
0
LINE
8
BLACK
6
CONTINUOUS
10
122.455
20
-125.355
11
122.455
21
-125.736
0
LINE
8
BLACK
6
CONTINUOUS
10
123.217
20
-125.355
11
123.217
21
-125.736
0
LINE
8
BLACK
6
CONTINUOUS
10
126.169
20
-128.117
11
126.074
21
-128.021
0
LINE
8
BLACK
6
CONTINUOUS
10
126.074
20
-128.021
11
125.883
21
-127.736
0
LINE
8
BLACK
6
CONTINUOUS
10
125.883
20
-127.736
11
125.788
21
-127.545
0
LINE
8
BLACK
6
CONTINUOUS
10
125.788
20
-127.545
11
125.693
21
-127.26
0
LINE
8
BLACK
6
CONTINUOUS
10
125.693
20
-127.26
11
125.598
21
-126.783
0
LINE
8
BLACK
6
CONTINUOUS
10
125.598
20
-126.783
11
125.598
21
-126.402
0
LINE
8
BLACK
6
CONTINUOUS
10
125.598
20
-126.402
11
125.693
21
-125.926
0
LINE
8
BLACK
6
CONTINUOUS
10
125.693
20
-125.926
11
125.788
21
-125.64
0
LINE
8
BLACK
6
CONTINUOUS
10
125.788
20
-125.64
11
125.883
21
-125.45
0
LINE
8
BLACK
6
CONTINUOUS
10
125.883
20
-125.45
11
126.074
21
-125.164
0
LINE
8
BLACK
6
CONTINUOUS
10
126.074
20
-125.164
11
126.169
21
-125.069
0
LINE
8
BLACK
6
CONTINUOUS
10
127.883
20
-125.355
11
126.931
21
-125.355
0
LINE
8
BLACK
6
CONTINUOUS
10
126.931
20
-125.355
11
126.836
21
-126.307
0
LINE
8
BLACK
6
CONTINUOUS
10
126.836
20
-126.307
11
126.931
21
-126.212
0
LINE
8
BLACK
6
CONTINUOUS
10
126.931
20
-126.212
11
127.121
21
-126.117
0
LINE
8
BLACK
6
CONTINUOUS
10
127.121
20
-126.117
11
127.598
21
-126.117
0
LINE
8
BLACK
6
CONTINUOUS
10
127.598
20
-126.117
11
127.788
21
-126.212
0
LINE
8
BLACK
6
CONTINUOUS
10
127.788
20
-126.212
11
127.883
21
-126.307
0
LINE
8
BLACK
6
CONTINUOUS
10
127.883
20
-126.307
11
127.979
21
-126.498
0
LINE
8
BLACK
6
CONTINUOUS
10
127.979
20
-126.498
11
127.979
21
-126.974
0
LINE
8
BLACK
6
CONTINUOUS
10
127.979
20
-126.974
11
127.883
21
-127.164
0
LINE
8
BLACK
6
CONTINUOUS
10
127.883
20
-127.164
11
127.788
21
-127.26
0
LINE
8
BLACK
6
CONTINUOUS
10
127.788
20
-127.26
11
127.598
21
-127.355
0
LINE
8
BLACK
6
CONTINUOUS
10
127.598
20
-127.355
11
127.121
21
-127.355
0
LINE
8
BLACK
6
CONTINUOUS
10
127.121
20
-127.355
11
126.931
21
-127.26
0
LINE
8
BLACK
6
CONTINUOUS
10
126.931
20
-127.26
11
126.836
21
-127.164
0
LINE
8
BLACK
6
CONTINUOUS
10
130.36
20
-127.355
11
130.36
21
-125.355
0
LINE
8
BLACK
6
CONTINUOUS
10
131.217
20
-127.355
11
131.217
21
-126.307
0
LINE
8
BLACK
6
CONTINUOUS
10
131.217
20
-126.307
11
131.121
21
-126.117
0
LINE
8
BLACK
6
CONTINUOUS
10
131.121
20
-126.117
11
130.931
21
-126.021
0
LINE
8
BLACK
6
CONTINUOUS
10
130.931
20
-126.021
11
130.645
21
-126.021
0
LINE
8
BLACK
6
CONTINUOUS
10
130.645
20
-126.021
11
130.455
21
-126.117
0
LINE
8
BLACK
6
CONTINUOUS
10
130.455
20
-126.117
11
130.36
21
-126.212
0
LINE
8
BLACK
6
CONTINUOUS
10
132.455
20
-127.355
11
132.264
21
-127.26
0
LINE
8
BLACK
6
CONTINUOUS
10
132.264
20
-127.26
11
132.169
21
-127.164
0
LINE
8
BLACK
6
CONTINUOUS
10
132.169
20
-127.164
11
132.074
21
-126.974
0
LINE
8
BLACK
6
CONTINUOUS
10
132.074
20
-126.974
11
132.074
21
-126.402
0
LINE
8
BLACK
6
CONTINUOUS
10
132.074
20
-126.402
11
132.169
21
-126.212
0
LINE
8
BLACK
6
CONTINUOUS
10
132.169
20
-126.212
11
132.264
21
-126.117
0
LINE
8
BLACK
6
CONTINUOUS
10
132.264
20
-126.117
11
132.455
21
-126.021
0
LINE
8
BLACK
6
CONTINUOUS
10
132.455
20
-126.021
11
132.74
21
-126.021
0
LINE
8
BLACK
6
CONTINUOUS
10
132.74
20
-126.021
11
132.931
21
-126.117
0
LINE
8
BLACK
6
CONTINUOUS
10
132.931
20
-126.117
11
133.026
21
-126.212
0
LINE
8
BLACK
6
CONTINUOUS
10
133.026
20
-126.212
11
133.121
21
-126.402
0
LINE
8
BLACK
6
CONTINUOUS
10
133.121
20
-126.402
11
133.121
21
-126.974
0
LINE
8
BLACK
6
CONTINUOUS
10
133.121
20
-126.974
11
133.026
21
-127.164
0
LINE
8
BLACK
6
CONTINUOUS
10
133.026
20
-127.164
11
132.931
21
-127.26
0
LINE
8
BLACK
6
CONTINUOUS
10
132.931
20
-127.26
11
132.74
21
-127.355
0
LINE
8
BLACK
6
CONTINUOUS
10
132.74
20
-127.355
11
132.455
21
-127.355
0
LINE
8
BLACK
6
CONTINUOUS
10
134.264
20
-127.355
11
134.074
21
-127.26
0
LINE
8
BLACK
6
CONTINUOUS
10
134.074
20
-127.26
11
133.979
21
-127.069
0
LINE
8
BLACK
6
CONTINUOUS
10
133.979
20
-127.069
11
133.979
21
-125.355
0
LINE
8
BLACK
6
CONTINUOUS
10
135.788
20
-127.26
11
135.598
21
-127.355
0
LINE
8
BLACK
6
CONTINUOUS
10
135.598
20
-127.355
11
135.217
21
-127.355
0
LINE
8
BLACK
6
CONTINUOUS
10
135.217
20
-127.355
11
135.026
21
-127.26
0
LINE
8
BLACK
6
CONTINUOUS
10
135.026
20
-127.26
11
134.931
21
-127.069
0
LINE
8
BLACK
6
CONTINUOUS
10
134.931
20
-127.069
11
134.931
21
-126.307
0
LINE
8
BLACK
6
CONTINUOUS
10
134.931
20
-126.307
11
135.026
21
-126.117
0
LINE
8
BLACK
6
CONTINUOUS
10
135.026
20
-126.117
11
135.217
21
-126.021
0
LINE
8
BLACK
6
CONTINUOUS
10
135.217
20
-126.021
11
135.598
21
-126.021
0
LINE
8
BLACK
6
CONTINUOUS
10
135.598
20
-126.021
11
135.788
21
-126.117
0
LINE
8
BLACK
6
CONTINUOUS
10
135.788
20
-126.117
11
135.883
21
-126.307
0
LINE
8
BLACK
6
CONTINUOUS
10
135.883
20
-126.307
11
135.883
21
-126.498
0
LINE
8
BLACK
6
CONTINUOUS
10
135.883
20
-126.498
11
134.931
21
-126.688
0
LINE
8
BLACK
6
CONTINUOUS
10
136.645
20
-127.26
11
136.836
21
-127.355
0
LINE
8
BLACK
6
CONTINUOUS
10
136.836
20
-127.355
11
137.217
21
-127.355
0
LINE
8
BLACK
6
CONTINUOUS
10
137.217
20
-127.355
11
137.407
21
-127.26
0
LINE
8
BLACK
6
CONTINUOUS
10
137.407
20
-127.26
11
137.502
21
-127.069
0
LINE
8
BLACK
6
CONTINUOUS
10
137.502
20
-127.069
11
137.502
21
-126.974
0
LINE
8
BLACK
6
CONTINUOUS
10
137.502
20
-126.974
11
137.407
21
-126.783
0
LINE
8
BLACK
6
CONTINUOUS
10
137.407
20
-126.783
11
137.217
21
-126.688
0
LINE
8
BLACK
6
CONTINUOUS
10
137.217
20
-126.688
11
136.931
21
-126.688
0
LINE
8
BLACK
6
CONTINUOUS
10
136.931
20
-126.688
11
136.74
21
-126.593
0
LINE
8
BLACK
6
CONTINUOUS
10
136.74
20
-126.593
11
136.645
21
-126.402
0
LINE
8
BLACK
6
CONTINUOUS
10
136.645
20
-126.402
11
136.645
21
-126.307
0
LINE
8
BLACK
6
CONTINUOUS
10
136.645
20
-126.307
11
136.74
21
-126.117
0
LINE
8
BLACK
6
CONTINUOUS
10
136.74
20
-126.117
11
136.931
21
-126.021
0
LINE
8
BLACK
6
CONTINUOUS
10
136.931
20
-126.021
11
137.217
21
-126.021
0
LINE
8
BLACK
6
CONTINUOUS
10
137.217
20
-126.021
11
137.407
21
-126.117
0
LINE
8
BLACK
6
CONTINUOUS
10
138.169
20
-128.117
11
138.264
21
-128.021
0
LINE
8
BLACK
6
CONTINUOUS
10
138.264
20
-128.021
11
138.455
21
-127.736
0
LINE
8
BLACK
6
CONTINUOUS
10
138.455
20
-127.736
11
138.55
21
-127.545
0
LINE
8
BLACK
6
CONTINUOUS
10
138.55
20
-127.545
11
138.645
21
-127.26
0
LINE
8
BLACK
6
CONTINUOUS
10
138.645
20
-127.26
11
138.74
21
-126.783
0
LINE
8
BLACK
6
CONTINUOUS
10
138.74
20
-126.783
11
138.74
21
-126.402
0
LINE
8
BLACK
6
CONTINUOUS
10
138.74
20
-126.402
11
138.645
21
-125.926
0
LINE
8
BLACK
6
CONTINUOUS
10
138.645
20
-125.926
11
138.55
21
-125.64
0
LINE
8
BLACK
6
CONTINUOUS
10
138.55
20
-125.64
11
138.455
21
-125.45
0
LINE
8
BLACK
6
CONTINUOUS
10
138.455
20
-125.45
11
138.264
21
-125.164
0
LINE
8
BLACK
6
CONTINUOUS
10
138.264
20
-125.164
11
138.169
21
-125.069
0
CIRCLE
8
BLACK
10
90.2
20
-129.09
40
0.25
0
LINE
8
BLACK
6
CONTINUOUS
10
93.4071
20
-127.995
11
93.5976
21
-127.995
0
LINE
8
BLACK
6
CONTINUOUS
10
93.5976
20
-127.995
11
93.7881
21
-128.09
0
LINE
8
BLACK
6
CONTINUOUS
10
93.7881
20
-128.09
11
93.8833
21
-128.185
0
LINE
8
BLACK
6
CONTINUOUS
10
93.8833
20
-128.185
11
93.9786
21
-128.376
0
LINE
8
BLACK
6
CONTINUOUS
10
93.9786
20
-128.376
11
94.0738
21
-128.757
0
LINE
8
BLACK
6
CONTINUOUS
10
94.0738
20
-128.757
11
94.0738
21
-129.233
0
LINE
8
BLACK
6
CONTINUOUS
10
94.0738
20
-129.233
11
93.9786
21
-129.614
0
LINE
8
BLACK
6
CONTINUOUS
10
93.9786
20
-129.614
11
93.8833
21
-129.804
0
LINE
8
BLACK
6
CONTINUOUS
10
93.8833
20
-129.804
11
93.7881
21
-129.9
0
LINE
8
BLACK
6
CONTINUOUS
10
93.7881
20
-129.9
11
93.5976
21
-129.995
0
LINE
8
BLACK
6
CONTINUOUS
10
93.5976
20
-129.995
11
93.4071
21
-129.995
0
LINE
8
BLACK
6
CONTINUOUS
10
93.4071
20
-129.995
11
93.2167
21
-129.9
0
LINE
8
BLACK
6
CONTINUOUS
10
93.2167
20
-129.9
11
93.1214
21
-129.804
0
LINE
8
BLACK
6
CONTINUOUS
10
93.1214
20
-129.804
11
93.0262
21
-129.614
0
LINE
8
BLACK
6
CONTINUOUS
10
93.0262
20
-129.614
11
92.931
21
-129.233
0
LINE
8
BLACK
6
CONTINUOUS
10
92.931
20
-129.233
11
92.931
21
-128.757
0
LINE
8
BLACK
6
CONTINUOUS
10
92.931
20
-128.757
11
93.0262
21
-128.376
0
LINE
8
BLACK
6
CONTINUOUS
10
93.0262
20
-128.376
11
93.1214
21
-128.185
0
LINE
8
BLACK
6
CONTINUOUS
10
93.1214
20
-128.185
11
93.2167
21
-128.09
0
LINE
8
BLACK
6
CONTINUOUS
10
93.2167
20
-128.09
11
93.4071
21
-127.995
0
LINE
8
BLACK
6
CONTINUOUS
10
94.931
20
-129.804
11
95.0262
21
-129.9
0
LINE
8
BLACK
6
CONTINUOUS
10
95.0262
20
-129.9
11
94.931
21
-129.995
0
LINE
8
BLACK
6
CONTINUOUS
10
94.931
20
-129.995
11
94.8357
21
-129.9
0
LINE
8
BLACK
6
CONTINUOUS
10
94.8357
20
-129.9
11
94.931
21
-129.804
0
LINE
8
BLACK
6
CONTINUOUS
10
94.931
20
-129.804
11
94.931
21
-129.995
0
LINE
8
BLACK
6
CONTINUOUS
10
96.8357
20
-127.995
11
95.8833
21
-127.995
0
LINE
8
BLACK
6
CONTINUOUS
10
95.8833
20
-127.995
11
95.7881
21
-128.947
0
LINE
8
BLACK
6
CONTINUOUS
10
95.7881
20
-128.947
11
95.8833
21
-128.852
0
LINE
8
BLACK
6
CONTINUOUS
10
95.8833
20
-128.852
11
96.0738
21
-128.757
0
LINE
8
BLACK
6
CONTINUOUS
10
96.0738
20
-128.757
11
96.55
21
-128.757
0
LINE
8
BLACK
6
CONTINUOUS
10
96.55
20
-128.757
11
96.7405
21
-128.852
0
LINE
8
BLACK
6
CONTINUOUS
10
96.7405
20
-128.852
11
96.8357
21
-128.947
0
LINE
8
BLACK
6
CONTINUOUS
10
96.8357
20
-128.947
11
96.931
21
-129.138
0
LINE
8
BLACK
6
CONTINUOUS
10
96.931
20
-129.138
11
96.931
21
-129.614
0
LINE
8
BLACK
6
CONTINUOUS
10
96.931
20
-129.614
11
96.8357
21
-129.804
0
LINE
8
BLACK
6
CONTINUOUS
10
96.8357
20
-129.804
11
96.7405
21
-129.9
0
LINE
8
BLACK
6
CONTINUOUS
10
96.7405
20
-129.9
11
96.55
21
-129.995
0
LINE
8
BLACK
6
CONTINUOUS
10
96.55
20
-129.995
11
96.0738
21
-129.995
0
LINE
8
BLACK
6
CONTINUOUS
10
96.0738
20
-129.995
11
95.8833
21
-129.9
0
LINE
8
BLACK
6
CONTINUOUS
10
95.8833
20
-129.9
11
95.7881
21
-129.804
0
LINE
8
BLACK
6
CONTINUOUS
10
98.169
20
-127.995
11
98.3595
21
-127.995
0
LINE
8
BLACK
6
CONTINUOUS
10
98.3595
20
-127.995
11
98.55
21
-128.09
0
LINE
8
BLACK
6
CONTINUOUS
10
98.55
20
-128.09
11
98.6452
21
-128.185
0
LINE
8
BLACK
6
CONTINUOUS
10
98.6452
20
-128.185
11
98.7405
21
-128.376
0
LINE
8
BLACK
6
CONTINUOUS
10
98.7405
20
-128.376
11
98.8357
21
-128.757
0
LINE
8
BLACK
6
CONTINUOUS
10
98.8357
20
-128.757
11
98.8357
21
-129.233
0
LINE
8
BLACK
6
CONTINUOUS
10
98.8357
20
-129.233
11
98.7405
21
-129.614
0
LINE
8
BLACK
6
CONTINUOUS
10
98.7405
20
-129.614
11
98.6452
21
-129.804
0
LINE
8
BLACK
6
CONTINUOUS
10
98.6452
20
-129.804
11
98.55
21
-129.9
0
LINE
8
BLACK
6
CONTINUOUS
10
98.55
20
-129.9
11
98.3595
21
-129.995
0
LINE
8
BLACK
6
CONTINUOUS
10
98.3595
20
-129.995
11
98.169
21
-129.995
0
LINE
8
BLACK
6
CONTINUOUS
10
98.169
20
-129.995
11
97.9786
21
-129.9
0
LINE
8
BLACK
6
CONTINUOUS
10
97.9786
20
-129.9
11
97.8833
21
-129.804
0
LINE
8
BLACK
6
CONTINUOUS
10
97.8833
20
-129.804
11
97.7881
21
-129.614
0
LINE
8
BLACK
6
CONTINUOUS
10
97.7881
20
-129.614
11
97.6929
21
-129.233
0
LINE
8
BLACK
6
CONTINUOUS
10
97.6929
20
-129.233
11
97.6929
21
-128.757
0
LINE
8
BLACK
6
CONTINUOUS
10
97.6929
20
-128.757
11
97.7881
21
-128.376
0
LINE
8
BLACK
6
CONTINUOUS
10
97.7881
20
-128.376
11
97.8833
21
-128.185
0
LINE
8
BLACK
6
CONTINUOUS
10
97.8833
20
-128.185
11
97.9786
21
-128.09
0
LINE
8
BLACK
6
CONTINUOUS
10
97.9786
20
-128.09
11
98.169
21
-127.995
0
LINE
8
BLACK
6
CONTINUOUS
10
100.074
20
-127.995
11
100.264
21
-127.995
0
LINE
8
BLACK
6
CONTINUOUS
10
100.264
20
-127.995
11
100.455
21
-128.09
0
LINE
8
BLACK
6
CONTINUOUS
10
100.455
20
-128.09
11
100.55
21
-128.185
0
LINE
8
BLACK
6
CONTINUOUS
10
100.55
20
-128.185
11
100.645
21
-128.376
0
LINE
8
BLACK
6
CONTINUOUS
10
100.645
20
-128.376
11
100.74
21
-128.757
0
LINE
8
BLACK
6
CONTINUOUS
10
100.74
20
-128.757
11
100.74
21
-129.233
0
LINE
8
BLACK
6
CONTINUOUS
10
100.74
20
-129.233
11
100.645
21
-129.614
0
LINE
8
BLACK
6
CONTINUOUS
10
100.645
20
-129.614
11
100.55
21
-129.804
0
LINE
8
BLACK
6
CONTINUOUS
10
100.55
20
-129.804
11
100.455
21
-129.9
0
LINE
8
BLACK
6
CONTINUOUS
10
100.455
20
-129.9
11
100.264
21
-129.995
0
LINE
8
BLACK
6
CONTINUOUS
10
100.264
20
-129.995
11
100.074
21
-129.995
0
LINE
8
BLACK
6
CONTINUOUS
10
100.074
20
-129.995
11
99.8833
21
-129.9
0
LINE
8
BLACK
6
CONTINUOUS
10
99.8833
20
-129.9
11
99.7881
21
-129.804
0
LINE
8
BLACK
6
CONTINUOUS
10
99.7881
20
-129.804
11
99.6929
21
-129.614
0
LINE
8
BLACK
6
CONTINUOUS
10
99.6929
20
-129.614
11
99.5976
21
-129.233
0
LINE
8
BLACK
6
CONTINUOUS
10
99.5976
20
-129.233
11
99.5976
21
-128.757
0
LINE
8
BLACK
6
CONTINUOUS
10
99.5976
20
-128.757
11
99.6929
21
-128.376
0
LINE
8
BLACK
6
CONTINUOUS
10
99.6929
20
-128.376
11
99.7881
21
-128.185
0
LINE
8
BLACK
6
CONTINUOUS
10
99.7881
20
-128.185
11
99.8833
21
-128.09
0
LINE
8
BLACK
6
CONTINUOUS
10
99.8833
20
-128.09
11
100.074
21
-127.995
0
LINE
8
BLACK
6
CONTINUOUS
10
101.598
20
-129.995
11
101.598
21
-128.661
0
LINE
8
BLACK
6
CONTINUOUS
10
101.598
20
-128.852
11
101.693
21
-128.757
0
LINE
8
BLACK
6
CONTINUOUS
10
101.693
20
-128.757
11
101.883
21
-128.661
0
LINE
8
BLACK
6
CONTINUOUS
10
101.883
20
-128.661
11
102.169
21
-128.661
0
LINE
8
BLACK
6
CONTINUOUS
10
102.169
20
-128.661
11
102.36
21
-128.757
0
LINE
8
BLACK
6
CONTINUOUS
10
102.36
20
-128.757
11
102.455
21
-128.947
0
LINE
8
BLACK
6
CONTINUOUS
10
102.455
20
-128.947
11
102.455
21
-129.995
0
LINE
8
BLACK
6
CONTINUOUS
10
102.455
20
-128.947
11
102.55
21
-128.757
0
LINE
8
BLACK
6
CONTINUOUS
10
102.55
20
-128.757
11
102.74
21
-128.661
0
LINE
8
BLACK
6
CONTINUOUS
10
102.74
20
-128.661
11
103.026
21
-128.661
0
LINE
8
BLACK
6
CONTINUOUS
10
103.026
20
-128.661
11
103.217
21
-128.757
0
LINE
8
BLACK
6
CONTINUOUS
10
103.217
20
-128.757
11
103.312
21
-128.947
0
LINE
8
BLACK
6
CONTINUOUS
10
103.312
20
-128.947
11
103.312
21
-129.995
0
LINE
8
BLACK
6
CONTINUOUS
10
104.264
20
-129.995
11
104.264
21
-128.661
0
LINE
8
BLACK
6
CONTINUOUS
10
104.264
20
-128.852
11
104.36
21
-128.757
0
LINE
8
BLACK
6
CONTINUOUS
10
104.36
20
-128.757
11
104.55
21
-128.661
0
LINE
8
BLACK
6
CONTINUOUS
10
104.55
20
-128.661
11
104.836
21
-128.661
0
LINE
8
BLACK
6
CONTINUOUS
10
104.836
20
-128.661
11
105.026
21
-128.757
0
LINE
8
BLACK
6
CONTINUOUS
10
105.026
20
-128.757
11
105.121
21
-128.947
0
LINE
8
BLACK
6
CONTINUOUS
10
105.121
20
-128.947
11
105.121
21
-129.995
0
LINE
8
BLACK
6
CONTINUOUS
10
105.121
20
-128.947
11
105.217
21
-128.757
0
LINE
8
BLACK
6
CONTINUOUS
10
105.217
20
-128.757
11
105.407
21
-128.661
0
LINE
8
BLACK
6
CONTINUOUS
10
105.407
20
-128.661
11
105.693
21
-128.661
0
LINE
8
BLACK
6
CONTINUOUS
10
105.693
20
-128.661
11
105.883
21
-128.757
0
LINE
8
BLACK
6
CONTINUOUS
10
105.883
20
-128.757
11
105.979
21
-128.947
0
LINE
8
BLACK
6
CONTINUOUS
10
105.979
20
-128.947
11
105.979
21
-129.995
0
LINE
8
BLACK
6
CONTINUOUS
10
109.883
20
-127.9
11
108.169
21
-130.471
0
LINE
8
BLACK
6
CONTINUOUS
10
112.455
20
-127.995
11
112.645
21
-127.995
0
LINE
8
BLACK
6
CONTINUOUS
10
112.645
20
-127.995
11
112.836
21
-128.09
0
LINE
8
BLACK
6
CONTINUOUS
10
112.836
20
-128.09
11
112.931
21
-128.185
0
LINE
8
BLACK
6
CONTINUOUS
10
112.931
20
-128.185
11
113.026
21
-128.376
0
LINE
8
BLACK
6
CONTINUOUS
10
113.026
20
-128.376
11
113.121
21
-128.757
0
LINE
8
BLACK
6
CONTINUOUS
10
113.121
20
-128.757
11
113.121
21
-129.233
0
LINE
8
BLACK
6
CONTINUOUS
10
113.121
20
-129.233
11
113.026
21
-129.614
0
LINE
8
BLACK
6
CONTINUOUS
10
113.026
20
-129.614
11
112.931
21
-129.804
0
LINE
8
BLACK
6
CONTINUOUS
10
112.931
20
-129.804
11
112.836
21
-129.9
0
LINE
8
BLACK
6
CONTINUOUS
10
112.836
20
-129.9
11
112.645
21
-129.995
0
LINE
8
BLACK
6
CONTINUOUS
10
112.645
20
-129.995
11
112.455
21
-129.995
0
LINE
8
BLACK
6
CONTINUOUS
10
112.455
20
-129.995
11
112.264
21
-129.9
0
LINE
8
BLACK
6
CONTINUOUS
10
112.264
20
-129.9
11
112.169
21
-129.804
0
LINE
8
BLACK
6
CONTINUOUS
10
112.169
20
-129.804
11
112.074
21
-129.614
0
LINE
8
BLACK
6
CONTINUOUS
10
112.074
20
-129.614
11
111.979
21
-129.233
0
LINE
8
BLACK
6
CONTINUOUS
10
111.979
20
-129.233
11
111.979
21
-128.757
0
LINE
8
BLACK
6
CONTINUOUS
10
111.979
20
-128.757
11
112.074
21
-128.376
0
LINE
8
BLACK
6
CONTINUOUS
10
112.074
20
-128.376
11
112.169
21
-128.185
0
LINE
8
BLACK
6
CONTINUOUS
10
112.169
20
-128.185
11
112.264
21
-128.09
0
LINE
8
BLACK
6
CONTINUOUS
10
112.264
20
-128.09
11
112.455
21
-127.995
0
LINE
8
BLACK
6
CONTINUOUS
10
113.979
20
-129.804
11
114.074
21
-129.9
0
LINE
8
BLACK
6
CONTINUOUS
10
114.074
20
-129.9
11
113.979
21
-129.995
0
LINE
8
BLACK
6
CONTINUOUS
10
113.979
20
-129.995
11
113.883
21
-129.9
0
LINE
8
BLACK
6
CONTINUOUS
10
113.883
20
-129.9
11
113.979
21
-129.804
0
LINE
8
BLACK
6
CONTINUOUS
10
113.979
20
-129.804
11
113.979
21
-129.995
0
LINE
8
BLACK
6
CONTINUOUS
10
115.312
20
-127.995
11
115.502
21
-127.995
0
LINE
8
BLACK
6
CONTINUOUS
10
115.502
20
-127.995
11
115.693
21
-128.09
0
LINE
8
BLACK
6
CONTINUOUS
10
115.693
20
-128.09
11
115.788
21
-128.185
0
LINE
8
BLACK
6
CONTINUOUS
10
115.788
20
-128.185
11
115.883
21
-128.376
0
LINE
8
BLACK
6
CONTINUOUS
10
115.883
20
-128.376
11
115.979
21
-128.757
0
LINE
8
BLACK
6
CONTINUOUS
10
115.979
20
-128.757
11
115.979
21
-129.233
0
LINE
8
BLACK
6
CONTINUOUS
10
115.979
20
-129.233
11
115.883
21
-129.614
0
LINE
8
BLACK
6
CONTINUOUS
10
115.883
20
-129.614
11
115.788
21
-129.804
0
LINE
8
BLACK
6
CONTINUOUS
10
115.788
20
-129.804
11
115.693
21
-129.9
0
LINE
8
BLACK
6
CONTINUOUS
10
115.693
20
-129.9
11
115.502
21
-129.995
0
LINE
8
BLACK
6
CONTINUOUS
10
115.502
20
-129.995
11
115.312
21
-129.995
0
LINE
8
BLACK
6
CONTINUOUS
10
115.312
20
-129.995
11
115.121
21
-129.9
0
LINE
8
BLACK
6
CONTINUOUS
10
115.121
20
-129.9
11
115.026
21
-129.804
0
LINE
8
BLACK
6
CONTINUOUS
10
115.026
20
-129.804
11
114.931
21
-129.614
0
LINE
8
BLACK
6
CONTINUOUS
10
114.931
20
-129.614
11
114.836
21
-129.233
0
LINE
8
BLACK
6
CONTINUOUS
10
114.836
20
-129.233
11
114.836
21
-128.757
0
LINE
8
BLACK
6
CONTINUOUS
10
114.836
20
-128.757
11
114.931
21
-128.376
0
LINE
8
BLACK
6
CONTINUOUS
10
114.931
20
-128.376
11
115.026
21
-128.185
0
LINE
8
BLACK
6
CONTINUOUS
10
115.026
20
-128.185
11
115.121
21
-128.09
0
LINE
8
BLACK
6
CONTINUOUS
10
115.121
20
-128.09
11
115.312
21
-127.995
0
LINE
8
BLACK
6
CONTINUOUS
10
117.883
20
-129.995
11
116.74
21
-129.995
0
LINE
8
BLACK
6
CONTINUOUS
10
117.312
20
-129.995
11
117.312
21
-127.995
0
LINE
8
BLACK
6
CONTINUOUS
10
117.312
20
-127.995
11
117.121
21
-128.28
0
LINE
8
BLACK
6
CONTINUOUS
10
117.121
20
-128.28
11
116.931
21
-128.471
0
LINE
8
BLACK
6
CONTINUOUS
10
116.931
20
-128.471
11
116.74
21
-128.566
0
LINE
8
BLACK
6
CONTINUOUS
10
118.836
20
-129.995
11
119.217
21
-129.995
0
LINE
8
BLACK
6
CONTINUOUS
10
119.217
20
-129.995
11
119.407
21
-129.9
0
LINE
8
BLACK
6
CONTINUOUS
10
119.407
20
-129.9
11
119.502
21
-129.804
0
LINE
8
BLACK
6
CONTINUOUS
10
119.502
20
-129.804
11
119.693
21
-129.519
0
LINE
8
BLACK
6
CONTINUOUS
10
119.693
20
-129.519
11
119.788
21
-129.138
0
LINE
8
BLACK
6
CONTINUOUS
10
119.788
20
-129.138
11
119.788
21
-128.376
0
LINE
8
BLACK
6
CONTINUOUS
10
119.788
20
-128.376
11
119.693
21
-128.185
0
LINE
8
BLACK
6
CONTINUOUS
10
119.693
20
-128.185
11
119.598
21
-128.09
0
LINE
8
BLACK
6
CONTINUOUS
10
119.598
20
-128.09
11
119.407
21
-127.995
0
LINE
8
BLACK
6
CONTINUOUS
10
119.407
20
-127.995
11
119.026
21
-127.995
0
LINE
8
BLACK
6
CONTINUOUS
10
119.026
20
-127.995
11
118.836
21
-128.09
0
LINE
8
BLACK
6
CONTINUOUS
10
118.836
20
-128.09
11
118.74
21
-128.185
0
LINE
8
BLACK
6
CONTINUOUS
10
118.74
20
-128.185
11
118.645
21
-128.376
0
LINE
8
BLACK
6
CONTINUOUS
10
118.645
20
-128.376
11
118.645
21
-128.852
0
LINE
8
BLACK
6
CONTINUOUS
10
118.645
20
-128.852
11
118.74
21
-129.042
0
LINE
8
BLACK
6
CONTINUOUS
10
118.74
20
-129.042
11
118.836
21
-129.138
0
LINE
8
BLACK
6
CONTINUOUS
10
118.836
20
-129.138
11
119.026
21
-129.233
0
LINE
8
BLACK
6
CONTINUOUS
10
119.026
20
-129.233
11
119.407
21
-129.233
0
LINE
8
BLACK
6
CONTINUOUS
10
119.407
20
-129.233
11
119.598
21
-129.138
0
LINE
8
BLACK
6
CONTINUOUS
10
119.598
20
-129.138
11
119.693
21
-129.042
0
LINE
8
BLACK
6
CONTINUOUS
10
119.693
20
-129.042
11
119.788
21
-128.852
0
LINE
8
BLACK
6
CONTINUOUS
10
120.455
20
-127.995
11
121.788
21
-127.995
0
LINE
8
BLACK
6
CONTINUOUS
10
121.788
20
-127.995
11
120.931
21
-129.995
0
LINE
8
BLACK
6
CONTINUOUS
10
122.455
20
-127.995
11
122.455
21
-128.376
0
LINE
8
BLACK
6
CONTINUOUS
10
123.217
20
-127.995
11
123.217
21
-128.376
0
LINE
8
BLACK
6
CONTINUOUS
10
126.169
20
-130.757
11
126.074
21
-130.661
0
LINE
8
BLACK
6
CONTINUOUS
10
126.074
20
-130.661
11
125.883
21
-130.376
0
LINE
8
BLACK
6
CONTINUOUS
10
125.883
20
-130.376
11
125.788
21
-130.185
0
LINE
8
BLACK
6
CONTINUOUS
10
125.788
20
-130.185
11
125.693
21
-129.9
0
LINE
8
BLACK
6
CONTINUOUS
10
125.693
20
-129.9
11
125.598
21
-129.423
0
LINE
8
BLACK
6
CONTINUOUS
10
125.598
20
-129.423
11
125.598
21
-129.042
0
LINE
8
BLACK
6
CONTINUOUS
10
125.598
20
-129.042
11
125.693
21
-128.566
0
LINE
8
BLACK
6
CONTINUOUS
10
125.693
20
-128.566
11
125.788
21
-128.28
0
LINE
8
BLACK
6
CONTINUOUS
10
125.788
20
-128.28
11
125.883
21
-128.09
0
LINE
8
BLACK
6
CONTINUOUS
10
125.883
20
-128.09
11
126.074
21
-127.804
0
LINE
8
BLACK
6
CONTINUOUS
10
126.074
20
-127.804
11
126.169
21
-127.709
0
LINE
8
BLACK
6
CONTINUOUS
10
127.883
20
-127.995
11
126.931
21
-127.995
0
LINE
8
BLACK
6
CONTINUOUS
10
126.931
20
-127.995
11
126.836
21
-128.947
0
LINE
8
BLACK
6
CONTINUOUS
10
126.836
20
-128.947
11
126.931
21
-128.852
0
LINE
8
BLACK
6
CONTINUOUS
10
126.931
20
-128.852
11
127.121
21
-128.757
0
LINE
8
BLACK
6
CONTINUOUS
10
127.121
20
-128.757
11
127.598
21
-128.757
0
LINE
8
BLACK
6
CONTINUOUS
10
127.598
20
-128.757
11
127.788
21
-128.852
0
LINE
8
BLACK
6
CONTINUOUS
10
127.788
20
-128.852
11
127.883
21
-128.947
0
LINE
8
BLACK
6
CONTINUOUS
10
127.883
20
-128.947
11
127.979
21
-129.138
0
LINE
8
BLACK
6
CONTINUOUS
10
127.979
20
-129.138
11
127.979
21
-129.614
0
LINE
8
BLACK
6
CONTINUOUS
10
127.979
20
-129.614
11
127.883
21
-129.804
0
LINE
8
BLACK
6
CONTINUOUS
10
127.883
20
-129.804
11
127.788
21
-129.9
0
LINE
8
BLACK
6
CONTINUOUS
10
127.788
20
-129.9
11
127.598
21
-129.995
0
LINE
8
BLACK
6
CONTINUOUS
10
127.598
20
-129.995
11
127.121
21
-129.995
0
LINE
8
BLACK
6
CONTINUOUS
10
127.121
20
-129.995
11
126.931
21
-129.9
0
LINE
8
BLACK
6
CONTINUOUS
10
126.931
20
-129.9
11
126.836
21
-129.804
0
LINE
8
BLACK
6
CONTINUOUS
10
130.36
20
-129.995
11
130.36
21
-127.995
0
LINE
8
BLACK
6
CONTINUOUS
10
131.217
20
-129.995
11
131.217
21
-128.947
0
LINE
8
BLACK
6
CONTINUOUS
10
131.217
20
-128.947
11
131.121
21
-128.757
0
LINE
8
BLACK
6
CONTINUOUS
10
131.121
20
-128.757
11
130.931
21
-128.661
0
LINE
8
BLACK
6
CONTINUOUS
10
130.931
20
-128.661
11
130.645
21
-128.661
0
LINE
8
BLACK
6
CONTINUOUS
10
130.645
20
-128.661
11
130.455
21
-128.757
0
LINE
8
BLACK
6
CONTINUOUS
10
130.455
20
-128.757
11
130.36
21
-128.852
0
LINE
8
BLACK
6
CONTINUOUS
10
132.455
20
-129.995
11
132.264
21
-129.9
0
LINE
8
BLACK
6
CONTINUOUS
10
132.264
20
-129.9
11
132.169
21
-129.804
0
LINE
8
BLACK
6
CONTINUOUS
10
132.169
20
-129.804
11
132.074
21
-129.614
0
LINE
8
BLACK
6
CONTINUOUS
10
132.074
20
-129.614
11
132.074
21
-129.042
0
LINE
8
BLACK
6
CONTINUOUS
10
132.074
20
-129.042
11
132.169
21
-128.852
0
LINE
8
BLACK
6
CONTINUOUS
10
132.169
20
-128.852
11
132.264
21
-128.757
0
LINE
8
BLACK
6
CONTINUOUS
10
132.264
20
-128.757
11
132.455
21
-128.661
0
LINE
8
BLACK
6
CONTINUOUS
10
132.455
20
-128.661
11
132.74
21
-128.661
0
LINE
8
BLACK
6
CONTINUOUS
10
132.74
20
-128.661
11
132.931
21
-128.757
0
LINE
8
BLACK
6
CONTINUOUS
10
132.931
20
-128.757
11
133.026
21
-128.852
0
LINE
8
BLACK
6
CONTINUOUS
10
133.026
20
-128.852
11
133.121
21
-129.042
0
LINE
8
BLACK
6
CONTINUOUS
10
133.121
20
-129.042
11
133.121
21
-129.614
0
LINE
8
BLACK
6
CONTINUOUS
10
133.121
20
-129.614
11
133.026
21
-129.804
0
LINE
8
BLACK
6
CONTINUOUS
10
133.026
20
-129.804
11
132.931
21
-129.9
0
LINE
8
BLACK
6
CONTINUOUS
10
132.931
20
-129.9
11
132.74
21
-129.995
0
LINE
8
BLACK
6
CONTINUOUS
10
132.74
20
-129.995
11
132.455
21
-129.995
0
LINE
8
BLACK
6
CONTINUOUS
10
134.264
20
-129.995
11
134.074
21
-129.9
0
LINE
8
BLACK
6
CONTINUOUS
10
134.074
20
-129.9
11
133.979
21
-129.709
0
LINE
8
BLACK
6
CONTINUOUS
10
133.979
20
-129.709
11
133.979
21
-127.995
0
LINE
8
BLACK
6
CONTINUOUS
10
135.788
20
-129.9
11
135.598
21
-129.995
0
LINE
8
BLACK
6
CONTINUOUS
10
135.598
20
-129.995
11
135.217
21
-129.995
0
LINE
8
BLACK
6
CONTINUOUS
10
135.217
20
-129.995
11
135.026
21
-129.9
0
LINE
8
BLACK
6
CONTINUOUS
10
135.026
20
-129.9
11
134.931
21
-129.709
0
LINE
8
BLACK
6
CONTINUOUS
10
134.931
20
-129.709
11
134.931
21
-128.947
0
LINE
8
BLACK
6
CONTINUOUS
10
134.931
20
-128.947
11
135.026
21
-128.757
0
LINE
8
BLACK
6
CONTINUOUS
10
135.026
20
-128.757
11
135.217
21
-128.661
0
LINE
8
BLACK
6
CONTINUOUS
10
135.217
20
-128.661
11
135.598
21
-128.661
0
LINE
8
BLACK
6
CONTINUOUS
10
135.598
20
-128.661
11
135.788
21
-128.757
0
LINE
8
BLACK
6
CONTINUOUS
10
135.788
20
-128.757
11
135.883
21
-128.947
0
LINE
8
BLACK
6
CONTINUOUS
10
135.883
20
-128.947
11
135.883
21
-129.138
0
LINE
8
BLACK
6
CONTINUOUS
10
135.883
20
-129.138
11
134.931
21
-129.328
0
LINE
8
BLACK
6
CONTINUOUS
10
136.645
20
-129.9
11
136.836
21
-129.995
0
LINE
8
BLACK
6
CONTINUOUS
10
136.836
20
-129.995
11
137.217
21
-129.995
0
LINE
8
BLACK
6
CONTINUOUS
10
137.217
20
-129.995
11
137.407
21
-129.9
0
LINE
8
BLACK
6
CONTINUOUS
10
137.407
20
-129.9
11
137.502
21
-129.709
0
LINE
8
BLACK
6
CONTINUOUS
10
137.502
20
-129.709
11
137.502
21
-129.614
0
LINE
8
BLACK
6
CONTINUOUS
10
137.502
20
-129.614
11
137.407
21
-129.423
0
LINE
8
BLACK
6
CONTINUOUS
10
137.407
20
-129.423
11
137.217
21
-129.328
0
LINE
8
BLACK
6
CONTINUOUS
10
137.217
20
-129.328
11
136.931
21
-129.328
0
LINE
8
BLACK
6
CONTINUOUS
10
136.931
20
-129.328
11
136.74
21
-129.233
0
LINE
8
BLACK
6
CONTINUOUS
10
136.74
20
-129.233
11
136.645
21
-129.042
0
LINE
8
BLACK
6
CONTINUOUS
10
136.645
20
-129.042
11
136.645
21
-128.947
0
LINE
8
BLACK
6
CONTINUOUS
10
136.645
20
-128.947
11
136.74
21
-128.757
0
LINE
8
BLACK
6
CONTINUOUS
10
136.74
20
-128.757
11
136.931
21
-128.661
0
LINE
8
BLACK
6
CONTINUOUS
10
136.931
20
-128.661
11
137.217
21
-128.661
0
LINE
8
BLACK
6
CONTINUOUS
10
137.217
20
-128.661
11
137.407
21
-128.757
0
LINE
8
BLACK
6
CONTINUOUS
10
138.169
20
-130.757
11
138.264
21
-130.661
0
LINE
8
BLACK
6
CONTINUOUS
10
138.264
20
-130.661
11
138.455
21
-130.376
0
LINE
8
BLACK
6
CONTINUOUS
10
138.455
20
-130.376
11
138.55
21
-130.185
0
LINE
8
BLACK
6
CONTINUOUS
10
138.55
20
-130.185
11
138.645
21
-129.9
0
LINE
8
BLACK
6
CONTINUOUS
10
138.645
20
-129.9
11
138.74
21
-129.423
0
LINE
8
BLACK
6
CONTINUOUS
10
138.74
20
-129.423
11
138.74
21
-129.042
0
LINE
8
BLACK
6
CONTINUOUS
10
138.74
20
-129.042
11
138.645
21
-128.566
0
LINE
8
BLACK
6
CONTINUOUS
10
138.645
20
-128.566
11
138.55
21
-128.28
0
LINE
8
BLACK
6
CONTINUOUS
10
138.55
20
-128.28
11
138.455
21
-128.09
0
LINE
8
BLACK
6
CONTINUOUS
10
138.455
20
-128.09
11
138.264
21
-127.804
0
LINE
8
BLACK
6
CONTINUOUS
10
138.264
20
-127.804
11
138.169
21
-127.709
0
LINE
8
BLACK
6
CONTINUOUS
10
90.15
20
-131.43
11
90.15
21
-132.03
0
LINE
8
BLACK
6
CONTINUOUS
10
89.85
20
-131.73
11
90.45
21
-131.73
0
LINE
8
BLACK
6
CONTINUOUS
10
93.4071
20
-130.635
11
93.5976
21
-130.635
0
LINE
8
BLACK
6
CONTINUOUS
10
93.5976
20
-130.635
11
93.7881
21
-130.73
0
LINE
8
BLACK
6
CONTINUOUS
10
93.7881
20
-130.73
11
93.8833
21
-130.825
0
LINE
8
BLACK
6
CONTINUOUS
10
93.8833
20
-130.825
11
93.9786
21
-131.016
0
LINE
8
BLACK
6
CONTINUOUS
10
93.9786
20
-131.016
11
94.0738
21
-131.397
0
LINE
8
BLACK
6
CONTINUOUS
10
94.0738
20
-131.397
11
94.0738
21
-131.873
0
LINE
8
BLACK
6
CONTINUOUS
10
94.0738
20
-131.873
11
93.9786
21
-132.254
0
LINE
8
BLACK
6
CONTINUOUS
10
93.9786
20
-132.254
11
93.8833
21
-132.444
0
LINE
8
BLACK
6
CONTINUOUS
10
93.8833
20
-132.444
11
93.7881
21
-132.54
0
LINE
8
BLACK
6
CONTINUOUS
10
93.7881
20
-132.54
11
93.5976
21
-132.635
0
LINE
8
BLACK
6
CONTINUOUS
10
93.5976
20
-132.635
11
93.4071
21
-132.635
0
LINE
8
BLACK
6
CONTINUOUS
10
93.4071
20
-132.635
11
93.2167
21
-132.54
0
LINE
8
BLACK
6
CONTINUOUS
10
93.2167
20
-132.54
11
93.1214
21
-132.444
0
LINE
8
BLACK
6
CONTINUOUS
10
93.1214
20
-132.444
11
93.0262
21
-132.254
0
LINE
8
BLACK
6
CONTINUOUS
10
93.0262
20
-132.254
11
92.931
21
-131.873
0
LINE
8
BLACK
6
CONTINUOUS
10
92.931
20
-131.873
11
92.931
21
-131.397
0
LINE
8
BLACK
6
CONTINUOUS
10
92.931
20
-131.397
11
93.0262
21
-131.016
0
LINE
8
BLACK
6
CONTINUOUS
10
93.0262
20
-131.016
11
93.1214
21
-130.825
0
LINE
8
BLACK
6
CONTINUOUS
10
93.1214
20
-130.825
11
93.2167
21
-130.73
0
LINE
8
BLACK
6
CONTINUOUS
10
93.2167
20
-130.73
11
93.4071
21
-130.635
0
LINE
8
BLACK
6
CONTINUOUS
10
94.931
20
-132.444
11
95.0262
21
-132.54
0
LINE
8
BLACK
6
CONTINUOUS
10
95.0262
20
-132.54
11
94.931
21
-132.635
0
LINE
8
BLACK
6
CONTINUOUS
10
94.931
20
-132.635
11
94.8357
21
-132.54
0
LINE
8
BLACK
6
CONTINUOUS
10
94.8357
20
-132.54
11
94.931
21
-132.444
0
LINE
8
BLACK
6
CONTINUOUS
10
94.931
20
-132.444
11
94.931
21
-132.635
0
LINE
8
BLACK
6
CONTINUOUS
10
96.7405
20
-130.635
11
96.3595
21
-130.635
0
LINE
8
BLACK
6
CONTINUOUS
10
96.3595
20
-130.635
11
96.169
21
-130.73
0
LINE
8
BLACK
6
CONTINUOUS
10
96.169
20
-130.73
11
96.0738
21
-130.825
0
LINE
8
BLACK
6
CONTINUOUS
10
96.0738
20
-130.825
11
95.8833
21
-131.111
0
LINE
8
BLACK
6
CONTINUOUS
10
95.8833
20
-131.111
11
95.7881
21
-131.492
0
LINE
8
BLACK
6
CONTINUOUS
10
95.7881
20
-131.492
11
95.7881
21
-132.254
0
LINE
8
BLACK
6
CONTINUOUS
10
95.7881
20
-132.254
11
95.8833
21
-132.444
0
LINE
8
BLACK
6
CONTINUOUS
10
95.8833
20
-132.444
11
95.9786
21
-132.54
0
LINE
8
BLACK
6
CONTINUOUS
10
95.9786
20
-132.54
11
96.169
21
-132.635
0
LINE
8
BLACK
6
CONTINUOUS
10
96.169
20
-132.635
11
96.55
21
-132.635
0
LINE
8
BLACK
6
CONTINUOUS
10
96.55
20
-132.635
11
96.7405
21
-132.54
0
LINE
8
BLACK
6
CONTINUOUS
10
96.7405
20
-132.54
11
96.8357
21
-132.444
0
LINE
8
BLACK
6
CONTINUOUS
10
96.8357
20
-132.444
11
96.931
21
-132.254
0
LINE
8
BLACK
6
CONTINUOUS
10
96.931
20
-132.254
11
96.931
21
-131.778
0
LINE
8
BLACK
6
CONTINUOUS
10
96.931
20
-131.778
11
96.8357
21
-131.587
0
LINE
8
BLACK
6
CONTINUOUS
10
96.8357
20
-131.587
11
96.7405
21
-131.492
0
LINE
8
BLACK
6
CONTINUOUS
10
96.7405
20
-131.492
11
96.55
21
-131.397
0
LINE
8
BLACK
6
CONTINUOUS
10
96.55
20
-131.397
11
96.169
21
-131.397
0
LINE
8
BLACK
6
CONTINUOUS
10
96.169
20
-131.397
11
95.9786
21
-131.492
0
LINE
8
BLACK
6
CONTINUOUS
10
95.9786
20
-131.492
11
95.8833
21
-131.587
0
LINE
8
BLACK
6
CONTINUOUS
10
95.8833
20
-131.587
11
95.7881
21
-131.778
0
LINE
8
BLACK
6
CONTINUOUS
10
98.169
20
-130.635
11
98.3595
21
-130.635
0
LINE
8
BLACK
6
CONTINUOUS
10
98.3595
20
-130.635
11
98.55
21
-130.73
0
LINE
8
BLACK
6
CONTINUOUS
10
98.55
20
-130.73
11
98.6452
21
-130.825
0
LINE
8
BLACK
6
CONTINUOUS
10
98.6452
20
-130.825
11
98.7405
21
-131.016
0
LINE
8
BLACK
6
CONTINUOUS
10
98.7405
20
-131.016
11
98.8357
21
-131.397
0
LINE
8
BLACK
6
CONTINUOUS
10
98.8357
20
-131.397
11
98.8357
21
-131.873
0
LINE
8
BLACK
6
CONTINUOUS
10
98.8357
20
-131.873
11
98.7405
21
-132.254
0
LINE
8
BLACK
6
CONTINUOUS
10
98.7405
20
-132.254
11
98.6452
21
-132.444
0
LINE
8
BLACK
6
CONTINUOUS
10
98.6452
20
-132.444
11
98.55
21
-132.54
0
LINE
8
BLACK
6
CONTINUOUS
10
98.55
20
-132.54
11
98.3595
21
-132.635
0
LINE
8
BLACK
6
CONTINUOUS
10
98.3595
20
-132.635
11
98.169
21
-132.635
0
LINE
8
BLACK
6
CONTINUOUS
10
98.169
20
-132.635
11
97.9786
21
-132.54
0
LINE
8
BLACK
6
CONTINUOUS
10
97.9786
20
-132.54
11
97.8833
21
-132.444
0
LINE
8
BLACK
6
CONTINUOUS
10
97.8833
20
-132.444
11
97.7881
21
-132.254
0
LINE
8
BLACK
6
CONTINUOUS
10
97.7881
20
-132.254
11
97.6929
21
-131.873
0
LINE
8
BLACK
6
CONTINUOUS
10
97.6929
20
-131.873
11
97.6929
21
-131.397
0
LINE
8
BLACK
6
CONTINUOUS
10
97.6929
20
-131.397
11
97.7881
21
-131.016
0
LINE
8
BLACK
6
CONTINUOUS
10
97.7881
20
-131.016
11
97.8833
21
-130.825
0
LINE
8
BLACK
6
CONTINUOUS
10
97.8833
20
-130.825
11
97.9786
21
-130.73
0
LINE
8
BLACK
6
CONTINUOUS
10
97.9786
20
-130.73
11
98.169
21
-130.635
0
LINE
8
BLACK
6
CONTINUOUS
10
100.074
20
-130.635
11
100.264
21
-130.635
0
LINE
8
BLACK
6
CONTINUOUS
10
100.264
20
-130.635
11
100.455
21
-130.73
0
LINE
8
BLACK
6
CONTINUOUS
10
100.455
20
-130.73
11
100.55
21
-130.825
0
LINE
8
BLACK
6
CONTINUOUS
10
100.55
20
-130.825
11
100.645
21
-131.016
0
LINE
8
BLACK
6
CONTINUOUS
10
100.645
20
-131.016
11
100.74
21
-131.397
0
LINE
8
BLACK
6
CONTINUOUS
10
100.74
20
-131.397
11
100.74
21
-131.873
0
LINE
8
BLACK
6
CONTINUOUS
10
100.74
20
-131.873
11
100.645
21
-132.254
0
LINE
8
BLACK
6
CONTINUOUS
10
100.645
20
-132.254
11
100.55
21
-132.444
0
LINE
8
BLACK
6
CONTINUOUS
10
100.55
20
-132.444
11
100.455
21
-132.54
0
LINE
8
BLACK
6
CONTINUOUS
10
100.455
20
-132.54
11
100.264
21
-132.635
0
LINE
8
BLACK
6
CONTINUOUS
10
100.264
20
-132.635
11
100.074
21
-132.635
0
LINE
8
BLACK
6
CONTINUOUS
10
100.074
20
-132.635
11
99.8833
21
-132.54
0
LINE
8
BLACK
6
CONTINUOUS
10
99.8833
20
-132.54
11
99.7881
21
-132.444
0
LINE
8
BLACK
6
CONTINUOUS
10
99.7881
20
-132.444
11
99.6929
21
-132.254
0
LINE
8
BLACK
6
CONTINUOUS
10
99.6929
20
-132.254
11
99.5976
21
-131.873
0
LINE
8
BLACK
6
CONTINUOUS
10
99.5976
20
-131.873
11
99.5976
21
-131.397
0
LINE
8
BLACK
6
CONTINUOUS
10
99.5976
20
-131.397
11
99.6929
21
-131.016
0
LINE
8
BLACK
6
CONTINUOUS
10
99.6929
20
-131.016
11
99.7881
21
-130.825
0
LINE
8
BLACK
6
CONTINUOUS
10
99.7881
20
-130.825
11
99.8833
21
-130.73
0
LINE
8
BLACK
6
CONTINUOUS
10
99.8833
20
-130.73
11
100.074
21
-130.635
0
LINE
8
BLACK
6
CONTINUOUS
10
101.598
20
-132.635
11
101.598
21
-131.301
0
LINE
8
BLACK
6
CONTINUOUS
10
101.598
20
-131.492
11
101.693
21
-131.397
0
LINE
8
BLACK
6
CONTINUOUS
10
101.693
20
-131.397
11
101.883
21
-131.301
0
LINE
8
BLACK
6
CONTINUOUS
10
101.883
20
-131.301
11
102.169
21
-131.301
0
LINE
8
BLACK
6
CONTINUOUS
10
102.169
20
-131.301
11
102.36
21
-131.397
0
LINE
8
BLACK
6
CONTINUOUS
10
102.36
20
-131.397
11
102.455
21
-131.587
0
LINE
8
BLACK
6
CONTINUOUS
10
102.455
20
-131.587
11
102.455
21
-132.635
0
LINE
8
BLACK
6
CONTINUOUS
10
102.455
20
-131.587
11
102.55
21
-131.397
0
LINE
8
BLACK
6
CONTINUOUS
10
102.55
20
-131.397
11
102.74
21
-131.301
0
LINE
8
BLACK
6
CONTINUOUS
10
102.74
20
-131.301
11
103.026
21
-131.301
0
LINE
8
BLACK
6
CONTINUOUS
10
103.026
20
-131.301
11
103.217
21
-131.397
0
LINE
8
BLACK
6
CONTINUOUS
10
103.217
20
-131.397
11
103.312
21
-131.587
0
LINE
8
BLACK
6
CONTINUOUS
10
103.312
20
-131.587
11
103.312
21
-132.635
0
LINE
8
BLACK
6
CONTINUOUS
10
104.264
20
-132.635
11
104.264
21
-131.301
0
LINE
8
BLACK
6
CONTINUOUS
10
104.264
20
-131.492
11
104.36
21
-131.397
0
LINE
8
BLACK
6
CONTINUOUS
10
104.36
20
-131.397
11
104.55
21
-131.301
0
LINE
8
BLACK
6
CONTINUOUS
10
104.55
20
-131.301
11
104.836
21
-131.301
0
LINE
8
BLACK
6
CONTINUOUS
10
104.836
20
-131.301
11
105.026
21
-131.397
0
LINE
8
BLACK
6
CONTINUOUS
10
105.026
20
-131.397
11
105.121
21
-131.587
0
LINE
8
BLACK
6
CONTINUOUS
10
105.121
20
-131.587
11
105.121
21
-132.635
0
LINE
8
BLACK
6
CONTINUOUS
10
105.121
20
-131.587
11
105.217
21
-131.397
0
LINE
8
BLACK
6
CONTINUOUS
10
105.217
20
-131.397
11
105.407
21
-131.301
0
LINE
8
BLACK
6
CONTINUOUS
10
105.407
20
-131.301
11
105.693
21
-131.301
0
LINE
8
BLACK
6
CONTINUOUS
10
105.693
20
-131.301
11
105.883
21
-131.397
0
LINE
8
BLACK
6
CONTINUOUS
10
105.883
20
-131.397
11
105.979
21
-131.587
0
LINE
8
BLACK
6
CONTINUOUS
10
105.979
20
-131.587
11
105.979
21
-132.635
0
LINE
8
BLACK
6
CONTINUOUS
10
109.883
20
-130.54
11
108.169
21
-133.111
0
LINE
8
BLACK
6
CONTINUOUS
10
112.455
20
-130.635
11
112.645
21
-130.635
0
LINE
8
BLACK
6
CONTINUOUS
10
112.645
20
-130.635
11
112.836
21
-130.73
0
LINE
8
BLACK
6
CONTINUOUS
10
112.836
20
-130.73
11
112.931
21
-130.825
0
LINE
8
BLACK
6
CONTINUOUS
10
112.931
20
-130.825
11
113.026
21
-131.016
0
LINE
8
BLACK
6
CONTINUOUS
10
113.026
20
-131.016
11
113.121
21
-131.397
0
LINE
8
BLACK
6
CONTINUOUS
10
113.121
20
-131.397
11
113.121
21
-131.873
0
LINE
8
BLACK
6
CONTINUOUS
10
113.121
20
-131.873
11
113.026
21
-132.254
0
LINE
8
BLACK
6
CONTINUOUS
10
113.026
20
-132.254
11
112.931
21
-132.444
0
LINE
8
BLACK
6
CONTINUOUS
10
112.931
20
-132.444
11
112.836
21
-132.54
0
LINE
8
BLACK
6
CONTINUOUS
10
112.836
20
-132.54
11
112.645
21
-132.635
0
LINE
8
BLACK
6
CONTINUOUS
10
112.645
20
-132.635
11
112.455
21
-132.635
0
LINE
8
BLACK
6
CONTINUOUS
10
112.455
20
-132.635
11
112.264
21
-132.54
0
LINE
8
BLACK
6
CONTINUOUS
10
112.264
20
-132.54
11
112.169
21
-132.444
0
LINE
8
BLACK
6
CONTINUOUS
10
112.169
20
-132.444
11
112.074
21
-132.254
0
LINE
8
BLACK
6
CONTINUOUS
10
112.074
20
-132.254
11
111.979
21
-131.873
0
LINE
8
BLACK
6
CONTINUOUS
10
111.979
20
-131.873
11
111.979
21
-131.397
0
LINE
8
BLACK
6
CONTINUOUS
10
111.979
20
-131.397
11
112.074
21
-131.016
0
LINE
8
BLACK
6
CONTINUOUS
10
112.074
20
-131.016
11
112.169
21
-130.825
0
LINE
8
BLACK
6
CONTINUOUS
10
112.169
20
-130.825
11
112.264
21
-130.73
0
LINE
8
BLACK
6
CONTINUOUS
10
112.264
20
-130.73
11
112.455
21
-130.635
0
LINE
8
BLACK
6
CONTINUOUS
10
113.979
20
-132.444
11
114.074
21
-132.54
0
LINE
8
BLACK
6
CONTINUOUS
10
114.074
20
-132.54
11
113.979
21
-132.635
0
LINE
8
BLACK
6
CONTINUOUS
10
113.979
20
-132.635
11
113.883
21
-132.54
0
LINE
8
BLACK
6
CONTINUOUS
10
113.883
20
-132.54
11
113.979
21
-132.444
0
LINE
8
BLACK
6
CONTINUOUS
10
113.979
20
-132.444
11
113.979
21
-132.635
0
LINE
8
BLACK
6
CONTINUOUS
10
115.312
20
-130.635
11
115.502
21
-130.635
0
LINE
8
BLACK
6
CONTINUOUS
10
115.502
20
-130.635
11
115.693
21
-130.73
0
LINE
8
BLACK
6
CONTINUOUS
10
115.693
20
-130.73
11
115.788
21
-130.825
0
LINE
8
BLACK
6
CONTINUOUS
10
115.788
20
-130.825
11
115.883
21
-131.016
0
LINE
8
BLACK
6
CONTINUOUS
10
115.883
20
-131.016
11
115.979
21
-131.397
0
LINE
8
BLACK
6
CONTINUOUS
10
115.979
20
-131.397
11
115.979
21
-131.873
0
LINE
8
BLACK
6
CONTINUOUS
10
115.979
20
-131.873
11
115.883
21
-132.254
0
LINE
8
BLACK
6
CONTINUOUS
10
115.883
20
-132.254
11
115.788
21
-132.444
0
LINE
8
BLACK
6
CONTINUOUS
10
115.788
20
-132.444
11
115.693
21
-132.54
0
LINE
8
BLACK
6
CONTINUOUS
10
115.693
20
-132.54
11
115.502
21
-132.635
0
LINE
8
BLACK
6
CONTINUOUS
10
115.502
20
-132.635
11
115.312
21
-132.635
0
LINE
8
BLACK
6
CONTINUOUS
10
115.312
20
-132.635
11
115.121
21
-132.54
0
LINE
8
BLACK
6
CONTINUOUS
10
115.121
20
-132.54
11
115.026
21
-132.444
0
LINE
8
BLACK
6
CONTINUOUS
10
115.026
20
-132.444
11
114.931
21
-132.254
0
LINE
8
BLACK
6
CONTINUOUS
10
114.931
20
-132.254
11
114.836
21
-131.873
0
LINE
8
BLACK
6
CONTINUOUS
10
114.836
20
-131.873
11
114.836
21
-131.397
0
LINE
8
BLACK
6
CONTINUOUS
10
114.836
20
-131.397
11
114.931
21
-131.016
0
LINE
8
BLACK
6
CONTINUOUS
10
114.931
20
-131.016
11
115.026
21
-130.825
0
LINE
8
BLACK
6
CONTINUOUS
10
115.026
20
-130.825
11
115.121
21
-130.73
0
LINE
8
BLACK
6
CONTINUOUS
10
115.121
20
-130.73
11
115.312
21
-130.635
0
LINE
8
BLACK
6
CONTINUOUS
10
116.74
20
-130.825
11
116.836
21
-130.73
0
LINE
8
BLACK
6
CONTINUOUS
10
116.836
20
-130.73
11
117.026
21
-130.635
0
LINE
8
BLACK
6
CONTINUOUS
10
117.026
20
-130.635
11
117.502
21
-130.635
0
LINE
8
BLACK
6
CONTINUOUS
10
117.502
20
-130.635
11
117.693
21
-130.73
0
LINE
8
BLACK
6
CONTINUOUS
10
117.693
20
-130.73
11
117.788
21
-130.825
0
LINE
8
BLACK
6
CONTINUOUS
10
117.788
20
-130.825
11
117.883
21
-131.016
0
LINE
8
BLACK
6
CONTINUOUS
10
117.883
20
-131.016
11
117.883
21
-131.206
0
LINE
8
BLACK
6
CONTINUOUS
10
117.883
20
-131.206
11
117.788
21
-131.492
0
LINE
8
BLACK
6
CONTINUOUS
10
117.788
20
-131.492
11
116.645
21
-132.635
0
LINE
8
BLACK
6
CONTINUOUS
10
116.645
20
-132.635
11
117.883
21
-132.635
0
LINE
8
BLACK
6
CONTINUOUS
10
118.55
20
-130.635
11
119.788
21
-130.635
0
LINE
8
BLACK
6
CONTINUOUS
10
119.788
20
-130.635
11
119.121
21
-131.397
0
LINE
8
BLACK
6
CONTINUOUS
10
119.121
20
-131.397
11
119.407
21
-131.397
0
LINE
8
BLACK
6
CONTINUOUS
10
119.407
20
-131.397
11
119.598
21
-131.492
0
LINE
8
BLACK
6
CONTINUOUS
10
119.598
20
-131.492
11
119.693
21
-131.587
0
LINE
8
BLACK
6
CONTINUOUS
10
119.693
20
-131.587
11
119.788
21
-131.778
0
LINE
8
BLACK
6
CONTINUOUS
10
119.788
20
-131.778
11
119.788
21
-132.254
0
LINE
8
BLACK
6
CONTINUOUS
10
119.788
20
-132.254
11
119.693
21
-132.444
0
LINE
8
BLACK
6
CONTINUOUS
10
119.693
20
-132.444
11
119.598
21
-132.54
0
LINE
8
BLACK
6
CONTINUOUS
10
119.598
20
-132.54
11
119.407
21
-132.635
0
LINE
8
BLACK
6
CONTINUOUS
10
119.407
20
-132.635
11
118.836
21
-132.635
0
LINE
8
BLACK
6
CONTINUOUS
10
118.836
20
-132.635
11
118.645
21
-132.54
0
LINE
8
BLACK
6
CONTINUOUS
10
118.645
20
-132.54
11
118.55
21
-132.444
0
LINE
8
BLACK
6
CONTINUOUS
10
121.502
20
-130.635
11
121.121
21
-130.635
0
LINE
8
BLACK
6
CONTINUOUS
10
121.121
20
-130.635
11
120.931
21
-130.73
0
LINE
8
BLACK
6
CONTINUOUS
10
120.931
20
-130.73
11
120.836
21
-130.825
0
LINE
8
BLACK
6
CONTINUOUS
10
120.836
20
-130.825
11
120.645
21
-131.111
0
LINE
8
BLACK
6
CONTINUOUS
10
120.645
20
-131.111
11
120.55
21
-131.492
0
LINE
8
BLACK
6
CONTINUOUS
10
120.55
20
-131.492
11
120.55
21
-132.254
0
LINE
8
BLACK
6
CONTINUOUS
10
120.55
20
-132.254
11
120.645
21
-132.444
0
LINE
8
BLACK
6
CONTINUOUS
10
120.645
20
-132.444
11
120.74
21
-132.54
0
LINE
8
BLACK
6
CONTINUOUS
10
120.74
20
-132.54
11
120.931
21
-132.635
0
LINE
8
BLACK
6
CONTINUOUS
10
120.931
20
-132.635
11
121.312
21
-132.635
0
LINE
8
BLACK
6
CONTINUOUS
10
121.312
20
-132.635
11
121.502
21
-132.54
0
LINE
8
BLACK
6
CONTINUOUS
10
121.502
20
-132.54
11
121.598
21
-132.444
0
LINE
8
BLACK
6
CONTINUOUS
10
121.598
20
-132.444
11
121.693
21
-132.254
0
LINE
8
BLACK
6
CONTINUOUS
10
121.693
20
-132.254
11
121.693
21
-131.778
0
LINE
8
BLACK
6
CONTINUOUS
10
121.693
20
-131.778
11
121.598
21
-131.587
0
LINE
8
BLACK
6
CONTINUOUS
10
121.598
20
-131.587
11
121.502
21
-131.492
0
LINE
8
BLACK
6
CONTINUOUS
10
121.502
20
-131.492
11
121.312
21
-131.397
0
LINE
8
BLACK
6
CONTINUOUS
10
121.312
20
-131.397
11
120.931
21
-131.397
0
LINE
8
BLACK
6
CONTINUOUS
10
120.931
20
-131.397
11
120.74
21
-131.492
0
LINE
8
BLACK
6
CONTINUOUS
10
120.74
20
-131.492
11
120.645
21
-131.587
0
LINE
8
BLACK
6
CONTINUOUS
10
120.645
20
-131.587
11
120.55
21
-131.778
0
LINE
8
BLACK
6
CONTINUOUS
10
122.455
20
-130.635
11
122.455
21
-131.016
0
LINE
8
BLACK
6
CONTINUOUS
10
123.217
20
-130.635
11
123.217
21
-131.016
0
LINE
8
BLACK
6
CONTINUOUS
10
126.169
20
-133.397
11
126.074
21
-133.301
0
LINE
8
BLACK
6
CONTINUOUS
10
126.074
20
-133.301
11
125.883
21
-133.016
0
LINE
8
BLACK
6
CONTINUOUS
10
125.883
20
-133.016
11
125.788
21
-132.825
0
LINE
8
BLACK
6
CONTINUOUS
10
125.788
20
-132.825
11
125.693
21
-132.54
0
LINE
8
BLACK
6
CONTINUOUS
10
125.693
20
-132.54
11
125.598
21
-132.063
0
LINE
8
BLACK
6
CONTINUOUS
10
125.598
20
-132.063
11
125.598
21
-131.682
0
LINE
8
BLACK
6
CONTINUOUS
10
125.598
20
-131.682
11
125.693
21
-131.206
0
LINE
8
BLACK
6
CONTINUOUS
10
125.693
20
-131.206
11
125.788
21
-130.92
0
LINE
8
BLACK
6
CONTINUOUS
10
125.788
20
-130.92
11
125.883
21
-130.73
0
LINE
8
BLACK
6
CONTINUOUS
10
125.883
20
-130.73
11
126.074
21
-130.444
0
LINE
8
BLACK
6
CONTINUOUS
10
126.074
20
-130.444
11
126.169
21
-130.349
0
LINE
8
BLACK
6
CONTINUOUS
10
127.979
20
-132.635
11
126.836
21
-132.635
0
LINE
8
BLACK
6
CONTINUOUS
10
127.407
20
-132.635
11
127.407
21
-130.635
0
LINE
8
BLACK
6
CONTINUOUS
10
127.407
20
-130.635
11
127.217
21
-130.92
0
LINE
8
BLACK
6
CONTINUOUS
10
127.217
20
-130.92
11
127.026
21
-131.111
0
LINE
8
BLACK
6
CONTINUOUS
10
127.026
20
-131.111
11
126.836
21
-131.206
0
LINE
8
BLACK
6
CONTINUOUS
10
129.693
20
-131.301
11
129.693
21
-132.635
0
LINE
8
BLACK
6
CONTINUOUS
10
129.217
20
-130.54
11
128.74
21
-131.968
0
LINE
8
BLACK
6
CONTINUOUS
10
128.74
20
-131.968
11
129.979
21
-131.968
0
LINE
8
BLACK
6
CONTINUOUS
10
132.264
20
-132.635
11
132.264
21
-130.635
0
LINE
8
BLACK
6
CONTINUOUS
10
133.121
20
-132.635
11
133.121
21
-131.587
0
LINE
8
BLACK
6
CONTINUOUS
10
133.121
20
-131.587
11
133.026
21
-131.397
0
LINE
8
BLACK
6
CONTINUOUS
10
133.026
20
-131.397
11
132.836
21
-131.301
0
LINE
8
BLACK
6
CONTINUOUS
10
132.836
20
-131.301
11
132.55
21
-131.301
0
LINE
8
BLACK
6
CONTINUOUS
10
132.55
20
-131.301
11
132.36
21
-131.397
0
LINE
8
BLACK
6
CONTINUOUS
10
132.36
20
-131.397
11
132.264
21
-131.492
0
LINE
8
BLACK
6
CONTINUOUS
10
134.36
20
-132.635
11
134.169
21
-132.54
0
LINE
8
BLACK
6
CONTINUOUS
10
134.169
20
-132.54
11
134.074
21
-132.444
0
LINE
8
BLACK
6
CONTINUOUS
10
134.074
20
-132.444
11
133.979
21
-132.254
0
LINE
8
BLACK
6
CONTINUOUS
10
133.979
20
-132.254
11
133.979
21
-131.682
0
LINE
8
BLACK
6
CONTINUOUS
10
133.979
20
-131.682
11
134.074
21
-131.492
0
LINE
8
BLACK
6
CONTINUOUS
10
134.074
20
-131.492
11
134.169
21
-131.397
0
LINE
8
BLACK
6
CONTINUOUS
10
134.169
20
-131.397
11
134.36
21
-131.301
0
LINE
8
BLACK
6
CONTINUOUS
10
134.36
20
-131.301
11
134.645
21
-131.301
0
LINE
8
BLACK
6
CONTINUOUS
10
134.645
20
-131.301
11
134.836
21
-131.397
0
LINE
8
BLACK
6
CONTINUOUS
10
134.836
20
-131.397
11
134.931
21
-131.492
0
LINE
8
BLACK
6
CONTINUOUS
10
134.931
20
-131.492
11
135.026
21
-131.682
0
LINE
8
BLACK
6
CONTINUOUS
10
135.026
20
-131.682
11
135.026
21
-132.254
0
LINE
8
BLACK
6
CONTINUOUS
10
135.026
20
-132.254
11
134.931
21
-132.444
0
LINE
8
BLACK
6
CONTINUOUS
10
134.931
20
-132.444
11
134.836
21
-132.54
0
LINE
8
BLACK
6
CONTINUOUS
10
134.836
20
-132.54
11
134.645
21
-132.635
0
LINE
8
BLACK
6
CONTINUOUS
10
134.645
20
-132.635
11
134.36
21
-132.635
0
LINE
8
BLACK
6
CONTINUOUS
10
136.169
20
-132.635
11
135.979
21
-132.54
0
LINE
8
BLACK
6
CONTINUOUS
10
135.979
20
-132.54
11
135.883
21
-132.349
0
LINE
8
BLACK
6
CONTINUOUS
10
135.883
20
-132.349
11
135.883
21
-130.635
0
LINE
8
BLACK
6
CONTINUOUS
10
137.693
20
-132.54
11
137.502
21
-132.635
0
LINE
8
BLACK
6
CONTINUOUS
10
137.502
20
-132.635
11
137.121
21
-132.635
0
LINE
8
BLACK
6
CONTINUOUS
10
137.121
20
-132.635
11
136.931
21
-132.54
0
LINE
8
BLACK
6
CONTINUOUS
10
136.931
20
-132.54
11
136.836
21
-132.349
0
LINE
8
BLACK
6
CONTINUOUS
10
136.836
20
-132.349
11
136.836
21
-131.587
0
LINE
8
BLACK
6
CONTINUOUS
10
136.836
20
-131.587
11
136.931
21
-131.397
0
LINE
8
BLACK
6
CONTINUOUS
10
136.931
20
-131.397
11
137.121
21
-131.301
0
LINE
8
BLACK
6
CONTINUOUS
10
137.121
20
-131.301
11
137.502
21
-131.301
0
LINE
8
BLACK
6
CONTINUOUS
10
137.502
20
-131.301
11
137.693
21
-131.397
0
LINE
8
BLACK
6
CONTINUOUS
10
137.693
20
-131.397
11
137.788
21
-131.587
0
LINE
8
BLACK
6
CONTINUOUS
10
137.788
20
-131.587
11
137.788
21
-131.778
0
LINE
8
BLACK
6
CONTINUOUS
10
137.788
20
-131.778
11
136.836
21
-131.968
0
LINE
8
BLACK
6
CONTINUOUS
10
138.55
20
-132.54
11
138.74
21
-132.635
0
LINE
8
BLACK
6
CONTINUOUS
10
138.74
20
-132.635
11
139.121
21
-132.635
0
LINE
8
BLACK
6
CONTINUOUS
10
139.121
20
-132.635
11
139.312
21
-132.54
0
LINE
8
BLACK
6
CONTINUOUS
10
139.312
20
-132.54
11
139.407
21
-132.349
0
LINE
8
BLACK
6
CONTINUOUS
10
139.407
20
-132.349
11
139.407
21
-132.254
0
LINE
8
BLACK
6
CONTINUOUS
10
139.407
20
-132.254
11
139.312
21
-132.063
0
LINE
8
BLACK
6
CONTINUOUS
10
139.312
20
-132.063
11
139.121
21
-131.968
0
LINE
8
BLACK
6
CONTINUOUS
10
139.121
20
-131.968
11
138.836
21
-131.968
0
LINE
8
BLACK
6
CONTINUOUS
10
138.836
20
-131.968
11
138.645
21
-131.873
0
LINE
8
BLACK
6
CONTINUOUS
10
138.645
20
-131.873
11
138.55
21
-131.682
0
LINE
8
BLACK
6
CONTINUOUS
10
138.55
20
-131.682
11
138.55
21
-131.587
0
LINE
8
BLACK
6
CONTINUOUS
10
138.55
20
-131.587
11
138.645
21
-131.397
0
LINE
8
BLACK
6
CONTINUOUS
10
138.645
20
-131.397
11
138.836
21
-131.301
0
LINE
8
BLACK
6
CONTINUOUS
10
138.836
20
-131.301
11
139.121
21
-131.301
0
LINE
8
BLACK
6
CONTINUOUS
10
139.121
20
-131.301
11
139.312
21
-131.397
0
LINE
8
BLACK
6
CONTINUOUS
10
140.074
20
-133.397
11
140.169
21
-133.301
0
LINE
8
BLACK
6
CONTINUOUS
10
140.169
20
-133.301
11
140.36
21
-133.016
0
LINE
8
BLACK
6
CONTINUOUS
10
140.36
20
-133.016
11
140.455
21
-132.825
0
LINE
8
BLACK
6
CONTINUOUS
10
140.455
20
-132.825
11
140.55
21
-132.54
0
LINE
8
BLACK
6
CONTINUOUS
10
140.55
20
-132.54
11
140.645
21
-132.063
0
LINE
8
BLACK
6
CONTINUOUS
10
140.645
20
-132.063
11
140.645
21
-131.682
0
LINE
8
BLACK
6
CONTINUOUS
10
140.645
20
-131.682
11
140.55
21
-131.206
0
LINE
8
BLACK
6
CONTINUOUS
10
140.55
20
-131.206
11
140.455
21
-130.92
0
LINE
8
BLACK
6
CONTINUOUS
10
140.455
20
-130.92
11
140.36
21
-130.73
0
LINE
8
BLACK
6
CONTINUOUS
10
140.36
20
-130.73
11
140.169
21
-130.444
0
LINE
8
BLACK
6
CONTINUOUS
10
140.169
20
-130.444
11
140.074
21
-130.349
0
LINE
8
BLACK
6
CONTINUOUS
10
90.3475
20
-134.617
11
90.3475
21
-134.123
0
LINE
8
BLACK
6
CONTINUOUS
10
90.3475
20
-134.123
11
89.8525
21
-134.123
0
LINE
8
BLACK
6
CONTINUOUS
10
89.8525
20
-134.123
11
89.8525
21
-134.617
0
LINE
8
BLACK
6
CONTINUOUS
10
89.8525
20
-134.617
11
90.3475
21
-134.617
0
LINE
8
BLACK
6
CONTINUOUS
10
93.4071
20
-133.275
11
93.5976
21
-133.275
0
LINE
8
BLACK
6
CONTINUOUS
10
93.5976
20
-133.275
11
93.7881
21
-133.37
0
LINE
8
BLACK
6
CONTINUOUS
10
93.7881
20
-133.37
11
93.8833
21
-133.465
0
LINE
8
BLACK
6
CONTINUOUS
10
93.8833
20
-133.465
11
93.9786
21
-133.656
0
LINE
8
BLACK
6
CONTINUOUS
10
93.9786
20
-133.656
11
94.0738
21
-134.037
0
LINE
8
BLACK
6
CONTINUOUS
10
94.0738
20
-134.037
11
94.0738
21
-134.513
0
LINE
8
BLACK
6
CONTINUOUS
10
94.0738
20
-134.513
11
93.9786
21
-134.894
0
LINE
8
BLACK
6
CONTINUOUS
10
93.9786
20
-134.894
11
93.8833
21
-135.084
0
LINE
8
BLACK
6
CONTINUOUS
10
93.8833
20
-135.084
11
93.7881
21
-135.18
0
LINE
8
BLACK
6
CONTINUOUS
10
93.7881
20
-135.18
11
93.5976
21
-135.275
0
LINE
8
BLACK
6
CONTINUOUS
10
93.5976
20
-135.275
11
93.4071
21
-135.275
0
LINE
8
BLACK
6
CONTINUOUS
10
93.4071
20
-135.275
11
93.2167
21
-135.18
0
LINE
8
BLACK
6
CONTINUOUS
10
93.2167
20
-135.18
11
93.1214
21
-135.084
0
LINE
8
BLACK
6
CONTINUOUS
10
93.1214
20
-135.084
11
93.0262
21
-134.894
0
LINE
8
BLACK
6
CONTINUOUS
10
93.0262
20
-134.894
11
92.931
21
-134.513
0
LINE
8
BLACK
6
CONTINUOUS
10
92.931
20
-134.513
11
92.931
21
-134.037
0
LINE
8
BLACK
6
CONTINUOUS
10
92.931
20
-134.037
11
93.0262
21
-133.656
0
LINE
8
BLACK
6
CONTINUOUS
10
93.0262
20
-133.656
11
93.1214
21
-133.465
0
LINE
8
BLACK
6
CONTINUOUS
10
93.1214
20
-133.465
11
93.2167
21
-133.37
0
LINE
8
BLACK
6
CONTINUOUS
10
93.2167
20
-133.37
11
93.4071
21
-133.275
0
LINE
8
BLACK
6
CONTINUOUS
10
94.931
20
-135.084
11
95.0262
21
-135.18
0
LINE
8
BLACK
6
CONTINUOUS
10
95.0262
20
-135.18
11
94.931
21
-135.275
0
LINE
8
BLACK
6
CONTINUOUS
10
94.931
20
-135.275
11
94.8357
21
-135.18
0
LINE
8
BLACK
6
CONTINUOUS
10
94.8357
20
-135.18
11
94.931
21
-135.084
0
LINE
8
BLACK
6
CONTINUOUS
10
94.931
20
-135.084
11
94.931
21
-135.275
0
LINE
8
BLACK
6
CONTINUOUS
10
95.6929
20
-133.275
11
97.0262
21
-133.275
0
LINE
8
BLACK
6
CONTINUOUS
10
97.0262
20
-133.275
11
96.169
21
-135.275
0
LINE
8
BLACK
6
CONTINUOUS
10
98.169
20
-133.275
11
98.3595
21
-133.275
0
LINE
8
BLACK
6
CONTINUOUS
10
98.3595
20
-133.275
11
98.55
21
-133.37
0
LINE
8
BLACK
6
CONTINUOUS
10
98.55
20
-133.37
11
98.6452
21
-133.465
0
LINE
8
BLACK
6
CONTINUOUS
10
98.6452
20
-133.465
11
98.7405
21
-133.656
0
LINE
8
BLACK
6
CONTINUOUS
10
98.7405
20
-133.656
11
98.8357
21
-134.037
0
LINE
8
BLACK
6
CONTINUOUS
10
98.8357
20
-134.037
11
98.8357
21
-134.513
0
LINE
8
BLACK
6
CONTINUOUS
10
98.8357
20
-134.513
11
98.7405
21
-134.894
0
LINE
8
BLACK
6
CONTINUOUS
10
98.7405
20
-134.894
11
98.6452
21
-135.084
0
LINE
8
BLACK
6
CONTINUOUS
10
98.6452
20
-135.084
11
98.55
21
-135.18
0
LINE
8
BLACK
6
CONTINUOUS
10
98.55
20
-135.18
11
98.3595
21
-135.275
0
LINE
8
BLACK
6
CONTINUOUS
10
98.3595
20
-135.275
11
98.169
21
-135.275
0
LINE
8
BLACK
6
CONTINUOUS
10
98.169
20
-135.275
11
97.9786
21
-135.18
0
LINE
8
BLACK
6
CONTINUOUS
10
97.9786
20
-135.18
11
97.8833
21
-135.084
0
LINE
8
BLACK
6
CONTINUOUS
10
97.8833
20
-135.084
11
97.7881
21
-134.894
0
LINE
8
BLACK
6
CONTINUOUS
10
97.7881
20
-134.894
11
97.6929
21
-134.513
0
LINE
8
BLACK
6
CONTINUOUS
10
97.6929
20
-134.513
11
97.6929
21
-134.037
0
LINE
8
BLACK
6
CONTINUOUS
10
97.6929
20
-134.037
11
97.7881
21
-133.656
0
LINE
8
BLACK
6
CONTINUOUS
10
97.7881
20
-133.656
11
97.8833
21
-133.465
0
LINE
8
BLACK
6
CONTINUOUS
10
97.8833
20
-133.465
11
97.9786
21
-133.37
0
LINE
8
BLACK
6
CONTINUOUS
10
97.9786
20
-133.37
11
98.169
21
-133.275
0
LINE
8
BLACK
6
CONTINUOUS
10
100.074
20
-133.275
11
100.264
21
-133.275
0
LINE
8
BLACK
6
CONTINUOUS
10
100.264
20
-133.275
11
100.455
21
-133.37
0
LINE
8
BLACK
6
CONTINUOUS
10
100.455
20
-133.37
11
100.55
21
-133.465
0
LINE
8
BLACK
6
CONTINUOUS
10
100.55
20
-133.465
11
100.645
21
-133.656
0
LINE
8
BLACK
6
CONTINUOUS
10
100.645
20
-133.656
11
100.74
21
-134.037
0
LINE
8
BLACK
6
CONTINUOUS
10
100.74
20
-134.037
11
100.74
21
-134.513
0
LINE
8
BLACK
6
CONTINUOUS
10
100.74
20
-134.513
11
100.645
21
-134.894
0
LINE
8
BLACK
6
CONTINUOUS
10
100.645
20
-134.894
11
100.55
21
-135.084
0
LINE
8
BLACK
6
CONTINUOUS
10
100.55
20
-135.084
11
100.455
21
-135.18
0
LINE
8
BLACK
6
CONTINUOUS
10
100.455
20
-135.18
11
100.264
21
-135.275
0
LINE
8
BLACK
6
CONTINUOUS
10
100.264
20
-135.275
11
100.074
21
-135.275
0
LINE
8
BLACK
6
CONTINUOUS
10
100.074
20
-135.275
11
99.8833
21
-135.18
0
LINE
8
BLACK
6
CONTINUOUS
10
99.8833
20
-135.18
11
99.7881
21
-135.084
0
LINE
8
BLACK
6
CONTINUOUS
10
99.7881
20
-135.084
11
99.6929
21
-134.894
0
LINE
8
BLACK
6
CONTINUOUS
10
99.6929
20
-134.894
11
99.5976
21
-134.513
0
LINE
8
BLACK
6
CONTINUOUS
10
99.5976
20
-134.513
11
99.5976
21
-134.037
0
LINE
8
BLACK
6
CONTINUOUS
10
99.5976
20
-134.037
11
99.6929
21
-133.656
0
LINE
8
BLACK
6
CONTINUOUS
10
99.6929
20
-133.656
11
99.7881
21
-133.465
0
LINE
8
BLACK
6
CONTINUOUS
10
99.7881
20
-133.465
11
99.8833
21
-133.37
0
LINE
8
BLACK
6
CONTINUOUS
10
99.8833
20
-133.37
11
100.074
21
-133.275
0
LINE
8
BLACK
6
CONTINUOUS
10
101.598
20
-135.275
11
101.598
21
-133.941
0
LINE
8
BLACK
6
CONTINUOUS
10
101.598
20
-134.132
11
101.693
21
-134.037
0
LINE
8
BLACK
6
CONTINUOUS
10
101.693
20
-134.037
11
101.883
21
-133.941
0
LINE
8
BLACK
6
CONTINUOUS
10
101.883
20
-133.941
11
102.169
21
-133.941
0
LINE
8
BLACK
6
CONTINUOUS
10
102.169
20
-133.941
11
102.36
21
-134.037
0
LINE
8
BLACK
6
CONTINUOUS
10
102.36
20
-134.037
11
102.455
21
-134.227
0
LINE
8
BLACK
6
CONTINUOUS
10
102.455
20
-134.227
11
102.455
21
-135.275
0
LINE
8
BLACK
6
CONTINUOUS
10
102.455
20
-134.227
11
102.55
21
-134.037
0
LINE
8
BLACK
6
CONTINUOUS
10
102.55
20
-134.037
11
102.74
21
-133.941
0
LINE
8
BLACK
6
CONTINUOUS
10
102.74
20
-133.941
11
103.026
21
-133.941
0
LINE
8
BLACK
6
CONTINUOUS
10
103.026
20
-133.941
11
103.217
21
-134.037
0
LINE
8
BLACK
6
CONTINUOUS
10
103.217
20
-134.037
11
103.312
21
-134.227
0
LINE
8
BLACK
6
CONTINUOUS
10
103.312
20
-134.227
11
103.312
21
-135.275
0
LINE
8
BLACK
6
CONTINUOUS
10
104.264
20
-135.275
11
104.264
21
-133.941
0
LINE
8
BLACK
6
CONTINUOUS
10
104.264
20
-134.132
11
104.36
21
-134.037
0
LINE
8
BLACK
6
CONTINUOUS
10
104.36
20
-134.037
11
104.55
21
-133.941
0
LINE
8
BLACK
6
CONTINUOUS
10
104.55
20
-133.941
11
104.836
21
-133.941
0
LINE
8
BLACK
6
CONTINUOUS
10
104.836
20
-133.941
11
105.026
21
-134.037
0
LINE
8
BLACK
6
CONTINUOUS
10
105.026
20
-134.037
11
105.121
21
-134.227
0
LINE
8
BLACK
6
CONTINUOUS
10
105.121
20
-134.227
11
105.121
21
-135.275
0
LINE
8
BLACK
6
CONTINUOUS
10
105.121
20
-134.227
11
105.217
21
-134.037
0
LINE
8
BLACK
6
CONTINUOUS
10
105.217
20
-134.037
11
105.407
21
-133.941
0
LINE
8
BLACK
6
CONTINUOUS
10
105.407
20
-133.941
11
105.693
21
-133.941
0
LINE
8
BLACK
6
CONTINUOUS
10
105.693
20
-133.941
11
105.883
21
-134.037
0
LINE
8
BLACK
6
CONTINUOUS
10
105.883
20
-134.037
11
105.979
21
-134.227
0
LINE
8
BLACK
6
CONTINUOUS
10
105.979
20
-134.227
11
105.979
21
-135.275
0
LINE
8
BLACK
6
CONTINUOUS
10
109.883
20
-133.18
11
108.169
21
-135.751
0
LINE
8
BLACK
6
CONTINUOUS
10
112.455
20
-133.275
11
112.645
21
-133.275
0
LINE
8
BLACK
6
CONTINUOUS
10
112.645
20
-133.275
11
112.836
21
-133.37
0
LINE
8
BLACK
6
CONTINUOUS
10
112.836
20
-133.37
11
112.931
21
-133.465
0
LINE
8
BLACK
6
CONTINUOUS
10
112.931
20
-133.465
11
113.026
21
-133.656
0
LINE
8
BLACK
6
CONTINUOUS
10
113.026
20
-133.656
11
113.121
21
-134.037
0
LINE
8
BLACK
6
CONTINUOUS
10
113.121
20
-134.037
11
113.121
21
-134.513
0
LINE
8
BLACK
6
CONTINUOUS
10
113.121
20
-134.513
11
113.026
21
-134.894
0
LINE
8
BLACK
6
CONTINUOUS
10
113.026
20
-134.894
11
112.931
21
-135.084
0
LINE
8
BLACK
6
CONTINUOUS
10
112.931
20
-135.084
11
112.836
21
-135.18
0
LINE
8
BLACK
6
CONTINUOUS
10
112.836
20
-135.18
11
112.645
21
-135.275
0
LINE
8
BLACK
6
CONTINUOUS
10
112.645
20
-135.275
11
112.455
21
-135.275
0
LINE
8
BLACK
6
CONTINUOUS
10
112.455
20
-135.275
11
112.264
21
-135.18
0
LINE
8
BLACK
6
CONTINUOUS
10
112.264
20
-135.18
11
112.169
21
-135.084
0
LINE
8
BLACK
6
CONTINUOUS
10
112.169
20
-135.084
11
112.074
21
-134.894
0
LINE
8
BLACK
6
CONTINUOUS
10
112.074
20
-134.894
11
111.979
21
-134.513
0
LINE
8
BLACK
6
CONTINUOUS
10
111.979
20
-134.513
11
111.979
21
-134.037
0
LINE
8
BLACK
6
CONTINUOUS
10
111.979
20
-134.037
11
112.074
21
-133.656
0
LINE
8
BLACK
6
CONTINUOUS
10
112.074
20
-133.656
11
112.169
21
-133.465
0
LINE
8
BLACK
6
CONTINUOUS
10
112.169
20
-133.465
11
112.264
21
-133.37
0
LINE
8
BLACK
6
CONTINUOUS
10
112.264
20
-133.37
11
112.455
21
-133.275
0
LINE
8
BLACK
6
CONTINUOUS
10
113.979
20
-135.084
11
114.074
21
-135.18
0
LINE
8
BLACK
6
CONTINUOUS
10
114.074
20
-135.18
11
113.979
21
-135.275
0
LINE
8
BLACK
6
CONTINUOUS
10
113.979
20
-135.275
11
113.883
21
-135.18
0
LINE
8
BLACK
6
CONTINUOUS
10
113.883
20
-135.18
11
113.979
21
-135.084
0
LINE
8
BLACK
6
CONTINUOUS
10
113.979
20
-135.084
11
113.979
21
-135.275
0
LINE
8
BLACK
6
CONTINUOUS
10
115.312
20
-133.275
11
115.502
21
-133.275
0
LINE
8
BLACK
6
CONTINUOUS
10
115.502
20
-133.275
11
115.693
21
-133.37
0
LINE
8
BLACK
6
CONTINUOUS
10
115.693
20
-133.37
11
115.788
21
-133.465
0
LINE
8
BLACK
6
CONTINUOUS
10
115.788
20
-133.465
11
115.883
21
-133.656
0
LINE
8
BLACK
6
CONTINUOUS
10
115.883
20
-133.656
11
115.979
21
-134.037
0
LINE
8
BLACK
6
CONTINUOUS
10
115.979
20
-134.037
11
115.979
21
-134.513
0
LINE
8
BLACK
6
CONTINUOUS
10
115.979
20
-134.513
11
115.883
21
-134.894
0
LINE
8
BLACK
6
CONTINUOUS
10
115.883
20
-134.894
11
115.788
21
-135.084
0
LINE
8
BLACK
6
CONTINUOUS
10
115.788
20
-135.084
11
115.693
21
-135.18
0
LINE
8
BLACK
6
CONTINUOUS
10
115.693
20
-135.18
11
115.502
21
-135.275
0
LINE
8
BLACK
6
CONTINUOUS
10
115.502
20
-135.275
11
115.312
21
-135.275
0
LINE
8
BLACK
6
CONTINUOUS
10
115.312
20
-135.275
11
115.121
21
-135.18
0
LINE
8
BLACK
6
CONTINUOUS
10
115.121
20
-135.18
11
115.026
21
-135.084
0
LINE
8
BLACK
6
CONTINUOUS
10
115.026
20
-135.084
11
114.931
21
-134.894
0
LINE
8
BLACK
6
CONTINUOUS
10
114.931
20
-134.894
11
114.836
21
-134.513
0
LINE
8
BLACK
6
CONTINUOUS
10
114.836
20
-134.513
11
114.836
21
-134.037
0
LINE
8
BLACK
6
CONTINUOUS
10
114.836
20
-134.037
11
114.931
21
-133.656
0
LINE
8
BLACK
6
CONTINUOUS
10
114.931
20
-133.656
11
115.026
21
-133.465
0
LINE
8
BLACK
6
CONTINUOUS
10
115.026
20
-133.465
11
115.121
21
-133.37
0
LINE
8
BLACK
6
CONTINUOUS
10
115.121
20
-133.37
11
115.312
21
-133.275
0
LINE
8
BLACK
6
CONTINUOUS
10
116.74
20
-133.465
11
116.836
21
-133.37
0
LINE
8
BLACK
6
CONTINUOUS
10
116.836
20
-133.37
11
117.026
21
-133.275
0
LINE
8
BLACK
6
CONTINUOUS
10
117.026
20
-133.275
11
117.502
21
-133.275
0
LINE
8
BLACK
6
CONTINUOUS
10
117.502
20
-133.275
11
117.693
21
-133.37
0
LINE
8
BLACK
6
CONTINUOUS
10
117.693
20
-133.37
11
117.788
21
-133.465
0
LINE
8
BLACK
6
CONTINUOUS
10
117.788
20
-133.465
11
117.883
21
-133.656
0
LINE
8
BLACK
6
CONTINUOUS
10
117.883
20
-133.656
11
117.883
21
-133.846
0
LINE
8
BLACK
6
CONTINUOUS
10
117.883
20
-133.846
11
117.788
21
-134.132
0
LINE
8
BLACK
6
CONTINUOUS
10
117.788
20
-134.132
11
116.645
21
-135.275
0
LINE
8
BLACK
6
CONTINUOUS
10
116.645
20
-135.275
11
117.883
21
-135.275
0
LINE
8
BLACK
6
CONTINUOUS
10
118.55
20
-133.275
11
119.883
21
-133.275
0
LINE
8
BLACK
6
CONTINUOUS
10
119.883
20
-133.275
11
119.026
21
-135.275
0
LINE
8
BLACK
6
CONTINUOUS
10
121.502
20
-133.275
11
121.121
21
-133.275
0
LINE
8
BLACK
6
CONTINUOUS
10
121.121
20
-133.275
11
120.931
21
-133.37
0
LINE
8
BLACK
6
CONTINUOUS
10
120.931
20
-133.37
11
120.836
21
-133.465
0
LINE
8
BLACK
6
CONTINUOUS
10
120.836
20
-133.465
11
120.645
21
-133.751
0
LINE
8
BLACK
6
CONTINUOUS
10
120.645
20
-133.751
11
120.55
21
-134.132
0
LINE
8
BLACK
6
CONTINUOUS
10
120.55
20
-134.132
11
120.55
21
-134.894
0
LINE
8
BLACK
6
CONTINUOUS
10
120.55
20
-134.894
11
120.645
21
-135.084
0
LINE
8
BLACK
6
CONTINUOUS
10
120.645
20
-135.084
11
120.74
21
-135.18
0
LINE
8
BLACK
6
CONTINUOUS
10
120.74
20
-135.18
11
120.931
21
-135.275
0
LINE
8
BLACK
6
CONTINUOUS
10
120.931
20
-135.275
11
121.312
21
-135.275
0
LINE
8
BLACK
6
CONTINUOUS
10
121.312
20
-135.275
11
121.502
21
-135.18
0
LINE
8
BLACK
6
CONTINUOUS
10
121.502
20
-135.18
11
121.598
21
-135.084
0
LINE
8
BLACK
6
CONTINUOUS
10
121.598
20
-135.084
11
121.693
21
-134.894
0
LINE
8
BLACK
6
CONTINUOUS
10
121.693
20
-134.894
11
121.693
21
-134.418
0
LINE
8
BLACK
6
CONTINUOUS
10
121.693
20
-134.418
11
121.598
21
-134.227
0
LINE
8
BLACK
6
CONTINUOUS
10
121.598
20
-134.227
11
121.502
21
-134.132
0
LINE
8
BLACK
6
CONTINUOUS
10
121.502
20
-134.132
11
121.312
21
-134.037
0
LINE
8
BLACK
6
CONTINUOUS
10
121.312
20
-134.037
11
120.931
21
-134.037
0
LINE
8
BLACK
6
CONTINUOUS
10
120.931
20
-134.037
11
120.74
21
-134.132
0
LINE
8
BLACK
6
CONTINUOUS
10
120.74
20
-134.132
11
120.645
21
-134.227
0
LINE
8
BLACK
6
CONTINUOUS
10
120.645
20
-134.227
11
120.55
21
-134.418
0
LINE
8
BLACK
6
CONTINUOUS
10
122.455
20
-133.275
11
122.455
21
-133.656
0
LINE
8
BLACK
6
CONTINUOUS
10
123.217
20
-133.275
11
123.217
21
-133.656
0
LINE
8
BLACK
6
CONTINUOUS
10
126.169
20
-136.037
11
126.074
21
-135.941
0
LINE
8
BLACK
6
CONTINUOUS
10
126.074
20
-135.941
11
125.883
21
-135.656
0
LINE
8
BLACK
6
CONTINUOUS
10
125.883
20
-135.656
11
125.788
21
-135.465
0
LINE
8
BLACK
6
CONTINUOUS
10
125.788
20
-135.465
11
125.693
21
-135.18
0
LINE
8
BLACK
6
CONTINUOUS
10
125.693
20
-135.18
11
125.598
21
-134.703
0
LINE
8
BLACK
6
CONTINUOUS
10
125.598
20
-134.703
11
125.598
21
-134.322
0
LINE
8
BLACK
6
CONTINUOUS
10
125.598
20
-134.322
11
125.693
21
-133.846
0
LINE
8
BLACK
6
CONTINUOUS
10
125.693
20
-133.846
11
125.788
21
-133.56
0
LINE
8
BLACK
6
CONTINUOUS
10
125.788
20
-133.56
11
125.883
21
-133.37
0
LINE
8
BLACK
6
CONTINUOUS
10
125.883
20
-133.37
11
126.074
21
-133.084
0
LINE
8
BLACK
6
CONTINUOUS
10
126.074
20
-133.084
11
126.169
21
-132.989
0
LINE
8
BLACK
6
CONTINUOUS
10
126.74
20
-133.275
11
127.979
21
-133.275
0
LINE
8
BLACK
6
CONTINUOUS
10
127.979
20
-133.275
11
127.312
21
-134.037
0
LINE
8
BLACK
6
CONTINUOUS
10
127.312
20
-134.037
11
127.598
21
-134.037
0
LINE
8
BLACK
6
CONTINUOUS
10
127.598
20
-134.037
11
127.788
21
-134.132
0
LINE
8
BLACK
6
CONTINUOUS
10
127.788
20
-134.132
11
127.883
21
-134.227
0
LINE
8
BLACK
6
CONTINUOUS
10
127.883
20
-134.227
11
127.979
21
-134.418
0
LINE
8
BLACK
6
CONTINUOUS
10
127.979
20
-134.418
11
127.979
21
-134.894
0
LINE
8
BLACK
6
CONTINUOUS
10
127.979
20
-134.894
11
127.883
21
-135.084
0
LINE
8
BLACK
6
CONTINUOUS
10
127.883
20
-135.084
11
127.788
21
-135.18
0
LINE
8
BLACK
6
CONTINUOUS
10
127.788
20
-135.18
11
127.598
21
-135.275
0
LINE
8
BLACK
6
CONTINUOUS
10
127.598
20
-135.275
11
127.026
21
-135.275
0
LINE
8
BLACK
6
CONTINUOUS
10
127.026
20
-135.275
11
126.836
21
-135.18
0
LINE
8
BLACK
6
CONTINUOUS
10
126.836
20
-135.18
11
126.74
21
-135.084
0
LINE
8
BLACK
6
CONTINUOUS
10
130.36
20
-135.275
11
130.36
21
-133.275
0
LINE
8
BLACK
6
CONTINUOUS
10
131.217
20
-135.275
11
131.217
21
-134.227
0
LINE
8
BLACK
6
CONTINUOUS
10
131.217
20
-134.227
11
131.121
21
-134.037
0
LINE
8
BLACK
6
CONTINUOUS
10
131.121
20
-134.037
11
130.931
21
-133.941
0
LINE
8
BLACK
6
CONTINUOUS
10
130.931
20
-133.941
11
130.645
21
-133.941
0
LINE
8
BLACK
6
CONTINUOUS
10
130.645
20
-133.941
11
130.455
21
-134.037
0
LINE
8
BLACK
6
CONTINUOUS
10
130.455
20
-134.037
11
130.36
21
-134.132
0
LINE
8
BLACK
6
CONTINUOUS
10
132.455
20
-135.275
11
132.264
21
-135.18
0
LINE
8
BLACK
6
CONTINUOUS
10
132.264
20
-135.18
11
132.169
21
-135.084
0
LINE
8
BLACK
6
CONTINUOUS
10
132.169
20
-135.084
11
132.074
21
-134.894
0
LINE
8
BLACK
6
CONTINUOUS
10
132.074
20
-134.894
11
132.074
21
-134.322
0
LINE
8
BLACK
6
CONTINUOUS
10
132.074
20
-134.322
11
132.169
21
-134.132
0
LINE
8
BLACK
6
CONTINUOUS
10
132.169
20
-134.132
11
132.264
21
-134.037
0
LINE
8
BLACK
6
CONTINUOUS
10
132.264
20
-134.037
11
132.455
21
-133.941
0
LINE
8
BLACK
6
CONTINUOUS
10
132.455
20
-133.941
11
132.74
21
-133.941
0
LINE
8
BLACK
6
CONTINUOUS
10
132.74
20
-133.941
11
132.931
21
-134.037
0
LINE
8
BLACK
6
CONTINUOUS
10
132.931
20
-134.037
11
133.026
21
-134.132
0
LINE
8
BLACK
6
CONTINUOUS
10
133.026
20
-134.132
11
133.121
21
-134.322
0
LINE
8
BLACK
6
CONTINUOUS
10
133.121
20
-134.322
11
133.121
21
-134.894
0
LINE
8
BLACK
6
CONTINUOUS
10
133.121
20
-134.894
11
133.026
21
-135.084
0
LINE
8
BLACK
6
CONTINUOUS
10
133.026
20
-135.084
11
132.931
21
-135.18
0
LINE
8
BLACK
6
CONTINUOUS
10
132.931
20
-135.18
11
132.74
21
-135.275
0
LINE
8
BLACK
6
CONTINUOUS
10
132.74
20
-135.275
11
132.455
21
-135.275
0
LINE
8
BLACK
6
CONTINUOUS
10
134.264
20
-135.275
11
134.074
21
-135.18
0
LINE
8
BLACK
6
CONTINUOUS
10
134.074
20
-135.18
11
133.979
21
-134.989
0
LINE
8
BLACK
6
CONTINUOUS
10
133.979
20
-134.989
11
133.979
21
-133.275
0
LINE
8
BLACK
6
CONTINUOUS
10
135.788
20
-135.18
11
135.598
21
-135.275
0
LINE
8
BLACK
6
CONTINUOUS
10
135.598
20
-135.275
11
135.217
21
-135.275
0
LINE
8
BLACK
6
CONTINUOUS
10
135.217
20
-135.275
11
135.026
21
-135.18
0
LINE
8
BLACK
6
CONTINUOUS
10
135.026
20
-135.18
11
134.931
21
-134.989
0
LINE
8
BLACK
6
CONTINUOUS
10
134.931
20
-134.989
11
134.931
21
-134.227
0
LINE
8
BLACK
6
CONTINUOUS
10
134.931
20
-134.227
11
135.026
21
-134.037
0
LINE
8
BLACK
6
CONTINUOUS
10
135.026
20
-134.037
11
135.217
21
-133.941
0
LINE
8
BLACK
6
CONTINUOUS
10
135.217
20
-133.941
11
135.598
21
-133.941
0
LINE
8
BLACK
6
CONTINUOUS
10
135.598
20
-133.941
11
135.788
21
-134.037
0
LINE
8
BLACK
6
CONTINUOUS
10
135.788
20
-134.037
11
135.883
21
-134.227
0
LINE
8
BLACK
6
CONTINUOUS
10
135.883
20
-134.227
11
135.883
21
-134.418
0
LINE
8
BLACK
6
CONTINUOUS
10
135.883
20
-134.418
11
134.931
21
-134.608
0
LINE
8
BLACK
6
CONTINUOUS
10
136.645
20
-135.18
11
136.836
21
-135.275
0
LINE
8
BLACK
6
CONTINUOUS
10
136.836
20
-135.275
11
137.217
21
-135.275
0
LINE
8
BLACK
6
CONTINUOUS
10
137.217
20
-135.275
11
137.407
21
-135.18
0
LINE
8
BLACK
6
CONTINUOUS
10
137.407
20
-135.18
11
137.502
21
-134.989
0
LINE
8
BLACK
6
CONTINUOUS
10
137.502
20
-134.989
11
137.502
21
-134.894
0
LINE
8
BLACK
6
CONTINUOUS
10
137.502
20
-134.894
11
137.407
21
-134.703
0
LINE
8
BLACK
6
CONTINUOUS
10
137.407
20
-134.703
11
137.217
21
-134.608
0
LINE
8
BLACK
6
CONTINUOUS
10
137.217
20
-134.608
11
136.931
21
-134.608
0
LINE
8
BLACK
6
CONTINUOUS
10
136.931
20
-134.608
11
136.74
21
-134.513
0
LINE
8
BLACK
6
CONTINUOUS
10
136.74
20
-134.513
11
136.645
21
-134.322
0
LINE
8
BLACK
6
CONTINUOUS
10
136.645
20
-134.322
11
136.645
21
-134.227
0
LINE
8
BLACK
6
CONTINUOUS
10
136.645
20
-134.227
11
136.74
21
-134.037
0
LINE
8
BLACK
6
CONTINUOUS
10
136.74
20
-134.037
11
136.931
21
-133.941
0
LINE
8
BLACK
6
CONTINUOUS
10
136.931
20
-133.941
11
137.217
21
-133.941
0
LINE
8
BLACK
6
CONTINUOUS
10
137.217
20
-133.941
11
137.407
21
-134.037
0
LINE
8
BLACK
6
CONTINUOUS
10
138.169
20
-136.037
11
138.264
21
-135.941
0
LINE
8
BLACK
6
CONTINUOUS
10
138.264
20
-135.941
11
138.455
21
-135.656
0
LINE
8
BLACK
6
CONTINUOUS
10
138.455
20
-135.656
11
138.55
21
-135.465
0
LINE
8
BLACK
6
CONTINUOUS
10
138.55
20
-135.465
11
138.645
21
-135.18
0
LINE
8
BLACK
6
CONTINUOUS
10
138.645
20
-135.18
11
138.74
21
-134.703
0
LINE
8
BLACK
6
CONTINUOUS
10
138.74
20
-134.703
11
138.74
21
-134.322
0
LINE
8
BLACK
6
CONTINUOUS
10
138.74
20
-134.322
11
138.645
21
-133.846
0
LINE
8
BLACK
6
CONTINUOUS
10
138.645
20
-133.846
11
138.55
21
-133.56
0
LINE
8
BLACK
6
CONTINUOUS
10
138.55
20
-133.56
11
138.455
21
-133.37
0
LINE
8
BLACK
6
CONTINUOUS
10
138.455
20
-133.37
11
138.264
21
-133.084
0
LINE
8
BLACK
6
CONTINUOUS
10
138.264
20
-133.084
11
138.169
21
-132.989
0
LINE
8
BLACK
6
CONTINUOUS
10
90.05
20
-137.41
11
90.45
21
-137.01
0
LINE
8
BLACK
6
CONTINUOUS
10
90.45
20
-137.01
11
90.05
21
-136.61
0
LINE
8
BLACK
6
CONTINUOUS
10
90.05
20
-136.61
11
89.65
21
-137.01
0
LINE
8
BLACK
6
CONTINUOUS
10
89.65
20
-137.01
11
90.05
21
-137.41
0
LINE
8
BLACK
6
CONTINUOUS
10
93.4071
20
-135.915
11
93.5976
21
-135.915
0
LINE
8
BLACK
6
CONTINUOUS
10
93.5976
20
-135.915
11
93.7881
21
-136.01
0
LINE
8
BLACK
6
CONTINUOUS
10
93.7881
20
-136.01
11
93.8833
21
-136.105
0
LINE
8
BLACK
6
CONTINUOUS
10
93.8833
20
-136.105
11
93.9786
21
-136.296
0
LINE
8
BLACK
6
CONTINUOUS
10
93.9786
20
-136.296
11
94.0738
21
-136.677
0
LINE
8
BLACK
6
CONTINUOUS
10
94.0738
20
-136.677
11
94.0738
21
-137.153
0
LINE
8
BLACK
6
CONTINUOUS
10
94.0738
20
-137.153
11
93.9786
21
-137.534
0
LINE
8
BLACK
6
CONTINUOUS
10
93.9786
20
-137.534
11
93.8833
21
-137.724
0
LINE
8
BLACK
6
CONTINUOUS
10
93.8833
20
-137.724
11
93.7881
21
-137.82
0
LINE
8
BLACK
6
CONTINUOUS
10
93.7881
20
-137.82
11
93.5976
21
-137.915
0
LINE
8
BLACK
6
CONTINUOUS
10
93.5976
20
-137.915
11
93.4071
21
-137.915
0
LINE
8
BLACK
6
CONTINUOUS
10
93.4071
20
-137.915
11
93.2167
21
-137.82
0
LINE
8
BLACK
6
CONTINUOUS
10
93.2167
20
-137.82
11
93.1214
21
-137.724
0
LINE
8
BLACK
6
CONTINUOUS
10
93.1214
20
-137.724
11
93.0262
21
-137.534
0
LINE
8
BLACK
6
CONTINUOUS
10
93.0262
20
-137.534
11
92.931
21
-137.153
0
LINE
8
BLACK
6
CONTINUOUS
10
92.931
20
-137.153
11
92.931
21
-136.677
0
LINE
8
BLACK
6
CONTINUOUS
10
92.931
20
-136.677
11
93.0262
21
-136.296
0
LINE
8
BLACK
6
CONTINUOUS
10
93.0262
20
-136.296
11
93.1214
21
-136.105
0
LINE
8
BLACK
6
CONTINUOUS
10
93.1214
20
-136.105
11
93.2167
21
-136.01
0
LINE
8
BLACK
6
CONTINUOUS
10
93.2167
20
-136.01
11
93.4071
21
-135.915
0
LINE
8
BLACK
6
CONTINUOUS
10
94.931
20
-137.724
11
95.0262
21
-137.82
0
LINE
8
BLACK
6
CONTINUOUS
10
95.0262
20
-137.82
11
94.931
21
-137.915
0
LINE
8
BLACK
6
CONTINUOUS
10
94.931
20
-137.915
11
94.8357
21
-137.82
0
LINE
8
BLACK
6
CONTINUOUS
10
94.8357
20
-137.82
11
94.931
21
-137.724
0
LINE
8
BLACK
6
CONTINUOUS
10
94.931
20
-137.724
11
94.931
21
-137.915
0
LINE
8
BLACK
6
CONTINUOUS
10
96.169
20
-136.772
11
95.9786
21
-136.677
0
LINE
8
BLACK
6
CONTINUOUS
10
95.9786
20
-136.677
11
95.8833
21
-136.581
0
LINE
8
BLACK
6
CONTINUOUS
10
95.8833
20
-136.581
11
95.7881
21
-136.391
0
LINE
8
BLACK
6
CONTINUOUS
10
95.7881
20
-136.391
11
95.7881
21
-136.296
0
LINE
8
BLACK
6
CONTINUOUS
10
95.7881
20
-136.296
11
95.8833
21
-136.105
0
LINE
8
BLACK
6
CONTINUOUS
10
95.8833
20
-136.105
11
95.9786
21
-136.01
0
LINE
8
BLACK
6
CONTINUOUS
10
95.9786
20
-136.01
11
96.169
21
-135.915
0
LINE
8
BLACK
6
CONTINUOUS
10
96.169
20
-135.915
11
96.55
21
-135.915
0
LINE
8
BLACK
6
CONTINUOUS
10
96.55
20
-135.915
11
96.7405
21
-136.01
0
LINE
8
BLACK
6
CONTINUOUS
10
96.7405
20
-136.01
11
96.8357
21
-136.105
0
LINE
8
BLACK
6
CONTINUOUS
10
96.8357
20
-136.105
11
96.931
21
-136.296
0
LINE
8
BLACK
6
CONTINUOUS
10
96.931
20
-136.296
11
96.931
21
-136.391
0
LINE
8
BLACK
6
CONTINUOUS
10
96.931
20
-136.391
11
96.8357
21
-136.581
0
LINE
8
BLACK
6
CONTINUOUS
10
96.8357
20
-136.581
11
96.7405
21
-136.677
0
LINE
8
BLACK
6
CONTINUOUS
10
96.7405
20
-136.677
11
96.55
21
-136.772
0
LINE
8
BLACK
6
CONTINUOUS
10
96.55
20
-136.772
11
96.169
21
-136.772
0
LINE
8
BLACK
6
CONTINUOUS
10
96.169
20
-136.772
11
95.9786
21
-136.867
0
LINE
8
BLACK
6
CONTINUOUS
10
95.9786
20
-136.867
11
95.8833
21
-136.962
0
LINE
8
BLACK
6
CONTINUOUS
10
95.8833
20
-136.962
11
95.7881
21
-137.153
0
LINE
8
BLACK
6
CONTINUOUS
10
95.7881
20
-137.153
11
95.7881
21
-137.534
0
LINE
8
BLACK
6
CONTINUOUS
10
95.7881
20
-137.534
11
95.8833
21
-137.724
0
LINE
8
BLACK
6
CONTINUOUS
10
95.8833
20
-137.724
11
95.9786
21
-137.82
0
LINE
8
BLACK
6
CONTINUOUS
10
95.9786
20
-137.82
11
96.169
21
-137.915
0
LINE
8
BLACK
6
CONTINUOUS
10
96.169
20
-137.915
11
96.55
21
-137.915
0
LINE
8
BLACK
6
CONTINUOUS
10
96.55
20
-137.915
11
96.7405
21
-137.82
0
LINE
8
BLACK
6
CONTINUOUS
10
96.7405
20
-137.82
11
96.8357
21
-137.724
0
LINE
8
BLACK
6
CONTINUOUS
10
96.8357
20
-137.724
11
96.931
21
-137.534
0
LINE
8
BLACK
6
CONTINUOUS
10
96.931
20
-137.534
11
96.931
21
-137.153
0
LINE
8
BLACK
6
CONTINUOUS
10
96.931
20
-137.153
11
96.8357
21
-136.962
0
LINE
8
BLACK
6
CONTINUOUS
10
96.8357
20
-136.962
11
96.7405
21
-136.867
0
LINE
8
BLACK
6
CONTINUOUS
10
96.7405
20
-136.867
11
96.55
21
-136.772
0
LINE
8
BLACK
6
CONTINUOUS
10
98.169
20
-135.915
11
98.3595
21
-135.915
0
LINE
8
BLACK
6
CONTINUOUS
10
98.3595
20
-135.915
11
98.55
21
-136.01
0
LINE
8
BLACK
6
CONTINUOUS
10
98.55
20
-136.01
11
98.6452
21
-136.105
0
LINE
8
BLACK
6
CONTINUOUS
10
98.6452
20
-136.105
11
98.7405
21
-136.296
0
LINE
8
BLACK
6
CONTINUOUS
10
98.7405
20
-136.296
11
98.8357
21
-136.677
0
LINE
8
BLACK
6
CONTINUOUS
10
98.8357
20
-136.677
11
98.8357
21
-137.153
0
LINE
8
BLACK
6
CONTINUOUS
10
98.8357
20
-137.153
11
98.7405
21
-137.534
0
LINE
8
BLACK
6
CONTINUOUS
10
98.7405
20
-137.534
11
98.6452
21
-137.724
0
LINE
8
BLACK
6
CONTINUOUS
10
98.6452
20
-137.724
11
98.55
21
-137.82
0
LINE
8
BLACK
6
CONTINUOUS
10
98.55
20
-137.82
11
98.3595
21
-137.915
0
LINE
8
BLACK
6
CONTINUOUS
10
98.3595
20
-137.915
11
98.169
21
-137.915
0
LINE
8
BLACK
6
CONTINUOUS
10
98.169
20
-137.915
11
97.9786
21
-137.82
0
LINE
8
BLACK
6
CONTINUOUS
10
97.9786
20
-137.82
11
97.8833
21
-137.724
0
LINE
8
BLACK
6
CONTINUOUS
10
97.8833
20
-137.724
11
97.7881
21
-137.534
0
LINE
8
BLACK
6
CONTINUOUS
10
97.7881
20
-137.534
11
97.6929
21
-137.153
0
LINE
8
BLACK
6
CONTINUOUS
10
97.6929
20
-137.153
11
97.6929
21
-136.677
0
LINE
8
BLACK
6
CONTINUOUS
10
97.6929
20
-136.677
11
97.7881
21
-136.296
0
LINE
8
BLACK
6
CONTINUOUS
10
97.7881
20
-136.296
11
97.8833
21
-136.105
0
LINE
8
BLACK
6
CONTINUOUS
10
97.8833
20
-136.105
11
97.9786
21
-136.01
0
LINE
8
BLACK
6
CONTINUOUS
10
97.9786
20
-136.01
11
98.169
21
-135.915
0
LINE
8
BLACK
6
CONTINUOUS
10
100.074
20
-135.915
11
100.264
21
-135.915
0
LINE
8
BLACK
6
CONTINUOUS
10
100.264
20
-135.915
11
100.455
21
-136.01
0
LINE
8
BLACK
6
CONTINUOUS
10
100.455
20
-136.01
11
100.55
21
-136.105
0
LINE
8
BLACK
6
CONTINUOUS
10
100.55
20
-136.105
11
100.645
21
-136.296
0
LINE
8
BLACK
6
CONTINUOUS
10
100.645
20
-136.296
11
100.74
21
-136.677
0
LINE
8
BLACK
6
CONTINUOUS
10
100.74
20
-136.677
11
100.74
21
-137.153
0
LINE
8
BLACK
6
CONTINUOUS
10
100.74
20
-137.153
11
100.645
21
-137.534
0
LINE
8
BLACK
6
CONTINUOUS
10
100.645
20
-137.534
11
100.55
21
-137.724
0
LINE
8
BLACK
6
CONTINUOUS
10
100.55
20
-137.724
11
100.455
21
-137.82
0
LINE
8
BLACK
6
CONTINUOUS
10
100.455
20
-137.82
11
100.264
21
-137.915
0
LINE
8
BLACK
6
CONTINUOUS
10
100.264
20
-137.915
11
100.074
21
-137.915
0
LINE
8
BLACK
6
CONTINUOUS
10
100.074
20
-137.915
11
99.8833
21
-137.82
0
LINE
8
BLACK
6
CONTINUOUS
10
99.8833
20
-137.82
11
99.7881
21
-137.724
0
LINE
8
BLACK
6
CONTINUOUS
10
99.7881
20
-137.724
11
99.6929
21
-137.534
0
LINE
8
BLACK
6
CONTINUOUS
10
99.6929
20
-137.534
11
99.5976
21
-137.153
0
LINE
8
BLACK
6
CONTINUOUS
10
99.5976
20
-137.153
11
99.5976
21
-136.677
0
LINE
8
BLACK
6
CONTINUOUS
10
99.5976
20
-136.677
11
99.6929
21
-136.296
0
LINE
8
BLACK
6
CONTINUOUS
10
99.6929
20
-136.296
11
99.7881
21
-136.105
0
LINE
8
BLACK
6
CONTINUOUS
10
99.7881
20
-136.105
11
99.8833
21
-136.01
0
LINE
8
BLACK
6
CONTINUOUS
10
99.8833
20
-136.01
11
100.074
21
-135.915
0
LINE
8
BLACK
6
CONTINUOUS
10
101.598
20
-137.915
11
101.598
21
-136.581
0
LINE
8
BLACK
6
CONTINUOUS
10
101.598
20
-136.772
11
101.693
21
-136.677
0
LINE
8
BLACK
6
CONTINUOUS
10
101.693
20
-136.677
11
101.883
21
-136.581
0
LINE
8
BLACK
6
CONTINUOUS
10
101.883
20
-136.581
11
102.169
21
-136.581
0
LINE
8
BLACK
6
CONTINUOUS
10
102.169
20
-136.581
11
102.36
21
-136.677
0
LINE
8
BLACK
6
CONTINUOUS
10
102.36
20
-136.677
11
102.455
21
-136.867
0
LINE
8
BLACK
6
CONTINUOUS
10
102.455
20
-136.867
11
102.455
21
-137.915
0
LINE
8
BLACK
6
CONTINUOUS
10
102.455
20
-136.867
11
102.55
21
-136.677
0
LINE
8
BLACK
6
CONTINUOUS
10
102.55
20
-136.677
11
102.74
21
-136.581
0
LINE
8
BLACK
6
CONTINUOUS
10
102.74
20
-136.581
11
103.026
21
-136.581
0
LINE
8
BLACK
6
CONTINUOUS
10
103.026
20
-136.581
11
103.217
21
-136.677
0
LINE
8
BLACK
6
CONTINUOUS
10
103.217
20
-136.677
11
103.312
21
-136.867
0
LINE
8
BLACK
6
CONTINUOUS
10
103.312
20
-136.867
11
103.312
21
-137.915
0
LINE
8
BLACK
6
CONTINUOUS
10
104.264
20
-137.915
11
104.264
21
-136.581
0
LINE
8
BLACK
6
CONTINUOUS
10
104.264
20
-136.772
11
104.36
21
-136.677
0
LINE
8
BLACK
6
CONTINUOUS
10
104.36
20
-136.677
11
104.55
21
-136.581
0
LINE
8
BLACK
6
CONTINUOUS
10
104.55
20
-136.581
11
104.836
21
-136.581
0
LINE
8
BLACK
6
CONTINUOUS
10
104.836
20
-136.581
11
105.026
21
-136.677
0
LINE
8
BLACK
6
CONTINUOUS
10
105.026
20
-136.677
11
105.121
21
-136.867
0
LINE
8
BLACK
6
CONTINUOUS
10
105.121
20
-136.867
11
105.121
21
-137.915
0
LINE
8
BLACK
6
CONTINUOUS
10
105.121
20
-136.867
11
105.217
21
-136.677
0
LINE
8
BLACK
6
CONTINUOUS
10
105.217
20
-136.677
11
105.407
21
-136.581
0
LINE
8
BLACK
6
CONTINUOUS
10
105.407
20
-136.581
11
105.693
21
-136.581
0
LINE
8
BLACK
6
CONTINUOUS
10
105.693
20
-136.581
11
105.883
21
-136.677
0
LINE
8
BLACK
6
CONTINUOUS
10
105.883
20
-136.677
11
105.979
21
-136.867
0
LINE
8
BLACK
6
CONTINUOUS
10
105.979
20
-136.867
11
105.979
21
-137.915
0
LINE
8
BLACK
6
CONTINUOUS
10
109.883
20
-135.82
11
108.169
21
-138.391
0
LINE
8
BLACK
6
CONTINUOUS
10
112.455
20
-135.915
11
112.645
21
-135.915
0
LINE
8
BLACK
6
CONTINUOUS
10
112.645
20
-135.915
11
112.836
21
-136.01
0
LINE
8
BLACK
6
CONTINUOUS
10
112.836
20
-136.01
11
112.931
21
-136.105
0
LINE
8
BLACK
6
CONTINUOUS
10
112.931
20
-136.105
11
113.026
21
-136.296
0
LINE
8
BLACK
6
CONTINUOUS
10
113.026
20
-136.296
11
113.121
21
-136.677
0
LINE
8
BLACK
6
CONTINUOUS
10
113.121
20
-136.677
11
113.121
21
-137.153
0
LINE
8
BLACK
6
CONTINUOUS
10
113.121
20
-137.153
11
113.026
21
-137.534
0
LINE
8
BLACK
6
CONTINUOUS
10
113.026
20
-137.534
11
112.931
21
-137.724
0
LINE
8
BLACK
6
CONTINUOUS
10
112.931
20
-137.724
11
112.836
21
-137.82
0
LINE
8
BLACK
6
CONTINUOUS
10
112.836
20
-137.82
11
112.645
21
-137.915
0
LINE
8
BLACK
6
CONTINUOUS
10
112.645
20
-137.915
11
112.455
21
-137.915
0
LINE
8
BLACK
6
CONTINUOUS
10
112.455
20
-137.915
11
112.264
21
-137.82
0
LINE
8
BLACK
6
CONTINUOUS
10
112.264
20
-137.82
11
112.169
21
-137.724
0
LINE
8
BLACK
6
CONTINUOUS
10
112.169
20
-137.724
11
112.074
21
-137.534
0
LINE
8
BLACK
6
CONTINUOUS
10
112.074
20
-137.534
11
111.979
21
-137.153
0
LINE
8
BLACK
6
CONTINUOUS
10
111.979
20
-137.153
11
111.979
21
-136.677
0
LINE
8
BLACK
6
CONTINUOUS
10
111.979
20
-136.677
11
112.074
21
-136.296
0
LINE
8
BLACK
6
CONTINUOUS
10
112.074
20
-136.296
11
112.169
21
-136.105
0
LINE
8
BLACK
6
CONTINUOUS
10
112.169
20
-136.105
11
112.264
21
-136.01
0
LINE
8
BLACK
6
CONTINUOUS
10
112.264
20
-136.01
11
112.455
21
-135.915
0
LINE
8
BLACK
6
CONTINUOUS
10
113.979
20
-137.724
11
114.074
21
-137.82
0
LINE
8
BLACK
6
CONTINUOUS
10
114.074
20
-137.82
11
113.979
21
-137.915
0
LINE
8
BLACK
6
CONTINUOUS
10
113.979
20
-137.915
11
113.883
21
-137.82
0
LINE
8
BLACK
6
CONTINUOUS
10
113.883
20
-137.82
11
113.979
21
-137.724
0
LINE
8
BLACK
6
CONTINUOUS
10
113.979
20
-137.724
11
113.979
21
-137.915
0
LINE
8
BLACK
6
CONTINUOUS
10
115.312
20
-135.915
11
115.502
21
-135.915
0
LINE
8
BLACK
6
CONTINUOUS
10
115.502
20
-135.915
11
115.693
21
-136.01
0
LINE
8
BLACK
6
CONTINUOUS
10
115.693
20
-136.01
11
115.788
21
-136.105
0
LINE
8
BLACK
6
CONTINUOUS
10
115.788
20
-136.105
11
115.883
21
-136.296
0
LINE
8
BLACK
6
CONTINUOUS
10
115.883
20
-136.296
11
115.979
21
-136.677
0
LINE
8
BLACK
6
CONTINUOUS
10
115.979
20
-136.677
11
115.979
21
-137.153
0
LINE
8
BLACK
6
CONTINUOUS
10
115.979
20
-137.153
11
115.883
21
-137.534
0
LINE
8
BLACK
6
CONTINUOUS
10
115.883
20
-137.534
11
115.788
21
-137.724
0
LINE
8
BLACK
6
CONTINUOUS
10
115.788
20
-137.724
11
115.693
21
-137.82
0
LINE
8
BLACK
6
CONTINUOUS
10
115.693
20
-137.82
11
115.502
21
-137.915
0
LINE
8
BLACK
6
CONTINUOUS
10
115.502
20
-137.915
11
115.312
21
-137.915
0
LINE
8
BLACK
6
CONTINUOUS
10
115.312
20
-137.915
11
115.121
21
-137.82
0
LINE
8
BLACK
6
CONTINUOUS
10
115.121
20
-137.82
11
115.026
21
-137.724
0
LINE
8
BLACK
6
CONTINUOUS
10
115.026
20
-137.724
11
114.931
21
-137.534
0
LINE
8
BLACK
6
CONTINUOUS
10
114.931
20
-137.534
11
114.836
21
-137.153
0
LINE
8
BLACK
6
CONTINUOUS
10
114.836
20
-137.153
11
114.836
21
-136.677
0
LINE
8
BLACK
6
CONTINUOUS
10
114.836
20
-136.677
11
114.931
21
-136.296
0
LINE
8
BLACK
6
CONTINUOUS
10
114.931
20
-136.296
11
115.026
21
-136.105
0
LINE
8
BLACK
6
CONTINUOUS
10
115.026
20
-136.105
11
115.121
21
-136.01
0
LINE
8
BLACK
6
CONTINUOUS
10
115.121
20
-136.01
11
115.312
21
-135.915
0
LINE
8
BLACK
6
CONTINUOUS
10
116.645
20
-135.915
11
117.883
21
-135.915
0
LINE
8
BLACK
6
CONTINUOUS
10
117.883
20
-135.915
11
117.217
21
-136.677
0
LINE
8
BLACK
6
CONTINUOUS
10
117.217
20
-136.677
11
117.502
21
-136.677
0
LINE
8
BLACK
6
CONTINUOUS
10
117.502
20
-136.677
11
117.693
21
-136.772
0
LINE
8
BLACK
6
CONTINUOUS
10
117.693
20
-136.772
11
117.788
21
-136.867
0
LINE
8
BLACK
6
CONTINUOUS
10
117.788
20
-136.867
11
117.883
21
-137.058
0
LINE
8
BLACK
6
CONTINUOUS
10
117.883
20
-137.058
11
117.883
21
-137.534
0
LINE
8
BLACK
6
CONTINUOUS
10
117.883
20
-137.534
11
117.788
21
-137.724
0
LINE
8
BLACK
6
CONTINUOUS
10
117.788
20
-137.724
11
117.693
21
-137.82
0
LINE
8
BLACK
6
CONTINUOUS
10
117.693
20
-137.82
11
117.502
21
-137.915
0
LINE
8
BLACK
6
CONTINUOUS
10
117.502
20
-137.915
11
116.931
21
-137.915
0
LINE
8
BLACK
6
CONTINUOUS
10
116.931
20
-137.915
11
116.74
21
-137.82
0
LINE
8
BLACK
6
CONTINUOUS
10
116.74
20
-137.82
11
116.645
21
-137.724
0
LINE
8
BLACK
6
CONTINUOUS
10
119.788
20
-137.915
11
118.645
21
-137.915
0
LINE
8
BLACK
6
CONTINUOUS
10
119.217
20
-137.915
11
119.217
21
-135.915
0
LINE
8
BLACK
6
CONTINUOUS
10
119.217
20
-135.915
11
119.026
21
-136.2
0
LINE
8
BLACK
6
CONTINUOUS
10
119.026
20
-136.2
11
118.836
21
-136.391
0
LINE
8
BLACK
6
CONTINUOUS
10
118.836
20
-136.391
11
118.645
21
-136.486
0
LINE
8
BLACK
6
CONTINUOUS
10
121.598
20
-135.915
11
120.645
21
-135.915
0
LINE
8
BLACK
6
CONTINUOUS
10
120.645
20
-135.915
11
120.55
21
-136.867
0
LINE
8
BLACK
6
CONTINUOUS
10
120.55
20
-136.867
11
120.645
21
-136.772
0
LINE
8
BLACK
6
CONTINUOUS
10
120.645
20
-136.772
11
120.836
21
-136.677
0
LINE
8
BLACK
6
CONTINUOUS
10
120.836
20
-136.677
11
121.312
21
-136.677
0
LINE
8
BLACK
6
CONTINUOUS
10
121.312
20
-136.677
11
121.502
21
-136.772
0
LINE
8
BLACK
6
CONTINUOUS
10
121.502
20
-136.772
11
121.598
21
-136.867
0
LINE
8
BLACK
6
CONTINUOUS
10
121.598
20
-136.867
11
121.693
21
-137.058
0
LINE
8
BLACK
6
CONTINUOUS
10
121.693
20
-137.058
11
121.693
21
-137.534
0
LINE
8
BLACK
6
CONTINUOUS
10
121.693
20
-137.534
11
121.598
21
-137.724
0
LINE
8
BLACK
6
CONTINUOUS
10
121.598
20
-137.724
11
121.502
21
-137.82
0
LINE
8
BLACK
6
CONTINUOUS
10
121.502
20
-137.82
11
121.312
21
-137.915
0
LINE
8
BLACK
6
CONTINUOUS
10
121.312
20
-137.915
11
120.836
21
-137.915
0
LINE
8
BLACK
6
CONTINUOUS
10
120.836
20
-137.915
11
120.645
21
-137.82
0
LINE
8
BLACK
6
CONTINUOUS
10
120.645
20
-137.82
11
120.55
21
-137.724
0
LINE
8
BLACK
6
CONTINUOUS
10
122.455
20
-135.915
11
122.455
21
-136.296
0
LINE
8
BLACK
6
CONTINUOUS
10
123.217
20
-135.915
11
123.217
21
-136.296
0
LINE
8
BLACK
6
CONTINUOUS
10
126.169
20
-138.677
11
126.074
21
-138.581
0
LINE
8
BLACK
6
CONTINUOUS
10
126.074
20
-138.581
11
125.883
21
-138.296
0
LINE
8
BLACK
6
CONTINUOUS
10
125.883
20
-138.296
11
125.788
21
-138.105
0
LINE
8
BLACK
6
CONTINUOUS
10
125.788
20
-138.105
11
125.693
21
-137.82
0
LINE
8
BLACK
6
CONTINUOUS
10
125.693
20
-137.82
11
125.598
21
-137.343
0
LINE
8
BLACK
6
CONTINUOUS
10
125.598
20
-137.343
11
125.598
21
-136.962
0
LINE
8
BLACK
6
CONTINUOUS
10
125.598
20
-136.962
11
125.693
21
-136.486
0
LINE
8
BLACK
6
CONTINUOUS
10
125.693
20
-136.486
11
125.788
21
-136.2
0
LINE
8
BLACK
6
CONTINUOUS
10
125.788
20
-136.2
11
125.883
21
-136.01
0
LINE
8
BLACK
6
CONTINUOUS
10
125.883
20
-136.01
11
126.074
21
-135.724
0
LINE
8
BLACK
6
CONTINUOUS
10
126.074
20
-135.724
11
126.169
21
-135.629
0
LINE
8
BLACK
6
CONTINUOUS
10
127.979
20
-137.915
11
126.836
21
-137.915
0
LINE
8
BLACK
6
CONTINUOUS
10
127.407
20
-137.915
11
127.407
21
-135.915
0
LINE
8
BLACK
6
CONTINUOUS
10
127.407
20
-135.915
11
127.217
21
-136.2
0
LINE
8
BLACK
6
CONTINUOUS
10
127.217
20
-136.2
11
127.026
21
-136.391
0
LINE
8
BLACK
6
CONTINUOUS
10
127.026
20
-136.391
11
126.836
21
-136.486
0
LINE
8
BLACK
6
CONTINUOUS
10
130.36
20
-137.915
11
130.36
21
-135.915
0
LINE
8
BLACK
6
CONTINUOUS
10
131.217
20
-137.915
11
131.217
21
-136.867
0
LINE
8
BLACK
6
CONTINUOUS
10
131.217
20
-136.867
11
131.121
21
-136.677
0
LINE
8
BLACK
6
CONTINUOUS
10
131.121
20
-136.677
11
130.931
21
-136.581
0
LINE
8
BLACK
6
CONTINUOUS
10
130.931
20
-136.581
11
130.645
21
-136.581
0
LINE
8
BLACK
6
CONTINUOUS
10
130.645
20
-136.581
11
130.455
21
-136.677
0
LINE
8
BLACK
6
CONTINUOUS
10
130.455
20
-136.677
11
130.36
21
-136.772
0
LINE
8
BLACK
6
CONTINUOUS
10
132.455
20
-137.915
11
132.264
21
-137.82
0
LINE
8
BLACK
6
CONTINUOUS
10
132.264
20
-137.82
11
132.169
21
-137.724
0
LINE
8
BLACK
6
CONTINUOUS
10
132.169
20
-137.724
11
132.074
21
-137.534
0
LINE
8
BLACK
6
CONTINUOUS
10
132.074
20
-137.534
11
132.074
21
-136.962
0
LINE
8
BLACK
6
CONTINUOUS
10
132.074
20
-136.962
11
132.169
21
-136.772
0
LINE
8
BLACK
6
CONTINUOUS
10
132.169
20
-136.772
11
132.264
21
-136.677
0
LINE
8
BLACK
6
CONTINUOUS
10
132.264
20
-136.677
11
132.455
21
-136.581
0
LINE
8
BLACK
6
CONTINUOUS
10
132.455
20
-136.581
11
132.74
21
-136.581
0
LINE
8
BLACK
6
CONTINUOUS
10
132.74
20
-136.581
11
132.931
21
-136.677
0
LINE
8
BLACK
6
CONTINUOUS
10
132.931
20
-136.677
11
133.026
21
-136.772
0
LINE
8
BLACK
6
CONTINUOUS
10
133.026
20
-136.772
11
133.121
21
-136.962
0
LINE
8
BLACK
6
CONTINUOUS
10
133.121
20
-136.962
11
133.121
21
-137.534
0
LINE
8
BLACK
6
CONTINUOUS
10
133.121
20
-137.534
11
133.026
21
-137.724
0
LINE
8
BLACK
6
CONTINUOUS
10
133.026
20
-137.724
11
132.931
21
-137.82
0
LINE
8
BLACK
6
CONTINUOUS
10
132.931
20
-137.82
11
132.74
21
-137.915
0
LINE
8
BLACK
6
CONTINUOUS
10
132.74
20
-137.915
11
132.455
21
-137.915
0
LINE
8
BLACK
6
CONTINUOUS
10
134.264
20
-137.915
11
134.074
21
-137.82
0
LINE
8
BLACK
6
CONTINUOUS
10
134.074
20
-137.82
11
133.979
21
-137.629
0
LINE
8
BLACK
6
CONTINUOUS
10
133.979
20
-137.629
11
133.979
21
-135.915
0
LINE
8
BLACK
6
CONTINUOUS
10
135.788
20
-137.82
11
135.598
21
-137.915
0
LINE
8
BLACK
6
CONTINUOUS
10
135.598
20
-137.915
11
135.217
21
-137.915
0
LINE
8
BLACK
6
CONTINUOUS
10
135.217
20
-137.915
11
135.026
21
-137.82
0
LINE
8
BLACK
6
CONTINUOUS
10
135.026
20
-137.82
11
134.931
21
-137.629
0
LINE
8
BLACK
6
CONTINUOUS
10
134.931
20
-137.629
11
134.931
21
-136.867
0
LINE
8
BLACK
6
CONTINUOUS
10
134.931
20
-136.867
11
135.026
21
-136.677
0
LINE
8
BLACK
6
CONTINUOUS
10
135.026
20
-136.677
11
135.217
21
-136.581
0
LINE
8
BLACK
6
CONTINUOUS
10
135.217
20
-136.581
11
135.598
21
-136.581
0
LINE
8
BLACK
6
CONTINUOUS
10
135.598
20
-136.581
11
135.788
21
-136.677
0
LINE
8
BLACK
6
CONTINUOUS
10
135.788
20
-136.677
11
135.883
21
-136.867
0
LINE
8
BLACK
6
CONTINUOUS
10
135.883
20
-136.867
11
135.883
21
-137.058
0
LINE
8
BLACK
6
CONTINUOUS
10
135.883
20
-137.058
11
134.931
21
-137.248
0
LINE
8
BLACK
6
CONTINUOUS
10
136.55
20
-138.677
11
136.645
21
-138.581
0
LINE
8
BLACK
6
CONTINUOUS
10
136.645
20
-138.581
11
136.836
21
-138.296
0
LINE
8
BLACK
6
CONTINUOUS
10
136.836
20
-138.296
11
136.931
21
-138.105
0
LINE
8
BLACK
6
CONTINUOUS
10
136.931
20
-138.105
11
137.026
21
-137.82
0
LINE
8
BLACK
6
CONTINUOUS
10
137.026
20
-137.82
11
137.121
21
-137.343
0
LINE
8
BLACK
6
CONTINUOUS
10
137.121
20
-137.343
11
137.121
21
-136.962
0
LINE
8
BLACK
6
CONTINUOUS
10
137.121
20
-136.962
11
137.026
21
-136.486
0
LINE
8
BLACK
6
CONTINUOUS
10
137.026
20
-136.486
11
136.931
21
-136.2
0
LINE
8
BLACK
6
CONTINUOUS
10
136.931
20
-136.2
11
136.836
21
-136.01
0
LINE
8
BLACK
6
CONTINUOUS
10
136.836
20
-136.01
11
136.645
21
-135.724
0
LINE
8
BLACK
6
CONTINUOUS
10
136.645
20
-135.724
11
136.55
21
-135.629
  0
ENDSEC
  0
EOF
