M48
; DRILL file {KiCad 6.0.10-86aedd382b~118~ubuntu20.04.1} date ven. 20 janv. 2023 10:36:58
; FORMAT={-:-/ absolute / metric / decimal}
; #@! TF.CreationDate,2023-01-20T10:36:58+01:00
; #@! TF.GenerationSoftware,Kicad,Pcbnew,6.0.10-86aedd382b~118~ubuntu20.04.1
; #@! TF.FileFunction,Plated,1,2,PTH
FMAT,2
METRIC
; #@! TA.AperFunction,Plated,PTH,ViaDrill
T1C0.400
; #@! TA.AperFunction,Plated,PTH,ViaDrill
T2C0.500
; #@! TA.AperFunction,Plated,PTH,ViaDrill
T3C0.600
; #@! TA.AperFunction,Plated,PTH,ViaDrill
T4C0.700
; #@! TA.AperFunction,Plated,PTH,ViaDrill
T5C0.800
%
G90
G05
T1
X92.075Y-104.14
X105.41Y-116.84
X105.41Y-118.11
X107.315Y-116.84
X107.315Y-118.11
T2
X92.075Y-106.045
X109.22Y-116.84
X109.22Y-118.11
X111.125Y-116.84
X111.125Y-118.11
T3
X92.075Y-107.95
X94.615Y-98.425
X102.235Y-110.49
X104.14Y-109.855
X104.775Y-108.585
X107.95Y-107.95
X109.22Y-104.14
X110.49Y-105.41
X111.76Y-113.03
X113.03Y-116.84
X113.03Y-118.11
X113.665Y-106.045
X114.935Y-116.84
X114.935Y-118.11
T4
X92.075Y-109.855
X116.84Y-116.84
X116.84Y-118.11
T5
X92.075Y-111.76
T0
M30
