%TF.GenerationSoftware,KiCad,Pcbnew,6.0.10-86aedd382b~118~ubuntu20.04.1*%
%TF.CreationDate,2023-01-20T10:36:34+01:00*%
%TF.ProjectId,ecran,65637261-6e2e-46b6-9963-61645f706362,rev?*%
%TF.SameCoordinates,Original*%
%TF.FileFunction,Copper,L2,Bot*%
%TF.FilePolarity,Positive*%
%FSLAX46Y46*%
G04 Gerber Fmt 4.6, Leading zero omitted, Abs format (unit mm)*
G04 Created by KiCad (PCBNEW 6.0.10-86aedd382b~118~ubuntu20.04.1) date 2023-01-20 10:36:34*
%MOMM*%
%LPD*%
G01*
G04 APERTURE LIST*
%TA.AperFunction,SMDPad,CuDef*%
%ADD10R,1.700000X0.600000*%
%TD*%
%TA.AperFunction,SMDPad,CuDef*%
%ADD11R,1.800000X1.200000*%
%TD*%
%TA.AperFunction,ViaPad*%
%ADD12C,1.100000*%
%TD*%
%TA.AperFunction,ViaPad*%
%ADD13C,1.000000*%
%TD*%
%TA.AperFunction,ViaPad*%
%ADD14C,0.900000*%
%TD*%
%TA.AperFunction,ViaPad*%
%ADD15C,1.200000*%
%TD*%
%TA.AperFunction,ViaPad*%
%ADD16C,0.800000*%
%TD*%
%TA.AperFunction,Conductor*%
%ADD17C,0.400000*%
%TD*%
G04 APERTURE END LIST*
D10*
%TO.P,J1,1,Pin_1*%
%TO.N,GND*%
X96650000Y-112500000D03*
%TO.P,J1,2,Pin_2*%
%TO.N,Net-(DS1-Pad5)*%
X96650000Y-111500000D03*
%TO.P,J1,3,Pin_3*%
%TO.N,Net-(DS1-Pad6)*%
X96650000Y-110500000D03*
%TO.P,J1,4,Pin_4*%
%TO.N,Net-(DS1-Pad8)*%
X96650000Y-109500000D03*
%TO.P,J1,5,Pin_5*%
%TO.N,Net-(DS1-Pad10)*%
X96650000Y-108500000D03*
%TO.P,J1,6,Pin_6*%
%TO.N,Net-(DS1-Pad11)*%
X96650000Y-107500000D03*
%TO.P,J1,7,Pin_7*%
%TO.N,Net-(DS1-Pad3)*%
X96650000Y-106500000D03*
%TO.P,J1,8,Pin_8*%
%TO.N,Net-(DS1-Pad1)*%
X96650000Y-105500000D03*
%TO.P,J1,9,Pin_9*%
%TO.N,Net-(DS1-Pad2)*%
X96650000Y-104500000D03*
%TO.P,J1,10,Pin_10*%
%TO.N,unconnected-(J1-Pad10)*%
X96650000Y-103500000D03*
D11*
%TO.P,J1,11*%
%TO.N,N/C*%
X91400000Y-101700000D03*
X91400000Y-114300000D03*
%TD*%
D12*
%TO.N,*%
X116840000Y-118110000D03*
D13*
X113030000Y-118110000D03*
X114935000Y-118110000D03*
X114935000Y-116840000D03*
D14*
X109220000Y-118110000D03*
X111125000Y-118110000D03*
X111125000Y-116840000D03*
D15*
X92075000Y-111760000D03*
D12*
X92075000Y-109855000D03*
D13*
X92075000Y-107950000D03*
D14*
X92075000Y-106045000D03*
D16*
X92075000Y-104140000D03*
D12*
X116840000Y-116840000D03*
D13*
X113030000Y-116840000D03*
D14*
X109220000Y-116840000D03*
D16*
X107315000Y-116840000D03*
X105410000Y-116840000D03*
X107315000Y-118110000D03*
X105410000Y-118110000D03*
D13*
%TO.N,Net-(DS1-Pad1)*%
X94615000Y-98425000D03*
%TO.N,Net-(DS1-Pad2)*%
X109220000Y-104140000D03*
%TO.N,GND*%
X111760000Y-113030000D03*
%TO.N,Net-(DS1-Pad3)*%
X110490000Y-105410000D03*
%TO.N,Net-(DS1-Pad5)*%
X113665000Y-106045000D03*
%TO.N,Net-(DS1-Pad6)*%
X102235000Y-110490000D03*
%TO.N,Net-(DS1-Pad8)*%
X104140000Y-109855000D03*
%TO.N,Net-(DS1-Pad10)*%
X104775000Y-108585000D03*
%TO.N,Net-(DS1-Pad11)*%
X107950000Y-107950000D03*
%TD*%
D17*
%TO.N,Net-(DS1-Pad8)*%
X103785000Y-109500000D02*
X96650000Y-109500000D01*
X104140000Y-109855000D02*
X103785000Y-109500000D01*
%TO.N,GND*%
X111760000Y-113030000D02*
X111230000Y-112500000D01*
X111230000Y-112500000D02*
X96650000Y-112500000D01*
%TO.N,Net-(DS1-Pad1)*%
X95340000Y-105500000D02*
X94615000Y-104775000D01*
X94615000Y-104775000D02*
X94615000Y-98425000D01*
X96650000Y-105500000D02*
X95340000Y-105500000D01*
%TO.N,Net-(DS1-Pad2)*%
X108860000Y-104500000D02*
X96650000Y-104500000D01*
X109220000Y-104140000D02*
X108860000Y-104500000D01*
%TO.N,Net-(DS1-Pad3)*%
X109400000Y-106500000D02*
X110490000Y-105410000D01*
X96650000Y-106500000D02*
X109400000Y-106500000D01*
%TO.N,Net-(DS1-Pad5)*%
X113665000Y-110490000D02*
X113665000Y-106045000D01*
X112655000Y-111500000D02*
X113665000Y-110490000D01*
X96650000Y-111500000D02*
X112655000Y-111500000D01*
%TO.N,Net-(DS1-Pad6)*%
X96650000Y-110500000D02*
X102225000Y-110500000D01*
X102225000Y-110500000D02*
X102235000Y-110490000D01*
%TO.N,Net-(DS1-Pad10)*%
X104690000Y-108500000D02*
X104775000Y-108585000D01*
X96650000Y-108500000D02*
X104690000Y-108500000D01*
%TO.N,Net-(DS1-Pad11)*%
X107950000Y-107950000D02*
X107500000Y-107500000D01*
X107500000Y-107500000D02*
X96650000Y-107500000D01*
%TD*%
M02*
