%TF.GenerationSoftware,KiCad,Pcbnew,6.0.11-2627ca5db0~126~ubuntu20.04.1*%
%TF.CreationDate,2023-03-07T09:50:48+01:00*%
%TF.ProjectId,ecran,65637261-6e2e-46b6-9963-61645f706362,V1.0*%
%TF.SameCoordinates,Original*%
%TF.FileFunction,Drillmap*%
%TF.FilePolarity,Positive*%
%FSLAX45Y45*%
G04 Gerber Fmt 4.5, Leading zero omitted, Abs format (unit mm)*
G04 Created by KiCad (PCBNEW 6.0.11-2627ca5db0~126~ubuntu20.04.1) date 2023-03-07 09:50:48*
%MOMM*%
%LPD*%
G01*
G04 APERTURE LIST*
%ADD10C,0.100000*%
%ADD11C,0.200000*%
%ADD12C,0.300000*%
G04 APERTURE END LIST*
D10*
X12700000Y-12000000D02*
X9588500Y-12000000D01*
X12700000Y-9600000D02*
X12700000Y-12000000D01*
X9588500Y-12000000D02*
X9588500Y-9600000D01*
X9588500Y-9600000D02*
X12700000Y-9600000D01*
D11*
D12*
X9850000Y-9850000D02*
X10150000Y-10150000D01*
X10150000Y-9850000D02*
X9850000Y-10150000D01*
X9850000Y-11450000D02*
X10150000Y-11750000D01*
X10150000Y-11450000D02*
X9850000Y-11750000D01*
X12150000Y-9850000D02*
X12450000Y-10150000D01*
X12450000Y-9850000D02*
X12150000Y-10150000D01*
X12150000Y-11450000D02*
X12450000Y-11750000D01*
X12450000Y-11450000D02*
X12150000Y-11750000D01*
D11*
X9841119Y-12315476D02*
X9841119Y-12115476D01*
X9888738Y-12115476D01*
X9917310Y-12125000D01*
X9936357Y-12144048D01*
X9945881Y-12163095D01*
X9955405Y-12201190D01*
X9955405Y-12229762D01*
X9945881Y-12267857D01*
X9936357Y-12286905D01*
X9917310Y-12305952D01*
X9888738Y-12315476D01*
X9841119Y-12315476D01*
X10041119Y-12315476D02*
X10041119Y-12182143D01*
X10041119Y-12220238D02*
X10050643Y-12201190D01*
X10060167Y-12191667D01*
X10079214Y-12182143D01*
X10098262Y-12182143D01*
X10164929Y-12315476D02*
X10164929Y-12182143D01*
X10164929Y-12115476D02*
X10155405Y-12125000D01*
X10164929Y-12134524D01*
X10174452Y-12125000D01*
X10164929Y-12115476D01*
X10164929Y-12134524D01*
X10288738Y-12315476D02*
X10269690Y-12305952D01*
X10260167Y-12286905D01*
X10260167Y-12115476D01*
X10393500Y-12315476D02*
X10374452Y-12305952D01*
X10364929Y-12286905D01*
X10364929Y-12115476D01*
X10622071Y-12315476D02*
X10622071Y-12115476D01*
X10688738Y-12258333D01*
X10755405Y-12115476D01*
X10755405Y-12315476D01*
X10936357Y-12315476D02*
X10936357Y-12210714D01*
X10926833Y-12191667D01*
X10907786Y-12182143D01*
X10869690Y-12182143D01*
X10850643Y-12191667D01*
X10936357Y-12305952D02*
X10917310Y-12315476D01*
X10869690Y-12315476D01*
X10850643Y-12305952D01*
X10841119Y-12286905D01*
X10841119Y-12267857D01*
X10850643Y-12248809D01*
X10869690Y-12239286D01*
X10917310Y-12239286D01*
X10936357Y-12229762D01*
X11031595Y-12182143D02*
X11031595Y-12382143D01*
X11031595Y-12191667D02*
X11050643Y-12182143D01*
X11088738Y-12182143D01*
X11107786Y-12191667D01*
X11117310Y-12201190D01*
X11126833Y-12220238D01*
X11126833Y-12277381D01*
X11117310Y-12296428D01*
X11107786Y-12305952D01*
X11088738Y-12315476D01*
X11050643Y-12315476D01*
X11031595Y-12305952D01*
X11212548Y-12296428D02*
X11222071Y-12305952D01*
X11212548Y-12315476D01*
X11203024Y-12305952D01*
X11212548Y-12296428D01*
X11212548Y-12315476D01*
X11212548Y-12191667D02*
X11222071Y-12201190D01*
X11212548Y-12210714D01*
X11203024Y-12201190D01*
X11212548Y-12191667D01*
X11212548Y-12210714D01*
X9383500Y-12545000D02*
X9583500Y-12745000D01*
X9583500Y-12545000D02*
X9383500Y-12745000D01*
X9822071Y-12535476D02*
X9945881Y-12535476D01*
X9879214Y-12611667D01*
X9907786Y-12611667D01*
X9926833Y-12621190D01*
X9936357Y-12630714D01*
X9945881Y-12649762D01*
X9945881Y-12697381D01*
X9936357Y-12716428D01*
X9926833Y-12725952D01*
X9907786Y-12735476D01*
X9850643Y-12735476D01*
X9831595Y-12725952D01*
X9822071Y-12716428D01*
X10031595Y-12716428D02*
X10041119Y-12725952D01*
X10031595Y-12735476D01*
X10022071Y-12725952D01*
X10031595Y-12716428D01*
X10031595Y-12735476D01*
X10164929Y-12535476D02*
X10183976Y-12535476D01*
X10203024Y-12545000D01*
X10212548Y-12554524D01*
X10222071Y-12573571D01*
X10231595Y-12611667D01*
X10231595Y-12659286D01*
X10222071Y-12697381D01*
X10212548Y-12716428D01*
X10203024Y-12725952D01*
X10183976Y-12735476D01*
X10164929Y-12735476D01*
X10145881Y-12725952D01*
X10136357Y-12716428D01*
X10126833Y-12697381D01*
X10117310Y-12659286D01*
X10117310Y-12611667D01*
X10126833Y-12573571D01*
X10136357Y-12554524D01*
X10145881Y-12545000D01*
X10164929Y-12535476D01*
X10355405Y-12535476D02*
X10374452Y-12535476D01*
X10393500Y-12545000D01*
X10403024Y-12554524D01*
X10412548Y-12573571D01*
X10422071Y-12611667D01*
X10422071Y-12659286D01*
X10412548Y-12697381D01*
X10403024Y-12716428D01*
X10393500Y-12725952D01*
X10374452Y-12735476D01*
X10355405Y-12735476D01*
X10336357Y-12725952D01*
X10326833Y-12716428D01*
X10317310Y-12697381D01*
X10307786Y-12659286D01*
X10307786Y-12611667D01*
X10317310Y-12573571D01*
X10326833Y-12554524D01*
X10336357Y-12545000D01*
X10355405Y-12535476D01*
X10545881Y-12535476D02*
X10564929Y-12535476D01*
X10583976Y-12545000D01*
X10593500Y-12554524D01*
X10603024Y-12573571D01*
X10612548Y-12611667D01*
X10612548Y-12659286D01*
X10603024Y-12697381D01*
X10593500Y-12716428D01*
X10583976Y-12725952D01*
X10564929Y-12735476D01*
X10545881Y-12735476D01*
X10526833Y-12725952D01*
X10517310Y-12716428D01*
X10507786Y-12697381D01*
X10498262Y-12659286D01*
X10498262Y-12611667D01*
X10507786Y-12573571D01*
X10517310Y-12554524D01*
X10526833Y-12545000D01*
X10545881Y-12535476D01*
X10698262Y-12735476D02*
X10698262Y-12602143D01*
X10698262Y-12621190D02*
X10707786Y-12611667D01*
X10726833Y-12602143D01*
X10755405Y-12602143D01*
X10774452Y-12611667D01*
X10783976Y-12630714D01*
X10783976Y-12735476D01*
X10783976Y-12630714D02*
X10793500Y-12611667D01*
X10812548Y-12602143D01*
X10841119Y-12602143D01*
X10860167Y-12611667D01*
X10869690Y-12630714D01*
X10869690Y-12735476D01*
X10964929Y-12735476D02*
X10964929Y-12602143D01*
X10964929Y-12621190D02*
X10974452Y-12611667D01*
X10993500Y-12602143D01*
X11022071Y-12602143D01*
X11041119Y-12611667D01*
X11050643Y-12630714D01*
X11050643Y-12735476D01*
X11050643Y-12630714D02*
X11060167Y-12611667D01*
X11079214Y-12602143D01*
X11107786Y-12602143D01*
X11126833Y-12611667D01*
X11136357Y-12630714D01*
X11136357Y-12735476D01*
X11526833Y-12525952D02*
X11355405Y-12783095D01*
X11783976Y-12535476D02*
X11803024Y-12535476D01*
X11822071Y-12545000D01*
X11831595Y-12554524D01*
X11841119Y-12573571D01*
X11850643Y-12611667D01*
X11850643Y-12659286D01*
X11841119Y-12697381D01*
X11831595Y-12716428D01*
X11822071Y-12725952D01*
X11803024Y-12735476D01*
X11783976Y-12735476D01*
X11764928Y-12725952D01*
X11755405Y-12716428D01*
X11745881Y-12697381D01*
X11736357Y-12659286D01*
X11736357Y-12611667D01*
X11745881Y-12573571D01*
X11755405Y-12554524D01*
X11764928Y-12545000D01*
X11783976Y-12535476D01*
X11936357Y-12716428D02*
X11945881Y-12725952D01*
X11936357Y-12735476D01*
X11926833Y-12725952D01*
X11936357Y-12716428D01*
X11936357Y-12735476D01*
X12136357Y-12735476D02*
X12022071Y-12735476D01*
X12079214Y-12735476D02*
X12079214Y-12535476D01*
X12060167Y-12564048D01*
X12041119Y-12583095D01*
X12022071Y-12592619D01*
X12326833Y-12735476D02*
X12212548Y-12735476D01*
X12269690Y-12735476D02*
X12269690Y-12535476D01*
X12250643Y-12564048D01*
X12231595Y-12583095D01*
X12212548Y-12592619D01*
X12441119Y-12621190D02*
X12422071Y-12611667D01*
X12412548Y-12602143D01*
X12403024Y-12583095D01*
X12403024Y-12573571D01*
X12412548Y-12554524D01*
X12422071Y-12545000D01*
X12441119Y-12535476D01*
X12479214Y-12535476D01*
X12498262Y-12545000D01*
X12507786Y-12554524D01*
X12517309Y-12573571D01*
X12517309Y-12583095D01*
X12507786Y-12602143D01*
X12498262Y-12611667D01*
X12479214Y-12621190D01*
X12441119Y-12621190D01*
X12422071Y-12630714D01*
X12412548Y-12640238D01*
X12403024Y-12659286D01*
X12403024Y-12697381D01*
X12412548Y-12716428D01*
X12422071Y-12725952D01*
X12441119Y-12735476D01*
X12479214Y-12735476D01*
X12498262Y-12725952D01*
X12507786Y-12716428D01*
X12517309Y-12697381D01*
X12517309Y-12659286D01*
X12507786Y-12640238D01*
X12498262Y-12630714D01*
X12479214Y-12621190D01*
X12707786Y-12735476D02*
X12593500Y-12735476D01*
X12650643Y-12735476D02*
X12650643Y-12535476D01*
X12631595Y-12564048D01*
X12612548Y-12583095D01*
X12593500Y-12592619D01*
X12783976Y-12535476D02*
X12783976Y-12573571D01*
X12860167Y-12535476D02*
X12860167Y-12573571D01*
X13155405Y-12811667D02*
X13145881Y-12802143D01*
X13126833Y-12773571D01*
X13117309Y-12754524D01*
X13107786Y-12725952D01*
X13098262Y-12678333D01*
X13098262Y-12640238D01*
X13107786Y-12592619D01*
X13117309Y-12564048D01*
X13126833Y-12545000D01*
X13145881Y-12516428D01*
X13155405Y-12506905D01*
X13317309Y-12602143D02*
X13317309Y-12735476D01*
X13269690Y-12525952D02*
X13222071Y-12668809D01*
X13345881Y-12668809D01*
X13574452Y-12735476D02*
X13574452Y-12535476D01*
X13660167Y-12735476D02*
X13660167Y-12630714D01*
X13650643Y-12611667D01*
X13631595Y-12602143D01*
X13603024Y-12602143D01*
X13583976Y-12611667D01*
X13574452Y-12621190D01*
X13783976Y-12735476D02*
X13764928Y-12725952D01*
X13755405Y-12716428D01*
X13745881Y-12697381D01*
X13745881Y-12640238D01*
X13755405Y-12621190D01*
X13764928Y-12611667D01*
X13783976Y-12602143D01*
X13812548Y-12602143D01*
X13831595Y-12611667D01*
X13841119Y-12621190D01*
X13850643Y-12640238D01*
X13850643Y-12697381D01*
X13841119Y-12716428D01*
X13831595Y-12725952D01*
X13812548Y-12735476D01*
X13783976Y-12735476D01*
X13964928Y-12735476D02*
X13945881Y-12725952D01*
X13936357Y-12706905D01*
X13936357Y-12535476D01*
X14117309Y-12725952D02*
X14098262Y-12735476D01*
X14060167Y-12735476D01*
X14041119Y-12725952D01*
X14031595Y-12706905D01*
X14031595Y-12630714D01*
X14041119Y-12611667D01*
X14060167Y-12602143D01*
X14098262Y-12602143D01*
X14117309Y-12611667D01*
X14126833Y-12630714D01*
X14126833Y-12649762D01*
X14031595Y-12668809D01*
X14203024Y-12725952D02*
X14222071Y-12735476D01*
X14260167Y-12735476D01*
X14279214Y-12725952D01*
X14288738Y-12706905D01*
X14288738Y-12697381D01*
X14279214Y-12678333D01*
X14260167Y-12668809D01*
X14231595Y-12668809D01*
X14212548Y-12659286D01*
X14203024Y-12640238D01*
X14203024Y-12630714D01*
X14212548Y-12611667D01*
X14231595Y-12602143D01*
X14260167Y-12602143D01*
X14279214Y-12611667D01*
X14355405Y-12811667D02*
X14364928Y-12802143D01*
X14383976Y-12773571D01*
X14393500Y-12754524D01*
X14403024Y-12725952D01*
X14412548Y-12678333D01*
X14412548Y-12640238D01*
X14403024Y-12592619D01*
X14393500Y-12564048D01*
X14383976Y-12545000D01*
X14364928Y-12516428D01*
X14355405Y-12506905D01*
X14717309Y-12811667D02*
X14707786Y-12802143D01*
X14688738Y-12773571D01*
X14679214Y-12754524D01*
X14669690Y-12725952D01*
X14660167Y-12678333D01*
X14660167Y-12640238D01*
X14669690Y-12592619D01*
X14679214Y-12564048D01*
X14688738Y-12545000D01*
X14707786Y-12516428D01*
X14717309Y-12506905D01*
X14793500Y-12602143D02*
X14793500Y-12735476D01*
X14793500Y-12621190D02*
X14803024Y-12611667D01*
X14822071Y-12602143D01*
X14850643Y-12602143D01*
X14869690Y-12611667D01*
X14879214Y-12630714D01*
X14879214Y-12735476D01*
X15003024Y-12735476D02*
X14983976Y-12725952D01*
X14974452Y-12716428D01*
X14964928Y-12697381D01*
X14964928Y-12640238D01*
X14974452Y-12621190D01*
X14983976Y-12611667D01*
X15003024Y-12602143D01*
X15031595Y-12602143D01*
X15050643Y-12611667D01*
X15060167Y-12621190D01*
X15069690Y-12640238D01*
X15069690Y-12697381D01*
X15060167Y-12716428D01*
X15050643Y-12725952D01*
X15031595Y-12735476D01*
X15003024Y-12735476D01*
X15126833Y-12602143D02*
X15203024Y-12602143D01*
X15155405Y-12535476D02*
X15155405Y-12706905D01*
X15164928Y-12725952D01*
X15183976Y-12735476D01*
X15203024Y-12735476D01*
X15422071Y-12602143D02*
X15422071Y-12802143D01*
X15422071Y-12611667D02*
X15441119Y-12602143D01*
X15479214Y-12602143D01*
X15498262Y-12611667D01*
X15507786Y-12621190D01*
X15517309Y-12640238D01*
X15517309Y-12697381D01*
X15507786Y-12716428D01*
X15498262Y-12725952D01*
X15479214Y-12735476D01*
X15441119Y-12735476D01*
X15422071Y-12725952D01*
X15631595Y-12735476D02*
X15612548Y-12725952D01*
X15603024Y-12706905D01*
X15603024Y-12535476D01*
X15793500Y-12735476D02*
X15793500Y-12630714D01*
X15783976Y-12611667D01*
X15764928Y-12602143D01*
X15726833Y-12602143D01*
X15707786Y-12611667D01*
X15793500Y-12725952D02*
X15774452Y-12735476D01*
X15726833Y-12735476D01*
X15707786Y-12725952D01*
X15698262Y-12706905D01*
X15698262Y-12687857D01*
X15707786Y-12668809D01*
X15726833Y-12659286D01*
X15774452Y-12659286D01*
X15793500Y-12649762D01*
X15860167Y-12602143D02*
X15936357Y-12602143D01*
X15888738Y-12535476D02*
X15888738Y-12706905D01*
X15898262Y-12725952D01*
X15917309Y-12735476D01*
X15936357Y-12735476D01*
X16079214Y-12725952D02*
X16060167Y-12735476D01*
X16022071Y-12735476D01*
X16003024Y-12725952D01*
X15993500Y-12706905D01*
X15993500Y-12630714D01*
X16003024Y-12611667D01*
X16022071Y-12602143D01*
X16060167Y-12602143D01*
X16079214Y-12611667D01*
X16088738Y-12630714D01*
X16088738Y-12649762D01*
X15993500Y-12668809D01*
X16260167Y-12735476D02*
X16260167Y-12535476D01*
X16260167Y-12725952D02*
X16241119Y-12735476D01*
X16203024Y-12735476D01*
X16183976Y-12725952D01*
X16174452Y-12716428D01*
X16164928Y-12697381D01*
X16164928Y-12640238D01*
X16174452Y-12621190D01*
X16183976Y-12611667D01*
X16203024Y-12602143D01*
X16241119Y-12602143D01*
X16260167Y-12611667D01*
X16336357Y-12811667D02*
X16345881Y-12802143D01*
X16364928Y-12773571D01*
X16374452Y-12754524D01*
X16383976Y-12725952D01*
X16393500Y-12678333D01*
X16393500Y-12640238D01*
X16383976Y-12592619D01*
X16374452Y-12564048D01*
X16364928Y-12545000D01*
X16345881Y-12516428D01*
X16336357Y-12506905D01*
M02*
