%TF.GenerationSoftware,KiCad,Pcbnew,6.0.7-f9a2dced07~116~ubuntu20.04.1*%
%TF.CreationDate,2022-08-31T16:11:48+02:00*%
%TF.ProjectId,dumber-v3,64756d62-6572-42d7-9633-2e6b69636164,1.1*%
%TF.SameCoordinates,Original*%
%TF.FileFunction,Legend,Top*%
%TF.FilePolarity,Positive*%
%FSLAX46Y46*%
G04 Gerber Fmt 4.6, Leading zero omitted, Abs format (unit mm)*
G04 Created by KiCad (PCBNEW 6.0.7-f9a2dced07~116~ubuntu20.04.1) date 2022-08-31 16:11:48*
%MOMM*%
%LPD*%
G01*
G04 APERTURE LIST*
%TA.AperFunction,Profile*%
%ADD10C,0.010050*%
%TD*%
%TA.AperFunction,Profile*%
%ADD11C,0.500000*%
%TD*%
%ADD12C,0.150000*%
%ADD13C,0.300000*%
%ADD14C,0.120000*%
G04 APERTURE END LIST*
D10*
X173755025Y-70000000D02*
G75*
G03*
X173755025Y-70000000I-5025J0D01*
G01*
X141505025Y-86500000D02*
G75*
G03*
X141505025Y-86500000I-5025J0D01*
G01*
D11*
X175350000Y-70000000D02*
G75*
G03*
X175350000Y-70000000I-1600000J0D01*
G01*
X142550000Y-86500000D02*
G75*
G03*
X142550000Y-86500000I-1050000J0D01*
G01*
X167750000Y-63000000D02*
X167750000Y-71500000D01*
X109750000Y-96000000D02*
X109750000Y-116000000D01*
X129350000Y-142000000D02*
G75*
G03*
X129350000Y-142000000I-1600000J0D01*
G01*
X127750000Y-63000000D02*
G75*
G03*
X109750000Y-96000000I21250000J-33000000D01*
G01*
X197750000Y-127000000D02*
X197750000Y-85000000D01*
X129350000Y-70000000D02*
G75*
G03*
X129350000Y-70000000I-1600000J0D01*
G01*
X167750000Y-149000000D02*
X172750000Y-149000000D01*
X172750000Y-63000000D02*
X167750000Y-63000000D01*
D10*
X172755025Y-123795455D02*
G75*
G03*
X172755025Y-123795455I-5025J0D01*
G01*
X159005025Y-125500000D02*
G75*
G03*
X159005025Y-125500000I-5025J0D01*
G01*
X159005025Y-86500000D02*
G75*
G03*
X159005025Y-86500000I-5025J0D01*
G01*
X172755025Y-88204545D02*
G75*
G03*
X172755025Y-88204545I-5025J0D01*
G01*
X149005025Y-116000000D02*
G75*
G03*
X149005025Y-116000000I-5025J0D01*
G01*
D11*
X132750000Y-149000000D02*
X132750000Y-140500000D01*
X167750000Y-140500000D02*
X167750000Y-149000000D01*
X127750000Y-149000000D02*
X132750000Y-149000000D01*
X167750000Y-71500000D02*
X132750000Y-71500000D01*
D10*
X127755025Y-70000000D02*
G75*
G03*
X127755025Y-70000000I-5025J0D01*
G01*
D11*
X109750000Y-116000000D02*
G75*
G03*
X127750000Y-149000000I39250000J0D01*
G01*
X175350000Y-142000000D02*
G75*
G03*
X175350000Y-142000000I-1600000J0D01*
G01*
D10*
X149005025Y-96000000D02*
G75*
G03*
X149005025Y-96000000I-5025J0D01*
G01*
D11*
X132750000Y-63000000D02*
X127750000Y-63000000D01*
X132750000Y-71500000D02*
X132750000Y-63000000D01*
X197750047Y-84999994D02*
G75*
G03*
X172750000Y-63000000I-25000047J-3204606D01*
G01*
X160050000Y-86500000D02*
G75*
G03*
X160050000Y-86500000I-1050000J0D01*
G01*
D10*
X173755025Y-142000000D02*
G75*
G03*
X173755025Y-142000000I-5025J0D01*
G01*
X141505025Y-125500000D02*
G75*
G03*
X141505025Y-125500000I-5025J0D01*
G01*
D11*
X132750000Y-140500000D02*
X167750000Y-140500000D01*
X160050000Y-125500000D02*
G75*
G03*
X160050000Y-125500000I-1050000J0D01*
G01*
X142550000Y-125500000D02*
G75*
G03*
X142550000Y-125500000I-1050000J0D01*
G01*
X172750000Y-149000005D02*
G75*
G03*
X197750000Y-127000000I0J25204545D01*
G01*
D10*
X127755025Y-142000000D02*
G75*
G03*
X127755025Y-142000000I-5025J0D01*
G01*
D12*
%TO.C,M1*%
X159952380Y-138809523D02*
X158952380Y-138809523D01*
X159666666Y-138476190D01*
X158952380Y-138142857D01*
X159952380Y-138142857D01*
X159952380Y-137142857D02*
X159952380Y-137714285D01*
X159952380Y-137428571D02*
X158952380Y-137428571D01*
X159095238Y-137523809D01*
X159190476Y-137619047D01*
X159238095Y-137714285D01*
%TO.C,SW1*%
X119770324Y-84556766D02*
X119877609Y-84451098D01*
X119985702Y-84238954D01*
X119986510Y-84132477D01*
X119965700Y-84068430D01*
X119902461Y-83982764D01*
X119817603Y-83939527D01*
X119711127Y-83938718D01*
X119647079Y-83959529D01*
X119561413Y-84022768D01*
X119432510Y-84170865D01*
X119346844Y-84234104D01*
X119282796Y-84254914D01*
X119176320Y-84254106D01*
X119091462Y-84210869D01*
X119028223Y-84125203D01*
X119007413Y-84061155D01*
X119008221Y-83954679D01*
X119116314Y-83742534D01*
X119223599Y-83636866D01*
X119332500Y-83318246D02*
X120331599Y-83560092D01*
X119781641Y-83066097D01*
X120504548Y-83220661D01*
X119721635Y-82554526D01*
X121023395Y-82202367D02*
X120763971Y-82711514D01*
X120893683Y-82456941D02*
X120002676Y-82002950D01*
X120086726Y-82152664D01*
X120128346Y-82280759D01*
X120127538Y-82387235D01*
%TO.C,J1*%
X135342380Y-77168333D02*
X136056666Y-77168333D01*
X136199523Y-77215952D01*
X136294761Y-77311190D01*
X136342380Y-77454047D01*
X136342380Y-77549285D01*
X136342380Y-76168333D02*
X136342380Y-76739761D01*
X136342380Y-76454047D02*
X135342380Y-76454047D01*
X135485238Y-76549285D01*
X135580476Y-76644523D01*
X135628095Y-76739761D01*
%TO.C,D2*%
X166901904Y-76017380D02*
X166901904Y-75017380D01*
X167140000Y-75017380D01*
X167282857Y-75065000D01*
X167378095Y-75160238D01*
X167425714Y-75255476D01*
X167473333Y-75445952D01*
X167473333Y-75588809D01*
X167425714Y-75779285D01*
X167378095Y-75874523D01*
X167282857Y-75969761D01*
X167140000Y-76017380D01*
X166901904Y-76017380D01*
X167854285Y-75112619D02*
X167901904Y-75065000D01*
X167997142Y-75017380D01*
X168235238Y-75017380D01*
X168330476Y-75065000D01*
X168378095Y-75112619D01*
X168425714Y-75207857D01*
X168425714Y-75303095D01*
X168378095Y-75445952D01*
X167806666Y-76017380D01*
X168425714Y-76017380D01*
%TO.C,D5*%
X119726981Y-133602821D02*
X119226981Y-132736795D01*
X119433177Y-132617747D01*
X119580705Y-132587558D01*
X119710802Y-132622418D01*
X119799661Y-132681087D01*
X119936138Y-132822235D01*
X120007567Y-132945952D01*
X120061565Y-133134719D01*
X120067945Y-133241007D01*
X120033086Y-133371105D01*
X119933177Y-133483773D01*
X119726981Y-133602821D01*
X120505399Y-131998700D02*
X120093006Y-132236795D01*
X120289862Y-132672998D01*
X120307292Y-132607949D01*
X120365961Y-132519091D01*
X120572157Y-132400043D01*
X120678446Y-132393663D01*
X120743494Y-132411093D01*
X120832353Y-132469762D01*
X120951400Y-132675959D01*
X120957780Y-132782247D01*
X120940350Y-132847295D01*
X120881681Y-132936154D01*
X120675485Y-133055201D01*
X120569197Y-133061581D01*
X120504148Y-133044151D01*
%TO.C,M2*%
X160002380Y-74809523D02*
X159002380Y-74809523D01*
X159716666Y-74476190D01*
X159002380Y-74142857D01*
X160002380Y-74142857D01*
X159097619Y-73714285D02*
X159050000Y-73666666D01*
X159002380Y-73571428D01*
X159002380Y-73333333D01*
X159050000Y-73238095D01*
X159097619Y-73190476D01*
X159192857Y-73142857D01*
X159288095Y-73142857D01*
X159430952Y-73190476D01*
X160002380Y-73761904D01*
X160002380Y-73142857D01*
%TO.C,BT1*%
X189920571Y-135913714D02*
X189968190Y-135770857D01*
X190015809Y-135723238D01*
X190111047Y-135675619D01*
X190253904Y-135675619D01*
X190349142Y-135723238D01*
X190396761Y-135770857D01*
X190444380Y-135866095D01*
X190444380Y-136247047D01*
X189444380Y-136247047D01*
X189444380Y-135913714D01*
X189492000Y-135818476D01*
X189539619Y-135770857D01*
X189634857Y-135723238D01*
X189730095Y-135723238D01*
X189825333Y-135770857D01*
X189872952Y-135818476D01*
X189920571Y-135913714D01*
X189920571Y-136247047D01*
X189444380Y-135389904D02*
X189444380Y-134818476D01*
X190444380Y-135104190D02*
X189444380Y-135104190D01*
X190444380Y-133961333D02*
X190444380Y-134532761D01*
X190444380Y-134247047D02*
X189444380Y-134247047D01*
X189587238Y-134342285D01*
X189682476Y-134437523D01*
X189730095Y-134532761D01*
D13*
X180678571Y-138952380D02*
X180678571Y-137047619D01*
X181630952Y-138000000D02*
X179726190Y-138000000D01*
X180478571Y-74952380D02*
X180478571Y-73047619D01*
D12*
%TO.C,J2*%
X135342380Y-135588333D02*
X136056666Y-135588333D01*
X136199523Y-135635952D01*
X136294761Y-135731190D01*
X136342380Y-135874047D01*
X136342380Y-135969285D01*
X135437619Y-135159761D02*
X135390000Y-135112142D01*
X135342380Y-135016904D01*
X135342380Y-134778809D01*
X135390000Y-134683571D01*
X135437619Y-134635952D01*
X135532857Y-134588333D01*
X135628095Y-134588333D01*
X135770952Y-134635952D01*
X136342380Y-135207380D01*
X136342380Y-134588333D01*
%TO.C,P1*%
X191477380Y-99798095D02*
X190477380Y-99798095D01*
X190477380Y-99417142D01*
X190525000Y-99321904D01*
X190572619Y-99274285D01*
X190667857Y-99226666D01*
X190810714Y-99226666D01*
X190905952Y-99274285D01*
X190953571Y-99321904D01*
X191001190Y-99417142D01*
X191001190Y-99798095D01*
X191477380Y-98274285D02*
X191477380Y-98845714D01*
X191477380Y-98560000D02*
X190477380Y-98560000D01*
X190620238Y-98655238D01*
X190715476Y-98750476D01*
X190763095Y-98845714D01*
%TO.C,J3*%
X164131666Y-101262380D02*
X164131666Y-101976666D01*
X164084047Y-102119523D01*
X163988809Y-102214761D01*
X163845952Y-102262380D01*
X163750714Y-102262380D01*
X164512619Y-101262380D02*
X165131666Y-101262380D01*
X164798333Y-101643333D01*
X164941190Y-101643333D01*
X165036428Y-101690952D01*
X165084047Y-101738571D01*
X165131666Y-101833809D01*
X165131666Y-102071904D01*
X165084047Y-102167142D01*
X165036428Y-102214761D01*
X164941190Y-102262380D01*
X164655476Y-102262380D01*
X164560238Y-102214761D01*
X164512619Y-102167142D01*
%TO.C,L2*%
X165568333Y-95702380D02*
X165092142Y-95702380D01*
X165092142Y-94702380D01*
X165854047Y-94797619D02*
X165901666Y-94750000D01*
X165996904Y-94702380D01*
X166235000Y-94702380D01*
X166330238Y-94750000D01*
X166377857Y-94797619D01*
X166425476Y-94892857D01*
X166425476Y-94988095D01*
X166377857Y-95130952D01*
X165806428Y-95702380D01*
X166425476Y-95702380D01*
%TO.C,U1*%
X112482380Y-97916904D02*
X113291904Y-97916904D01*
X113387142Y-97869285D01*
X113434761Y-97821666D01*
X113482380Y-97726428D01*
X113482380Y-97535952D01*
X113434761Y-97440714D01*
X113387142Y-97393095D01*
X113291904Y-97345476D01*
X112482380Y-97345476D01*
X113482380Y-96345476D02*
X113482380Y-96916904D01*
X113482380Y-96631190D02*
X112482380Y-96631190D01*
X112625238Y-96726428D01*
X112720476Y-96821666D01*
X112768095Y-96916904D01*
%TO.C,D4*%
X118839981Y-131509437D02*
X118339981Y-130643411D01*
X118546177Y-130524363D01*
X118693705Y-130494174D01*
X118823802Y-130529034D01*
X118912661Y-130587703D01*
X119049138Y-130728851D01*
X119120567Y-130852568D01*
X119174565Y-131041335D01*
X119180945Y-131147623D01*
X119146086Y-131277721D01*
X119046177Y-131390389D01*
X118839981Y-131509437D01*
X119743827Y-130217801D02*
X120077160Y-130795151D01*
X119347154Y-130006934D02*
X119498100Y-130744571D01*
X120034211Y-130435047D01*
%TO.C,D3*%
X117399981Y-129411821D02*
X116899981Y-128545795D01*
X117106177Y-128426747D01*
X117253705Y-128396558D01*
X117383802Y-128431418D01*
X117472661Y-128490087D01*
X117609138Y-128631235D01*
X117680567Y-128754952D01*
X117734565Y-128943719D01*
X117740945Y-129050007D01*
X117706086Y-129180105D01*
X117606177Y-129292773D01*
X117399981Y-129411821D01*
X117683528Y-128093414D02*
X118219639Y-127783890D01*
X118121440Y-128280471D01*
X118245157Y-128209043D01*
X118351446Y-128202663D01*
X118416494Y-128220093D01*
X118505353Y-128278762D01*
X118624400Y-128484959D01*
X118630780Y-128591247D01*
X118613350Y-128656295D01*
X118554681Y-128745154D01*
X118307245Y-128888011D01*
X118200957Y-128894391D01*
X118135908Y-128876961D01*
D14*
%TO.C,M1*%
X142150000Y-139000000D02*
X142150000Y-130000000D01*
X143150000Y-120000000D02*
X143150000Y-121000000D01*
X143150000Y-120000000D02*
X143150000Y-108000000D01*
X158150000Y-139000000D02*
X158150000Y-130000000D01*
X157150000Y-108000000D02*
X157150000Y-121000000D01*
X143150000Y-121000000D02*
X140150000Y-121000000D01*
X142150000Y-130000000D02*
X140150000Y-130000000D01*
X158150000Y-130000000D02*
X160150000Y-130000000D01*
X143150000Y-108000000D02*
X157150000Y-108000000D01*
X157150000Y-121000000D02*
X160150000Y-121000000D01*
X160150000Y-130000000D02*
G75*
G03*
X160150000Y-121000000I0J4500000D01*
G01*
X140150000Y-121000000D02*
G75*
G03*
X140150000Y-130000000I0J-4500000D01*
G01*
%TO.C,SW1*%
X119257304Y-77941881D02*
X118767250Y-77692187D01*
X117318516Y-77066252D02*
X116898574Y-77890433D01*
X117032750Y-82307813D02*
X116542696Y-82058119D01*
X120615240Y-78746017D02*
X118481484Y-82933748D01*
X115604701Y-80429802D02*
X115184760Y-81253983D01*
%TO.C,J1*%
X132980000Y-78010000D02*
X132980000Y-82410000D01*
X134290000Y-86510000D02*
X132980000Y-86510000D01*
X132980000Y-82410000D02*
X134290000Y-82410000D01*
X134290000Y-76710000D02*
X134290000Y-92210000D01*
X134680000Y-87000000D02*
X135680000Y-87500000D01*
X126480000Y-78010000D02*
X132980000Y-78010000D01*
X125170000Y-92210000D02*
X125170000Y-76710000D01*
X126480000Y-90910000D02*
X126480000Y-78010000D01*
X132980000Y-86510000D02*
X132980000Y-90910000D01*
X125170000Y-76710000D02*
X134290000Y-76710000D01*
X132980000Y-82410000D02*
X132980000Y-82410000D01*
X135680000Y-86500000D02*
X134680000Y-87000000D01*
X132980000Y-90910000D02*
X126480000Y-90910000D01*
X134290000Y-92210000D02*
X125170000Y-92210000D01*
X135680000Y-87500000D02*
X135680000Y-86500000D01*
%TO.C,D2*%
X165990000Y-76610000D02*
X165990000Y-82010000D01*
X169290000Y-76610000D02*
X169290000Y-82010000D01*
X169290000Y-76610000D02*
X165990000Y-76610000D01*
%TO.C,D5*%
X116620747Y-135658884D02*
X118946025Y-134316384D01*
X115660747Y-133996116D02*
X116620747Y-135658884D01*
X117986025Y-132653616D02*
X115660747Y-133996116D01*
%TO.C,M2*%
X157400000Y-92000000D02*
X157400000Y-104000000D01*
X157400000Y-92000000D02*
X157400000Y-91000000D01*
X142400000Y-82000000D02*
X140400000Y-82000000D01*
X158400000Y-73000000D02*
X158400000Y-82000000D01*
X157400000Y-91000000D02*
X160400000Y-91000000D01*
X143400000Y-104000000D02*
X143400000Y-91000000D01*
X143400000Y-91000000D02*
X140400000Y-91000000D01*
X142400000Y-73000000D02*
X142400000Y-82000000D01*
X157400000Y-104000000D02*
X143400000Y-104000000D01*
X158400000Y-82000000D02*
X160400000Y-82000000D01*
X140400000Y-82000000D02*
G75*
G03*
X140400000Y-91000000I0J-4500000D01*
G01*
X160400000Y-91000000D02*
G75*
G03*
X160400000Y-82000000I0J4500000D01*
G01*
%TO.C,BT1*%
X172700000Y-120200000D02*
X188300000Y-120200000D01*
X172700000Y-91800000D02*
X188300000Y-91800000D01*
X172700000Y-135800000D02*
X188300000Y-135800000D01*
X188300000Y-135800000D02*
X188300000Y-76200000D01*
X188300000Y-76200000D02*
X172700000Y-76200000D01*
X172700000Y-76200000D02*
X172700000Y-135800000D01*
%TO.C,J2*%
X134290000Y-129510000D02*
X132980000Y-129510000D01*
X132980000Y-125410000D02*
X134290000Y-125410000D01*
X126480000Y-133910000D02*
X126480000Y-121010000D01*
X132980000Y-133910000D02*
X126480000Y-133910000D01*
X135680000Y-129500000D02*
X134680000Y-130000000D01*
X134680000Y-130000000D02*
X135680000Y-130500000D01*
X132980000Y-125410000D02*
X132980000Y-125410000D01*
X125170000Y-119710000D02*
X134290000Y-119710000D01*
X135680000Y-130500000D02*
X135680000Y-129500000D01*
X126480000Y-121010000D02*
X132980000Y-121010000D01*
X125170000Y-135210000D02*
X125170000Y-119710000D01*
X134290000Y-135210000D02*
X125170000Y-135210000D01*
X132980000Y-129510000D02*
X132980000Y-133910000D01*
X132980000Y-121010000D02*
X132980000Y-125410000D01*
X134290000Y-119710000D02*
X134290000Y-135210000D01*
%TO.C,P1*%
X193155000Y-101430000D02*
X194155000Y-101430000D01*
X193155000Y-110620000D02*
X194155000Y-110620000D01*
X191025000Y-109000000D02*
X191025000Y-103050000D01*
X198055000Y-110620000D02*
X198055000Y-101430000D01*
X197155000Y-101430000D02*
X198055000Y-101430000D01*
X197155000Y-110620000D02*
X198055000Y-110620000D01*
%TO.C,J3*%
X166230000Y-102810000D02*
X166230000Y-102875000D01*
X166230000Y-109215000D02*
X166230000Y-109280000D01*
X162700000Y-109280000D02*
X166230000Y-109280000D01*
X161375000Y-102875000D02*
X162700000Y-102875000D01*
X162700000Y-109215000D02*
X162700000Y-109280000D01*
X162700000Y-102810000D02*
X166230000Y-102810000D01*
X162700000Y-102810000D02*
X162700000Y-102875000D01*
%TO.C,L2*%
X169005000Y-89975000D02*
X165005000Y-89975000D01*
X169005000Y-94175000D02*
X165005000Y-94175000D01*
%TO.C,U1*%
X118335000Y-118000000D02*
X139435000Y-118000000D01*
X139435000Y-118000000D02*
X139435000Y-93600000D01*
X120435000Y-115800000D02*
X118835000Y-115800000D01*
X111835000Y-110400000D02*
X118335000Y-118000000D01*
X111835000Y-101200000D02*
X111835000Y-110400000D01*
X120435000Y-117400000D02*
X120435000Y-115800000D01*
X118335000Y-93600000D02*
X111835000Y-101200000D01*
X139435000Y-93600000D02*
X118335000Y-93600000D01*
%TO.C,D4*%
X116845025Y-130748616D02*
X114519747Y-132091116D01*
X114519747Y-132091116D02*
X115479747Y-133753884D01*
X115479747Y-133753884D02*
X117805025Y-132411384D01*
%TO.C,D3*%
X115786025Y-128843616D02*
X113460747Y-130186116D01*
X114420747Y-131848884D02*
X116746025Y-130506384D01*
X113460747Y-130186116D02*
X114420747Y-131848884D01*
%TD*%
M02*
