%TF.GenerationSoftware,KiCad,Pcbnew,6.0.7-f9a2dced07~116~ubuntu20.04.1*%
%TF.CreationDate,2022-08-31T16:11:48+02:00*%
%TF.ProjectId,dumber-v3,64756d62-6572-42d7-9633-2e6b69636164,1.1*%
%TF.SameCoordinates,Original*%
%TF.FileFunction,Paste,Top*%
%TF.FilePolarity,Positive*%
%FSLAX46Y46*%
G04 Gerber Fmt 4.6, Leading zero omitted, Abs format (unit mm)*
G04 Created by KiCad (PCBNEW 6.0.7-f9a2dced07~116~ubuntu20.04.1) date 2022-08-31 16:11:48*
%MOMM*%
%LPD*%
G01*
G04 APERTURE LIST*
G04 Aperture macros list*
%AMRoundRect*
0 Rectangle with rounded corners*
0 $1 Rounding radius*
0 $2 $3 $4 $5 $6 $7 $8 $9 X,Y pos of 4 corners*
0 Add a 4 corners polygon primitive as box body*
4,1,4,$2,$3,$4,$5,$6,$7,$8,$9,$2,$3,0*
0 Add four circle primitives for the rounded corners*
1,1,$1+$1,$2,$3*
1,1,$1+$1,$4,$5*
1,1,$1+$1,$6,$7*
1,1,$1+$1,$8,$9*
0 Add four rect primitives between the rounded corners*
20,1,$1+$1,$2,$3,$4,$5,0*
20,1,$1+$1,$4,$5,$6,$7,0*
20,1,$1+$1,$6,$7,$8,$9,0*
20,1,$1+$1,$8,$9,$2,$3,0*%
%AMRotRect*
0 Rectangle, with rotation*
0 The origin of the aperture is its center*
0 $1 length*
0 $2 width*
0 $3 Rotation angle, in degrees counterclockwise*
0 Add horizontal line*
21,1,$1,$2,0,0,$3*%
G04 Aperture macros list end*
%TA.AperFunction,Profile*%
%ADD10C,0.010050*%
%TD*%
%TA.AperFunction,Profile*%
%ADD11C,0.500000*%
%TD*%
%ADD12RotRect,1.550000X1.000000X243.000000*%
%ADD13R,1.800000X2.500000*%
%ADD14RoundRect,0.243750X0.017031X-0.516999X0.439219X-0.273249X-0.017031X0.516999X-0.439219X0.273249X0*%
%ADD15R,1.200000X0.700000*%
%ADD16R,1.200000X0.760000*%
%ADD17R,1.200000X0.800000*%
%ADD18R,2.400000X0.740000*%
%ADD19R,1.200000X3.700000*%
G04 APERTURE END LIST*
D10*
X173755025Y-70000000D02*
G75*
G03*
X173755025Y-70000000I-5025J0D01*
G01*
X141505025Y-86500000D02*
G75*
G03*
X141505025Y-86500000I-5025J0D01*
G01*
D11*
X175350000Y-70000000D02*
G75*
G03*
X175350000Y-70000000I-1600000J0D01*
G01*
X142550000Y-86500000D02*
G75*
G03*
X142550000Y-86500000I-1050000J0D01*
G01*
X167750000Y-63000000D02*
X167750000Y-71500000D01*
X109750000Y-96000000D02*
X109750000Y-116000000D01*
X129350000Y-142000000D02*
G75*
G03*
X129350000Y-142000000I-1600000J0D01*
G01*
X127750000Y-63000000D02*
G75*
G03*
X109750000Y-96000000I21250000J-33000000D01*
G01*
X197750000Y-127000000D02*
X197750000Y-85000000D01*
X129350000Y-70000000D02*
G75*
G03*
X129350000Y-70000000I-1600000J0D01*
G01*
X167750000Y-149000000D02*
X172750000Y-149000000D01*
X172750000Y-63000000D02*
X167750000Y-63000000D01*
D10*
X172755025Y-123795455D02*
G75*
G03*
X172755025Y-123795455I-5025J0D01*
G01*
X159005025Y-125500000D02*
G75*
G03*
X159005025Y-125500000I-5025J0D01*
G01*
X159005025Y-86500000D02*
G75*
G03*
X159005025Y-86500000I-5025J0D01*
G01*
X172755025Y-88204545D02*
G75*
G03*
X172755025Y-88204545I-5025J0D01*
G01*
X149005025Y-116000000D02*
G75*
G03*
X149005025Y-116000000I-5025J0D01*
G01*
D11*
X132750000Y-149000000D02*
X132750000Y-140500000D01*
X167750000Y-140500000D02*
X167750000Y-149000000D01*
X127750000Y-149000000D02*
X132750000Y-149000000D01*
X167750000Y-71500000D02*
X132750000Y-71500000D01*
D10*
X127755025Y-70000000D02*
G75*
G03*
X127755025Y-70000000I-5025J0D01*
G01*
D11*
X109750000Y-116000000D02*
G75*
G03*
X127750000Y-149000000I39250000J0D01*
G01*
X175350000Y-142000000D02*
G75*
G03*
X175350000Y-142000000I-1600000J0D01*
G01*
D10*
X149005025Y-96000000D02*
G75*
G03*
X149005025Y-96000000I-5025J0D01*
G01*
D11*
X132750000Y-63000000D02*
X127750000Y-63000000D01*
X132750000Y-71500000D02*
X132750000Y-63000000D01*
X197750047Y-84999994D02*
G75*
G03*
X172750000Y-63000000I-25000047J-3204606D01*
G01*
X160050000Y-86500000D02*
G75*
G03*
X160050000Y-86500000I-1050000J0D01*
G01*
D10*
X173755025Y-142000000D02*
G75*
G03*
X173755025Y-142000000I-5025J0D01*
G01*
X141505025Y-125500000D02*
G75*
G03*
X141505025Y-125500000I-5025J0D01*
G01*
D11*
X132750000Y-140500000D02*
X167750000Y-140500000D01*
X160050000Y-125500000D02*
G75*
G03*
X160050000Y-125500000I-1050000J0D01*
G01*
X142550000Y-125500000D02*
G75*
G03*
X142550000Y-125500000I-1050000J0D01*
G01*
X172750000Y-149000005D02*
G75*
G03*
X197750000Y-127000000I0J25204545D01*
G01*
D10*
X127755025Y-142000000D02*
G75*
G03*
X127755025Y-142000000I-5025J0D01*
G01*
D12*
%TO.C,SW1*%
X118334370Y-77275216D03*
X115950919Y-81953000D03*
X119849081Y-78047000D03*
X117465630Y-82724784D03*
%TD*%
D13*
%TO.C,D2*%
X167640000Y-78010000D03*
X167640000Y-82010000D03*
%TD*%
D14*
%TO.C,D5*%
X116788101Y-134453750D03*
X118411899Y-133516250D03*
%TD*%
D15*
%TO.C,P1*%
X191835000Y-106530000D03*
D16*
X191835000Y-104510000D03*
D17*
X191835000Y-103280000D03*
D15*
X191835000Y-105530000D03*
D16*
X191835000Y-107550000D03*
D17*
X191835000Y-108780000D03*
%TD*%
D18*
%TO.C,J3*%
X162515000Y-103505000D03*
X166415000Y-103505000D03*
X162515000Y-104775000D03*
X166415000Y-104775000D03*
X162515000Y-106045000D03*
X166415000Y-106045000D03*
X162515000Y-107315000D03*
X166415000Y-107315000D03*
X162515000Y-108585000D03*
X166415000Y-108585000D03*
%TD*%
D19*
%TO.C,L2*%
X168405000Y-92075000D03*
X165605000Y-92075000D03*
%TD*%
D14*
%TO.C,D4*%
X115647101Y-132548750D03*
X117270899Y-131611250D03*
%TD*%
%TO.C,D3*%
X114588101Y-130643750D03*
X116211899Y-129706250D03*
%TD*%
M02*
