<svg width="88" height="28" xmlns="http://www.w3.org/2000/svg">
 <!-- Created with Method Draw - http://github.com/duopixel/Method-Draw/ -->
 <g>
  <title>background</title>
  <rect fill="none" id="canvas_background" height="30" width="90" y="-1" x="-1"/>
 </g>
 <g>
  <title>Layer 1</title>
  <rect id="svg_1" height="26.315784" width="81.894718" y="0.999998" x="1" fill-opacity="null" stroke-opacity="null" stroke-width="2" stroke="#4c4c4c" fill="none"/>
  <rect id="svg_2" height="20.210522" width="8.842102" y="3.947366" x="4.578944" stroke-opacity="null" stroke-width="2" stroke="#4c4c4c" fill="#4c4c4c"/>
  <rect id="svg_7" height="5.263157" width="3.999999" y="12.368417" x="82.894717" stroke-opacity="null" stroke-width="2" stroke="#4c4c4c" fill="none"/>
  <path id="svg_8" d="m54.798424,20.400599l-2.790161,-4.677445c-0.841221,-1.409811 -2.217152,-3.717751 -3.058323,-5.127771l-2.789875,-4.6774c-0.842064,-1.410675 -2.218014,-1.410675 -3.058952,0l-2.789314,4.6774c-0.841179,1.410021 -2.217922,3.718452 -3.05896,5.127771l-2.789524,4.677445c-0.841179,1.411167 -0.152626,2.56464 1.529472,2.56464l17.274529,0c1.683743,0 2.371479,-1.153473 1.531109,-2.56464l0,0zm-9.371113,0.724201l-1.654819,0l0,-1.538128l1.654819,0l0,1.538128zm-0.079727,-2.671261l-1.493965,0l-0.148476,-6.580343l1.777653,0l-0.135212,6.580343z" fill="#666666"/>
 </g>
</svg>