<svg width="37" height="45" xmlns="http://www.w3.org/2000/svg">
 <!-- Created with Method Draw - http://github.com/duopixel/Method-Draw/ -->

 <g>
  <title>background</title>
  <rect x="-1" y="-1" width="4.998385" height="5.646685" id="canvas_background" fill="none"/>
 </g>
 <g>
  <title>Layer 1</title>
  <rect fill="#ffffff" stroke="#ffffff" stroke-width="3" x="1.499999" y="12.033397" width="34" height="31.198336" id="svg_1"/>
  <path fill="#ffffff" stroke="#ffffff" stroke-width="3" d="m1.787369,10.792826l6.707077,-9.292826l20.121235,0l6.706993,9.292826l-6.706993,9.293005l-20.121235,0l-6.707077,-9.293005z" id="svg_3"/>
  <path fill="#ff007f" stroke="#f50057" stroke-width="0.1" d="m6.012915,23.986172c3.391615,0 6.58049,1.356598 8.976097,3.815023c2.400892,2.460051 3.720869,5.73773 3.720869,9.225225l5.228432,0c0,-10.132326 -8.042473,-18.374136 -17.92646,-18.374136l0,5.333887l0.001063,0l-0.000001,0zm0.006737,-9.457245c12.090816,0 21.925318,10.094976 21.925318,22.503983l5.226238,0c0,-15.349382 -12.180334,-27.8395 -27.152637,-27.8395l0,5.335514l0.001082,0l-0.000001,0.000004zm7.228214,18.774704c0,2.041348 -1.620888,3.698376 -3.619726,3.698376s-3.619571,-1.657028 -3.619571,-3.698376c0,-2.037918 1.620992,-3.694717 3.619571,-3.694717s3.619726,1.653553 3.619726,3.694717z" id="svg_8"/>
 </g>
</svg>