<svg width="72" height="49" xmlns="http://www.w3.org/2000/svg">
 <!-- Created with Method Draw - http://github.com/duopixel/Method-Draw/ -->

 <g>
  <title>background</title>
  <rect fill="none" id="canvas_background" height="51" width="74" y="-1" x="-1"/>
 </g>
 <g>
  <title>Layer 1</title>
  <path id="svg_7" d="m58.199665,10.123037c0,3.845639 -9.750061,6.963049 -21.777809,6.963049m21.777809,-6.963049l0,0c0,3.845639 -9.750061,6.963049 -21.777809,6.963049c-12.027191,0 -21.777691,-3.11741 -21.777691,-6.963049m0,0l0,0c0,-3.8454 9.7505,-6.96291 21.777691,-6.96291c12.027748,0 21.777809,3.11751 21.777809,6.96291l0,27.851789c0,3.845509 -9.750061,6.96302 -21.777809,6.96302c-12.027191,0 -21.777691,-3.117512 -21.777691,-6.96302l0,-27.851789z" stroke-width="NaN" stroke="#ffffff" fill="#ffffff"/>
  <line stroke-linecap="null" stroke-linejoin="null" id="svg_8" y2="33.926006" x2="65.660338" y1="11.555665" x1="65.808487" stroke-width="5" stroke="#ffffff" fill="none"/>
  <line stroke-linecap="null" stroke-linejoin="null" id="svg_9" y2="33.847692" x2="7.819088" y1="11.47735" x1="7.967237" stroke-width="5" stroke="#ffffff" fill="none"/>
 </g>
</svg>