%TF.GenerationSoftware,KiCad,Pcbnew,6.0.11-2627ca5db0~126~ubuntu20.04.1*%
%TF.CreationDate,2023-03-07T09:49:11+01:00*%
%TF.ProjectId,ecran,65637261-6e2e-46b6-9963-61645f706362,V1.0*%
%TF.SameCoordinates,Original*%
%TF.FileFunction,Copper,L1,Top*%
%TF.FilePolarity,Positive*%
%FSLAX46Y46*%
G04 Gerber Fmt 4.6, Leading zero omitted, Abs format (unit mm)*
G04 Created by KiCad (PCBNEW 6.0.11-2627ca5db0~126~ubuntu20.04.1) date 2023-03-07 09:49:11*
%MOMM*%
%LPD*%
G01*
G04 APERTURE LIST*
G04 Aperture macros list*
%AMRoundRect*
0 Rectangle with rounded corners*
0 $1 Rounding radius*
0 $2 $3 $4 $5 $6 $7 $8 $9 X,Y pos of 4 corners*
0 Add a 4 corners polygon primitive as box body*
4,1,4,$2,$3,$4,$5,$6,$7,$8,$9,$2,$3,0*
0 Add four circle primitives for the rounded corners*
1,1,$1+$1,$2,$3*
1,1,$1+$1,$4,$5*
1,1,$1+$1,$6,$7*
1,1,$1+$1,$8,$9*
0 Add four rect primitives between the rounded corners*
20,1,$1+$1,$2,$3,$4,$5,0*
20,1,$1+$1,$4,$5,$6,$7,0*
20,1,$1+$1,$6,$7,$8,$9,0*
20,1,$1+$1,$8,$9,$2,$3,0*%
G04 Aperture macros list end*
%TA.AperFunction,Profile*%
%ADD10C,0.100000*%
%TD*%
%TA.AperFunction,SMDPad,CuDef*%
%ADD11RoundRect,0.250000X0.450000X-0.262500X0.450000X0.262500X-0.450000X0.262500X-0.450000X-0.262500X0*%
%TD*%
%TA.AperFunction,SMDPad,CuDef*%
%ADD12RoundRect,0.250000X-0.262500X-0.450000X0.262500X-0.450000X0.262500X0.450000X-0.262500X0.450000X0*%
%TD*%
%TA.AperFunction,SMDPad,CuDef*%
%ADD13R,0.800000X3.000000*%
%TD*%
%TA.AperFunction,ViaPad*%
%ADD14C,0.800000*%
%TD*%
%TA.AperFunction,Conductor*%
%ADD15C,0.350000*%
%TD*%
G04 APERTURE END LIST*
D10*
X127000000Y-120000000D02*
X95885000Y-120000000D01*
X127000000Y-96000000D02*
X127000000Y-120000000D01*
X95885000Y-120000000D02*
X95885000Y-96000000D01*
X95885000Y-96000000D02*
X127000000Y-96000000D01*
X90666666Y-121000000D02*
G75*
G03*
X90666666Y-121000000I-1666666J0D01*
G01*
X86500000Y-121000000D02*
X91500000Y-121000000D01*
X89000000Y-118500000D02*
X89000000Y-123500000D01*
D11*
%TO.P,R5,1*%
%TO.N,Net-(R5-Pad1)*%
X111760000Y-115212500D03*
%TO.P,R5,2*%
%TO.N,Net-(DS1-Pad10)*%
X111760000Y-113387500D03*
%TD*%
%TO.P,R4,1*%
%TO.N,Net-(R4-Pad1)*%
X109220000Y-115212500D03*
%TO.P,R4,2*%
%TO.N,Net-(DS1-Pad11)*%
X109220000Y-113387500D03*
%TD*%
D12*
%TO.P,R7,1*%
%TO.N,Net-(R7-Pad1)*%
X118467500Y-108685000D03*
%TO.P,R7,2*%
%TO.N,Net-(DS1-Pad6)*%
X120292500Y-108685000D03*
%TD*%
%TO.P,R2,1*%
%TO.N,Net-(R2-Pad1)*%
X102592500Y-104775000D03*
%TO.P,R2,2*%
%TO.N,Net-(DS1-Pad1)*%
X104417500Y-104775000D03*
%TD*%
%TO.P,R8,1*%
%TO.N,Net-(R8-Pad1)*%
X118467500Y-105410000D03*
%TO.P,R8,2*%
%TO.N,Net-(DS1-Pad5)*%
X120292500Y-105410000D03*
%TD*%
D11*
%TO.P,R6,1*%
%TO.N,Net-(R6-Pad1)*%
X114300000Y-115212500D03*
%TO.P,R6,2*%
%TO.N,Net-(DS1-Pad8)*%
X114300000Y-113387500D03*
%TD*%
D12*
%TO.P,R3,1*%
%TO.N,Net-(R3-Pad1)*%
X102592500Y-111225000D03*
%TO.P,R3,2*%
%TO.N,Net-(DS1-Pad3)*%
X104417500Y-111225000D03*
%TD*%
D13*
%TO.P,DS1,1,G*%
%TO.N,Net-(DS1-Pad1)*%
X108325000Y-99100000D03*
%TO.P,DS1,2,DP1*%
%TO.N,Net-(DS1-Pad2)*%
X109595000Y-99100000D03*
%TO.P,DS1,3,F*%
%TO.N,Net-(DS1-Pad3)*%
X110865000Y-99100000D03*
%TO.P,DS1,4,AN*%
%TO.N,GND*%
X112135000Y-99100000D03*
%TO.P,DS1,5,A*%
%TO.N,Net-(DS1-Pad5)*%
X113405000Y-99100000D03*
%TO.P,DS1,6,B*%
%TO.N,Net-(DS1-Pad6)*%
X114675000Y-99100000D03*
%TO.P,DS1,7,DP2*%
%TO.N,unconnected-(DS1-Pad7)*%
X114675000Y-109900000D03*
%TO.P,DS1,8,C*%
%TO.N,Net-(DS1-Pad8)*%
X113405000Y-109900000D03*
%TO.P,DS1,9,AN*%
%TO.N,GND*%
X112135000Y-109900000D03*
%TO.P,DS1,10,D*%
%TO.N,Net-(DS1-Pad10)*%
X110865000Y-109900000D03*
%TO.P,DS1,11,E*%
%TO.N,Net-(DS1-Pad11)*%
X109595000Y-109900000D03*
%TD*%
D12*
%TO.P,R1,1*%
%TO.N,Net-(R1-Pad1)*%
X102592500Y-108050000D03*
%TO.P,R1,2*%
%TO.N,Net-(DS1-Pad2)*%
X104417500Y-108050000D03*
%TD*%
D14*
%TO.N,GND*%
X116840000Y-109855000D03*
%TO.N,Net-(R1-Pad1)*%
X97790000Y-107950000D03*
%TO.N,Net-(R2-Pad1)*%
X100330000Y-106045000D03*
%TO.N,Net-(R3-Pad1)*%
X100330000Y-109855000D03*
%TO.N,Net-(R4-Pad1)*%
X106680000Y-115570000D03*
%TO.N,Net-(R5-Pad1)*%
X111760000Y-117475000D03*
%TO.N,Net-(R6-Pad1)*%
X114300000Y-117475000D03*
%TO.N,Net-(R7-Pad1)*%
X116840000Y-107315000D03*
%TO.N,Net-(R8-Pad1)*%
X116840000Y-105410000D03*
%TD*%
D15*
%TO.N,Net-(DS1-Pad1)*%
X108325000Y-99100000D02*
X108325000Y-103130000D01*
X108325000Y-103130000D02*
X106680000Y-104775000D01*
X106680000Y-104775000D02*
X104417500Y-104775000D01*
%TO.N,Net-(DS1-Pad2)*%
X109595000Y-103765000D02*
X105310000Y-108050000D01*
X109595000Y-99100000D02*
X109595000Y-103765000D01*
X105310000Y-108050000D02*
X104417500Y-108050000D01*
%TO.N,GND*%
X115570000Y-108585000D02*
X115570000Y-107315000D01*
X112135000Y-99100000D02*
X112135000Y-107575000D01*
X115570000Y-107315000D02*
X112395000Y-107315000D01*
X112395000Y-107315000D02*
X112135000Y-107575000D01*
X112135000Y-107575000D02*
X112135000Y-109900000D01*
X116840000Y-109855000D02*
X115570000Y-108585000D01*
%TO.N,Net-(DS1-Pad3)*%
X110865000Y-103842500D02*
X104417500Y-110290000D01*
X110865000Y-99100000D02*
X110865000Y-103842500D01*
%TO.N,Net-(DS1-Pad5)*%
X118387500Y-103505000D02*
X113665000Y-103505000D01*
X113665000Y-103505000D02*
X113405000Y-103245000D01*
X113405000Y-103245000D02*
X113405000Y-99100000D01*
X120292500Y-105410000D02*
X118387500Y-103505000D01*
%TO.N,Net-(DS1-Pad6)*%
X121920000Y-104775000D02*
X119380000Y-102235000D01*
X120292500Y-108685000D02*
X120550000Y-108685000D01*
X115570000Y-102235000D02*
X114675000Y-101340000D01*
X114675000Y-101340000D02*
X114675000Y-99100000D01*
X119380000Y-102235000D02*
X115570000Y-102235000D01*
X121920000Y-107315000D02*
X121920000Y-104775000D01*
X120550000Y-108685000D02*
X121920000Y-107315000D01*
%TO.N,Net-(DS1-Pad8)*%
X113405000Y-112492500D02*
X114300000Y-113387500D01*
X113405000Y-109900000D02*
X113405000Y-112492500D01*
%TO.N,Net-(DS1-Pad10)*%
X110865000Y-112492500D02*
X111760000Y-113387500D01*
X110865000Y-109900000D02*
X110865000Y-112492500D01*
%TO.N,Net-(DS1-Pad11)*%
X109595000Y-113012500D02*
X109220000Y-113387500D01*
X109595000Y-109900000D02*
X109595000Y-113012500D01*
%TO.N,Net-(R1-Pad1)*%
X97790000Y-107950000D02*
X102492500Y-107950000D01*
X102492500Y-107950000D02*
X102592500Y-108050000D01*
%TO.N,Net-(R2-Pad1)*%
X100330000Y-106045000D02*
X101322500Y-106045000D01*
X101322500Y-106045000D02*
X102592500Y-104775000D01*
%TO.N,Net-(R3-Pad1)*%
X102592500Y-111225000D02*
X100430000Y-111225000D01*
X100330000Y-111125000D02*
X100330000Y-109855000D01*
X100430000Y-111225000D02*
X100330000Y-111125000D01*
%TO.N,Net-(R4-Pad1)*%
X107037500Y-115212500D02*
X106680000Y-115570000D01*
X109220000Y-115212500D02*
X107037500Y-115212500D01*
%TO.N,Net-(R5-Pad1)*%
X111760000Y-117475000D02*
X111760000Y-115212500D01*
%TO.N,Net-(R6-Pad1)*%
X114300000Y-117475000D02*
X114300000Y-115212500D01*
%TO.N,Net-(R7-Pad1)*%
X116840000Y-107315000D02*
X117097500Y-107315000D01*
X117097500Y-107315000D02*
X118467500Y-108685000D01*
%TO.N,Net-(R8-Pad1)*%
X116840000Y-105410000D02*
X118467500Y-105410000D01*
%TD*%
%TA.AperFunction,Conductor*%
%TO.N,GND*%
G36*
X126292539Y-96670185D02*
G01*
X126338294Y-96722989D01*
X126349500Y-96774500D01*
X126349500Y-119225500D01*
X126329815Y-119292539D01*
X126277011Y-119338294D01*
X126225500Y-119349500D01*
X96659500Y-119349500D01*
X96592461Y-119329815D01*
X96546706Y-119277011D01*
X96535500Y-119225500D01*
X96535500Y-116135347D01*
X97848728Y-116135347D01*
X97887001Y-116426055D01*
X97964373Y-116708880D01*
X97966029Y-116712763D01*
X97966031Y-116712768D01*
X97975097Y-116734023D01*
X98079413Y-116978588D01*
X98081582Y-116982213D01*
X98081583Y-116982214D01*
X98132562Y-117067393D01*
X98229992Y-117230187D01*
X98413324Y-117459023D01*
X98464850Y-117507919D01*
X98622952Y-117657953D01*
X98622957Y-117657957D01*
X98626017Y-117660861D01*
X98629443Y-117663323D01*
X98629448Y-117663327D01*
X98684451Y-117702850D01*
X98864134Y-117831965D01*
X98867870Y-117833943D01*
X99119544Y-117967198D01*
X99119547Y-117967200D01*
X99123269Y-117969170D01*
X99260949Y-118019554D01*
X99394673Y-118068490D01*
X99394677Y-118068491D01*
X99398628Y-118069937D01*
X99402742Y-118070834D01*
X99680994Y-118131503D01*
X99680998Y-118131504D01*
X99685114Y-118132401D01*
X99689318Y-118132732D01*
X99689319Y-118132732D01*
X99714668Y-118134727D01*
X99915080Y-118150500D01*
X100073710Y-118150500D01*
X100245208Y-118138809D01*
X100288329Y-118135869D01*
X100288330Y-118135869D01*
X100292538Y-118135582D01*
X100307899Y-118132401D01*
X100363364Y-118120915D01*
X100579663Y-118076121D01*
X100583631Y-118074716D01*
X100583634Y-118074715D01*
X100717863Y-118027182D01*
X100856062Y-117978243D01*
X101116620Y-117843759D01*
X101300380Y-117714611D01*
X101353059Y-117677588D01*
X101353063Y-117677585D01*
X101356516Y-117675158D01*
X101369248Y-117663327D01*
X101568217Y-117478433D01*
X101568223Y-117478427D01*
X101571310Y-117475558D01*
X101706708Y-117310133D01*
X101754350Y-117251927D01*
X101754351Y-117251926D01*
X101757028Y-117248655D01*
X101910234Y-116998646D01*
X101920745Y-116974703D01*
X101999713Y-116794807D01*
X102028092Y-116730158D01*
X102083874Y-116534336D01*
X102107264Y-116452225D01*
X102107265Y-116452222D01*
X102108422Y-116448159D01*
X102149736Y-116157867D01*
X102150780Y-115958586D01*
X102151250Y-115868874D01*
X102151250Y-115868872D01*
X102151272Y-115864653D01*
X102112999Y-115573945D01*
X102107888Y-115555262D01*
X105624520Y-115555262D01*
X105641759Y-115760553D01*
X105698544Y-115958586D01*
X105701316Y-115963981D01*
X105701317Y-115963982D01*
X105739357Y-116038000D01*
X105792712Y-116141818D01*
X105796480Y-116146572D01*
X105913590Y-116294328D01*
X105920677Y-116303270D01*
X105925296Y-116307201D01*
X106072950Y-116432865D01*
X106072955Y-116432869D01*
X106077564Y-116436791D01*
X106257398Y-116537297D01*
X106453329Y-116600959D01*
X106459347Y-116601677D01*
X106459349Y-116601677D01*
X106601410Y-116618616D01*
X106657894Y-116625351D01*
X106663938Y-116624886D01*
X106663939Y-116624886D01*
X106725266Y-116620167D01*
X106863300Y-116609546D01*
X106948596Y-116585731D01*
X107055885Y-116555776D01*
X107055889Y-116555774D01*
X107061725Y-116554145D01*
X107245610Y-116461258D01*
X107407951Y-116334424D01*
X107411907Y-116329840D01*
X107411911Y-116329837D01*
X107538602Y-116183062D01*
X107542564Y-116178472D01*
X107545561Y-116173197D01*
X107586716Y-116100751D01*
X107636945Y-116052184D01*
X107694533Y-116038000D01*
X108008036Y-116038000D01*
X108075075Y-116057685D01*
X108104401Y-116083963D01*
X108129743Y-116115257D01*
X108276851Y-116234383D01*
X108282640Y-116237332D01*
X108282642Y-116237334D01*
X108402717Y-116298515D01*
X108445512Y-116320320D01*
X108498150Y-116334424D01*
X108622863Y-116367841D01*
X108622869Y-116367842D01*
X108628355Y-116369312D01*
X108706979Y-116375500D01*
X108709424Y-116375500D01*
X109222424Y-116375499D01*
X109733020Y-116375499D01*
X109760384Y-116373346D01*
X109805980Y-116369758D01*
X109805982Y-116369758D01*
X109811645Y-116369312D01*
X109994488Y-116320320D01*
X110037283Y-116298515D01*
X110157358Y-116237334D01*
X110157360Y-116237332D01*
X110163149Y-116234383D01*
X110310257Y-116115257D01*
X110393634Y-116012295D01*
X110451121Y-115972584D01*
X110520952Y-115970256D01*
X110580956Y-116006051D01*
X110586363Y-116012292D01*
X110669743Y-116115257D01*
X110816851Y-116234383D01*
X110822640Y-116237332D01*
X110822642Y-116237334D01*
X110866795Y-116259831D01*
X110917591Y-116307806D01*
X110934500Y-116370316D01*
X110934500Y-116779302D01*
X110914815Y-116846341D01*
X110905490Y-116859007D01*
X110889024Y-116878630D01*
X110789776Y-117059162D01*
X110787942Y-117064944D01*
X110787941Y-117064946D01*
X110729317Y-117249753D01*
X110727484Y-117255532D01*
X110704520Y-117460262D01*
X110721759Y-117665553D01*
X110778544Y-117863586D01*
X110872712Y-118046818D01*
X110876480Y-118051572D01*
X110905402Y-118088062D01*
X111000677Y-118208270D01*
X111005296Y-118212201D01*
X111152950Y-118337865D01*
X111152955Y-118337869D01*
X111157564Y-118341791D01*
X111337398Y-118442297D01*
X111533329Y-118505959D01*
X111539347Y-118506677D01*
X111539349Y-118506677D01*
X111681410Y-118523616D01*
X111737894Y-118530351D01*
X111743938Y-118529886D01*
X111743939Y-118529886D01*
X111805266Y-118525167D01*
X111943300Y-118514546D01*
X112028596Y-118490731D01*
X112135885Y-118460776D01*
X112135889Y-118460774D01*
X112141725Y-118459145D01*
X112325610Y-118366258D01*
X112487951Y-118239424D01*
X112491907Y-118234840D01*
X112491911Y-118234837D01*
X112618602Y-118088062D01*
X112622564Y-118083472D01*
X112629744Y-118070834D01*
X112721327Y-117909618D01*
X112724323Y-117904344D01*
X112789351Y-117708863D01*
X112794823Y-117665553D01*
X112814736Y-117507919D01*
X112814736Y-117507915D01*
X112815171Y-117504474D01*
X112815583Y-117475000D01*
X112814138Y-117460262D01*
X112796072Y-117276006D01*
X112796072Y-117276004D01*
X112795480Y-117269970D01*
X112735935Y-117072749D01*
X112683804Y-116974703D01*
X112642067Y-116896206D01*
X112642064Y-116896201D01*
X112639218Y-116890849D01*
X112613405Y-116859199D01*
X112586290Y-116794807D01*
X112585500Y-116780830D01*
X112585500Y-116370316D01*
X112605185Y-116303277D01*
X112653205Y-116259831D01*
X112697358Y-116237334D01*
X112697360Y-116237332D01*
X112703149Y-116234383D01*
X112850257Y-116115257D01*
X112933634Y-116012295D01*
X112991121Y-115972584D01*
X113060952Y-115970256D01*
X113120956Y-116006051D01*
X113126363Y-116012292D01*
X113209743Y-116115257D01*
X113356851Y-116234383D01*
X113362640Y-116237332D01*
X113362642Y-116237334D01*
X113406795Y-116259831D01*
X113457591Y-116307806D01*
X113474500Y-116370316D01*
X113474500Y-116779302D01*
X113454815Y-116846341D01*
X113445490Y-116859007D01*
X113429024Y-116878630D01*
X113329776Y-117059162D01*
X113327942Y-117064944D01*
X113327941Y-117064946D01*
X113269317Y-117249753D01*
X113267484Y-117255532D01*
X113244520Y-117460262D01*
X113261759Y-117665553D01*
X113318544Y-117863586D01*
X113412712Y-118046818D01*
X113416480Y-118051572D01*
X113445402Y-118088062D01*
X113540677Y-118208270D01*
X113545296Y-118212201D01*
X113692950Y-118337865D01*
X113692955Y-118337869D01*
X113697564Y-118341791D01*
X113877398Y-118442297D01*
X114073329Y-118505959D01*
X114079347Y-118506677D01*
X114079349Y-118506677D01*
X114221410Y-118523616D01*
X114277894Y-118530351D01*
X114283938Y-118529886D01*
X114283939Y-118529886D01*
X114345266Y-118525167D01*
X114483300Y-118514546D01*
X114568596Y-118490731D01*
X114675885Y-118460776D01*
X114675889Y-118460774D01*
X114681725Y-118459145D01*
X114865610Y-118366258D01*
X115027951Y-118239424D01*
X115031907Y-118234840D01*
X115031911Y-118234837D01*
X115158602Y-118088062D01*
X115162564Y-118083472D01*
X115169744Y-118070834D01*
X115261327Y-117909618D01*
X115264323Y-117904344D01*
X115329351Y-117708863D01*
X115334823Y-117665553D01*
X115354736Y-117507919D01*
X115354736Y-117507915D01*
X115355171Y-117504474D01*
X115355583Y-117475000D01*
X115354138Y-117460262D01*
X115336072Y-117276006D01*
X115336072Y-117276004D01*
X115335480Y-117269970D01*
X115275935Y-117072749D01*
X115223804Y-116974703D01*
X115182067Y-116896206D01*
X115182064Y-116896201D01*
X115179218Y-116890849D01*
X115153405Y-116859199D01*
X115126290Y-116794807D01*
X115125500Y-116780830D01*
X115125500Y-116370316D01*
X115145185Y-116303277D01*
X115193205Y-116259831D01*
X115237358Y-116237334D01*
X115237360Y-116237332D01*
X115243149Y-116234383D01*
X115365448Y-116135347D01*
X120848728Y-116135347D01*
X120887001Y-116426055D01*
X120964373Y-116708880D01*
X120966029Y-116712763D01*
X120966031Y-116712768D01*
X120975097Y-116734023D01*
X121079413Y-116978588D01*
X121081582Y-116982213D01*
X121081583Y-116982214D01*
X121132562Y-117067393D01*
X121229992Y-117230187D01*
X121413324Y-117459023D01*
X121464850Y-117507919D01*
X121622952Y-117657953D01*
X121622957Y-117657957D01*
X121626017Y-117660861D01*
X121629443Y-117663323D01*
X121629448Y-117663327D01*
X121684451Y-117702850D01*
X121864134Y-117831965D01*
X121867870Y-117833943D01*
X122119544Y-117967198D01*
X122119547Y-117967200D01*
X122123269Y-117969170D01*
X122260949Y-118019554D01*
X122394673Y-118068490D01*
X122394677Y-118068491D01*
X122398628Y-118069937D01*
X122402742Y-118070834D01*
X122680994Y-118131503D01*
X122680998Y-118131504D01*
X122685114Y-118132401D01*
X122689318Y-118132732D01*
X122689319Y-118132732D01*
X122714668Y-118134727D01*
X122915080Y-118150500D01*
X123073710Y-118150500D01*
X123245208Y-118138809D01*
X123288329Y-118135869D01*
X123288330Y-118135869D01*
X123292538Y-118135582D01*
X123307899Y-118132401D01*
X123363364Y-118120915D01*
X123579663Y-118076121D01*
X123583631Y-118074716D01*
X123583634Y-118074715D01*
X123717863Y-118027182D01*
X123856062Y-117978243D01*
X124116620Y-117843759D01*
X124300380Y-117714611D01*
X124353059Y-117677588D01*
X124353063Y-117677585D01*
X124356516Y-117675158D01*
X124369248Y-117663327D01*
X124568217Y-117478433D01*
X124568223Y-117478427D01*
X124571310Y-117475558D01*
X124706708Y-117310133D01*
X124754350Y-117251927D01*
X124754351Y-117251926D01*
X124757028Y-117248655D01*
X124910234Y-116998646D01*
X124920745Y-116974703D01*
X124999713Y-116794807D01*
X125028092Y-116730158D01*
X125083874Y-116534336D01*
X125107264Y-116452225D01*
X125107265Y-116452222D01*
X125108422Y-116448159D01*
X125149736Y-116157867D01*
X125150780Y-115958586D01*
X125151250Y-115868874D01*
X125151250Y-115868872D01*
X125151272Y-115864653D01*
X125112999Y-115573945D01*
X125035627Y-115291120D01*
X125028283Y-115273901D01*
X124922244Y-115025297D01*
X124920587Y-115021412D01*
X124908583Y-115001354D01*
X124772175Y-114773433D01*
X124772172Y-114773428D01*
X124770008Y-114769813D01*
X124586676Y-114540977D01*
X124442777Y-114404422D01*
X124377048Y-114342047D01*
X124377043Y-114342043D01*
X124373983Y-114339139D01*
X124370557Y-114336677D01*
X124370552Y-114336673D01*
X124159425Y-114184964D01*
X124135866Y-114168035D01*
X124061811Y-114128825D01*
X123880456Y-114032802D01*
X123880453Y-114032800D01*
X123876731Y-114030830D01*
X123705633Y-113968217D01*
X123605327Y-113931510D01*
X123605323Y-113931509D01*
X123601372Y-113930063D01*
X123569093Y-113923025D01*
X123319006Y-113868497D01*
X123319002Y-113868496D01*
X123314886Y-113867599D01*
X123310682Y-113867268D01*
X123310681Y-113867268D01*
X123274468Y-113864418D01*
X123084920Y-113849500D01*
X122926290Y-113849500D01*
X122754792Y-113861191D01*
X122711671Y-113864131D01*
X122711670Y-113864131D01*
X122707462Y-113864418D01*
X122703334Y-113865273D01*
X122703333Y-113865273D01*
X122687765Y-113868497D01*
X122420337Y-113923879D01*
X122416369Y-113925284D01*
X122416366Y-113925285D01*
X122295130Y-113968217D01*
X122143938Y-114021757D01*
X121883380Y-114156241D01*
X121879929Y-114158666D01*
X121879928Y-114158667D01*
X121646941Y-114322412D01*
X121646937Y-114322415D01*
X121643484Y-114324842D01*
X121640391Y-114327716D01*
X121640390Y-114327717D01*
X121431783Y-114521567D01*
X121431777Y-114521573D01*
X121428690Y-114524442D01*
X121242972Y-114751345D01*
X121089766Y-115001354D01*
X121088071Y-115005214D01*
X121088069Y-115005219D01*
X121030837Y-115135598D01*
X120971908Y-115269842D01*
X120891578Y-115551841D01*
X120850264Y-115842133D01*
X120848728Y-116135347D01*
X115365448Y-116135347D01*
X115390257Y-116115257D01*
X115473634Y-116012295D01*
X115505292Y-115973201D01*
X115509383Y-115968149D01*
X115595320Y-115799488D01*
X115612594Y-115735020D01*
X115642841Y-115622137D01*
X115642842Y-115622131D01*
X115644312Y-115616645D01*
X115650500Y-115538021D01*
X115650499Y-114886980D01*
X115644312Y-114808355D01*
X115595320Y-114625512D01*
X115553925Y-114544270D01*
X115512334Y-114462642D01*
X115512332Y-114462640D01*
X115509383Y-114456851D01*
X115457601Y-114392906D01*
X115445560Y-114378036D01*
X115418668Y-114313548D01*
X115430910Y-114244759D01*
X115445560Y-114221964D01*
X115505292Y-114148201D01*
X115509383Y-114143149D01*
X115566613Y-114030830D01*
X115592373Y-113980272D01*
X115592373Y-113980271D01*
X115595320Y-113974488D01*
X115623720Y-113868497D01*
X115642841Y-113797137D01*
X115642842Y-113797131D01*
X115644312Y-113791645D01*
X115650500Y-113713021D01*
X115650499Y-113061980D01*
X115644312Y-112983355D01*
X115595320Y-112800512D01*
X115509383Y-112631851D01*
X115390257Y-112484743D01*
X115243149Y-112365617D01*
X115237360Y-112362668D01*
X115237358Y-112362666D01*
X115120698Y-112303225D01*
X115084864Y-112284967D01*
X115034068Y-112236993D01*
X115017273Y-112169172D01*
X115039810Y-112103037D01*
X115094525Y-112059585D01*
X115136291Y-112050578D01*
X115138274Y-112050500D01*
X115140694Y-112050500D01*
X115177569Y-112047598D01*
X115316608Y-112007203D01*
X115327905Y-112003921D01*
X115335398Y-112001744D01*
X115349817Y-111993217D01*
X115443004Y-111938106D01*
X115476865Y-111918081D01*
X115593081Y-111801865D01*
X115676744Y-111660398D01*
X115722598Y-111502569D01*
X115725500Y-111465694D01*
X115725500Y-108334306D01*
X115722598Y-108297431D01*
X115676744Y-108139602D01*
X115593081Y-107998135D01*
X115476865Y-107881919D01*
X115335398Y-107798256D01*
X115177569Y-107752402D01*
X115140694Y-107749500D01*
X114209306Y-107749500D01*
X114172431Y-107752402D01*
X114109587Y-107770660D01*
X114074595Y-107780826D01*
X114005405Y-107780826D01*
X113970413Y-107770660D01*
X113907569Y-107752402D01*
X113870694Y-107749500D01*
X112939306Y-107749500D01*
X112902431Y-107752402D01*
X112744602Y-107798256D01*
X112737888Y-107802226D01*
X112737887Y-107802227D01*
X112615288Y-107874732D01*
X112552167Y-107892000D01*
X112406830Y-107892000D01*
X112391831Y-107896404D01*
X112390644Y-107897774D01*
X112389000Y-107905332D01*
X112389000Y-108171024D01*
X112384076Y-108205619D01*
X112357402Y-108297431D01*
X112354500Y-108334306D01*
X112354500Y-111465694D01*
X112357402Y-111502569D01*
X112359171Y-111508657D01*
X112384076Y-111594381D01*
X112389000Y-111628976D01*
X112389000Y-111890169D01*
X112393404Y-111905168D01*
X112394774Y-111906355D01*
X112402332Y-111907999D01*
X112455500Y-111907999D01*
X112522539Y-111927684D01*
X112568294Y-111980488D01*
X112579500Y-112031999D01*
X112579500Y-112130141D01*
X112559815Y-112197180D01*
X112507011Y-112242935D01*
X112437853Y-112252879D01*
X112423407Y-112249916D01*
X112395528Y-112242446D01*
X112351645Y-112230688D01*
X112273021Y-112224500D01*
X111815797Y-112224500D01*
X111748758Y-112204815D01*
X111728150Y-112188215D01*
X111726853Y-112186919D01*
X111693344Y-112125609D01*
X111690500Y-112099204D01*
X111690500Y-112032000D01*
X111710185Y-111964961D01*
X111762989Y-111919206D01*
X111814500Y-111908000D01*
X111863170Y-111908000D01*
X111878169Y-111903596D01*
X111879356Y-111902226D01*
X111881000Y-111894668D01*
X111881000Y-111628976D01*
X111885924Y-111594381D01*
X111910829Y-111508657D01*
X111912598Y-111502569D01*
X111915500Y-111465694D01*
X111915500Y-108334306D01*
X111912598Y-108297431D01*
X111885924Y-108205619D01*
X111881000Y-108171024D01*
X111881000Y-107909831D01*
X111876596Y-107894832D01*
X111875226Y-107893645D01*
X111867668Y-107892001D01*
X111717835Y-107892001D01*
X111654714Y-107874733D01*
X111532113Y-107802227D01*
X111532112Y-107802226D01*
X111525398Y-107798256D01*
X111367569Y-107752402D01*
X111330694Y-107749500D01*
X110399306Y-107749500D01*
X110362431Y-107752402D01*
X110299587Y-107770660D01*
X110264595Y-107780826D01*
X110195405Y-107780826D01*
X110160413Y-107770660D01*
X110097569Y-107752402D01*
X110060694Y-107749500D01*
X109129306Y-107749500D01*
X109092431Y-107752402D01*
X108934602Y-107798256D01*
X108793135Y-107881919D01*
X108676919Y-107998135D01*
X108593256Y-108139602D01*
X108547402Y-108297431D01*
X108544500Y-108334306D01*
X108544500Y-111465694D01*
X108547402Y-111502569D01*
X108593256Y-111660398D01*
X108676919Y-111801865D01*
X108733181Y-111858127D01*
X108766666Y-111919450D01*
X108769500Y-111945808D01*
X108769500Y-112104955D01*
X108749815Y-112171994D01*
X108697011Y-112217749D01*
X108655230Y-112228573D01*
X108634019Y-112230242D01*
X108634016Y-112230243D01*
X108628355Y-112230688D01*
X108445512Y-112279680D01*
X108439729Y-112282627D01*
X108439728Y-112282627D01*
X108282642Y-112362666D01*
X108282640Y-112362668D01*
X108276851Y-112365617D01*
X108129743Y-112484743D01*
X108010617Y-112631851D01*
X107924680Y-112800512D01*
X107923000Y-112806783D01*
X107877159Y-112977863D01*
X107877158Y-112977869D01*
X107875688Y-112983355D01*
X107869500Y-113061979D01*
X107869501Y-113713020D01*
X107875688Y-113791645D01*
X107924680Y-113974488D01*
X107927627Y-113980271D01*
X107927627Y-113980272D01*
X107953388Y-114030830D01*
X108010617Y-114143149D01*
X108014708Y-114148201D01*
X108044478Y-114184964D01*
X108071370Y-114249452D01*
X108059128Y-114318241D01*
X108011639Y-114369491D01*
X107948112Y-114387000D01*
X107077424Y-114387000D01*
X107067048Y-114386565D01*
X107060330Y-114386001D01*
X107017212Y-114382380D01*
X106939794Y-114392710D01*
X106936841Y-114393067D01*
X106906658Y-114396346D01*
X106865861Y-114400778D01*
X106865858Y-114400779D01*
X106859191Y-114401503D01*
X106852831Y-114403643D01*
X106850153Y-114404232D01*
X106849667Y-114404318D01*
X106849220Y-114404422D01*
X106848735Y-114404563D01*
X106846085Y-114405214D01*
X106839429Y-114406102D01*
X106833125Y-114408397D01*
X106833123Y-114408397D01*
X106803932Y-114419022D01*
X106766019Y-114432821D01*
X106763274Y-114433783D01*
X106689200Y-114458711D01*
X106683445Y-114462169D01*
X106680962Y-114463316D01*
X106680493Y-114463509D01*
X106680103Y-114463695D01*
X106679653Y-114463941D01*
X106677197Y-114465149D01*
X106670888Y-114467446D01*
X106665219Y-114471043D01*
X106665214Y-114471046D01*
X106607003Y-114507987D01*
X106551801Y-114526780D01*
X106531205Y-114528654D01*
X106482203Y-114533114D01*
X106476390Y-114534825D01*
X106476389Y-114534825D01*
X106444298Y-114544270D01*
X106284572Y-114591280D01*
X106200819Y-114635065D01*
X106107374Y-114683917D01*
X106107370Y-114683920D01*
X106102002Y-114686726D01*
X105941447Y-114815815D01*
X105809024Y-114973630D01*
X105709776Y-115154162D01*
X105707942Y-115159944D01*
X105707941Y-115159946D01*
X105665036Y-115295200D01*
X105647484Y-115350532D01*
X105646808Y-115356560D01*
X105625360Y-115547775D01*
X105624520Y-115555262D01*
X102107888Y-115555262D01*
X102035627Y-115291120D01*
X102028283Y-115273901D01*
X101922244Y-115025297D01*
X101920587Y-115021412D01*
X101908583Y-115001354D01*
X101772175Y-114773433D01*
X101772172Y-114773428D01*
X101770008Y-114769813D01*
X101586676Y-114540977D01*
X101442777Y-114404422D01*
X101377048Y-114342047D01*
X101377043Y-114342043D01*
X101373983Y-114339139D01*
X101370557Y-114336677D01*
X101370552Y-114336673D01*
X101159425Y-114184964D01*
X101135866Y-114168035D01*
X101061811Y-114128825D01*
X100880456Y-114032802D01*
X100880453Y-114032800D01*
X100876731Y-114030830D01*
X100705633Y-113968217D01*
X100605327Y-113931510D01*
X100605323Y-113931509D01*
X100601372Y-113930063D01*
X100569093Y-113923025D01*
X100319006Y-113868497D01*
X100319002Y-113868496D01*
X100314886Y-113867599D01*
X100310682Y-113867268D01*
X100310681Y-113867268D01*
X100274468Y-113864418D01*
X100084920Y-113849500D01*
X99926290Y-113849500D01*
X99754792Y-113861191D01*
X99711671Y-113864131D01*
X99711670Y-113864131D01*
X99707462Y-113864418D01*
X99703334Y-113865273D01*
X99703333Y-113865273D01*
X99687765Y-113868497D01*
X99420337Y-113923879D01*
X99416369Y-113925284D01*
X99416366Y-113925285D01*
X99295130Y-113968217D01*
X99143938Y-114021757D01*
X98883380Y-114156241D01*
X98879929Y-114158666D01*
X98879928Y-114158667D01*
X98646941Y-114322412D01*
X98646937Y-114322415D01*
X98643484Y-114324842D01*
X98640391Y-114327716D01*
X98640390Y-114327717D01*
X98431783Y-114521567D01*
X98431777Y-114521573D01*
X98428690Y-114524442D01*
X98242972Y-114751345D01*
X98089766Y-115001354D01*
X98088071Y-115005214D01*
X98088069Y-115005219D01*
X98030837Y-115135598D01*
X97971908Y-115269842D01*
X97891578Y-115551841D01*
X97850264Y-115842133D01*
X97848728Y-116135347D01*
X96535500Y-116135347D01*
X96535500Y-108268673D01*
X96555185Y-108201634D01*
X96607989Y-108155879D01*
X96677147Y-108145935D01*
X96740703Y-108174960D01*
X96778696Y-108234494D01*
X96808544Y-108338586D01*
X96902712Y-108521818D01*
X97030677Y-108683270D01*
X97035296Y-108687201D01*
X97182950Y-108812865D01*
X97182955Y-108812869D01*
X97187564Y-108816791D01*
X97367398Y-108917297D01*
X97563329Y-108980959D01*
X97569347Y-108981677D01*
X97569349Y-108981677D01*
X97707930Y-108998201D01*
X97767894Y-109005351D01*
X97773938Y-109004886D01*
X97773939Y-109004886D01*
X97835266Y-109000167D01*
X97973300Y-108989546D01*
X98058596Y-108965731D01*
X98165885Y-108935776D01*
X98165889Y-108935774D01*
X98171725Y-108934145D01*
X98355610Y-108841258D01*
X98360385Y-108837528D01*
X98360392Y-108837523D01*
X98406132Y-108801787D01*
X98471079Y-108776025D01*
X98482474Y-108775500D01*
X99643940Y-108775500D01*
X99710979Y-108795185D01*
X99756734Y-108847989D01*
X99766678Y-108917147D01*
X99737653Y-108980703D01*
X99721639Y-108996138D01*
X99596173Y-109097015D01*
X99591447Y-109100815D01*
X99459024Y-109258630D01*
X99359776Y-109439162D01*
X99357942Y-109444944D01*
X99357941Y-109444946D01*
X99353624Y-109458555D01*
X99297484Y-109635532D01*
X99290731Y-109695738D01*
X99278625Y-109803668D01*
X99274520Y-109840262D01*
X99291759Y-110045553D01*
X99348544Y-110243586D01*
X99442712Y-110426818D01*
X99446480Y-110431572D01*
X99477678Y-110470934D01*
X99503893Y-110535699D01*
X99504500Y-110547956D01*
X99504500Y-111085073D01*
X99504065Y-111095449D01*
X99499880Y-111145288D01*
X99500768Y-111151943D01*
X99510208Y-111222692D01*
X99510569Y-111225677D01*
X99519003Y-111303309D01*
X99521142Y-111309665D01*
X99521729Y-111312333D01*
X99521815Y-111312819D01*
X99521922Y-111313280D01*
X99522063Y-111313765D01*
X99522712Y-111316410D01*
X99523601Y-111323071D01*
X99550321Y-111396481D01*
X99551302Y-111399282D01*
X99574068Y-111466934D01*
X99574070Y-111466939D01*
X99576211Y-111473300D01*
X99579671Y-111479059D01*
X99580814Y-111481532D01*
X99581008Y-111482004D01*
X99581199Y-111482403D01*
X99581441Y-111482847D01*
X99582649Y-111485303D01*
X99584946Y-111491612D01*
X99588543Y-111497280D01*
X99588544Y-111497282D01*
X99626762Y-111557504D01*
X99628343Y-111560064D01*
X99668587Y-111627040D01*
X99673200Y-111631918D01*
X99674855Y-111634099D01*
X99675443Y-111634945D01*
X99678328Y-111638759D01*
X99681051Y-111643050D01*
X99684716Y-111647150D01*
X99736625Y-111699059D01*
X99739039Y-111701541D01*
X99771225Y-111735576D01*
X99791822Y-111757357D01*
X99797375Y-111761131D01*
X99802472Y-111765469D01*
X99809776Y-111772210D01*
X99818050Y-111780483D01*
X99825079Y-111788126D01*
X99857362Y-111826329D01*
X99862696Y-111830407D01*
X99919393Y-111873755D01*
X99921778Y-111875625D01*
X99975982Y-111919206D01*
X99982622Y-111924545D01*
X99988628Y-111927527D01*
X99990938Y-111929004D01*
X99991352Y-111929293D01*
X99991720Y-111929523D01*
X99992164Y-111929767D01*
X99994515Y-111931191D01*
X99999847Y-111935267D01*
X100005934Y-111938105D01*
X100005935Y-111938106D01*
X100070647Y-111968282D01*
X100073340Y-111969578D01*
X100143276Y-112004294D01*
X100149798Y-112005920D01*
X100152347Y-112006858D01*
X100152836Y-112007062D01*
X100153236Y-112007203D01*
X100153720Y-112007346D01*
X100156317Y-112008230D01*
X100162401Y-112011067D01*
X100168952Y-112012531D01*
X100168954Y-112012532D01*
X100199388Y-112019335D01*
X100238625Y-112028105D01*
X100241553Y-112028798D01*
X100310788Y-112046061D01*
X100310798Y-112046062D01*
X100317306Y-112047685D01*
X100324009Y-112047873D01*
X100326735Y-112048246D01*
X100327759Y-112048430D01*
X100332486Y-112049086D01*
X100337440Y-112050193D01*
X100342931Y-112050500D01*
X100416340Y-112050500D01*
X100419803Y-112050548D01*
X100496594Y-112052693D01*
X100503193Y-112051434D01*
X100509847Y-112050899D01*
X100519792Y-112050500D01*
X101434684Y-112050500D01*
X101501723Y-112070185D01*
X101545169Y-112118205D01*
X101561659Y-112150567D01*
X101570617Y-112168149D01*
X101574708Y-112173201D01*
X101620899Y-112230242D01*
X101689743Y-112315257D01*
X101836851Y-112434383D01*
X101842640Y-112437332D01*
X101842642Y-112437334D01*
X101927667Y-112480656D01*
X102005512Y-112520320D01*
X102069980Y-112537594D01*
X102182863Y-112567841D01*
X102182869Y-112567842D01*
X102188355Y-112569312D01*
X102266979Y-112575500D01*
X102269424Y-112575500D01*
X102594038Y-112575499D01*
X102918020Y-112575499D01*
X102945384Y-112573346D01*
X102990980Y-112569758D01*
X102990982Y-112569758D01*
X102996645Y-112569312D01*
X103179488Y-112520320D01*
X103257333Y-112480656D01*
X103342358Y-112437334D01*
X103342360Y-112437332D01*
X103348149Y-112434383D01*
X103426963Y-112370560D01*
X103491452Y-112343668D01*
X103560241Y-112355910D01*
X103583036Y-112370560D01*
X103661851Y-112434383D01*
X103667640Y-112437332D01*
X103667642Y-112437334D01*
X103752667Y-112480656D01*
X103830512Y-112520320D01*
X103894980Y-112537594D01*
X104007863Y-112567841D01*
X104007869Y-112567842D01*
X104013355Y-112569312D01*
X104091979Y-112575500D01*
X104094424Y-112575500D01*
X104419038Y-112575499D01*
X104743020Y-112575499D01*
X104770384Y-112573346D01*
X104815980Y-112569758D01*
X104815982Y-112569758D01*
X104821645Y-112569312D01*
X105004488Y-112520320D01*
X105082333Y-112480656D01*
X105167358Y-112437334D01*
X105167360Y-112437332D01*
X105173149Y-112434383D01*
X105320257Y-112315257D01*
X105389101Y-112230242D01*
X105435292Y-112173201D01*
X105439383Y-112168149D01*
X105448342Y-112150567D01*
X105522373Y-112005272D01*
X105522373Y-112005271D01*
X105525320Y-111999488D01*
X105547133Y-111918081D01*
X105572841Y-111822137D01*
X105572842Y-111822131D01*
X105574312Y-111816645D01*
X105580500Y-111738021D01*
X105580499Y-110711980D01*
X105574312Y-110633355D01*
X105525320Y-110450512D01*
X105525434Y-110450482D01*
X105520019Y-110383656D01*
X105553748Y-110321186D01*
X111420476Y-104454457D01*
X111428120Y-104447427D01*
X111466329Y-104415138D01*
X111513755Y-104353107D01*
X111515625Y-104350722D01*
X111560341Y-104295107D01*
X111560342Y-104295106D01*
X111564545Y-104289878D01*
X111567527Y-104283872D01*
X111569004Y-104281562D01*
X111569293Y-104281148D01*
X111569523Y-104280780D01*
X111569767Y-104280336D01*
X111571191Y-104277984D01*
X111575267Y-104272653D01*
X111608269Y-104201881D01*
X111609579Y-104199159D01*
X111641309Y-104135239D01*
X111644295Y-104129224D01*
X111645921Y-104122703D01*
X111646860Y-104120150D01*
X111647057Y-104119677D01*
X111647208Y-104119251D01*
X111647351Y-104118765D01*
X111648231Y-104116181D01*
X111651067Y-104110099D01*
X111652530Y-104103554D01*
X111652532Y-104103548D01*
X111668091Y-104033936D01*
X111668789Y-104030985D01*
X111686062Y-103961708D01*
X111686062Y-103961707D01*
X111687686Y-103955194D01*
X111687873Y-103948489D01*
X111688249Y-103945749D01*
X111688421Y-103944791D01*
X111689081Y-103940035D01*
X111690193Y-103935060D01*
X111690500Y-103929569D01*
X111690500Y-103856174D01*
X111690548Y-103852712D01*
X111690969Y-103837642D01*
X111692693Y-103775905D01*
X111691434Y-103769306D01*
X111690899Y-103762652D01*
X111690500Y-103752707D01*
X111690500Y-101232000D01*
X111710185Y-101164961D01*
X111762989Y-101119206D01*
X111814500Y-101108000D01*
X111863170Y-101108000D01*
X111878169Y-101103596D01*
X111879356Y-101102226D01*
X111881000Y-101094668D01*
X111881000Y-100828976D01*
X111885924Y-100794381D01*
X111903460Y-100734023D01*
X111912598Y-100702569D01*
X111915500Y-100665694D01*
X112354500Y-100665694D01*
X112357402Y-100702569D01*
X112366540Y-100734023D01*
X112384076Y-100794381D01*
X112389000Y-100828976D01*
X112389000Y-101090169D01*
X112393404Y-101105168D01*
X112394774Y-101106355D01*
X112402332Y-101107999D01*
X112455500Y-101107999D01*
X112522539Y-101127684D01*
X112568294Y-101180488D01*
X112579500Y-101231999D01*
X112579500Y-103205073D01*
X112579065Y-103215449D01*
X112574880Y-103265288D01*
X112575768Y-103271943D01*
X112585208Y-103342692D01*
X112585569Y-103345677D01*
X112594003Y-103423309D01*
X112596142Y-103429665D01*
X112596729Y-103432333D01*
X112596815Y-103432819D01*
X112596922Y-103433280D01*
X112597063Y-103433765D01*
X112597712Y-103436410D01*
X112598601Y-103443071D01*
X112625321Y-103516481D01*
X112626302Y-103519282D01*
X112649068Y-103586934D01*
X112649070Y-103586939D01*
X112651211Y-103593300D01*
X112654671Y-103599059D01*
X112655814Y-103601532D01*
X112656008Y-103602004D01*
X112656199Y-103602403D01*
X112656441Y-103602847D01*
X112657649Y-103605303D01*
X112659946Y-103611612D01*
X112663543Y-103617280D01*
X112663544Y-103617282D01*
X112701762Y-103677504D01*
X112703343Y-103680064D01*
X112743587Y-103747040D01*
X112748200Y-103751918D01*
X112749855Y-103754099D01*
X112750443Y-103754945D01*
X112753328Y-103758759D01*
X112756051Y-103763050D01*
X112759716Y-103767150D01*
X112811627Y-103819061D01*
X112814041Y-103821543D01*
X112866822Y-103877357D01*
X112872376Y-103881131D01*
X112877456Y-103885455D01*
X112884759Y-103892193D01*
X113053055Y-104060488D01*
X113060073Y-104068120D01*
X113092362Y-104106329D01*
X113109371Y-104119333D01*
X113154393Y-104153755D01*
X113156778Y-104155625D01*
X113211625Y-104199723D01*
X113217622Y-104204545D01*
X113223628Y-104207527D01*
X113225938Y-104209004D01*
X113226352Y-104209293D01*
X113226720Y-104209523D01*
X113227164Y-104209767D01*
X113229516Y-104211191D01*
X113234847Y-104215267D01*
X113240931Y-104218104D01*
X113305613Y-104248266D01*
X113308334Y-104249576D01*
X113378276Y-104284295D01*
X113384797Y-104285921D01*
X113387350Y-104286860D01*
X113387826Y-104287058D01*
X113388243Y-104287206D01*
X113388736Y-104287351D01*
X113391316Y-104288229D01*
X113397401Y-104291067D01*
X113403949Y-104292531D01*
X113403953Y-104292532D01*
X113473600Y-104308099D01*
X113476550Y-104308797D01*
X113545788Y-104326061D01*
X113545792Y-104326062D01*
X113552307Y-104327686D01*
X113559019Y-104327874D01*
X113561751Y-104328248D01*
X113562724Y-104328423D01*
X113567465Y-104329081D01*
X113572440Y-104330193D01*
X113577931Y-104330500D01*
X113651305Y-104330500D01*
X113654767Y-104330548D01*
X113724885Y-104332507D01*
X113724889Y-104332507D01*
X113731595Y-104332694D01*
X113738191Y-104331436D01*
X113744845Y-104330900D01*
X113754794Y-104330500D01*
X116153940Y-104330500D01*
X116220979Y-104350185D01*
X116266734Y-104402989D01*
X116276678Y-104472147D01*
X116247653Y-104535703D01*
X116231639Y-104551138D01*
X116166687Y-104603361D01*
X116101447Y-104655815D01*
X116097548Y-104660462D01*
X115992005Y-104786243D01*
X115969024Y-104813630D01*
X115869776Y-104994162D01*
X115867942Y-104999944D01*
X115867941Y-104999946D01*
X115809317Y-105184753D01*
X115807484Y-105190532D01*
X115806808Y-105196560D01*
X115796236Y-105290815D01*
X115784520Y-105395262D01*
X115801759Y-105600553D01*
X115858544Y-105798586D01*
X115861316Y-105803981D01*
X115861317Y-105803982D01*
X115865531Y-105812181D01*
X115952712Y-105981818D01*
X115956480Y-105986572D01*
X116066593Y-106125500D01*
X116080677Y-106143270D01*
X116189110Y-106235553D01*
X116228900Y-106269417D01*
X116267195Y-106327857D01*
X116267816Y-106397724D01*
X116226232Y-106460485D01*
X116101447Y-106560815D01*
X115969024Y-106718630D01*
X115869776Y-106899162D01*
X115867942Y-106904944D01*
X115867941Y-106904946D01*
X115813693Y-107075959D01*
X115807484Y-107095532D01*
X115804235Y-107124500D01*
X115790337Y-107248405D01*
X115784520Y-107300262D01*
X115801759Y-107505553D01*
X115858544Y-107703586D01*
X115861316Y-107708981D01*
X115861317Y-107708982D01*
X115883855Y-107752836D01*
X115952712Y-107886818D01*
X115956480Y-107891572D01*
X116040941Y-107998135D01*
X116080677Y-108048270D01*
X116085296Y-108052201D01*
X116232950Y-108177865D01*
X116232955Y-108177869D01*
X116237564Y-108181791D01*
X116417398Y-108282297D01*
X116613329Y-108345959D01*
X116619347Y-108346677D01*
X116619349Y-108346677D01*
X116717515Y-108358382D01*
X116817894Y-108370351D01*
X116823938Y-108369886D01*
X116823939Y-108369886D01*
X116848166Y-108368022D01*
X116916585Y-108362757D01*
X116984936Y-108377241D01*
X117013775Y-108398708D01*
X117268182Y-108653115D01*
X117301667Y-108714438D01*
X117304501Y-108740796D01*
X117304501Y-109198020D01*
X117304691Y-109200433D01*
X117309330Y-109259383D01*
X117310688Y-109276645D01*
X117359680Y-109459488D01*
X117362627Y-109465271D01*
X117362627Y-109465272D01*
X117398304Y-109535291D01*
X117445617Y-109628149D01*
X117564743Y-109775257D01*
X117711851Y-109894383D01*
X117717640Y-109897332D01*
X117717642Y-109897334D01*
X117777828Y-109928000D01*
X117880512Y-109980320D01*
X117943734Y-109997260D01*
X118057863Y-110027841D01*
X118057869Y-110027842D01*
X118063355Y-110029312D01*
X118141979Y-110035500D01*
X118144424Y-110035500D01*
X118469038Y-110035499D01*
X118793020Y-110035499D01*
X118820384Y-110033346D01*
X118865980Y-110029758D01*
X118865982Y-110029758D01*
X118871645Y-110029312D01*
X119054488Y-109980320D01*
X119157172Y-109928000D01*
X119217358Y-109897334D01*
X119217360Y-109897332D01*
X119223149Y-109894383D01*
X119238244Y-109882159D01*
X119301964Y-109830560D01*
X119366452Y-109803668D01*
X119435241Y-109815910D01*
X119458036Y-109830560D01*
X119521756Y-109882159D01*
X119536851Y-109894383D01*
X119542640Y-109897332D01*
X119542642Y-109897334D01*
X119602828Y-109928000D01*
X119705512Y-109980320D01*
X119768734Y-109997260D01*
X119882863Y-110027841D01*
X119882869Y-110027842D01*
X119888355Y-110029312D01*
X119966979Y-110035500D01*
X119969424Y-110035500D01*
X120294038Y-110035499D01*
X120618020Y-110035499D01*
X120645384Y-110033346D01*
X120690980Y-110029758D01*
X120690982Y-110029758D01*
X120696645Y-110029312D01*
X120879488Y-109980320D01*
X120982172Y-109928000D01*
X121042358Y-109897334D01*
X121042360Y-109897332D01*
X121048149Y-109894383D01*
X121195257Y-109775257D01*
X121314383Y-109628149D01*
X121361697Y-109535291D01*
X121397373Y-109465272D01*
X121397373Y-109465271D01*
X121400320Y-109459488D01*
X121430911Y-109345320D01*
X121447841Y-109282137D01*
X121447842Y-109282131D01*
X121449312Y-109276645D01*
X121455500Y-109198021D01*
X121455500Y-108998296D01*
X121475185Y-108931257D01*
X121491819Y-108910615D01*
X122475476Y-107926957D01*
X122483120Y-107919927D01*
X122500391Y-107905332D01*
X122521329Y-107887638D01*
X122568755Y-107825607D01*
X122570625Y-107823222D01*
X122615341Y-107767607D01*
X122615342Y-107767606D01*
X122619545Y-107762378D01*
X122622527Y-107756372D01*
X122624004Y-107754062D01*
X122624293Y-107753648D01*
X122624523Y-107753280D01*
X122624767Y-107752836D01*
X122626191Y-107750484D01*
X122630267Y-107745153D01*
X122663269Y-107674381D01*
X122664579Y-107671659D01*
X122696309Y-107607739D01*
X122699295Y-107601724D01*
X122700921Y-107595203D01*
X122701860Y-107592650D01*
X122702056Y-107592180D01*
X122702207Y-107591753D01*
X122702351Y-107591264D01*
X122703229Y-107588684D01*
X122706067Y-107582599D01*
X122712440Y-107554090D01*
X122723099Y-107506400D01*
X122723797Y-107503450D01*
X122741061Y-107434212D01*
X122741062Y-107434208D01*
X122742686Y-107427693D01*
X122742874Y-107420981D01*
X122743248Y-107418249D01*
X122743423Y-107417276D01*
X122744081Y-107412535D01*
X122745193Y-107407560D01*
X122745500Y-107402069D01*
X122745500Y-107328695D01*
X122745548Y-107325233D01*
X122747507Y-107255115D01*
X122747507Y-107255111D01*
X122747694Y-107248405D01*
X122746436Y-107241809D01*
X122745900Y-107235155D01*
X122745500Y-107225206D01*
X122745500Y-104814924D01*
X122745935Y-104804548D01*
X122749558Y-104761404D01*
X122750120Y-104754712D01*
X122739790Y-104677294D01*
X122739430Y-104674318D01*
X122731722Y-104603361D01*
X122731721Y-104603358D01*
X122730997Y-104596691D01*
X122728857Y-104590331D01*
X122728268Y-104587653D01*
X122728182Y-104587167D01*
X122728078Y-104586720D01*
X122727937Y-104586235D01*
X122727286Y-104583585D01*
X122726398Y-104576929D01*
X122699677Y-104503513D01*
X122698715Y-104500768D01*
X122673789Y-104426700D01*
X122670327Y-104420938D01*
X122669185Y-104418467D01*
X122668992Y-104418000D01*
X122668791Y-104417578D01*
X122668551Y-104417137D01*
X122667350Y-104414697D01*
X122665054Y-104408387D01*
X122623221Y-104342469D01*
X122621640Y-104339909D01*
X122617193Y-104332507D01*
X122581413Y-104272960D01*
X122576800Y-104268082D01*
X122575145Y-104265901D01*
X122574557Y-104265056D01*
X122571677Y-104261249D01*
X122568949Y-104256950D01*
X122565283Y-104252850D01*
X122513387Y-104200954D01*
X122510973Y-104198472D01*
X122462796Y-104147526D01*
X122462794Y-104147524D01*
X122458178Y-104142643D01*
X122452619Y-104138865D01*
X122447538Y-104134541D01*
X122440223Y-104127790D01*
X119991958Y-101679525D01*
X119984928Y-101671881D01*
X119956971Y-101638798D01*
X119956969Y-101638796D01*
X119952638Y-101633671D01*
X119890607Y-101586245D01*
X119888222Y-101584375D01*
X119832607Y-101539659D01*
X119832606Y-101539658D01*
X119827378Y-101535455D01*
X119821372Y-101532473D01*
X119819062Y-101530996D01*
X119818648Y-101530707D01*
X119818280Y-101530477D01*
X119817836Y-101530233D01*
X119815484Y-101528809D01*
X119810153Y-101524733D01*
X119739381Y-101491731D01*
X119736659Y-101490421D01*
X119672739Y-101458691D01*
X119672740Y-101458691D01*
X119666724Y-101455705D01*
X119660203Y-101454079D01*
X119657650Y-101453140D01*
X119657177Y-101452943D01*
X119656751Y-101452792D01*
X119656265Y-101452649D01*
X119653681Y-101451769D01*
X119647599Y-101448933D01*
X119641054Y-101447470D01*
X119641048Y-101447468D01*
X119591991Y-101436503D01*
X119571414Y-101431904D01*
X119568485Y-101431211D01*
X119499208Y-101413938D01*
X119499207Y-101413938D01*
X119492694Y-101412314D01*
X119485989Y-101412127D01*
X119483249Y-101411751D01*
X119482291Y-101411579D01*
X119477535Y-101410919D01*
X119472560Y-101409807D01*
X119467069Y-101409500D01*
X119393674Y-101409500D01*
X119390212Y-101409452D01*
X119313405Y-101407307D01*
X119306806Y-101408566D01*
X119300152Y-101409101D01*
X119290207Y-101409500D01*
X115963296Y-101409500D01*
X115896257Y-101389815D01*
X115875615Y-101373181D01*
X115628100Y-101125666D01*
X115594615Y-101064343D01*
X115599599Y-100994651D01*
X115609049Y-100974864D01*
X115672773Y-100867113D01*
X115672774Y-100867112D01*
X115676744Y-100860398D01*
X115722598Y-100702569D01*
X115725500Y-100665694D01*
X115725500Y-100135347D01*
X120848728Y-100135347D01*
X120887001Y-100426055D01*
X120964373Y-100708880D01*
X120966029Y-100712763D01*
X120966031Y-100712768D01*
X120975097Y-100734023D01*
X121079413Y-100978588D01*
X121081582Y-100982213D01*
X121081583Y-100982214D01*
X121200248Y-101180488D01*
X121229992Y-101230187D01*
X121413324Y-101459023D01*
X121489092Y-101530924D01*
X121622952Y-101657953D01*
X121622957Y-101657957D01*
X121626017Y-101660861D01*
X121629443Y-101663323D01*
X121629448Y-101663327D01*
X121762914Y-101759231D01*
X121864134Y-101831965D01*
X121867870Y-101833943D01*
X122119544Y-101967198D01*
X122119547Y-101967200D01*
X122123269Y-101969170D01*
X122260949Y-102019554D01*
X122394673Y-102068490D01*
X122394677Y-102068491D01*
X122398628Y-102069937D01*
X122402742Y-102070834D01*
X122680994Y-102131503D01*
X122680998Y-102131504D01*
X122685114Y-102132401D01*
X122689318Y-102132732D01*
X122689319Y-102132732D01*
X122714668Y-102134727D01*
X122915080Y-102150500D01*
X123073710Y-102150500D01*
X123245208Y-102138809D01*
X123288329Y-102135869D01*
X123288330Y-102135869D01*
X123292538Y-102135582D01*
X123307899Y-102132401D01*
X123363364Y-102120915D01*
X123579663Y-102076121D01*
X123583631Y-102074716D01*
X123583634Y-102074715D01*
X123717862Y-102027182D01*
X123856062Y-101978243D01*
X124116620Y-101843759D01*
X124136913Y-101829497D01*
X124353059Y-101677588D01*
X124353063Y-101677585D01*
X124356516Y-101675158D01*
X124359610Y-101672283D01*
X124568217Y-101478433D01*
X124568223Y-101478427D01*
X124571310Y-101475558D01*
X124757028Y-101248655D01*
X124910234Y-100998646D01*
X124920745Y-100974703D01*
X125026395Y-100734023D01*
X125028092Y-100730158D01*
X125108422Y-100448159D01*
X125149736Y-100157867D01*
X125151272Y-99864653D01*
X125112999Y-99573945D01*
X125035627Y-99291120D01*
X125028283Y-99273901D01*
X124922244Y-99025297D01*
X124920587Y-99021412D01*
X124908583Y-99001354D01*
X124772175Y-98773433D01*
X124772172Y-98773428D01*
X124770008Y-98769813D01*
X124586676Y-98540977D01*
X124464753Y-98425277D01*
X124377048Y-98342047D01*
X124377043Y-98342043D01*
X124373983Y-98339139D01*
X124370557Y-98336677D01*
X124370552Y-98336673D01*
X124237086Y-98240769D01*
X124135866Y-98168035D01*
X124061811Y-98128825D01*
X123880456Y-98032802D01*
X123880453Y-98032800D01*
X123876731Y-98030830D01*
X123739052Y-97980447D01*
X123605327Y-97931510D01*
X123605323Y-97931509D01*
X123601372Y-97930063D01*
X123569093Y-97923025D01*
X123319006Y-97868497D01*
X123319002Y-97868496D01*
X123314886Y-97867599D01*
X123310682Y-97867268D01*
X123310681Y-97867268D01*
X123274468Y-97864418D01*
X123084920Y-97849500D01*
X122926290Y-97849500D01*
X122754792Y-97861191D01*
X122711671Y-97864131D01*
X122711670Y-97864131D01*
X122707462Y-97864418D01*
X122703334Y-97865273D01*
X122703333Y-97865273D01*
X122687765Y-97868497D01*
X122420337Y-97923879D01*
X122416369Y-97925284D01*
X122416366Y-97925285D01*
X122282137Y-97972818D01*
X122143938Y-98021757D01*
X121883380Y-98156241D01*
X121879929Y-98158666D01*
X121879928Y-98158667D01*
X121646941Y-98322412D01*
X121646937Y-98322415D01*
X121643484Y-98324842D01*
X121640391Y-98327716D01*
X121640390Y-98327717D01*
X121431783Y-98521567D01*
X121431777Y-98521573D01*
X121428690Y-98524442D01*
X121242972Y-98751345D01*
X121089766Y-99001354D01*
X121088071Y-99005214D01*
X121088069Y-99005219D01*
X121030837Y-99135598D01*
X120971908Y-99269842D01*
X120891578Y-99551841D01*
X120850264Y-99842133D01*
X120848728Y-100135347D01*
X115725500Y-100135347D01*
X115725500Y-97534306D01*
X115722598Y-97497431D01*
X115676744Y-97339602D01*
X115593081Y-97198135D01*
X115476865Y-97081919D01*
X115335398Y-96998256D01*
X115177569Y-96952402D01*
X115140694Y-96949500D01*
X114209306Y-96949500D01*
X114172431Y-96952402D01*
X114109587Y-96970660D01*
X114074595Y-96980826D01*
X114005405Y-96980826D01*
X113970413Y-96970660D01*
X113907569Y-96952402D01*
X113870694Y-96949500D01*
X112939306Y-96949500D01*
X112902431Y-96952402D01*
X112744602Y-96998256D01*
X112737888Y-97002226D01*
X112737887Y-97002227D01*
X112615288Y-97074732D01*
X112552167Y-97092000D01*
X112406830Y-97092000D01*
X112391831Y-97096404D01*
X112390644Y-97097774D01*
X112389000Y-97105332D01*
X112389000Y-97371024D01*
X112384076Y-97405619D01*
X112357402Y-97497431D01*
X112354500Y-97534306D01*
X112354500Y-100665694D01*
X111915500Y-100665694D01*
X111915500Y-97534306D01*
X111912598Y-97497431D01*
X111885924Y-97405619D01*
X111881000Y-97371024D01*
X111881000Y-97109831D01*
X111876596Y-97094832D01*
X111875226Y-97093645D01*
X111867668Y-97092001D01*
X111717835Y-97092001D01*
X111654714Y-97074733D01*
X111532113Y-97002227D01*
X111532112Y-97002226D01*
X111525398Y-96998256D01*
X111367569Y-96952402D01*
X111330694Y-96949500D01*
X110399306Y-96949500D01*
X110362431Y-96952402D01*
X110299587Y-96970660D01*
X110264595Y-96980826D01*
X110195405Y-96980826D01*
X110160413Y-96970660D01*
X110097569Y-96952402D01*
X110060694Y-96949500D01*
X109129306Y-96949500D01*
X109092431Y-96952402D01*
X109029587Y-96970660D01*
X108994595Y-96980826D01*
X108925405Y-96980826D01*
X108890413Y-96970660D01*
X108827569Y-96952402D01*
X108790694Y-96949500D01*
X107859306Y-96949500D01*
X107822431Y-96952402D01*
X107664602Y-96998256D01*
X107523135Y-97081919D01*
X107406919Y-97198135D01*
X107323256Y-97339602D01*
X107277402Y-97497431D01*
X107274500Y-97534306D01*
X107274500Y-100665694D01*
X107277402Y-100702569D01*
X107323256Y-100860398D01*
X107406919Y-101001865D01*
X107463181Y-101058127D01*
X107496666Y-101119450D01*
X107499500Y-101145808D01*
X107499500Y-102736704D01*
X107479815Y-102803743D01*
X107463181Y-102824385D01*
X106374386Y-103913181D01*
X106313063Y-103946666D01*
X106286705Y-103949500D01*
X105575316Y-103949500D01*
X105508277Y-103929815D01*
X105464831Y-103881795D01*
X105442334Y-103837642D01*
X105442332Y-103837640D01*
X105439383Y-103831851D01*
X105320257Y-103684743D01*
X105173149Y-103565617D01*
X105167360Y-103562668D01*
X105167358Y-103562666D01*
X105010272Y-103482627D01*
X105010271Y-103482627D01*
X105004488Y-103479680D01*
X104940020Y-103462406D01*
X104827137Y-103432159D01*
X104827131Y-103432158D01*
X104821645Y-103430688D01*
X104743021Y-103424500D01*
X104740576Y-103424500D01*
X104415962Y-103424501D01*
X104091980Y-103424501D01*
X104064616Y-103426654D01*
X104019020Y-103430242D01*
X104019018Y-103430242D01*
X104013355Y-103430688D01*
X103830512Y-103479680D01*
X103824729Y-103482627D01*
X103824728Y-103482627D01*
X103667642Y-103562666D01*
X103667640Y-103562668D01*
X103661851Y-103565617D01*
X103656799Y-103569708D01*
X103583036Y-103629440D01*
X103518548Y-103656332D01*
X103449759Y-103644090D01*
X103426964Y-103629440D01*
X103353201Y-103569708D01*
X103348149Y-103565617D01*
X103342360Y-103562668D01*
X103342358Y-103562666D01*
X103185272Y-103482627D01*
X103185271Y-103482627D01*
X103179488Y-103479680D01*
X103115020Y-103462406D01*
X103002137Y-103432159D01*
X103002131Y-103432158D01*
X102996645Y-103430688D01*
X102918021Y-103424500D01*
X102915576Y-103424500D01*
X102590962Y-103424501D01*
X102266980Y-103424501D01*
X102239616Y-103426654D01*
X102194020Y-103430242D01*
X102194018Y-103430242D01*
X102188355Y-103430688D01*
X102005512Y-103479680D01*
X101999729Y-103482627D01*
X101999728Y-103482627D01*
X101842642Y-103562666D01*
X101842640Y-103562668D01*
X101836851Y-103565617D01*
X101689743Y-103684743D01*
X101570617Y-103831851D01*
X101567668Y-103837640D01*
X101567666Y-103837642D01*
X101487627Y-103994728D01*
X101484680Y-104000512D01*
X101483000Y-104006783D01*
X101437159Y-104177863D01*
X101437158Y-104177869D01*
X101435688Y-104183355D01*
X101429500Y-104261979D01*
X101429500Y-104719204D01*
X101409815Y-104786243D01*
X101393181Y-104806885D01*
X101205905Y-104994162D01*
X101056968Y-105143099D01*
X100995645Y-105176584D01*
X100925954Y-105171600D01*
X100910310Y-105164494D01*
X100744393Y-105074783D01*
X100744391Y-105074782D01*
X100739055Y-105071897D01*
X100729991Y-105069091D01*
X100548046Y-105012770D01*
X100548047Y-105012770D01*
X100542254Y-105010977D01*
X100337369Y-104989443D01*
X100331336Y-104989992D01*
X100331332Y-104989992D01*
X100205721Y-105001424D01*
X100132203Y-105008114D01*
X100126390Y-105009825D01*
X100126389Y-105009825D01*
X100122475Y-105010977D01*
X99934572Y-105066280D01*
X99850819Y-105110065D01*
X99757374Y-105158917D01*
X99757370Y-105158920D01*
X99752002Y-105161726D01*
X99591447Y-105290815D01*
X99459024Y-105448630D01*
X99359776Y-105629162D01*
X99297484Y-105825532D01*
X99296808Y-105831560D01*
X99279421Y-105986572D01*
X99274520Y-106030262D01*
X99291759Y-106235553D01*
X99348544Y-106433586D01*
X99442712Y-106616818D01*
X99446480Y-106621572D01*
X99556593Y-106760500D01*
X99570677Y-106778270D01*
X99707826Y-106894992D01*
X99720841Y-106906069D01*
X99759136Y-106964509D01*
X99759757Y-107034376D01*
X99722506Y-107093488D01*
X99659211Y-107123076D01*
X99640474Y-107124500D01*
X98484896Y-107124500D01*
X98417857Y-107104815D01*
X98405856Y-107096044D01*
X98384950Y-107078749D01*
X98384947Y-107078747D01*
X98380275Y-107074882D01*
X98359996Y-107063917D01*
X98204393Y-106979783D01*
X98204391Y-106979782D01*
X98199055Y-106976897D01*
X98189991Y-106974091D01*
X98008046Y-106917770D01*
X98008047Y-106917770D01*
X98002254Y-106915977D01*
X97797369Y-106894443D01*
X97791336Y-106894992D01*
X97791332Y-106894992D01*
X97669617Y-106906069D01*
X97592203Y-106913114D01*
X97586390Y-106914825D01*
X97586389Y-106914825D01*
X97433771Y-106959743D01*
X97394572Y-106971280D01*
X97316114Y-107012297D01*
X97217374Y-107063917D01*
X97217370Y-107063920D01*
X97212002Y-107066726D01*
X97207279Y-107070523D01*
X97207278Y-107070524D01*
X97164629Y-107104815D01*
X97051447Y-107195815D01*
X97047548Y-107200462D01*
X96924523Y-107347077D01*
X96919024Y-107353630D01*
X96819776Y-107534162D01*
X96817942Y-107539944D01*
X96817941Y-107539946D01*
X96777696Y-107666815D01*
X96738662Y-107724764D01*
X96674495Y-107752411D01*
X96605567Y-107740978D01*
X96553762Y-107694094D01*
X96535500Y-107629321D01*
X96535500Y-100135347D01*
X97848728Y-100135347D01*
X97887001Y-100426055D01*
X97964373Y-100708880D01*
X97966029Y-100712763D01*
X97966031Y-100712768D01*
X97975097Y-100734023D01*
X98079413Y-100978588D01*
X98081582Y-100982213D01*
X98081583Y-100982214D01*
X98200248Y-101180488D01*
X98229992Y-101230187D01*
X98413324Y-101459023D01*
X98489092Y-101530924D01*
X98622952Y-101657953D01*
X98622957Y-101657957D01*
X98626017Y-101660861D01*
X98629443Y-101663323D01*
X98629448Y-101663327D01*
X98762914Y-101759231D01*
X98864134Y-101831965D01*
X98867870Y-101833943D01*
X99119544Y-101967198D01*
X99119547Y-101967200D01*
X99123269Y-101969170D01*
X99260949Y-102019554D01*
X99394673Y-102068490D01*
X99394677Y-102068491D01*
X99398628Y-102069937D01*
X99402742Y-102070834D01*
X99680994Y-102131503D01*
X99680998Y-102131504D01*
X99685114Y-102132401D01*
X99689318Y-102132732D01*
X99689319Y-102132732D01*
X99714668Y-102134727D01*
X99915080Y-102150500D01*
X100073710Y-102150500D01*
X100245208Y-102138809D01*
X100288329Y-102135869D01*
X100288330Y-102135869D01*
X100292538Y-102135582D01*
X100307899Y-102132401D01*
X100363364Y-102120915D01*
X100579663Y-102076121D01*
X100583631Y-102074716D01*
X100583634Y-102074715D01*
X100717862Y-102027182D01*
X100856062Y-101978243D01*
X101116620Y-101843759D01*
X101136913Y-101829497D01*
X101353059Y-101677588D01*
X101353063Y-101677585D01*
X101356516Y-101675158D01*
X101359610Y-101672283D01*
X101568217Y-101478433D01*
X101568223Y-101478427D01*
X101571310Y-101475558D01*
X101757028Y-101248655D01*
X101910234Y-100998646D01*
X101920745Y-100974703D01*
X102026395Y-100734023D01*
X102028092Y-100730158D01*
X102108422Y-100448159D01*
X102149736Y-100157867D01*
X102151272Y-99864653D01*
X102112999Y-99573945D01*
X102035627Y-99291120D01*
X102028283Y-99273901D01*
X101922244Y-99025297D01*
X101920587Y-99021412D01*
X101908583Y-99001354D01*
X101772175Y-98773433D01*
X101772172Y-98773428D01*
X101770008Y-98769813D01*
X101586676Y-98540977D01*
X101464753Y-98425277D01*
X101377048Y-98342047D01*
X101377043Y-98342043D01*
X101373983Y-98339139D01*
X101370557Y-98336677D01*
X101370552Y-98336673D01*
X101237086Y-98240769D01*
X101135866Y-98168035D01*
X101061811Y-98128825D01*
X100880456Y-98032802D01*
X100880453Y-98032800D01*
X100876731Y-98030830D01*
X100739052Y-97980447D01*
X100605327Y-97931510D01*
X100605323Y-97931509D01*
X100601372Y-97930063D01*
X100569093Y-97923025D01*
X100319006Y-97868497D01*
X100319002Y-97868496D01*
X100314886Y-97867599D01*
X100310682Y-97867268D01*
X100310681Y-97867268D01*
X100274468Y-97864418D01*
X100084920Y-97849500D01*
X99926290Y-97849500D01*
X99754792Y-97861191D01*
X99711671Y-97864131D01*
X99711670Y-97864131D01*
X99707462Y-97864418D01*
X99703334Y-97865273D01*
X99703333Y-97865273D01*
X99687765Y-97868497D01*
X99420337Y-97923879D01*
X99416369Y-97925284D01*
X99416366Y-97925285D01*
X99282137Y-97972818D01*
X99143938Y-98021757D01*
X98883380Y-98156241D01*
X98879929Y-98158666D01*
X98879928Y-98158667D01*
X98646941Y-98322412D01*
X98646937Y-98322415D01*
X98643484Y-98324842D01*
X98640391Y-98327716D01*
X98640390Y-98327717D01*
X98431783Y-98521567D01*
X98431777Y-98521573D01*
X98428690Y-98524442D01*
X98242972Y-98751345D01*
X98089766Y-99001354D01*
X98088071Y-99005214D01*
X98088069Y-99005219D01*
X98030837Y-99135598D01*
X97971908Y-99269842D01*
X97891578Y-99551841D01*
X97850264Y-99842133D01*
X97848728Y-100135347D01*
X96535500Y-100135347D01*
X96535500Y-96774500D01*
X96555185Y-96707461D01*
X96607989Y-96661706D01*
X96659500Y-96650500D01*
X126225500Y-96650500D01*
X126292539Y-96670185D01*
G37*
%TD.AperFunction*%
%TD*%
M02*
